<svg width="518" height="205" viewBox="0 0 518 205" fill="none" xmlns="http://www.w3.org/2000/svg">
<g clip-path="url(#clip0)">
<rect x="196.5" y="0.5" width="321" height="204" rx="8.5" fill="#F1F1F1"/>
<path d="M205.24 8.17969L207.796 14.5605L210.353 8.17969H211.69V16H210.659V12.9546L210.756 9.66748L208.188 16H207.399L204.837 9.68359L204.939 12.9546V16H203.908V8.17969H205.24ZM216.1 14.6304L218.334 8.17969H219.462L216.562 16H215.649L212.754 8.17969H213.876L216.1 14.6304ZM224.936 12.3853H221.546V15.1567H225.483V16H220.515V8.17969H225.43V9.02832H221.546V11.542H224.936V12.3853ZM231.8 12.5142C230.915 12.2599 230.271 11.9484 229.866 11.5796C229.465 11.2072 229.265 10.7489 229.265 10.2046C229.265 9.5887 229.51 9.08024 230 8.6792C230.495 8.27458 231.136 8.07227 231.923 8.07227C232.46 8.07227 232.938 8.17611 233.357 8.38379C233.78 8.59147 234.106 8.87793 234.335 9.24316C234.568 9.6084 234.684 10.0076 234.684 10.4409H233.647C233.647 9.96826 233.497 9.59766 233.196 9.3291C232.896 9.05697 232.471 8.9209 231.923 8.9209C231.415 8.9209 231.017 9.03369 230.731 9.25928C230.448 9.48128 230.307 9.79102 230.307 10.1885C230.307 10.5072 230.441 10.7775 230.709 10.9995C230.982 11.2179 231.442 11.4185 232.09 11.6011C232.742 11.7837 233.25 11.986 233.615 12.208C233.984 12.4264 234.256 12.6825 234.432 12.9761C234.611 13.2697 234.7 13.6152 234.7 14.0127C234.7 14.6465 234.453 15.1549 233.959 15.5381C233.465 15.9176 232.804 16.1074 231.977 16.1074C231.44 16.1074 230.939 16.0054 230.473 15.8013C230.008 15.5936 229.648 15.3107 229.394 14.9526C229.143 14.5946 229.018 14.1882 229.018 13.7334H230.054C230.054 14.2061 230.228 14.5802 230.575 14.856C230.926 15.1281 231.393 15.2642 231.977 15.2642C232.521 15.2642 232.938 15.1532 233.229 14.9312C233.519 14.7091 233.664 14.4066 233.664 14.0234C233.664 13.6403 233.529 13.3449 233.261 13.1372C232.992 12.9259 232.505 12.7183 231.8 12.5142ZM238.283 16.1074C237.495 16.1074 236.854 15.8496 236.36 15.334C235.866 14.8148 235.619 14.1219 235.619 13.2554V13.0728C235.619 12.4963 235.728 11.9824 235.946 11.5312C236.168 11.0765 236.476 10.722 236.87 10.4678C237.268 10.21 237.697 10.0811 238.159 10.0811C238.915 10.0811 239.502 10.3299 239.921 10.8276C240.34 11.3254 240.549 12.0379 240.549 12.9653V13.3789H236.612C236.627 13.9518 236.793 14.4155 237.112 14.77C237.434 15.1209 237.842 15.2964 238.336 15.2964C238.687 15.2964 238.985 15.2248 239.228 15.0815C239.472 14.9383 239.685 14.7485 239.867 14.5122L240.474 14.9849C239.987 15.7332 239.257 16.1074 238.283 16.1074ZM238.159 10.8975C237.758 10.8975 237.422 11.0443 237.149 11.3379C236.877 11.6279 236.709 12.0361 236.645 12.5625H239.556V12.4873C239.527 11.9824 239.391 11.5921 239.147 11.3164C238.904 11.0371 238.575 10.8975 238.159 10.8975ZM244.513 11.0801C244.363 11.055 244.2 11.0425 244.024 11.0425C243.373 11.0425 242.931 11.32 242.698 11.875V16H241.704V10.1885H242.671L242.687 10.8599C243.013 10.3407 243.475 10.0811 244.073 10.0811C244.266 10.0811 244.413 10.1061 244.513 10.1562V11.0801ZM247.446 14.6519L248.885 10.1885H249.9L247.816 16H247.059L244.954 10.1885H245.969L247.446 14.6519ZM253.193 16.1074C252.405 16.1074 251.764 15.8496 251.27 15.334C250.776 14.8148 250.529 14.1219 250.529 13.2554V13.0728C250.529 12.4963 250.638 11.9824 250.856 11.5312C251.078 11.0765 251.386 10.722 251.78 10.4678C252.178 10.21 252.607 10.0811 253.069 10.0811C253.825 10.0811 254.412 10.3299 254.831 10.8276C255.25 11.3254 255.459 12.0379 255.459 12.9653V13.3789H251.522C251.537 13.9518 251.703 14.4155 252.022 14.77C252.344 15.1209 252.752 15.2964 253.247 15.2964C253.597 15.2964 253.895 15.2248 254.138 15.0815C254.382 14.9383 254.595 14.7485 254.777 14.5122L255.384 14.9849C254.897 15.7332 254.167 16.1074 253.193 16.1074ZM253.069 10.8975C252.668 10.8975 252.332 11.0443 252.06 11.3379C251.787 11.6279 251.619 12.0361 251.555 12.5625H254.466V12.4873C254.437 11.9824 254.301 11.5921 254.058 11.3164C253.814 11.0371 253.485 10.8975 253.069 10.8975ZM259.423 11.0801C259.273 11.055 259.11 11.0425 258.935 11.0425C258.283 11.0425 257.841 11.32 257.608 11.875V16H256.614V10.1885H257.581L257.597 10.8599C257.923 10.3407 258.385 10.0811 258.983 10.0811C259.176 10.0811 259.323 10.1061 259.423 10.1562V11.0801Z" fill="black"/>
<rect x="196.5" y="0.5" width="321" height="204" rx="8.5" stroke="black"/>
<rect x="377.5" y="67.5" width="126" height="33" rx="6.5" fill="white"/>
<path d="M415.053 79.4688L417.842 86.4297L420.631 79.4688H422.09V88H420.965V84.6777L421.07 81.0918L418.27 88H417.408L414.613 81.1094L414.725 84.6777V88H413.6V79.4688H415.053ZM426.9 86.5059L429.338 79.4688H430.568L427.404 88H426.408L423.25 79.4688H424.475L426.9 86.5059ZM436.539 84.0566H432.842V87.0801H437.137V88H431.717V79.4688H437.078V80.3945H432.842V83.1367H436.539V84.0566ZM444.027 84.1973C443.062 83.9199 442.359 83.5801 441.918 83.1777C441.48 82.7715 441.262 82.2715 441.262 81.6777C441.262 81.0059 441.529 80.4512 442.064 80.0137C442.604 79.5723 443.303 79.3516 444.162 79.3516C444.748 79.3516 445.27 79.4648 445.727 79.6914C446.188 79.918 446.543 80.2305 446.793 80.6289C447.047 81.0273 447.174 81.4629 447.174 81.9355H446.043C446.043 81.4199 445.879 81.0156 445.551 80.7227C445.223 80.4258 444.76 80.2773 444.162 80.2773C443.607 80.2773 443.174 80.4004 442.861 80.6465C442.553 80.8887 442.398 81.2266 442.398 81.6602C442.398 82.0078 442.545 82.3027 442.838 82.5449C443.135 82.7832 443.637 83.002 444.344 83.2012C445.055 83.4004 445.609 83.6211 446.008 83.8633C446.41 84.1016 446.707 84.3809 446.898 84.7012C447.094 85.0215 447.191 85.3984 447.191 85.832C447.191 86.5234 446.922 87.0781 446.383 87.4961C445.844 87.9102 445.123 88.1172 444.221 88.1172C443.635 88.1172 443.088 88.0059 442.58 87.7832C442.072 87.5566 441.68 87.248 441.402 86.8574C441.129 86.4668 440.992 86.0234 440.992 85.5273H442.123C442.123 86.043 442.312 86.4512 442.691 86.752C443.074 87.0488 443.584 87.1973 444.221 87.1973C444.814 87.1973 445.27 87.0762 445.586 86.834C445.902 86.5918 446.061 86.2617 446.061 85.8438C446.061 85.4258 445.914 85.1035 445.621 84.877C445.328 84.6465 444.797 84.4199 444.027 84.1973ZM449.939 80.125V81.6602H451.123V82.498H449.939V86.4297C449.939 86.6836 449.992 86.875 450.098 87.0039C450.203 87.1289 450.383 87.1914 450.637 87.1914C450.762 87.1914 450.934 87.168 451.152 87.1211V88C450.867 88.0781 450.59 88.1172 450.32 88.1172C449.836 88.1172 449.471 87.9707 449.225 87.6777C448.979 87.3848 448.855 86.9688 448.855 86.4297V82.498H447.701V81.6602H448.855V80.125H449.939ZM456.309 88C456.246 87.875 456.195 87.6523 456.156 87.332C455.652 87.8555 455.051 88.1172 454.352 88.1172C453.727 88.1172 453.213 87.9414 452.811 87.5898C452.412 87.2344 452.213 86.7852 452.213 86.2422C452.213 85.582 452.463 85.0703 452.963 84.707C453.467 84.3398 454.174 84.1562 455.084 84.1562H456.139V83.6582C456.139 83.2793 456.025 82.9785 455.799 82.7559C455.572 82.5293 455.238 82.416 454.797 82.416C454.41 82.416 454.086 82.5137 453.824 82.709C453.562 82.9043 453.432 83.1406 453.432 83.418H452.342C452.342 83.1016 452.453 82.7969 452.676 82.5039C452.902 82.207 453.207 81.9727 453.59 81.8008C453.977 81.6289 454.4 81.543 454.861 81.543C455.592 81.543 456.164 81.7266 456.578 82.0938C456.992 82.457 457.207 82.959 457.223 83.5996V86.5176C457.223 87.0996 457.297 87.5625 457.445 87.9062V88H456.309ZM454.51 87.1738C454.85 87.1738 455.172 87.0859 455.477 86.9102C455.781 86.7344 456.002 86.5059 456.139 86.2246V84.9238H455.289C453.961 84.9238 453.297 85.3125 453.297 86.0898C453.297 86.4297 453.41 86.6953 453.637 86.8867C453.863 87.0781 454.154 87.1738 454.51 87.1738ZM460.393 80.125V81.6602H461.576V82.498H460.393V86.4297C460.393 86.6836 460.445 86.875 460.551 87.0039C460.656 87.1289 460.836 87.1914 461.09 87.1914C461.215 87.1914 461.387 87.168 461.605 87.1211V88C461.32 88.0781 461.043 88.1172 460.773 88.1172C460.289 88.1172 459.924 87.9707 459.678 87.6777C459.432 87.3848 459.309 86.9688 459.309 86.4297V82.498H458.154V81.6602H459.309V80.125H460.393ZM465.479 88.1172C464.619 88.1172 463.92 87.8359 463.381 87.2734C462.842 86.707 462.572 85.9512 462.572 85.0059V84.8066C462.572 84.1777 462.691 83.6172 462.93 83.125C463.172 82.6289 463.508 82.2422 463.938 81.9648C464.371 81.6836 464.84 81.543 465.344 81.543C466.168 81.543 466.809 81.8145 467.266 82.3574C467.723 82.9004 467.951 83.6777 467.951 84.6895V85.1406H463.656C463.672 85.7656 463.854 86.2715 464.201 86.6582C464.553 87.041 464.998 87.2324 465.537 87.2324C465.92 87.2324 466.244 87.1543 466.51 86.998C466.775 86.8418 467.008 86.6348 467.207 86.377L467.869 86.8926C467.338 87.709 466.541 88.1172 465.479 88.1172ZM465.344 82.4336C464.906 82.4336 464.539 82.5938 464.242 82.9141C463.945 83.2305 463.762 83.6758 463.691 84.25H466.867V84.168C466.836 83.6172 466.688 83.1914 466.422 82.8906C466.156 82.5859 465.797 82.4336 465.344 82.4336Z" fill="black"/>
<rect x="377.5" y="67.5" width="126" height="33" rx="6.5" stroke="black"/>
<rect x="207.5" y="22.5" width="146" height="33" rx="6.5" fill="white"/>
<path d="M257.479 43H256.348L252.053 36.4258V43H250.922V34.4688H252.053L256.359 41.0723V34.4688H257.479V43ZM261.938 43.1172C261.078 43.1172 260.379 42.8359 259.84 42.2734C259.301 41.707 259.031 40.9512 259.031 40.0059V39.8066C259.031 39.1777 259.15 38.6172 259.389 38.125C259.631 37.6289 259.967 37.2422 260.396 36.9648C260.83 36.6836 261.299 36.543 261.803 36.543C262.627 36.543 263.268 36.8145 263.725 37.3574C264.182 37.9004 264.41 38.6777 264.41 39.6895V40.1406H260.115C260.131 40.7656 260.312 41.2715 260.66 41.6582C261.012 42.041 261.457 42.2324 261.996 42.2324C262.379 42.2324 262.703 42.1543 262.969 41.998C263.234 41.8418 263.467 41.6348 263.666 41.377L264.328 41.8926C263.797 42.709 263 43.1172 261.938 43.1172ZM261.803 37.4336C261.365 37.4336 260.998 37.5938 260.701 37.9141C260.404 38.2305 260.221 38.6758 260.15 39.25H263.326V39.168C263.295 38.6172 263.146 38.1914 262.881 37.8906C262.615 37.5859 262.256 37.4336 261.803 37.4336ZM267.141 35.125V36.6602H268.324V37.498H267.141V41.4297C267.141 41.6836 267.193 41.875 267.299 42.0039C267.404 42.1289 267.584 42.1914 267.838 42.1914C267.963 42.1914 268.135 42.168 268.354 42.1211V43C268.068 43.0781 267.791 43.1172 267.521 43.1172C267.037 43.1172 266.672 42.9707 266.426 42.6777C266.18 42.3848 266.057 41.9688 266.057 41.4297V37.498H264.902V36.6602H266.057V35.125H267.141ZM275.209 41.5059L276.428 36.6602H277.512L275.666 43H274.787L273.246 38.1953L271.746 43H270.867L269.027 36.6602H270.105L271.354 41.4062L272.83 36.6602H273.703L275.209 41.5059ZM278.332 39.7715C278.332 39.1504 278.453 38.5918 278.695 38.0957C278.941 37.5996 279.281 37.2168 279.715 36.9473C280.152 36.6777 280.65 36.543 281.209 36.543C282.072 36.543 282.77 36.8418 283.301 37.4395C283.836 38.0371 284.104 38.832 284.104 39.8242V39.9004C284.104 40.5176 283.984 41.0723 283.746 41.5645C283.512 42.0527 283.174 42.4336 282.732 42.707C282.295 42.9805 281.791 43.1172 281.221 43.1172C280.361 43.1172 279.664 42.8184 279.129 42.2207C278.598 41.623 278.332 40.832 278.332 39.8477V39.7715ZM279.422 39.9004C279.422 40.6035 279.584 41.168 279.908 41.5938C280.236 42.0195 280.674 42.2324 281.221 42.2324C281.771 42.2324 282.209 42.0176 282.533 41.5879C282.857 41.1543 283.02 40.5488 283.02 39.7715C283.02 39.0762 282.854 38.5137 282.521 38.084C282.193 37.6504 281.756 37.4336 281.209 37.4336C280.674 37.4336 280.242 37.6465 279.914 38.0723C279.586 38.498 279.422 39.1074 279.422 39.9004ZM288.527 37.6328C288.363 37.6055 288.186 37.5918 287.994 37.5918C287.283 37.5918 286.801 37.8945 286.547 38.5V43H285.463V36.6602H286.518L286.535 37.3926C286.891 36.8262 287.395 36.543 288.047 36.543C288.258 36.543 288.418 36.5703 288.527 36.625V37.6328ZM291.299 40.0645L290.619 40.7734V43H289.535V34H290.619V39.4434L291.199 38.7461L293.174 36.6602H294.492L292.025 39.3086L294.779 43H293.508L291.299 40.0645ZM296.789 43H295.705V36.6602H296.789V43ZM295.617 34.9785C295.617 34.8027 295.67 34.6543 295.775 34.5332C295.885 34.4121 296.045 34.3516 296.256 34.3516C296.467 34.3516 296.627 34.4121 296.736 34.5332C296.846 34.6543 296.9 34.8027 296.9 34.9785C296.9 35.1543 296.846 35.3008 296.736 35.418C296.627 35.5352 296.467 35.5938 296.256 35.5938C296.045 35.5938 295.885 35.5352 295.775 35.418C295.67 35.3008 295.617 35.1543 295.617 34.9785ZM299.555 36.6602L299.59 37.457C300.074 36.8477 300.707 36.543 301.488 36.543C302.828 36.543 303.504 37.2988 303.516 38.8105V43H302.432V38.8047C302.428 38.3477 302.322 38.0098 302.115 37.791C301.912 37.5723 301.594 37.4629 301.16 37.4629C300.809 37.4629 300.5 37.5566 300.234 37.7441C299.969 37.9316 299.762 38.1777 299.613 38.4824V43H298.529V36.6602H299.555ZM304.893 39.7773C304.893 38.7891 305.121 38.0039 305.578 37.4219C306.035 36.8359 306.641 36.543 307.395 36.543C308.168 36.543 308.771 36.8164 309.205 37.3633L309.258 36.6602H310.248V42.8477C310.248 43.668 310.004 44.3145 309.516 44.7871C309.031 45.2598 308.379 45.4961 307.559 45.4961C307.102 45.4961 306.654 45.3984 306.217 45.2031C305.779 45.0078 305.445 44.7402 305.215 44.4004L305.777 43.75C306.242 44.3242 306.811 44.6113 307.482 44.6113C308.01 44.6113 308.42 44.4629 308.713 44.166C309.01 43.8691 309.158 43.4512 309.158 42.9121V42.3672C308.725 42.8672 308.133 43.1172 307.383 43.1172C306.641 43.1172 306.039 42.8184 305.578 42.2207C305.121 41.623 304.893 40.8086 304.893 39.7773ZM305.982 39.9004C305.982 40.6152 306.129 41.1777 306.422 41.5879C306.715 41.9941 307.125 42.1973 307.652 42.1973C308.336 42.1973 308.838 41.8867 309.158 41.2656V38.3711C308.826 37.7656 308.328 37.4629 307.664 37.4629C307.137 37.4629 306.725 37.668 306.428 38.0781C306.131 38.4883 305.982 39.0957 305.982 39.9004Z" fill="black"/>
<rect x="207.5" y="22.5" width="146" height="33" rx="6.5" stroke="black"/>
<rect x="377.5" y="162.5" width="126" height="33" rx="6.5" fill="white"/>
<path d="M390.396 179.197C389.432 178.92 388.729 178.58 388.287 178.178C387.85 177.771 387.631 177.271 387.631 176.678C387.631 176.006 387.898 175.451 388.434 175.014C388.973 174.572 389.672 174.352 390.531 174.352C391.117 174.352 391.639 174.465 392.096 174.691C392.557 174.918 392.912 175.23 393.162 175.629C393.416 176.027 393.543 176.463 393.543 176.936H392.412C392.412 176.42 392.248 176.016 391.92 175.723C391.592 175.426 391.129 175.277 390.531 175.277C389.977 175.277 389.543 175.4 389.23 175.646C388.922 175.889 388.768 176.227 388.768 176.66C388.768 177.008 388.914 177.303 389.207 177.545C389.504 177.783 390.006 178.002 390.713 178.201C391.424 178.4 391.979 178.621 392.377 178.863C392.779 179.102 393.076 179.381 393.268 179.701C393.463 180.021 393.561 180.398 393.561 180.832C393.561 181.523 393.291 182.078 392.752 182.496C392.213 182.91 391.492 183.117 390.59 183.117C390.004 183.117 389.457 183.006 388.949 182.783C388.441 182.557 388.049 182.248 387.771 181.857C387.498 181.467 387.361 181.023 387.361 180.527H388.492C388.492 181.043 388.682 181.451 389.061 181.752C389.443 182.049 389.953 182.197 390.59 182.197C391.184 182.197 391.639 182.076 391.955 181.834C392.271 181.592 392.43 181.262 392.43 180.844C392.43 180.426 392.283 180.104 391.99 179.877C391.697 179.646 391.166 179.42 390.396 179.197ZM397.469 183.117C396.609 183.117 395.91 182.836 395.371 182.273C394.832 181.707 394.562 180.951 394.562 180.006V179.807C394.562 179.178 394.682 178.617 394.92 178.125C395.162 177.629 395.498 177.242 395.928 176.965C396.361 176.684 396.83 176.543 397.334 176.543C398.158 176.543 398.799 176.814 399.256 177.357C399.713 177.9 399.941 178.678 399.941 179.689V180.141H395.646C395.662 180.766 395.844 181.271 396.191 181.658C396.543 182.041 396.988 182.232 397.527 182.232C397.91 182.232 398.234 182.154 398.5 181.998C398.766 181.842 398.998 181.635 399.197 181.377L399.859 181.893C399.328 182.709 398.531 183.117 397.469 183.117ZM397.334 177.434C396.896 177.434 396.529 177.594 396.232 177.914C395.936 178.23 395.752 178.676 395.682 179.25H398.857V179.168C398.826 178.617 398.678 178.191 398.412 177.891C398.146 177.586 397.787 177.434 397.334 177.434ZM404.266 177.633C404.102 177.605 403.924 177.592 403.732 177.592C403.021 177.592 402.539 177.895 402.285 178.5V183H401.201V176.66H402.256L402.273 177.393C402.629 176.826 403.133 176.543 403.785 176.543C403.996 176.543 404.156 176.57 404.266 176.625V177.633ZM407.465 181.529L409.035 176.66H410.143L407.869 183H407.043L404.746 176.66H405.854L407.465 181.529ZM413.734 183.117C412.875 183.117 412.176 182.836 411.637 182.273C411.098 181.707 410.828 180.951 410.828 180.006V179.807C410.828 179.178 410.947 178.617 411.186 178.125C411.428 177.629 411.764 177.242 412.193 176.965C412.627 176.684 413.096 176.543 413.6 176.543C414.424 176.543 415.064 176.814 415.521 177.357C415.979 177.9 416.207 178.678 416.207 179.689V180.141H411.912C411.928 180.766 412.109 181.271 412.457 181.658C412.809 182.041 413.254 182.232 413.793 182.232C414.176 182.232 414.5 182.154 414.766 181.998C415.031 181.842 415.264 181.635 415.463 181.377L416.125 181.893C415.594 182.709 414.797 183.117 413.734 183.117ZM413.6 177.434C413.162 177.434 412.795 177.594 412.498 177.914C412.201 178.23 412.018 178.676 411.947 179.25H415.123V179.168C415.092 178.617 414.943 178.191 414.678 177.891C414.412 177.586 414.053 177.434 413.6 177.434ZM420.531 177.633C420.367 177.605 420.189 177.592 419.998 177.592C419.287 177.592 418.805 177.895 418.551 178.5V183H417.467V176.66H418.521L418.539 177.393C418.895 176.826 419.398 176.543 420.051 176.543C420.262 176.543 420.422 176.57 420.531 176.625V177.633ZM427.053 182.232C427.439 182.232 427.777 182.115 428.066 181.881C428.355 181.646 428.516 181.354 428.547 181.002H429.572C429.553 181.365 429.428 181.711 429.197 182.039C428.967 182.367 428.658 182.629 428.271 182.824C427.889 183.02 427.482 183.117 427.053 183.117C426.189 183.117 425.502 182.83 424.99 182.256C424.482 181.678 424.229 180.889 424.229 179.889V179.707C424.229 179.09 424.342 178.541 424.568 178.061C424.795 177.58 425.119 177.207 425.541 176.941C425.967 176.676 426.469 176.543 427.047 176.543C427.758 176.543 428.348 176.756 428.816 177.182C429.289 177.607 429.541 178.16 429.572 178.84H428.547C428.516 178.43 428.359 178.094 428.078 177.832C427.801 177.566 427.457 177.434 427.047 177.434C426.496 177.434 426.068 177.633 425.764 178.031C425.463 178.426 425.312 178.998 425.312 179.748V179.953C425.312 180.684 425.463 181.246 425.764 181.641C426.064 182.035 426.494 182.232 427.053 182.232ZM430.504 179.771C430.504 179.15 430.625 178.592 430.867 178.096C431.113 177.6 431.453 177.217 431.887 176.947C432.324 176.678 432.822 176.543 433.381 176.543C434.244 176.543 434.941 176.842 435.473 177.439C436.008 178.037 436.275 178.832 436.275 179.824V179.9C436.275 180.518 436.156 181.072 435.918 181.564C435.684 182.053 435.346 182.434 434.904 182.707C434.467 182.98 433.963 183.117 433.393 183.117C432.533 183.117 431.836 182.818 431.301 182.221C430.77 181.623 430.504 180.832 430.504 179.848V179.771ZM431.594 179.9C431.594 180.604 431.756 181.168 432.08 181.594C432.408 182.02 432.846 182.232 433.393 182.232C433.943 182.232 434.381 182.018 434.705 181.588C435.029 181.154 435.191 180.549 435.191 179.771C435.191 179.076 435.025 178.514 434.693 178.084C434.365 177.65 433.928 177.434 433.381 177.434C432.846 177.434 432.414 177.646 432.086 178.072C431.758 178.498 431.594 179.107 431.594 179.9ZM438.66 176.66L438.695 177.457C439.18 176.848 439.812 176.543 440.594 176.543C441.934 176.543 442.609 177.299 442.621 178.811V183H441.537V178.805C441.533 178.348 441.428 178.01 441.221 177.791C441.018 177.572 440.699 177.463 440.266 177.463C439.914 177.463 439.605 177.557 439.34 177.744C439.074 177.932 438.867 178.178 438.719 178.482V183H437.635V176.66H438.66ZM444.619 183V177.498H443.617V176.66H444.619V176.121C444.619 175.414 444.82 174.863 445.223 174.469C445.629 174.074 446.201 173.877 446.939 173.877C447.377 173.877 447.93 173.996 448.598 174.234L448.416 175.148C447.928 174.953 447.463 174.855 447.021 174.855C446.557 174.855 446.221 174.961 446.014 175.172C445.811 175.379 445.709 175.691 445.709 176.109V176.66H447.004V177.498H445.709V183H444.619ZM449.137 183H448.047V176.66H449.137V183ZM450.643 179.777C450.643 178.789 450.871 178.004 451.328 177.422C451.785 176.836 452.391 176.543 453.145 176.543C453.918 176.543 454.521 176.816 454.955 177.363L455.008 176.66H455.998V182.848C455.998 183.668 455.754 184.314 455.266 184.787C454.781 185.26 454.129 185.496 453.309 185.496C452.852 185.496 452.404 185.398 451.967 185.203C451.529 185.008 451.195 184.74 450.965 184.4L451.527 183.75C451.992 184.324 452.561 184.611 453.232 184.611C453.76 184.611 454.17 184.463 454.463 184.166C454.76 183.869 454.908 183.451 454.908 182.912V182.367C454.475 182.867 453.883 183.117 453.133 183.117C452.391 183.117 451.789 182.818 451.328 182.221C450.871 181.623 450.643 180.809 450.643 179.777ZM451.732 179.9C451.732 180.615 451.879 181.178 452.172 181.588C452.465 181.994 452.875 182.197 453.402 182.197C454.086 182.197 454.588 181.887 454.908 181.266V178.371C454.576 177.766 454.078 177.463 453.414 177.463C452.887 177.463 452.475 177.668 452.178 178.078C451.881 178.488 451.732 179.096 451.732 179.9ZM461.553 182.373C461.131 182.869 460.512 183.117 459.695 183.117C459.02 183.117 458.504 182.922 458.148 182.531C457.797 182.137 457.619 181.555 457.615 180.785V176.66H458.699V180.756C458.699 181.717 459.09 182.197 459.871 182.197C460.699 182.197 461.25 181.889 461.523 181.271V176.66H462.607V183H461.576L461.553 182.373ZM467.324 177.633C467.16 177.605 466.982 177.592 466.791 177.592C466.08 177.592 465.598 177.895 465.344 178.5V183H464.26V176.66H465.314L465.332 177.393C465.688 176.826 466.191 176.543 466.844 176.543C467.055 176.543 467.215 176.57 467.324 176.625V177.633ZM472.006 183C471.943 182.875 471.893 182.652 471.854 182.332C471.35 182.855 470.748 183.117 470.049 183.117C469.424 183.117 468.91 182.941 468.508 182.59C468.109 182.234 467.91 181.785 467.91 181.242C467.91 180.582 468.16 180.07 468.66 179.707C469.164 179.34 469.871 179.156 470.781 179.156H471.836V178.658C471.836 178.279 471.723 177.979 471.496 177.756C471.27 177.529 470.936 177.416 470.494 177.416C470.107 177.416 469.783 177.514 469.521 177.709C469.26 177.904 469.129 178.141 469.129 178.418H468.039C468.039 178.102 468.15 177.797 468.373 177.504C468.6 177.207 468.904 176.973 469.287 176.801C469.674 176.629 470.098 176.543 470.559 176.543C471.289 176.543 471.861 176.727 472.275 177.094C472.689 177.457 472.904 177.959 472.92 178.6V181.518C472.92 182.1 472.994 182.562 473.143 182.906V183H472.006ZM470.207 182.174C470.547 182.174 470.869 182.086 471.174 181.91C471.479 181.734 471.699 181.506 471.836 181.225V179.924H470.986C469.658 179.924 468.994 180.312 468.994 181.09C468.994 181.43 469.107 181.695 469.334 181.887C469.561 182.078 469.852 182.174 470.207 182.174ZM476.09 175.125V176.66H477.273V177.498H476.09V181.43C476.09 181.684 476.143 181.875 476.248 182.004C476.354 182.129 476.533 182.191 476.787 182.191C476.912 182.191 477.084 182.168 477.303 182.121V183C477.018 183.078 476.74 183.117 476.471 183.117C475.986 183.117 475.621 182.971 475.375 182.678C475.129 182.385 475.006 181.969 475.006 181.43V177.498H473.852V176.66H475.006V175.125H476.09ZM479.723 183H478.639V176.66H479.723V183ZM478.551 174.979C478.551 174.803 478.604 174.654 478.709 174.533C478.818 174.412 478.979 174.352 479.189 174.352C479.4 174.352 479.561 174.412 479.67 174.533C479.779 174.654 479.834 174.803 479.834 174.979C479.834 175.154 479.779 175.301 479.67 175.418C479.561 175.535 479.4 175.594 479.189 175.594C478.979 175.594 478.818 175.535 478.709 175.418C478.604 175.301 478.551 175.154 478.551 174.979ZM481.176 179.771C481.176 179.15 481.297 178.592 481.539 178.096C481.785 177.6 482.125 177.217 482.559 176.947C482.996 176.678 483.494 176.543 484.053 176.543C484.916 176.543 485.613 176.842 486.145 177.439C486.68 178.037 486.947 178.832 486.947 179.824V179.9C486.947 180.518 486.828 181.072 486.59 181.564C486.355 182.053 486.018 182.434 485.576 182.707C485.139 182.98 484.635 183.117 484.064 183.117C483.205 183.117 482.508 182.818 481.973 182.221C481.441 181.623 481.176 180.832 481.176 179.848V179.771ZM482.266 179.9C482.266 180.604 482.428 181.168 482.752 181.594C483.08 182.02 483.518 182.232 484.064 182.232C484.615 182.232 485.053 182.018 485.377 181.588C485.701 181.154 485.863 180.549 485.863 179.771C485.863 179.076 485.697 178.514 485.365 178.084C485.037 177.65 484.6 177.434 484.053 177.434C483.518 177.434 483.086 177.646 482.758 178.072C482.43 178.498 482.266 179.107 482.266 179.9ZM489.332 176.66L489.367 177.457C489.852 176.848 490.484 176.543 491.266 176.543C492.605 176.543 493.281 177.299 493.293 178.811V183H492.209V178.805C492.205 178.348 492.1 178.01 491.893 177.791C491.689 177.572 491.371 177.463 490.938 177.463C490.586 177.463 490.277 177.557 490.012 177.744C489.746 177.932 489.539 178.178 489.391 178.482V183H488.307V176.66H489.332Z" fill="black"/>
<rect x="377.5" y="162.5" width="126" height="33" rx="6.5" stroke="black"/>
<rect x="377.5" y="114.5" width="126" height="33" rx="6.5" fill="white"/>
<path d="M393.953 131.66V135H392.828V126.469H395.975C396.908 126.469 397.639 126.707 398.166 127.184C398.697 127.66 398.963 128.291 398.963 129.076C398.963 129.904 398.703 130.543 398.184 130.992C397.668 131.438 396.928 131.66 395.963 131.66H393.953ZM393.953 130.74H395.975C396.576 130.74 397.037 130.6 397.357 130.318C397.678 130.033 397.838 129.623 397.838 129.088C397.838 128.58 397.678 128.174 397.357 127.869C397.037 127.564 396.598 127.406 396.039 127.395H393.953V130.74ZM402.777 135.117C401.918 135.117 401.219 134.836 400.68 134.273C400.141 133.707 399.871 132.951 399.871 132.006V131.807C399.871 131.178 399.99 130.617 400.229 130.125C400.471 129.629 400.807 129.242 401.236 128.965C401.67 128.684 402.139 128.543 402.643 128.543C403.467 128.543 404.107 128.814 404.564 129.357C405.021 129.9 405.25 130.678 405.25 131.689V132.141H400.955C400.971 132.766 401.152 133.271 401.5 133.658C401.852 134.041 402.297 134.232 402.836 134.232C403.219 134.232 403.543 134.154 403.809 133.998C404.074 133.842 404.307 133.635 404.506 133.377L405.168 133.893C404.637 134.709 403.84 135.117 402.777 135.117ZM402.643 129.434C402.205 129.434 401.838 129.594 401.541 129.914C401.244 130.23 401.061 130.676 400.99 131.25H404.166V131.168C404.135 130.617 403.986 130.191 403.721 129.891C403.455 129.586 403.096 129.434 402.643 129.434ZM409.574 129.633C409.41 129.605 409.232 129.592 409.041 129.592C408.33 129.592 407.848 129.895 407.594 130.5V135H406.51V128.66H407.564L407.582 129.393C407.938 128.826 408.441 128.543 409.094 128.543C409.305 128.543 409.465 128.57 409.574 128.625V129.633ZM414.268 133.318C414.268 133.025 414.156 132.799 413.934 132.639C413.715 132.475 413.33 132.334 412.779 132.217C412.232 132.1 411.797 131.959 411.473 131.795C411.152 131.631 410.914 131.436 410.758 131.209C410.605 130.982 410.529 130.713 410.529 130.4C410.529 129.881 410.748 129.441 411.186 129.082C411.627 128.723 412.189 128.543 412.873 128.543C413.592 128.543 414.174 128.729 414.619 129.1C415.068 129.471 415.293 129.945 415.293 130.523H414.203C414.203 130.227 414.076 129.971 413.822 129.756C413.572 129.541 413.256 129.434 412.873 129.434C412.479 129.434 412.17 129.52 411.947 129.691C411.725 129.863 411.613 130.088 411.613 130.365C411.613 130.627 411.717 130.824 411.924 130.957C412.131 131.09 412.504 131.217 413.043 131.338C413.586 131.459 414.025 131.604 414.361 131.771C414.697 131.939 414.945 132.143 415.105 132.381C415.27 132.615 415.352 132.902 415.352 133.242C415.352 133.809 415.125 134.264 414.672 134.607C414.219 134.947 413.631 135.117 412.908 135.117C412.4 135.117 411.951 135.027 411.561 134.848C411.17 134.668 410.863 134.418 410.641 134.098C410.422 133.773 410.312 133.424 410.312 133.049H411.396C411.416 133.412 411.561 133.701 411.83 133.916C412.104 134.127 412.463 134.232 412.908 134.232C413.318 134.232 413.646 134.15 413.893 133.986C414.143 133.818 414.268 133.596 414.268 133.318ZM417.941 135H416.857V128.66H417.941V135ZM416.77 126.979C416.77 126.803 416.822 126.654 416.928 126.533C417.037 126.412 417.197 126.352 417.408 126.352C417.619 126.352 417.779 126.412 417.889 126.533C417.998 126.654 418.053 126.803 418.053 126.979C418.053 127.154 417.998 127.301 417.889 127.418C417.779 127.535 417.619 127.594 417.408 127.594C417.197 127.594 417.037 127.535 416.928 127.418C416.822 127.301 416.77 127.154 416.77 126.979ZM423.373 133.318C423.373 133.025 423.262 132.799 423.039 132.639C422.82 132.475 422.436 132.334 421.885 132.217C421.338 132.1 420.902 131.959 420.578 131.795C420.258 131.631 420.02 131.436 419.863 131.209C419.711 130.982 419.635 130.713 419.635 130.4C419.635 129.881 419.854 129.441 420.291 129.082C420.732 128.723 421.295 128.543 421.979 128.543C422.697 128.543 423.279 128.729 423.725 129.1C424.174 129.471 424.398 129.945 424.398 130.523H423.309C423.309 130.227 423.182 129.971 422.928 129.756C422.678 129.541 422.361 129.434 421.979 129.434C421.584 129.434 421.275 129.52 421.053 129.691C420.83 129.863 420.719 130.088 420.719 130.365C420.719 130.627 420.822 130.824 421.029 130.957C421.236 131.09 421.609 131.217 422.148 131.338C422.691 131.459 423.131 131.604 423.467 131.771C423.803 131.939 424.051 132.143 424.211 132.381C424.375 132.615 424.457 132.902 424.457 133.242C424.457 133.809 424.23 134.264 423.777 134.607C423.324 134.947 422.736 135.117 422.014 135.117C421.506 135.117 421.057 135.027 420.666 134.848C420.275 134.668 419.969 134.418 419.746 134.098C419.527 133.773 419.418 133.424 419.418 133.049H420.502C420.521 133.412 420.666 133.701 420.936 133.916C421.209 134.127 421.568 134.232 422.014 134.232C422.424 134.232 422.752 134.15 422.998 133.986C423.248 133.818 423.373 133.596 423.373 133.318ZM427.34 127.125V128.66H428.523V129.498H427.34V133.43C427.34 133.684 427.393 133.875 427.498 134.004C427.604 134.129 427.783 134.191 428.037 134.191C428.162 134.191 428.334 134.168 428.553 134.121V135C428.268 135.078 427.99 135.117 427.721 135.117C427.236 135.117 426.871 134.971 426.625 134.678C426.379 134.385 426.256 133.969 426.256 133.43V129.498H425.102V128.66H426.256V127.125H427.34ZM432.426 135.117C431.566 135.117 430.867 134.836 430.328 134.273C429.789 133.707 429.52 132.951 429.52 132.006V131.807C429.52 131.178 429.639 130.617 429.877 130.125C430.119 129.629 430.455 129.242 430.885 128.965C431.318 128.684 431.787 128.543 432.291 128.543C433.115 128.543 433.756 128.814 434.213 129.357C434.67 129.9 434.898 130.678 434.898 131.689V132.141H430.604C430.619 132.766 430.801 133.271 431.148 133.658C431.5 134.041 431.945 134.232 432.484 134.232C432.867 134.232 433.191 134.154 433.457 133.998C433.723 133.842 433.955 133.635 434.154 133.377L434.816 133.893C434.285 134.709 433.488 135.117 432.426 135.117ZM432.291 129.434C431.854 129.434 431.486 129.594 431.189 129.914C430.893 130.23 430.709 130.676 430.639 131.25H433.814V131.168C433.783 130.617 433.635 130.191 433.369 129.891C433.104 129.586 432.744 129.434 432.291 129.434ZM437.184 128.66L437.219 129.457C437.703 128.848 438.336 128.543 439.117 128.543C440.457 128.543 441.133 129.299 441.145 130.811V135H440.061V130.805C440.057 130.348 439.951 130.01 439.744 129.791C439.541 129.572 439.223 129.463 438.789 129.463C438.438 129.463 438.129 129.557 437.863 129.744C437.598 129.932 437.391 130.178 437.242 130.482V135H436.158V128.66H437.184ZM444.25 127.125V128.66H445.434V129.498H444.25V133.43C444.25 133.684 444.303 133.875 444.408 134.004C444.514 134.129 444.693 134.191 444.947 134.191C445.072 134.191 445.244 134.168 445.463 134.121V135C445.178 135.078 444.9 135.117 444.631 135.117C444.146 135.117 443.781 134.971 443.535 134.678C443.289 134.385 443.166 133.969 443.166 133.43V129.498H442.012V128.66H443.166V127.125H444.25ZM453.373 133.318C453.373 133.025 453.262 132.799 453.039 132.639C452.82 132.475 452.436 132.334 451.885 132.217C451.338 132.1 450.902 131.959 450.578 131.795C450.258 131.631 450.02 131.436 449.863 131.209C449.711 130.982 449.635 130.713 449.635 130.4C449.635 129.881 449.854 129.441 450.291 129.082C450.732 128.723 451.295 128.543 451.979 128.543C452.697 128.543 453.279 128.729 453.725 129.1C454.174 129.471 454.398 129.945 454.398 130.523H453.309C453.309 130.227 453.182 129.971 452.928 129.756C452.678 129.541 452.361 129.434 451.979 129.434C451.584 129.434 451.275 129.52 451.053 129.691C450.83 129.863 450.719 130.088 450.719 130.365C450.719 130.627 450.822 130.824 451.029 130.957C451.236 131.09 451.609 131.217 452.148 131.338C452.691 131.459 453.131 131.604 453.467 131.771C453.803 131.939 454.051 132.143 454.211 132.381C454.375 132.615 454.457 132.902 454.457 133.242C454.457 133.809 454.23 134.264 453.777 134.607C453.324 134.947 452.736 135.117 452.014 135.117C451.506 135.117 451.057 135.027 450.666 134.848C450.275 134.668 449.969 134.418 449.746 134.098C449.527 133.773 449.418 133.424 449.418 133.049H450.502C450.521 133.412 450.666 133.701 450.936 133.916C451.209 134.127 451.568 134.232 452.014 134.232C452.424 134.232 452.752 134.15 452.998 133.986C453.248 133.818 453.373 133.596 453.373 133.318ZM457.34 127.125V128.66H458.523V129.498H457.34V133.43C457.34 133.684 457.393 133.875 457.498 134.004C457.604 134.129 457.783 134.191 458.037 134.191C458.162 134.191 458.334 134.168 458.553 134.121V135C458.268 135.078 457.99 135.117 457.721 135.117C457.236 135.117 456.871 134.971 456.625 134.678C456.379 134.385 456.256 133.969 456.256 133.43V129.498H455.102V128.66H456.256V127.125H457.34ZM459.391 131.771C459.391 131.15 459.512 130.592 459.754 130.096C460 129.6 460.34 129.217 460.773 128.947C461.211 128.678 461.709 128.543 462.268 128.543C463.131 128.543 463.828 128.842 464.359 129.439C464.895 130.037 465.162 130.832 465.162 131.824V131.9C465.162 132.518 465.043 133.072 464.805 133.564C464.57 134.053 464.232 134.434 463.791 134.707C463.354 134.98 462.85 135.117 462.279 135.117C461.42 135.117 460.723 134.818 460.188 134.221C459.656 133.623 459.391 132.832 459.391 131.848V131.771ZM460.48 131.9C460.48 132.604 460.643 133.168 460.967 133.594C461.295 134.02 461.732 134.232 462.279 134.232C462.83 134.232 463.268 134.018 463.592 133.588C463.916 133.154 464.078 132.549 464.078 131.771C464.078 131.076 463.912 130.514 463.58 130.084C463.252 129.65 462.814 129.434 462.268 129.434C461.732 129.434 461.301 129.646 460.973 130.072C460.645 130.498 460.48 131.107 460.48 131.9ZM469.586 129.633C469.422 129.605 469.244 129.592 469.053 129.592C468.342 129.592 467.859 129.895 467.605 130.5V135H466.521V128.66H467.576L467.594 129.393C467.949 128.826 468.453 128.543 469.105 128.543C469.316 128.543 469.477 128.57 469.586 128.625V129.633ZM474.268 135C474.205 134.875 474.154 134.652 474.115 134.332C473.611 134.855 473.01 135.117 472.311 135.117C471.686 135.117 471.172 134.941 470.77 134.59C470.371 134.234 470.172 133.785 470.172 133.242C470.172 132.582 470.422 132.07 470.922 131.707C471.426 131.34 472.133 131.156 473.043 131.156H474.098V130.658C474.098 130.279 473.984 129.979 473.758 129.756C473.531 129.529 473.197 129.416 472.756 129.416C472.369 129.416 472.045 129.514 471.783 129.709C471.521 129.904 471.391 130.141 471.391 130.418H470.301C470.301 130.102 470.412 129.797 470.635 129.504C470.861 129.207 471.166 128.973 471.549 128.801C471.936 128.629 472.359 128.543 472.82 128.543C473.551 128.543 474.123 128.727 474.537 129.094C474.951 129.457 475.166 129.959 475.182 130.6V133.518C475.182 134.1 475.256 134.562 475.404 134.906V135H474.268ZM472.469 134.174C472.809 134.174 473.131 134.086 473.436 133.91C473.74 133.734 473.961 133.506 474.098 133.225V131.924H473.248C471.92 131.924 471.256 132.312 471.256 133.09C471.256 133.43 471.369 133.695 471.596 133.887C471.822 134.078 472.113 134.174 472.469 134.174ZM476.623 131.777C476.623 130.789 476.852 130.004 477.309 129.422C477.766 128.836 478.371 128.543 479.125 128.543C479.898 128.543 480.502 128.816 480.936 129.363L480.988 128.66H481.979V134.848C481.979 135.668 481.734 136.314 481.246 136.787C480.762 137.26 480.109 137.496 479.289 137.496C478.832 137.496 478.385 137.398 477.947 137.203C477.51 137.008 477.176 136.74 476.945 136.4L477.508 135.75C477.973 136.324 478.541 136.611 479.213 136.611C479.74 136.611 480.15 136.463 480.443 136.166C480.74 135.869 480.889 135.451 480.889 134.912V134.367C480.455 134.867 479.863 135.117 479.113 135.117C478.371 135.117 477.77 134.818 477.309 134.221C476.852 133.623 476.623 132.809 476.623 131.777ZM477.713 131.9C477.713 132.615 477.859 133.178 478.152 133.588C478.445 133.994 478.855 134.197 479.383 134.197C480.066 134.197 480.568 133.887 480.889 133.266V130.371C480.557 129.766 480.059 129.463 479.395 129.463C478.867 129.463 478.455 129.668 478.158 130.078C477.861 130.488 477.713 131.096 477.713 131.9ZM486.25 135.117C485.391 135.117 484.691 134.836 484.152 134.273C483.613 133.707 483.344 132.951 483.344 132.006V131.807C483.344 131.178 483.463 130.617 483.701 130.125C483.943 129.629 484.279 129.242 484.709 128.965C485.143 128.684 485.611 128.543 486.115 128.543C486.939 128.543 487.58 128.814 488.037 129.357C488.494 129.9 488.723 130.678 488.723 131.689V132.141H484.428C484.443 132.766 484.625 133.271 484.973 133.658C485.324 134.041 485.77 134.232 486.309 134.232C486.691 134.232 487.016 134.154 487.281 133.998C487.547 133.842 487.779 133.635 487.979 133.377L488.641 133.893C488.109 134.709 487.312 135.117 486.25 135.117ZM486.115 129.434C485.678 129.434 485.311 129.594 485.014 129.914C484.717 130.23 484.533 130.676 484.463 131.25H487.639V131.168C487.607 130.617 487.459 130.191 487.193 129.891C486.928 129.586 486.568 129.434 486.115 129.434Z" fill="black"/>
<rect x="377.5" y="114.5" width="126" height="33" rx="6.5" stroke="black"/>
<rect x="207.5" y="65.5" width="146" height="130" rx="8.5" fill="#E9FFDB"/>
<path d="M217.212 77.5142C216.327 77.2599 215.683 76.9484 215.278 76.5796C214.877 76.2072 214.677 75.7489 214.677 75.2046C214.677 74.5887 214.922 74.0802 215.413 73.6792C215.907 73.2746 216.548 73.0723 217.335 73.0723C217.873 73.0723 218.351 73.1761 218.77 73.3838C219.192 73.5915 219.518 73.8779 219.747 74.2432C219.98 74.6084 220.096 75.0076 220.096 75.4409H219.06C219.06 74.9683 218.909 74.5977 218.608 74.3291C218.308 74.057 217.883 73.9209 217.335 73.9209C216.827 73.9209 216.43 74.0337 216.143 74.2593C215.86 74.4813 215.719 74.791 215.719 75.1885C215.719 75.5072 215.853 75.7775 216.122 75.9995C216.394 76.2179 216.854 76.4185 217.502 76.6011C218.154 76.7837 218.662 76.986 219.027 77.208C219.396 77.4264 219.668 77.6825 219.844 77.9761C220.023 78.2697 220.112 78.6152 220.112 79.0127C220.112 79.6465 219.865 80.1549 219.371 80.5381C218.877 80.9176 218.216 81.1074 217.389 81.1074C216.852 81.1074 216.351 81.0054 215.885 80.8013C215.42 80.5936 215.06 80.3107 214.806 79.9526C214.555 79.5946 214.43 79.1882 214.43 78.7334H215.466C215.466 79.2061 215.64 79.5802 215.987 79.856C216.338 80.1281 216.806 80.2642 217.389 80.2642C217.933 80.2642 218.351 80.1532 218.641 79.9312C218.931 79.7091 219.076 79.4066 219.076 79.0234C219.076 78.6403 218.941 78.3449 218.673 78.1372C218.404 77.9259 217.917 77.7183 217.212 77.5142ZM222.363 81H221.369V75.1885H222.363V81ZM221.289 73.647C221.289 73.4858 221.337 73.3498 221.434 73.2388C221.534 73.1278 221.681 73.0723 221.874 73.0723C222.067 73.0723 222.214 73.1278 222.314 73.2388C222.415 73.3498 222.465 73.4858 222.465 73.647C222.465 73.8081 222.415 73.9424 222.314 74.0498C222.214 74.1572 222.067 74.2109 221.874 74.2109C221.681 74.2109 221.534 74.1572 221.434 74.0498C221.337 73.9424 221.289 73.8081 221.289 73.647ZM224.893 75.1885L224.919 75.833C225.346 75.3317 225.92 75.0811 226.644 75.0811C227.456 75.0811 228.01 75.3926 228.303 76.0156C228.497 75.7363 228.747 75.5107 229.055 75.3389C229.367 75.167 229.734 75.0811 230.156 75.0811C231.431 75.0811 232.079 75.756 232.101 77.106V81H231.107V77.165C231.107 76.7497 231.012 76.4399 230.822 76.2358C230.632 76.0282 230.314 75.9243 229.866 75.9243C229.497 75.9243 229.191 76.0353 228.948 76.2573C228.704 76.4757 228.563 76.7712 228.523 77.1436V81H227.524V77.1919C227.524 76.3468 227.111 75.9243 226.284 75.9243C225.632 75.9243 225.186 76.2018 224.946 76.7568V81H223.953V75.1885H224.893ZM237.192 80.4253C236.806 80.88 236.238 81.1074 235.49 81.1074C234.87 81.1074 234.398 80.9284 234.072 80.5703C233.75 80.2087 233.587 79.6751 233.583 78.9697V75.1885H234.577V78.9429C234.577 79.8237 234.935 80.2642 235.651 80.2642C236.41 80.2642 236.915 79.9813 237.166 79.4155V75.1885H238.159V81H237.214L237.192 80.4253ZM240.753 81H239.76V72.75H240.753V81ZM245.937 81C245.879 80.8854 245.833 80.6813 245.797 80.3877C245.335 80.8675 244.784 81.1074 244.143 81.1074C243.57 81.1074 243.099 80.9463 242.73 80.624C242.365 80.2982 242.182 79.8864 242.182 79.3887C242.182 78.7835 242.411 78.3145 242.87 77.9814C243.332 77.6449 243.98 77.4766 244.814 77.4766H245.781V77.02C245.781 76.6727 245.677 76.397 245.469 76.1929C245.262 75.9852 244.955 75.8813 244.551 75.8813C244.196 75.8813 243.899 75.9709 243.659 76.1499C243.419 76.3289 243.299 76.5456 243.299 76.7998H242.3C242.3 76.5098 242.402 76.2305 242.606 75.9619C242.814 75.6898 243.093 75.4749 243.444 75.3174C243.799 75.1598 244.187 75.0811 244.61 75.0811C245.279 75.0811 245.804 75.2493 246.184 75.5859C246.563 75.9189 246.76 76.3791 246.774 76.9663V79.6411C246.774 80.1746 246.842 80.599 246.979 80.9141V81H245.937ZM244.288 80.2427C244.599 80.2427 244.895 80.1621 245.174 80.001C245.453 79.8398 245.655 79.6304 245.781 79.3726V78.1802H245.002C243.785 78.1802 243.176 78.5365 243.176 79.249C243.176 79.5605 243.28 79.804 243.487 79.9795C243.695 80.1549 243.962 80.2427 244.288 80.2427ZM249.68 73.7812V75.1885H250.765V75.9565H249.68V79.5605C249.68 79.7933 249.729 79.9688 249.825 80.0869C249.922 80.2015 250.087 80.2588 250.319 80.2588C250.434 80.2588 250.591 80.2373 250.792 80.1943V81C250.531 81.0716 250.276 81.1074 250.029 81.1074C249.585 81.1074 249.25 80.9731 249.025 80.7046C248.799 80.436 248.687 80.0547 248.687 79.5605V75.9565H247.628V75.1885H248.687V73.7812H249.68ZM253.01 81H252.017V75.1885H253.01V81ZM251.936 73.647C251.936 73.4858 251.984 73.3498 252.081 73.2388C252.181 73.1278 252.328 73.0723 252.521 73.0723C252.715 73.0723 252.862 73.1278 252.962 73.2388C253.062 73.3498 253.112 73.4858 253.112 73.647C253.112 73.8081 253.062 73.9424 252.962 74.0498C252.862 74.1572 252.715 74.2109 252.521 74.2109C252.328 74.2109 252.181 74.1572 252.081 74.0498C251.984 73.9424 251.936 73.8081 251.936 73.647ZM254.342 78.0405C254.342 77.4712 254.453 76.9591 254.675 76.5044C254.901 76.0496 255.212 75.6987 255.61 75.4517C256.011 75.2046 256.467 75.0811 256.979 75.0811C257.771 75.0811 258.41 75.355 258.897 75.9028C259.388 76.4507 259.633 77.1794 259.633 78.0889V78.1587C259.633 78.7244 259.524 79.2329 259.305 79.6841C259.09 80.1317 258.781 80.4808 258.376 80.7314C257.975 80.9821 257.513 81.1074 256.99 81.1074C256.202 81.1074 255.563 80.8335 255.073 80.2856C254.586 79.7378 254.342 79.0127 254.342 78.1104V78.0405ZM255.341 78.1587C255.341 78.8032 255.49 79.3206 255.787 79.7109C256.088 80.1012 256.489 80.2964 256.99 80.2964C257.495 80.2964 257.896 80.0994 258.193 79.7056C258.491 79.3081 258.639 78.7531 258.639 78.0405C258.639 77.4032 258.487 76.8875 258.183 76.4937C257.882 76.0962 257.481 75.8975 256.979 75.8975C256.489 75.8975 256.093 76.0926 255.792 76.4829C255.492 76.8732 255.341 77.4318 255.341 78.1587ZM261.819 75.1885L261.851 75.9189C262.295 75.3604 262.875 75.0811 263.591 75.0811C264.819 75.0811 265.439 75.7739 265.45 77.1597V81H264.456V77.1543C264.452 76.7354 264.356 76.4256 264.166 76.2251C263.98 76.0246 263.688 75.9243 263.291 75.9243C262.968 75.9243 262.685 76.0103 262.442 76.1821C262.198 76.354 262.009 76.5796 261.873 76.8589V81H260.879V75.1885H261.819Z" fill="black"/>
<rect x="207.5" y="65.5" width="146" height="130" rx="8.5" stroke="black"/>
<rect x="225.5" y="92.5" width="106" height="47" rx="6.5" fill="white"/>
<path d="M250.803 109.057H247.105V112.08H251.4V113H245.98V104.469H251.342V105.395H247.105V108.137H250.803V109.057ZM253.656 106.66L253.691 107.457C254.176 106.848 254.809 106.543 255.59 106.543C256.93 106.543 257.605 107.299 257.617 108.811V113H256.533V108.805C256.529 108.348 256.424 108.01 256.217 107.791C256.014 107.572 255.695 107.463 255.262 107.463C254.91 107.463 254.602 107.557 254.336 107.744C254.07 107.932 253.863 108.178 253.715 108.482V113H252.631V106.66H253.656ZM261.344 111.529L262.914 106.66H264.021L261.748 113H260.922L258.625 106.66H259.732L261.344 111.529ZM266.242 113H265.158V106.66H266.242V113ZM265.07 104.979C265.07 104.803 265.123 104.654 265.229 104.533C265.338 104.412 265.498 104.352 265.709 104.352C265.92 104.352 266.08 104.412 266.189 104.533C266.299 104.654 266.354 104.803 266.354 104.979C266.354 105.154 266.299 105.301 266.189 105.418C266.08 105.535 265.92 105.594 265.709 105.594C265.498 105.594 265.338 105.535 265.229 105.418C265.123 105.301 265.07 105.154 265.07 104.979ZM271.047 107.633C270.883 107.605 270.705 107.592 270.514 107.592C269.803 107.592 269.32 107.895 269.066 108.5V113H267.982V106.66H269.037L269.055 107.393C269.41 106.826 269.914 106.543 270.566 106.543C270.777 106.543 270.938 106.57 271.047 106.625V107.633ZM271.645 109.771C271.645 109.15 271.766 108.592 272.008 108.096C272.254 107.6 272.594 107.217 273.027 106.947C273.465 106.678 273.963 106.543 274.521 106.543C275.385 106.543 276.082 106.842 276.613 107.439C277.148 108.037 277.416 108.832 277.416 109.824V109.9C277.416 110.518 277.297 111.072 277.059 111.564C276.824 112.053 276.486 112.434 276.045 112.707C275.607 112.98 275.104 113.117 274.533 113.117C273.674 113.117 272.977 112.818 272.441 112.221C271.91 111.623 271.645 110.832 271.645 109.848V109.771ZM272.734 109.9C272.734 110.604 272.896 111.168 273.221 111.594C273.549 112.02 273.986 112.232 274.533 112.232C275.084 112.232 275.521 112.018 275.846 111.588C276.17 111.154 276.332 110.549 276.332 109.771C276.332 109.076 276.166 108.514 275.834 108.084C275.506 107.65 275.068 107.434 274.521 107.434C273.986 107.434 273.555 107.646 273.227 108.072C272.898 108.498 272.734 109.107 272.734 109.9ZM279.801 106.66L279.836 107.457C280.32 106.848 280.953 106.543 281.734 106.543C283.074 106.543 283.75 107.299 283.762 108.811V113H282.678V108.805C282.674 108.348 282.568 108.01 282.361 107.791C282.158 107.572 281.84 107.463 281.406 107.463C281.055 107.463 280.746 107.557 280.48 107.744C280.215 107.932 280.008 108.178 279.859 108.482V113H278.775V106.66H279.801ZM286.416 106.66L286.445 107.363C286.91 106.816 287.537 106.543 288.326 106.543C289.213 106.543 289.816 106.883 290.137 107.562C290.348 107.258 290.621 107.012 290.957 106.824C291.297 106.637 291.697 106.543 292.158 106.543C293.549 106.543 294.256 107.279 294.279 108.752V113H293.195V108.816C293.195 108.363 293.092 108.025 292.885 107.803C292.678 107.576 292.33 107.463 291.842 107.463C291.439 107.463 291.105 107.584 290.84 107.826C290.574 108.064 290.42 108.387 290.377 108.793V113H289.287V108.846C289.287 107.924 288.836 107.463 287.934 107.463C287.223 107.463 286.736 107.766 286.475 108.371V113H285.391V106.66H286.416ZM298.551 113.117C297.691 113.117 296.992 112.836 296.453 112.273C295.914 111.707 295.645 110.951 295.645 110.006V109.807C295.645 109.178 295.764 108.617 296.002 108.125C296.244 107.629 296.58 107.242 297.01 106.965C297.443 106.684 297.912 106.543 298.416 106.543C299.24 106.543 299.881 106.814 300.338 107.357C300.795 107.9 301.023 108.678 301.023 109.689V110.141H296.729C296.744 110.766 296.926 111.271 297.273 111.658C297.625 112.041 298.07 112.232 298.609 112.232C298.992 112.232 299.316 112.154 299.582 111.998C299.848 111.842 300.08 111.635 300.279 111.377L300.941 111.893C300.41 112.709 299.613 113.117 298.551 113.117ZM298.416 107.434C297.979 107.434 297.611 107.594 297.314 107.914C297.018 108.23 296.834 108.676 296.764 109.25H299.939V109.168C299.908 108.617 299.76 108.191 299.494 107.891C299.229 107.586 298.869 107.434 298.416 107.434ZM303.309 106.66L303.344 107.457C303.828 106.848 304.461 106.543 305.242 106.543C306.582 106.543 307.258 107.299 307.27 108.811V113H306.186V108.805C306.182 108.348 306.076 108.01 305.869 107.791C305.666 107.572 305.348 107.463 304.914 107.463C304.562 107.463 304.254 107.557 303.988 107.744C303.723 107.932 303.516 108.178 303.367 108.482V113H302.283V106.66H303.309ZM310.375 105.125V106.66H311.559V107.498H310.375V111.43C310.375 111.684 310.428 111.875 310.533 112.004C310.639 112.129 310.818 112.191 311.072 112.191C311.197 112.191 311.369 112.168 311.588 112.121V113C311.303 113.078 311.025 113.117 310.756 113.117C310.271 113.117 309.906 112.971 309.66 112.678C309.414 112.385 309.291 111.969 309.291 111.43V107.498H308.137V106.66H309.291V105.125H310.375ZM253.533 123.197C252.568 122.92 251.865 122.58 251.424 122.178C250.986 121.771 250.768 121.271 250.768 120.678C250.768 120.006 251.035 119.451 251.57 119.014C252.109 118.572 252.809 118.352 253.668 118.352C254.254 118.352 254.775 118.465 255.232 118.691C255.693 118.918 256.049 119.23 256.299 119.629C256.553 120.027 256.68 120.463 256.68 120.936H255.549C255.549 120.42 255.385 120.016 255.057 119.723C254.729 119.426 254.266 119.277 253.668 119.277C253.113 119.277 252.68 119.4 252.367 119.646C252.059 119.889 251.904 120.227 251.904 120.66C251.904 121.008 252.051 121.303 252.344 121.545C252.641 121.783 253.143 122.002 253.85 122.201C254.561 122.4 255.115 122.621 255.514 122.863C255.916 123.102 256.213 123.381 256.404 123.701C256.6 124.021 256.697 124.398 256.697 124.832C256.697 125.523 256.428 126.078 255.889 126.496C255.35 126.91 254.629 127.117 253.727 127.117C253.141 127.117 252.594 127.006 252.086 126.783C251.578 126.557 251.186 126.248 250.908 125.857C250.635 125.467 250.498 125.023 250.498 124.527H251.629C251.629 125.043 251.818 125.451 252.197 125.752C252.58 126.049 253.09 126.197 253.727 126.197C254.32 126.197 254.775 126.076 255.092 125.834C255.408 125.592 255.566 125.262 255.566 124.844C255.566 124.426 255.42 124.104 255.127 123.877C254.834 123.646 254.303 123.42 253.533 123.197ZM259.152 127H258.068V120.66H259.152V127ZM257.98 118.979C257.98 118.803 258.033 118.654 258.139 118.533C258.248 118.412 258.408 118.352 258.619 118.352C258.83 118.352 258.99 118.412 259.1 118.533C259.209 118.654 259.264 118.803 259.264 118.979C259.264 119.154 259.209 119.301 259.1 119.418C258.99 119.535 258.83 119.594 258.619 119.594C258.408 119.594 258.248 119.535 258.139 119.418C258.033 119.301 257.98 119.154 257.98 118.979ZM261.912 120.66L261.941 121.363C262.406 120.816 263.033 120.543 263.822 120.543C264.709 120.543 265.312 120.883 265.633 121.562C265.844 121.258 266.117 121.012 266.453 120.824C266.793 120.637 267.193 120.543 267.654 120.543C269.045 120.543 269.752 121.279 269.775 122.752V127H268.691V122.816C268.691 122.363 268.588 122.025 268.381 121.803C268.174 121.576 267.826 121.463 267.338 121.463C266.936 121.463 266.602 121.584 266.336 121.826C266.07 122.064 265.916 122.387 265.873 122.793V127H264.783V122.846C264.783 121.924 264.332 121.463 263.43 121.463C262.719 121.463 262.232 121.766 261.971 122.371V127H260.887V120.66H261.912ZM275.33 126.373C274.908 126.869 274.289 127.117 273.473 127.117C272.797 127.117 272.281 126.922 271.926 126.531C271.574 126.137 271.396 125.555 271.393 124.785V120.66H272.477V124.756C272.477 125.717 272.867 126.197 273.648 126.197C274.477 126.197 275.027 125.889 275.301 125.271V120.66H276.385V127H275.354L275.33 126.373ZM279.215 127H278.131V118H279.215V127ZM284.869 127C284.807 126.875 284.756 126.652 284.717 126.332C284.213 126.855 283.611 127.117 282.912 127.117C282.287 127.117 281.773 126.941 281.371 126.59C280.973 126.234 280.773 125.785 280.773 125.242C280.773 124.582 281.023 124.07 281.523 123.707C282.027 123.34 282.734 123.156 283.645 123.156H284.699V122.658C284.699 122.279 284.586 121.979 284.359 121.756C284.133 121.529 283.799 121.416 283.357 121.416C282.971 121.416 282.646 121.514 282.385 121.709C282.123 121.904 281.992 122.141 281.992 122.418H280.902C280.902 122.102 281.014 121.797 281.236 121.504C281.463 121.207 281.768 120.973 282.15 120.801C282.537 120.629 282.961 120.543 283.422 120.543C284.152 120.543 284.725 120.727 285.139 121.094C285.553 121.457 285.768 121.959 285.783 122.6V125.518C285.783 126.1 285.857 126.562 286.006 126.906V127H284.869ZM283.07 126.174C283.41 126.174 283.732 126.086 284.037 125.91C284.342 125.734 284.562 125.506 284.699 125.225V123.924H283.85C282.521 123.924 281.857 124.312 281.857 125.09C281.857 125.43 281.971 125.695 282.197 125.887C282.424 126.078 282.715 126.174 283.07 126.174ZM288.953 119.125V120.66H290.137V121.498H288.953V125.43C288.953 125.684 289.006 125.875 289.111 126.004C289.217 126.129 289.396 126.191 289.65 126.191C289.775 126.191 289.947 126.168 290.166 126.121V127C289.881 127.078 289.604 127.117 289.334 127.117C288.85 127.117 288.484 126.971 288.238 126.678C287.992 126.385 287.869 125.969 287.869 125.43V121.498H286.715V120.66H287.869V119.125H288.953ZM292.586 127H291.502V120.66H292.586V127ZM291.414 118.979C291.414 118.803 291.467 118.654 291.572 118.533C291.682 118.412 291.842 118.352 292.053 118.352C292.264 118.352 292.424 118.412 292.533 118.533C292.643 118.654 292.697 118.803 292.697 118.979C292.697 119.154 292.643 119.301 292.533 119.418C292.424 119.535 292.264 119.594 292.053 119.594C291.842 119.594 291.682 119.535 291.572 119.418C291.467 119.301 291.414 119.154 291.414 118.979ZM294.039 123.771C294.039 123.15 294.16 122.592 294.402 122.096C294.648 121.6 294.988 121.217 295.422 120.947C295.859 120.678 296.357 120.543 296.916 120.543C297.779 120.543 298.477 120.842 299.008 121.439C299.543 122.037 299.811 122.832 299.811 123.824V123.9C299.811 124.518 299.691 125.072 299.453 125.564C299.219 126.053 298.881 126.434 298.439 126.707C298.002 126.98 297.498 127.117 296.928 127.117C296.068 127.117 295.371 126.818 294.836 126.221C294.305 125.623 294.039 124.832 294.039 123.848V123.771ZM295.129 123.9C295.129 124.604 295.291 125.168 295.615 125.594C295.943 126.02 296.381 126.232 296.928 126.232C297.479 126.232 297.916 126.018 298.24 125.588C298.564 125.154 298.727 124.549 298.727 123.771C298.727 123.076 298.561 122.514 298.229 122.084C297.9 121.65 297.463 121.434 296.916 121.434C296.381 121.434 295.949 121.646 295.621 122.072C295.293 122.498 295.129 123.107 295.129 123.9ZM302.195 120.66L302.23 121.457C302.715 120.848 303.348 120.543 304.129 120.543C305.469 120.543 306.145 121.299 306.156 122.811V127H305.072V122.805C305.068 122.348 304.963 122.01 304.756 121.791C304.553 121.572 304.234 121.463 303.801 121.463C303.449 121.463 303.141 121.557 302.875 121.744C302.609 121.932 302.402 122.178 302.254 122.482V127H301.17V120.66H302.195Z" fill="black"/>
<rect x="225.5" y="92.5" width="106" height="47" rx="6.5" stroke="black"/>
<rect x="225.5" y="150.5" width="106" height="33" rx="6.5" fill="white"/>
<path d="M239.406 167.057H235.709V170.08H240.004V171H234.584V162.469H239.945V163.395H235.709V166.137H239.406V167.057ZM242.26 164.66L242.295 165.457C242.779 164.848 243.412 164.543 244.193 164.543C245.533 164.543 246.209 165.299 246.221 166.811V171H245.137V166.805C245.133 166.348 245.027 166.01 244.82 165.791C244.617 165.572 244.299 165.463 243.865 165.463C243.514 165.463 243.205 165.557 242.939 165.744C242.674 165.932 242.467 166.178 242.318 166.482V171H241.234V164.66H242.26ZM249.326 163.125V164.66H250.51V165.498H249.326V169.43C249.326 169.684 249.379 169.875 249.484 170.004C249.59 170.129 249.77 170.191 250.023 170.191C250.148 170.191 250.32 170.168 250.539 170.121V171C250.254 171.078 249.977 171.117 249.707 171.117C249.223 171.117 248.857 170.971 248.611 170.678C248.365 170.385 248.242 169.969 248.242 169.43V165.498H247.088V164.66H248.242V163.125H249.326ZM252.959 171H251.875V164.66H252.959V171ZM251.787 162.979C251.787 162.803 251.84 162.654 251.945 162.533C252.055 162.412 252.215 162.352 252.426 162.352C252.637 162.352 252.797 162.412 252.906 162.533C253.016 162.654 253.07 162.803 253.07 162.979C253.07 163.154 253.016 163.301 252.906 163.418C252.797 163.535 252.637 163.594 252.426 163.594C252.215 163.594 252.055 163.535 251.945 163.418C251.84 163.301 251.787 163.154 251.787 162.979ZM256.17 163.125V164.66H257.354V165.498H256.17V169.43C256.17 169.684 256.223 169.875 256.328 170.004C256.434 170.129 256.613 170.191 256.867 170.191C256.992 170.191 257.164 170.168 257.383 170.121V171C257.098 171.078 256.82 171.117 256.551 171.117C256.066 171.117 255.701 170.971 255.455 170.678C255.209 170.385 255.086 169.969 255.086 169.43V165.498H253.932V164.66H255.086V163.125H256.17ZM260.699 169.412L262.176 164.66H263.336L260.787 171.979C260.393 173.033 259.766 173.561 258.906 173.561L258.701 173.543L258.297 173.467V172.588L258.59 172.611C258.957 172.611 259.242 172.537 259.445 172.389C259.652 172.24 259.822 171.969 259.955 171.574L260.195 170.93L257.934 164.66H259.117L260.699 169.412ZM269.969 167.197C269.004 166.92 268.301 166.58 267.859 166.178C267.422 165.771 267.203 165.271 267.203 164.678C267.203 164.006 267.471 163.451 268.006 163.014C268.545 162.572 269.244 162.352 270.104 162.352C270.689 162.352 271.211 162.465 271.668 162.691C272.129 162.918 272.484 163.23 272.734 163.629C272.988 164.027 273.115 164.463 273.115 164.936H271.984C271.984 164.42 271.82 164.016 271.492 163.723C271.164 163.426 270.701 163.277 270.104 163.277C269.549 163.277 269.115 163.4 268.803 163.646C268.494 163.889 268.34 164.227 268.34 164.66C268.34 165.008 268.486 165.303 268.779 165.545C269.076 165.783 269.578 166.002 270.285 166.201C270.996 166.4 271.551 166.621 271.949 166.863C272.352 167.102 272.648 167.381 272.84 167.701C273.035 168.021 273.133 168.398 273.133 168.832C273.133 169.523 272.863 170.078 272.324 170.496C271.785 170.91 271.064 171.117 270.162 171.117C269.576 171.117 269.029 171.006 268.521 170.783C268.014 170.557 267.621 170.248 267.344 169.857C267.07 169.467 266.934 169.023 266.934 168.527H268.064C268.064 169.043 268.254 169.451 268.633 169.752C269.016 170.049 269.525 170.197 270.162 170.197C270.756 170.197 271.211 170.076 271.527 169.834C271.844 169.592 272.002 169.262 272.002 168.844C272.002 168.426 271.855 168.104 271.562 167.877C271.27 167.646 270.738 167.42 269.969 167.197ZM275.588 171H274.504V164.66H275.588V171ZM274.416 162.979C274.416 162.803 274.469 162.654 274.574 162.533C274.684 162.412 274.844 162.352 275.055 162.352C275.266 162.352 275.426 162.412 275.535 162.533C275.645 162.654 275.699 162.803 275.699 162.979C275.699 163.154 275.645 163.301 275.535 163.418C275.426 163.535 275.266 163.594 275.055 163.594C274.844 163.594 274.684 163.535 274.574 163.418C274.469 163.301 274.416 163.154 274.416 162.979ZM278.348 164.66L278.377 165.363C278.842 164.816 279.469 164.543 280.258 164.543C281.145 164.543 281.748 164.883 282.068 165.562C282.279 165.258 282.553 165.012 282.889 164.824C283.229 164.637 283.629 164.543 284.09 164.543C285.48 164.543 286.188 165.279 286.211 166.752V171H285.127V166.816C285.127 166.363 285.023 166.025 284.816 165.803C284.609 165.576 284.262 165.463 283.773 165.463C283.371 165.463 283.037 165.584 282.771 165.826C282.506 166.064 282.352 166.387 282.309 166.793V171H281.219V166.846C281.219 165.924 280.768 165.463 279.865 165.463C279.154 165.463 278.668 165.766 278.406 166.371V171H277.322V164.66H278.348ZM291.766 170.373C291.344 170.869 290.725 171.117 289.908 171.117C289.232 171.117 288.717 170.922 288.361 170.531C288.01 170.137 287.832 169.555 287.828 168.785V164.66H288.912V168.756C288.912 169.717 289.303 170.197 290.084 170.197C290.912 170.197 291.463 169.889 291.736 169.271V164.66H292.82V171H291.789L291.766 170.373ZM295.65 171H294.566V162H295.65V171ZM301.305 171C301.242 170.875 301.191 170.652 301.152 170.332C300.648 170.855 300.047 171.117 299.348 171.117C298.723 171.117 298.209 170.941 297.807 170.59C297.408 170.234 297.209 169.785 297.209 169.242C297.209 168.582 297.459 168.07 297.959 167.707C298.463 167.34 299.17 167.156 300.08 167.156H301.135V166.658C301.135 166.279 301.021 165.979 300.795 165.756C300.568 165.529 300.234 165.416 299.793 165.416C299.406 165.416 299.082 165.514 298.82 165.709C298.559 165.904 298.428 166.141 298.428 166.418H297.338C297.338 166.102 297.449 165.797 297.672 165.504C297.898 165.207 298.203 164.973 298.586 164.801C298.973 164.629 299.396 164.543 299.857 164.543C300.588 164.543 301.16 164.727 301.574 165.094C301.988 165.457 302.203 165.959 302.219 166.6V169.518C302.219 170.1 302.293 170.562 302.441 170.906V171H301.305ZM299.506 170.174C299.846 170.174 300.168 170.086 300.473 169.91C300.777 169.734 300.998 169.506 301.135 169.225V167.924H300.285C298.957 167.924 298.293 168.312 298.293 169.09C298.293 169.43 298.406 169.695 298.633 169.887C298.859 170.078 299.15 170.174 299.506 170.174ZM305.389 163.125V164.66H306.572V165.498H305.389V169.43C305.389 169.684 305.441 169.875 305.547 170.004C305.652 170.129 305.832 170.191 306.086 170.191C306.211 170.191 306.383 170.168 306.602 170.121V171C306.316 171.078 306.039 171.117 305.77 171.117C305.285 171.117 304.92 170.971 304.674 170.678C304.428 170.385 304.305 169.969 304.305 169.43V165.498H303.15V164.66H304.305V163.125H305.389ZM309.021 171H307.938V164.66H309.021V171ZM307.85 162.979C307.85 162.803 307.902 162.654 308.008 162.533C308.117 162.412 308.277 162.352 308.488 162.352C308.699 162.352 308.859 162.412 308.969 162.533C309.078 162.654 309.133 162.803 309.133 162.979C309.133 163.154 309.078 163.301 308.969 163.418C308.859 163.535 308.699 163.594 308.488 163.594C308.277 163.594 308.117 163.535 308.008 163.418C307.902 163.301 307.85 163.154 307.85 162.979ZM310.475 167.771C310.475 167.15 310.596 166.592 310.838 166.096C311.084 165.6 311.424 165.217 311.857 164.947C312.295 164.678 312.793 164.543 313.352 164.543C314.215 164.543 314.912 164.842 315.443 165.439C315.979 166.037 316.246 166.832 316.246 167.824V167.9C316.246 168.518 316.127 169.072 315.889 169.564C315.654 170.053 315.316 170.434 314.875 170.707C314.438 170.98 313.934 171.117 313.363 171.117C312.504 171.117 311.807 170.818 311.271 170.221C310.74 169.623 310.475 168.832 310.475 167.848V167.771ZM311.564 167.9C311.564 168.604 311.727 169.168 312.051 169.594C312.379 170.02 312.816 170.232 313.363 170.232C313.914 170.232 314.352 170.018 314.676 169.588C315 169.154 315.162 168.549 315.162 167.771C315.162 167.076 314.996 166.514 314.664 166.084C314.336 165.65 313.898 165.434 313.352 165.434C312.816 165.434 312.385 165.646 312.057 166.072C311.729 166.498 311.564 167.107 311.564 167.9ZM318.631 164.66L318.666 165.457C319.15 164.848 319.783 164.543 320.564 164.543C321.904 164.543 322.58 165.299 322.592 166.811V171H321.508V166.805C321.504 166.348 321.398 166.01 321.191 165.791C320.988 165.572 320.67 165.463 320.236 165.463C319.885 165.463 319.576 165.557 319.311 165.744C319.045 165.932 318.838 166.178 318.689 166.482V171H317.605V164.66H318.631Z" fill="black"/>
<rect x="225.5" y="150.5" width="106" height="33" rx="6.5" stroke="black"/>
<path d="M354 43.5C353.724 43.5 353.5 43.7239 353.5 44L353.5 48.5C353.5 48.7761 353.724 49 354 49C354.276 49 354.5 48.7761 354.5 48.5L354.5 44.5L358.5 44.5C358.776 44.5 359 44.2761 359 44C359 43.7239 358.776 43.5 358.5 43.5L354 43.5ZM379 69.5C379.276 69.5 379.5 69.2761 379.5 69L379.5 64.5C379.5 64.2239 379.276 64 379 64C378.724 64 378.5 64.2239 378.5 64.5L378.5 68.5L374.5 68.5C374.224 68.5 374 68.7239 374 69C374 69.2761 374.224 69.5 374.5 69.5L379 69.5ZM353.646 44.3536L378.646 69.3536L379.354 68.6464L354.354 43.6464L353.646 44.3536Z" fill="black"/>
<path d="M353.646 83.6464C353.451 83.8417 353.451 84.1583 353.646 84.3536L356.828 87.5355C357.024 87.7308 357.34 87.7308 357.536 87.5355C357.731 87.3403 357.731 87.0237 357.536 86.8284L354.707 84L357.536 81.1716C357.731 80.9763 357.731 80.6597 357.536 80.4645C357.34 80.2692 357.024 80.2692 356.828 80.4645L353.646 83.6464ZM377.354 84.3536C377.549 84.1583 377.549 83.8417 377.354 83.6464L374.172 80.4645C373.976 80.2692 373.66 80.2692 373.464 80.4645C373.269 80.6597 373.269 80.9763 373.464 81.1716L376.293 84L373.464 86.8284C373.269 87.0237 373.269 87.3403 373.464 87.5355C373.66 87.7308 373.976 87.7308 374.172 87.5355L377.354 84.3536ZM354 84.5H377V83.5H354V84.5Z" fill="black"/>
<path d="M353.646 179.646C353.451 179.842 353.451 180.158 353.646 180.354L356.828 183.536C357.024 183.731 357.34 183.731 357.536 183.536C357.731 183.34 357.731 183.024 357.536 182.828L354.707 180L357.536 177.172C357.731 176.976 357.731 176.66 357.536 176.464C357.34 176.269 357.024 176.269 356.828 176.464L353.646 179.646ZM354 180.5H377V179.5H354V180.5Z" fill="black"/>
<path d="M440.646 114.354C440.842 114.549 441.158 114.549 441.354 114.354L444.536 111.172C444.731 110.976 444.731 110.66 444.536 110.464C444.34 110.269 444.024 110.269 443.828 110.464L441 113.293L438.172 110.464C437.976 110.269 437.66 110.269 437.464 110.464C437.269 110.66 437.269 110.976 437.464 111.172L440.646 114.354ZM440.5 101L440.5 114L441.5 114L441.5 101L440.5 101Z" fill="black"/>
<path d="M34.6464 38.6464C34.4512 38.8417 34.4512 39.1583 34.6464 39.3536L37.8284 42.5355C38.0237 42.7308 38.3403 42.7308 38.5355 42.5355C38.7308 42.3403 38.7308 42.0237 38.5355 41.8284L35.7071 39L38.5355 36.1716C38.7308 35.9763 38.7308 35.6597 38.5355 35.4645C38.3403 35.2692 38.0237 35.2692 37.8284 35.4645L34.6464 38.6464ZM65.3536 39.3536C65.5488 39.1583 65.5488 38.8417 65.3536 38.6464L62.1716 35.4645C61.9763 35.2692 61.6597 35.2692 61.4645 35.4645C61.2692 35.6597 61.2692 35.9763 61.4645 36.1716L64.2929 39L61.4645 41.8284C61.2692 42.0237 61.2692 42.3403 61.4645 42.5355C61.6597 42.7308 61.9763 42.7308 62.1716 42.5355L65.3536 39.3536ZM35 39.5H65V38.5H35V39.5Z" fill="black"/>
<path d="M34.6464 128.646C34.4512 128.842 34.4512 129.158 34.6464 129.354L37.8284 132.536C38.0237 132.731 38.3403 132.731 38.5355 132.536C38.7308 132.34 38.7308 132.024 38.5355 131.828L35.7071 129L38.5355 126.172C38.7308 125.976 38.7308 125.66 38.5355 125.464C38.3403 125.269 38.0237 125.269 37.8284 125.464L34.6464 128.646ZM65.3536 129.354C65.5488 129.158 65.5488 128.842 65.3536 128.646L62.1716 125.464C61.9763 125.269 61.6597 125.269 61.4645 125.464C61.2692 125.66 61.2692 125.976 61.4645 126.172L64.2929 129L61.4645 131.828C61.2692 132.024 61.2692 132.34 61.4645 132.536C61.6597 132.731 61.9763 132.731 62.1716 132.536L65.3536 129.354ZM35 129.5H65V128.5H35V129.5Z" fill="black"/>
<path d="M173.646 38.6464C173.451 38.8417 173.451 39.1583 173.646 39.3536L176.828 42.5355C177.024 42.7308 177.34 42.7308 177.536 42.5355C177.731 42.3403 177.731 42.0237 177.536 41.8284L174.707 39L177.536 36.1716C177.731 35.9763 177.731 35.6597 177.536 35.4645C177.34 35.2692 177.024 35.2692 176.828 35.4645L173.646 38.6464ZM207.354 39.3536C207.549 39.1583 207.549 38.8417 207.354 38.6464L204.172 35.4645C203.976 35.2692 203.66 35.2692 203.464 35.4645C203.269 35.6597 203.269 35.9763 203.464 36.1716L206.293 39L203.464 41.8284C203.269 42.0237 203.269 42.3403 203.464 42.5355C203.66 42.7308 203.976 42.7308 204.172 42.5355L207.354 39.3536ZM174 39.5H207V38.5H174V39.5Z" fill="black"/>
<path d="M173.646 127.646C173.451 127.842 173.451 128.158 173.646 128.354L176.828 131.536C177.024 131.731 177.34 131.731 177.536 131.536C177.731 131.34 177.731 131.024 177.536 130.828L174.707 128L177.536 125.172C177.731 124.976 177.731 124.66 177.536 124.464C177.34 124.269 177.024 124.269 176.828 124.464L173.646 127.646ZM185 128V128.5H185.5V128H185ZM174 128.5H185V127.5H174V128.5ZM184.5 39V128H185.5V39H184.5Z" fill="black"/>
<path d="M120 105L120 62" stroke="black" stroke-miterlimit="3.8637" stroke-dasharray="3 6"/>
<path d="M18 106L18 63" stroke="black" stroke-miterlimit="3.8637" stroke-dasharray="3 6"/>
<path fill-rule="evenodd" clip-rule="evenodd" d="M17.5 23.9167C13.4729 23.9167 10.2083 27.1813 10.2083 31.2083C10.2083 35.2354 13.4729 38.5 17.5 38.5C21.5271 38.5 24.7917 35.2354 24.7917 31.2083C24.7917 27.1813 21.5271 23.9167 17.5 23.9167ZM7.29167 31.2083C7.29167 25.5704 11.8621 21 17.5 21C23.1379 21 27.7083 25.5704 27.7083 31.2083C27.7083 36.8462 23.1379 41.4167 17.5 41.4167C11.8621 41.4167 7.29167 36.8462 7.29167 31.2083Z" fill="black"/>
<path fill-rule="evenodd" clip-rule="evenodd" d="M10.8472 39.7036C12.9599 38.9081 15.2202 38.5 17.5 38.5C19.7798 38.5 22.0401 38.9081 24.1528 39.7036C26.2656 40.4992 28.1938 41.6685 29.8242 43.1506C31.4548 44.633 32.7566 46.4005 33.6476 48.3562C34.5389 50.3124 35 52.4147 35 54.5417C35 55.3471 34.3471 56 33.5417 56C32.7363 56 32.0833 55.3471 32.0833 54.5417C32.0833 52.8384 31.7145 51.148 30.9935 49.5655C30.2722 47.9826 29.2108 46.5347 27.8622 45.3088C26.5134 44.0826 24.9047 43.1034 23.125 42.4332C21.3451 41.763 19.4334 41.4167 17.5 41.4167C15.5666 41.4167 13.6549 41.763 11.875 42.4332C10.0953 43.1034 8.48665 44.0826 7.13781 45.3088C5.78925 46.5347 4.72776 47.9826 4.0065 49.5655C3.28547 51.148 2.91667 52.8384 2.91667 54.5417C2.91667 55.3471 2.26375 56 1.45833 56C0.652918 56 0 55.3471 0 54.5417C0 52.4147 0.461052 50.3124 1.35236 48.3562C2.24345 46.4005 3.5452 44.633 5.17585 43.1506C6.80622 41.6685 8.73441 40.4992 10.8472 39.7036Z" fill="black"/>
<path fill-rule="evenodd" clip-rule="evenodd" d="M17.5 113.917C13.4729 113.917 10.2083 117.181 10.2083 121.208C10.2083 125.235 13.4729 128.5 17.5 128.5C21.5271 128.5 24.7917 125.235 24.7917 121.208C24.7917 117.181 21.5271 113.917 17.5 113.917ZM7.29167 121.208C7.29167 115.57 11.8621 111 17.5 111C23.1379 111 27.7083 115.57 27.7083 121.208C27.7083 126.846 23.1379 131.417 17.5 131.417C11.8621 131.417 7.29167 126.846 7.29167 121.208Z" fill="black"/>
<path fill-rule="evenodd" clip-rule="evenodd" d="M10.8472 129.704C12.9599 128.908 15.2202 128.5 17.5 128.5C19.7798 128.5 22.0401 128.908 24.1528 129.704C26.2656 130.499 28.1938 131.668 29.8242 133.151C31.4548 134.633 32.7566 136.401 33.6476 138.356C34.5389 140.312 35 142.415 35 144.542C35 145.347 34.3471 146 33.5417 146C32.7363 146 32.0833 145.347 32.0833 144.542C32.0833 142.838 31.7145 141.148 30.9935 139.566C30.2722 137.983 29.2108 136.535 27.8622 135.309C26.5134 134.083 24.9047 133.103 23.125 132.433C21.3451 131.763 19.4334 131.417 17.5 131.417C15.5666 131.417 13.6549 131.763 11.875 132.433C10.0953 133.103 8.48665 134.083 7.13781 135.309C5.78925 136.535 4.72776 137.983 4.0065 139.566C3.28547 141.148 2.91667 142.838 2.91667 144.542C2.91667 145.347 2.26375 146 1.45833 146C0.652918 146 0 145.347 0 144.542C0 142.415 0.461052 140.312 1.35236 138.356C2.24345 136.401 3.5452 134.633 5.17585 133.151C6.80622 131.668 8.73441 130.499 10.8472 129.704Z" fill="black"/>
<path d="M65 29C65 25.134 68.134 22 72 22H167C170.866 22 174 25.134 174 29V49C174 52.866 170.866 56 167 56H72C68.134 56 65 52.866 65 49V29Z" fill="#FFE7CA"/>
<path d="M111.484 40.293C111.379 41.1953 111.045 41.8926 110.482 42.3848C109.924 42.873 109.18 43.1172 108.25 43.1172C107.242 43.1172 106.434 42.7559 105.824 42.0332C105.219 41.3105 104.916 40.3438 104.916 39.1328V38.3125C104.916 37.5195 105.057 36.8223 105.338 36.2207C105.623 35.6191 106.025 35.1582 106.545 34.8379C107.064 34.5137 107.666 34.3516 108.35 34.3516C109.256 34.3516 109.982 34.6055 110.529 35.1133C111.076 35.6172 111.395 36.3164 111.484 37.2109H110.354C110.256 36.5312 110.043 36.0391 109.715 35.7344C109.391 35.4297 108.936 35.2773 108.35 35.2773C107.631 35.2773 107.066 35.543 106.656 36.0742C106.25 36.6055 106.047 37.3613 106.047 38.3418V39.168C106.047 40.0938 106.24 40.8301 106.627 41.377C107.014 41.9238 107.555 42.1973 108.25 42.1973C108.875 42.1973 109.354 42.0566 109.686 41.7754C110.021 41.4902 110.244 40.9961 110.354 40.293H111.484ZM114.033 43H112.949V34H114.033V43ZM116.951 43H115.867V36.6602H116.951V43ZM115.779 34.9785C115.779 34.8027 115.832 34.6543 115.938 34.5332C116.047 34.4121 116.207 34.3516 116.418 34.3516C116.629 34.3516 116.789 34.4121 116.898 34.5332C117.008 34.6543 117.062 34.8027 117.062 34.9785C117.062 35.1543 117.008 35.3008 116.898 35.418C116.789 35.5352 116.629 35.5938 116.418 35.5938C116.207 35.5938 116.047 35.5352 115.938 35.418C115.832 35.3008 115.779 35.1543 115.779 34.9785ZM121.322 43.1172C120.463 43.1172 119.764 42.8359 119.225 42.2734C118.686 41.707 118.416 40.9512 118.416 40.0059V39.8066C118.416 39.1777 118.535 38.6172 118.773 38.125C119.016 37.6289 119.352 37.2422 119.781 36.9648C120.215 36.6836 120.684 36.543 121.188 36.543C122.012 36.543 122.652 36.8145 123.109 37.3574C123.566 37.9004 123.795 38.6777 123.795 39.6895V40.1406H119.5C119.516 40.7656 119.697 41.2715 120.045 41.6582C120.396 42.041 120.842 42.2324 121.381 42.2324C121.764 42.2324 122.088 42.1543 122.354 41.998C122.619 41.8418 122.852 41.6348 123.051 41.377L123.713 41.8926C123.182 42.709 122.385 43.1172 121.322 43.1172ZM121.188 37.4336C120.75 37.4336 120.383 37.5938 120.086 37.9141C119.789 38.2305 119.605 38.6758 119.535 39.25H122.711V39.168C122.68 38.6172 122.531 38.1914 122.266 37.8906C122 37.5859 121.641 37.4336 121.188 37.4336ZM126.08 36.6602L126.115 37.457C126.6 36.8477 127.232 36.543 128.014 36.543C129.354 36.543 130.029 37.2988 130.041 38.8105V43H128.957V38.8047C128.953 38.3477 128.848 38.0098 128.641 37.791C128.438 37.5723 128.119 37.4629 127.686 37.4629C127.334 37.4629 127.025 37.5566 126.76 37.7441C126.494 37.9316 126.287 38.1777 126.139 38.4824V43H125.055V36.6602H126.08ZM133.146 35.125V36.6602H134.33V37.498H133.146V41.4297C133.146 41.6836 133.199 41.875 133.305 42.0039C133.41 42.1289 133.59 42.1914 133.844 42.1914C133.969 42.1914 134.141 42.168 134.359 42.1211V43C134.074 43.0781 133.797 43.1172 133.527 43.1172C133.043 43.1172 132.678 42.9707 132.432 42.6777C132.186 42.3848 132.062 41.9688 132.062 41.4297V37.498H130.908V36.6602H132.062V35.125H133.146Z" fill="black"/>
<path d="M72 23H167V21H72V23ZM173 29V49H175V29H173ZM167 55H72V57H167V55ZM66 49V29H64V49H66ZM72 55C68.6863 55 66 52.3137 66 49H64C64 53.4183 67.5817 57 72 57V55ZM173 49C173 52.3137 170.314 55 167 55V57C171.418 57 175 53.4183 175 49H173ZM167 23C170.314 23 173 25.6863 173 29H175C175 24.5817 171.418 21 167 21V23ZM72 21C67.5817 21 64 24.5817 64 29H66C66 25.6863 68.6863 23 72 23V21Z" fill="black"/>
<path d="M65 118C65 114.134 68.134 111 72 111H167C170.866 111 174 114.134 174 118V138C174 141.866 170.866 145 167 145H72C68.134 145 65 141.866 65 138V118Z" fill="#FFE7CA"/>
<path d="M111.484 129.293C111.379 130.195 111.045 130.893 110.482 131.385C109.924 131.873 109.18 132.117 108.25 132.117C107.242 132.117 106.434 131.756 105.824 131.033C105.219 130.311 104.916 129.344 104.916 128.133V127.312C104.916 126.52 105.057 125.822 105.338 125.221C105.623 124.619 106.025 124.158 106.545 123.838C107.064 123.514 107.666 123.352 108.35 123.352C109.256 123.352 109.982 123.605 110.529 124.113C111.076 124.617 111.395 125.316 111.484 126.211H110.354C110.256 125.531 110.043 125.039 109.715 124.734C109.391 124.43 108.936 124.277 108.35 124.277C107.631 124.277 107.066 124.543 106.656 125.074C106.25 125.605 106.047 126.361 106.047 127.342V128.168C106.047 129.094 106.24 129.83 106.627 130.377C107.014 130.924 107.555 131.197 108.25 131.197C108.875 131.197 109.354 131.057 109.686 130.775C110.021 130.49 110.244 129.996 110.354 129.293H111.484ZM114.033 132H112.949V123H114.033V132ZM116.951 132H115.867V125.66H116.951V132ZM115.779 123.979C115.779 123.803 115.832 123.654 115.938 123.533C116.047 123.412 116.207 123.352 116.418 123.352C116.629 123.352 116.789 123.412 116.898 123.533C117.008 123.654 117.062 123.803 117.062 123.979C117.062 124.154 117.008 124.301 116.898 124.418C116.789 124.535 116.629 124.594 116.418 124.594C116.207 124.594 116.047 124.535 115.938 124.418C115.832 124.301 115.779 124.154 115.779 123.979ZM121.322 132.117C120.463 132.117 119.764 131.836 119.225 131.273C118.686 130.707 118.416 129.951 118.416 129.006V128.807C118.416 128.178 118.535 127.617 118.773 127.125C119.016 126.629 119.352 126.242 119.781 125.965C120.215 125.684 120.684 125.543 121.188 125.543C122.012 125.543 122.652 125.814 123.109 126.357C123.566 126.9 123.795 127.678 123.795 128.689V129.141H119.5C119.516 129.766 119.697 130.271 120.045 130.658C120.396 131.041 120.842 131.232 121.381 131.232C121.764 131.232 122.088 131.154 122.354 130.998C122.619 130.842 122.852 130.635 123.051 130.377L123.713 130.893C123.182 131.709 122.385 132.117 121.322 132.117ZM121.188 126.434C120.75 126.434 120.383 126.594 120.086 126.914C119.789 127.23 119.605 127.676 119.535 128.25H122.711V128.168C122.68 127.617 122.531 127.191 122.266 126.891C122 126.586 121.641 126.434 121.188 126.434ZM126.08 125.66L126.115 126.457C126.6 125.848 127.232 125.543 128.014 125.543C129.354 125.543 130.029 126.299 130.041 127.811V132H128.957V127.805C128.953 127.348 128.848 127.01 128.641 126.791C128.438 126.572 128.119 126.463 127.686 126.463C127.334 126.463 127.025 126.557 126.76 126.744C126.494 126.932 126.287 127.178 126.139 127.482V132H125.055V125.66H126.08ZM133.146 124.125V125.66H134.33V126.498H133.146V130.43C133.146 130.684 133.199 130.875 133.305 131.004C133.41 131.129 133.59 131.191 133.844 131.191C133.969 131.191 134.141 131.168 134.359 131.121V132C134.074 132.078 133.797 132.117 133.527 132.117C133.043 132.117 132.678 131.971 132.432 131.678C132.186 131.385 132.062 130.969 132.062 130.43V126.498H130.908V125.66H132.062V124.125H133.146Z" fill="black"/>
<path d="M72 112H167V110H72V112ZM173 118V138H175V118H173ZM167 144H72V146H167V144ZM66 138V118H64V138H66ZM72 144C68.6863 144 66 141.314 66 138H64C64 142.418 67.5817 146 72 146V144ZM173 138C173 141.314 170.314 144 167 144V146C171.418 146 175 142.418 175 138H173ZM167 112C170.314 112 173 114.686 173 118H175C175 113.582 171.418 110 167 110V112ZM72 110C67.5817 110 64 113.582 64 118H66C66 114.686 68.6863 112 72 112V110Z" fill="black"/>
</g>
<defs>
<clipPath id="clip0">
<rect width="518" height="205" fill="white"/>
</clipPath>
</defs>
</svg>
