<svg width="735" height="259" viewBox="0 0 735 259" fill="none" xmlns="http://www.w3.org/2000/svg">
<g clip-path="url(#clip0)">
<rect width="101" height="100" transform="translate(0 29)" fill="white"/>
<line x1="100.5" y1="29" x2="100.5" y2="630.001" stroke="black"/>
<line x1="0.5" y1="29" x2="0.5" y2="630.001" stroke="black"/>
<line y1="128.5" x2="801" y2="128.5" stroke="black"/>
<line y1="29.5" x2="801" y2="29.5" stroke="black"/>
<line y1="128.5" x2="801" y2="128.5" stroke="black"/>
<line y1="29.5" x2="801" y2="29.5" stroke="black"/>
<rect x="1" y="30" width="99" height="98" fill="#DBE9FF"/>
</g>
<g clip-path="url(#clip1)">
<rect width="101" height="100" transform="translate(164 31)" fill="white"/>
<line x1="264.5" y1="31" x2="264.5" y2="632.001" stroke="black"/>
<line x1="164.5" y1="31" x2="164.5" y2="632.001" stroke="black"/>
<line x1="164" y1="130.5" x2="965" y2="130.5" stroke="black"/>
<line x1="164" y1="31.5" x2="965" y2="31.5" stroke="black"/>
<line x1="164" y1="130.5" x2="965" y2="130.5" stroke="black"/>
<line x1="164" y1="31.5" x2="965" y2="31.5" stroke="black"/>
<rect x="165" y="32" width="99" height="98" fill="#DBE9FF"/>
</g>
<g clip-path="url(#clip2)">
<rect width="101" height="100" transform="translate(327 32)" fill="white"/>
<line x1="427.5" y1="32" x2="427.5" y2="633.001" stroke="black"/>
<line x1="327.5" y1="32" x2="327.5" y2="633.001" stroke="black"/>
<line x1="327" y1="131.5" x2="1128" y2="131.5" stroke="black"/>
<line x1="327" y1="32.5" x2="1128" y2="32.5" stroke="black"/>
<line x1="327" y1="131.5" x2="1128" y2="131.5" stroke="black"/>
<line x1="327" y1="32.5" x2="1128" y2="32.5" stroke="black"/>
<rect x="328" y="33" width="99" height="98" fill="#DBE9FF"/>
<path fill-rule="evenodd" clip-rule="evenodd" d="M369.292 50.153C367.097 52.1743 365.623 55.2912 365.623 59.7273C365.623 64.5266 366.276 65.8923 366.818 66.6215C367.056 66.9426 367.268 67.1531 367.578 67.4612C367.758 67.6406 367.972 67.853 368.243 68.1397C368.913 68.8466 369.637 69.7359 370.321 71.1056C371.714 73.8907 372.38 75.9773 372.699 77.3636H384.003C384.321 75.9773 384.987 73.8907 386.38 71.1056C387.065 69.7359 387.788 68.8466 388.458 68.1397C388.73 67.853 388.943 67.6406 389.124 67.4612C389.433 67.1531 389.645 66.9426 389.884 66.6215C390.425 65.8923 391.078 64.5266 391.078 59.7273C391.078 55.2912 389.604 52.1743 387.41 50.153C385.188 48.1068 382.026 47 378.351 47C374.675 47 371.513 48.1068 369.292 50.153ZM363.623 59.7273C363.623 49.9091 370.217 45 378.351 45C386.484 45 393.078 49.9091 393.078 59.7273C393.078 66.3388 391.899 67.5175 390.423 68.9921C389.708 69.7073 388.923 70.4921 388.169 72C386.614 75.1089 386.044 77.2333 385.835 78.3734C385.736 78.9166 385.267 79.3636 384.714 79.3636H371.987C371.435 79.3636 370.966 78.9166 370.866 78.3734C370.657 77.2333 370.087 75.1089 368.533 72C367.779 70.4921 366.993 69.7073 366.278 68.9921C364.803 67.5175 363.623 66.3388 363.623 59.7273ZM370.987 82.3182C370.987 82.042 371.211 81.8182 371.487 81.8182H385.214C385.49 81.8182 385.714 82.042 385.714 82.3182V88.9228C385.714 89.0852 385.637 89.2367 385.502 89.3274C384.815 89.7898 382.599 91.2186 380.858 91.6243C380.823 91.6326 380.786 91.6364 380.75 91.6364H375.951C375.915 91.6364 375.879 91.6326 375.843 91.6243C374.102 91.2186 371.886 89.7898 371.199 89.3274C371.065 89.2367 370.987 89.0852 370.987 88.9228V82.3182ZM374.442 58.5C374.442 58.1496 374.647 57.4437 375.143 56.8235C375.614 56.235 376.268 55.8182 377.123 55.8182C377.676 55.8182 378.123 55.3705 378.123 54.8182C378.123 54.2659 377.676 53.8182 377.123 53.8182C375.524 53.8182 374.338 54.6286 373.581 55.5742C372.85 56.488 372.442 57.6231 372.442 58.5C372.442 59.0523 372.889 59.5 373.442 59.5C373.994 59.5 374.442 59.0523 374.442 58.5Z" fill="#222222"/>
<path d="M351 118.636H362.922V101.805H379.753V118.636H392.377V101.805H405" stroke="black" stroke-width="2"/>
</g>
<g clip-path="url(#clip3)">
<rect width="101" height="100" transform="translate(497 31)" fill="white"/>
<line x1="597.5" y1="31" x2="597.5" y2="632.001" stroke="black"/>
<line x1="497.5" y1="31" x2="497.5" y2="632.001" stroke="black"/>
<line x1="497" y1="130.5" x2="1298" y2="130.5" stroke="black"/>
<line x1="497" y1="31.5" x2="1298" y2="31.5" stroke="black"/>
<line x1="497" y1="130.5" x2="1298" y2="130.5" stroke="black"/>
<line x1="497" y1="31.5" x2="1298" y2="31.5" stroke="black"/>
<rect x="498" y="32" width="99" height="98" fill="#DBE9FF"/>
<path d="M542.068 83.0161H558.075L558.075 90.7561C557.702 91.0081 556.879 91.5461 555.903 92.0786C554.914 92.6181 553.801 93.1327 552.85 93.3538H552.834H552.818H552.802H552.786H552.77H552.754H552.738H552.722H552.706H552.69H552.674H552.658H552.643H552.627H552.611H552.595H552.58H552.564H552.548H552.533H552.517H552.502H552.486H552.471H552.455H552.44H552.425H552.409H552.394H552.379H552.363H552.348H552.333H552.318H552.303H552.288H552.272H552.257H552.242H552.227H552.212H552.197H552.183H552.168H552.153H552.138H552.123H552.108H552.094H552.079H552.064H552.05H552.035H552.02H552.006H551.991H551.977H551.962H551.948H551.933H551.919H551.904H551.89H551.876H551.861H551.847H551.833H551.819H551.805H551.79H551.776H551.762H551.748H551.734H551.72H551.706H551.692H551.678H551.664H551.65H551.636H551.622H551.609H551.595H551.581H551.567H551.554H551.54H551.526H551.513H551.499H551.485H551.472H551.458H551.445H551.431H551.418H551.404H551.391H551.377H551.364H551.351H551.337H551.324H551.311H551.298H551.284H551.271H551.258H551.245H551.232H551.219H551.206H551.193H551.18H551.167H551.154H551.141H551.128H551.115H551.102H551.089H551.076H551.063H551.051H551.038H551.025H551.012H551H550.987H550.974H550.962H550.949H550.937H550.924H550.912H550.899H550.887H550.874H550.862H550.849H550.837H550.825H550.812H550.8H550.788H550.775H550.763H550.751H550.739H550.726H550.714H550.702H550.69H550.678H550.666H550.654H550.642H550.63H550.618H550.606H550.594H550.582H550.57H550.558H550.546H550.534H550.522H550.511H550.499H550.487H550.475H550.464H550.452H550.44H550.429H550.417H550.405H550.394H550.382H550.371H550.359H550.347H550.336H550.325H550.313H550.302H550.29H550.279H550.267H550.256H550.245H550.233H550.222H550.211H550.2H550.188H550.177H550.166H550.155H550.144H550.132H550.121H550.11H550.099H550.088H550.077H550.066H550.055H550.044H550.033H550.022H550.011H550H549.989H549.978H549.967H549.957H549.946H549.935H549.924H549.913H549.903H549.892H549.881H549.87H549.86H549.849H549.838H549.828H549.817H549.806H549.796H549.785H549.775H549.764H549.754H549.743H549.733H549.722H549.712H549.701H549.691H549.681H549.67H549.66H549.649H549.639H549.629H549.618H549.608H549.598H549.588H549.577H549.567H549.557H549.547H549.537H549.526H549.516H549.506H549.496H549.486H549.476H549.466H549.456H549.446H549.436H549.426H549.416H549.406H549.396H549.386H549.376H549.366H549.356H549.346H549.336H549.326H549.316H549.307H549.297H549.287H549.277H549.267H549.258H549.248H549.238H549.228H549.219H549.209H549.199H549.19H549.18H549.17H549.161H549.151H549.141H549.132H549.122H549.113H549.103H549.094H549.084H549.075H549.065H549.056H549.046H549.037H549.027H549.018H549.008H548.999H548.99H548.98H548.971H548.961H548.952H548.943H548.933H548.924H548.915H548.905H548.896H548.887H548.878H548.868H548.859H548.85H548.841H548.832H548.822H548.813H548.804H548.795H548.786H548.777H548.767H548.758H548.749H548.74H548.731H548.722H548.713H548.704H548.695H548.686H548.677H548.668H548.659H548.65H548.641H548.632H548.623H548.614H548.605H548.596H548.587H548.578H548.569H548.561H548.552H548.543H548.534H548.525H548.516H548.507H548.499H548.49H548.481H548.472H548.463H548.455H548.446H548.437H548.428H548.419H548.411H548.402H548.393H548.385H548.376H548.367H548.359H548.35H548.341H548.332H548.324H548.315H548.307H548.298H548.289H548.281H548.272H548.263H548.255H548.246H548.238H548.229H548.221H548.212H548.203H548.195H548.186H548.178H548.169H548.161H548.152H548.144H548.135H548.127H548.118H548.11H548.101H548.093H548.084H548.076H548.067H548.059H548.051H548.042H548.034H548.025H548.017H548.009H548H547.992H547.983H547.975H547.967H547.958H547.95H547.941H547.933H547.925H547.916H547.908H547.9H547.891H547.883H547.875H547.866H547.858H547.85H547.841H547.833H547.825H547.817H547.808H547.8H547.792H547.783H547.775H547.767H547.759H547.75H547.742H547.734H547.726H547.717H547.709H547.701H547.693H547.684H547.676H547.668H547.66H547.652H547.643H547.635H547.627H547.619H547.61H547.602H547.594H547.586H547.578H547.569H547.561H547.553H547.545H547.537H547.529H547.52H547.512H547.504H547.496H547.488H547.479H547.471H547.463H547.455H547.447H547.439H547.43H547.422H547.414H547.406H547.398H547.39H547.382H547.373H547.365H547.357H547.349H547.341H547.333H547.325H547.316H547.308H547.3H547.293C546.342 93.1327 545.229 92.6181 544.24 92.0786C543.263 91.5461 542.441 91.0081 542.068 90.7561V83.0161V83.0161Z" fill="#222222" stroke="#222222"/>
<path d="M533.565 57.0065C533.565 51.4559 535.425 47.3455 538.385 44.6194C541.351 41.8871 545.473 40.5 550.071 40.5C554.67 40.5 558.791 41.8871 561.758 44.6194C564.718 47.3455 566.578 51.4559 566.578 57.0065C566.578 62.6479 565.827 64.721 564.842 66.0467C564.488 66.5226 564.112 66.8982 563.688 67.3224C563.489 67.521 563.279 67.7302 563.057 67.9654C562.375 68.6849 561.655 69.5682 560.962 70.955C559.076 74.7268 558.422 77.2773 558.195 78.6054C558.137 78.9431 557.851 79.1818 557.575 79.1818H542.568C542.292 79.1818 542.006 78.9431 541.948 78.6054C541.721 77.2773 541.067 74.7268 539.181 70.955C538.488 69.5682 537.768 68.6849 537.086 67.9654C536.864 67.7302 536.654 67.521 536.455 67.3224C536.031 66.8982 535.655 66.5226 535.301 66.0467C534.316 64.721 533.565 62.6479 533.565 57.0065Z" fill="#F1F51B" stroke="#222222"/>
<path d="M544.403 55.5895C544.403 54.1723 545.82 51.3379 548.654 51.3379" stroke="#222222" stroke-linecap="round"/>
<path d="M519 122.169H531.584V104.403H549.351V122.169H562.675V104.403H576" stroke="black" stroke-width="2"/>
</g>
<path d="M289.539 227.578H278.57V258H274.094V227.578H263.148V223.875H289.539V227.578ZM298.633 258H294.297V232.641H298.633V258ZM293.945 225.914C293.945 225.211 294.156 224.617 294.578 224.133C295.016 223.648 295.656 223.406 296.5 223.406C297.344 223.406 297.984 223.648 298.422 224.133C298.859 224.617 299.078 225.211 299.078 225.914C299.078 226.617 298.859 227.203 298.422 227.672C297.984 228.141 297.344 228.375 296.5 228.375C295.656 228.375 295.016 228.141 294.578 227.672C294.156 227.203 293.945 226.617 293.945 225.914ZM309.672 232.641L309.789 235.453C311.648 233.266 314.156 232.172 317.312 232.172C320.859 232.172 323.273 233.531 324.555 236.25C325.398 235.031 326.492 234.047 327.836 233.297C329.195 232.547 330.797 232.172 332.641 232.172C338.203 232.172 341.031 235.117 341.125 241.008V258H336.789V241.266C336.789 239.453 336.375 238.102 335.547 237.211C334.719 236.305 333.328 235.852 331.375 235.852C329.766 235.852 328.43 236.336 327.367 237.305C326.305 238.258 325.688 239.547 325.516 241.172V258H321.156V241.383C321.156 237.695 319.352 235.852 315.742 235.852C312.898 235.852 310.953 237.062 309.906 239.484V258H305.57V232.641H309.672ZM358.211 258.469C354.773 258.469 351.977 257.344 349.82 255.094C347.664 252.828 346.586 249.805 346.586 246.023V245.227C346.586 242.711 347.062 240.469 348.016 238.5C348.984 236.516 350.328 234.969 352.047 233.859C353.781 232.734 355.656 232.172 357.672 232.172C360.969 232.172 363.531 233.258 365.359 235.43C367.188 237.602 368.102 240.711 368.102 244.758V246.562H350.922C350.984 249.062 351.711 251.086 353.102 252.633C354.508 254.164 356.289 254.93 358.445 254.93C359.977 254.93 361.273 254.617 362.336 253.992C363.398 253.367 364.328 252.539 365.125 251.508L367.773 253.57C365.648 256.836 362.461 258.469 358.211 258.469ZM357.672 235.734C355.922 235.734 354.453 236.375 353.266 237.656C352.078 238.922 351.344 240.703 351.062 243H363.766V242.672C363.641 240.469 363.047 238.766 361.984 237.562C360.922 236.344 359.484 235.734 357.672 235.734Z" fill="black"/>
<path d="M681.5 82.9688C681.5 81.9688 681.792 81.1354 682.375 80.4688C682.979 79.8021 683.875 79.4688 685.062 79.4688C686.25 79.4688 687.146 79.8021 687.75 80.4688C688.375 81.1354 688.688 81.9688 688.688 82.9688C688.688 83.9271 688.375 84.7292 687.75 85.375C687.146 86.0208 686.25 86.3438 685.062 86.3438C683.875 86.3438 682.979 86.0208 682.375 85.375C681.792 84.7292 681.5 83.9271 681.5 82.9688ZM698.375 82.9688C698.375 81.9688 698.667 81.1354 699.25 80.4688C699.854 79.8021 700.75 79.4688 701.938 79.4688C703.125 79.4688 704.021 79.8021 704.625 80.4688C705.25 81.1354 705.562 81.9688 705.562 82.9688C705.562 83.9271 705.25 84.7292 704.625 85.375C704.021 86.0208 703.125 86.3438 701.938 86.3438C700.75 86.3438 699.854 86.0208 699.25 85.375C698.667 84.7292 698.375 83.9271 698.375 82.9688ZM715.25 82.9688C715.25 81.9688 715.542 81.1354 716.125 80.4688C716.729 79.8021 717.625 79.4688 718.812 79.4688C720 79.4688 720.896 79.8021 721.5 80.4688C722.125 81.1354 722.438 81.9688 722.438 82.9688C722.438 83.9271 722.125 84.7292 721.5 85.375C720.896 86.0208 720 86.3438 718.812 86.3438C717.625 86.3438 716.729 86.0208 716.125 85.375C715.542 84.7292 715.25 83.9271 715.25 82.9688Z" fill="black"/>
<path d="M145.061 81.0607C145.646 80.4749 145.646 79.5251 145.061 78.9393L135.515 69.3934C134.929 68.8076 133.979 68.8076 133.393 69.3934C132.808 69.9792 132.808 70.9289 133.393 71.5147L141.879 80L133.393 88.4853C132.808 89.0711 132.808 90.0208 133.393 90.6066C133.979 91.1924 134.929 91.1924 135.515 90.6066L145.061 81.0607ZM121 81.5H144V78.5H121V81.5Z" fill="black"/>
<path d="M315.061 81.0607C315.646 80.4749 315.646 79.5251 315.061 78.9393L305.515 69.3934C304.929 68.8076 303.979 68.8076 303.393 69.3934C302.808 69.9792 302.808 70.9289 303.393 71.5147L311.879 80L303.393 88.4853C302.808 89.0711 302.808 90.0208 303.393 90.6066C303.979 91.1924 304.929 91.1924 305.515 90.6066L315.061 81.0607ZM291 81.5H314V78.5H291V81.5Z" fill="black"/>
<path d="M606.061 192.061C606.646 191.475 606.646 190.525 606.061 189.939L596.515 180.393C595.929 179.808 594.979 179.808 594.393 180.393C593.808 180.979 593.808 181.929 594.393 182.515L602.879 191L594.393 199.485C593.808 200.071 593.808 201.021 594.393 201.607C594.979 202.192 595.929 202.192 596.515 201.607L606.061 192.061ZM34 192.5L605 192.5L605 189.5L34 189.5L34 192.5Z" fill="black"/>
<path d="M478.061 81.0607C478.646 80.4749 478.646 79.5251 478.061 78.9393L468.515 69.3934C467.929 68.8076 466.979 68.8076 466.393 69.3934C465.808 69.9792 465.808 70.9289 466.393 71.5147L474.879 80L466.393 88.4853C465.808 89.0711 465.808 90.0208 466.393 90.6066C466.979 91.1924 467.929 91.1924 468.515 90.6066L478.061 81.0607ZM454 81.5H477V78.5H454V81.5Z" fill="black"/>
<path d="M644.061 83.0607C644.646 82.4749 644.646 81.5251 644.061 80.9393L634.515 71.3934C633.929 70.8076 632.979 70.8076 632.393 71.3934C631.808 71.9792 631.808 72.9289 632.393 73.5147L640.879 82L632.393 90.4853C631.808 91.0711 631.808 92.0208 632.393 92.6066C632.979 93.1924 633.929 93.1924 634.515 92.6066L644.061 83.0607ZM620 83.5H643V80.5H620V83.5Z" fill="black"/>
<path fill-rule="evenodd" clip-rule="evenodd" d="M37.2918 47.153C35.0971 49.1743 33.6234 52.2912 33.6234 56.7273C33.6234 61.5266 34.2762 62.8923 34.8178 63.6215C35.0563 63.9426 35.2679 64.1531 35.5778 64.4612C35.7581 64.6406 35.9718 64.853 36.2434 65.1397C36.9132 65.8466 37.6365 66.7359 38.3214 68.1056C39.7139 70.8907 40.3805 72.9773 40.6987 74.3636H52.0026C52.3209 72.9773 52.9874 70.8907 54.38 68.1056C55.0649 66.7359 55.7882 65.8466 56.458 65.1397C56.7296 64.853 56.9432 64.6406 57.1236 64.4612C57.4334 64.1531 57.6451 63.9426 57.8836 63.6215C58.4252 62.8923 59.078 61.5266 59.078 56.7273C59.078 52.2912 57.6042 49.1743 55.4095 47.153C53.1879 45.1068 50.0265 44 46.3507 44C42.6749 44 39.5135 45.1068 37.2918 47.153ZM31.6234 56.7273C31.6234 46.9091 38.217 42 46.3507 42C54.4843 42 61.078 46.9091 61.078 56.7273C61.078 63.3388 59.8987 64.5175 58.4235 65.9921C57.708 66.7073 56.9228 67.4921 56.1689 69C54.6144 72.1089 54.0444 74.2333 53.8354 75.3734C53.7358 75.9166 53.2666 76.3636 52.7143 76.3636H39.9871C39.4348 76.3636 38.9656 75.9166 38.866 75.3734C38.657 74.2333 38.0869 72.1089 36.5325 69C35.7785 67.4921 34.9934 66.7073 34.2779 65.9921C32.8027 64.5175 31.6234 63.3388 31.6234 56.7273ZM38.987 79.3182C38.987 79.042 39.2109 78.8182 39.487 78.8182H53.2143C53.4905 78.8182 53.7143 79.042 53.7143 79.3182V85.9228C53.7143 86.0852 53.6366 86.2367 53.5019 86.3274C52.8152 86.7898 50.599 88.2186 48.8582 88.6243C48.8227 88.6326 48.7862 88.6364 48.7497 88.6364H43.951C43.9145 88.6364 43.8787 88.6326 43.8432 88.6243C42.1023 88.2186 39.8861 86.7898 39.1995 86.3274C39.0648 86.2367 38.987 86.0852 38.987 85.9228V79.3182ZM42.4416 55.5C42.4416 55.1496 42.6468 54.4437 43.1429 53.8235C43.6137 53.235 44.2679 52.8182 45.1234 52.8182C45.6757 52.8182 46.1234 52.3705 46.1234 51.8182C46.1234 51.2659 45.6757 50.8182 45.1234 50.8182C43.5244 50.8182 42.3376 51.6286 41.5812 52.5742C40.8501 53.488 40.4416 54.6231 40.4416 55.5C40.4416 56.0523 40.8893 56.5 41.4416 56.5C41.9939 56.5 42.4416 56.0523 42.4416 55.5Z" fill="#222222"/>
<path d="M19 115.636H30.9221V98.8052H47.7532V115.636H60.3766V98.8052H73" stroke="black" stroke-width="2"/>
<path d="M208.068 83.0161H224.075L224.075 90.7561C223.702 91.0081 222.879 91.5461 221.903 92.0786C220.914 92.6181 219.801 93.1327 218.85 93.3538H218.834H218.818H218.802H218.786H218.77H218.754H218.738H218.722H218.706H218.69H218.674H218.658H218.643H218.627H218.611H218.595H218.58H218.564H218.548H218.533H218.517H218.502H218.486H218.471H218.455H218.44H218.425H218.409H218.394H218.379H218.363H218.348H218.333H218.318H218.303H218.288H218.272H218.257H218.242H218.227H218.212H218.197H218.183H218.168H218.153H218.138H218.123H218.108H218.094H218.079H218.064H218.05H218.035H218.02H218.006H217.991H217.977H217.962H217.948H217.933H217.919H217.904H217.89H217.876H217.861H217.847H217.833H217.819H217.805H217.79H217.776H217.762H217.748H217.734H217.72H217.706H217.692H217.678H217.664H217.65H217.636H217.622H217.609H217.595H217.581H217.567H217.554H217.54H217.526H217.513H217.499H217.485H217.472H217.458H217.445H217.431H217.418H217.404H217.391H217.377H217.364H217.351H217.337H217.324H217.311H217.298H217.284H217.271H217.258H217.245H217.232H217.219H217.206H217.193H217.18H217.167H217.154H217.141H217.128H217.115H217.102H217.089H217.076H217.063H217.051H217.038H217.025H217.012H217H216.987H216.974H216.962H216.949H216.937H216.924H216.912H216.899H216.887H216.874H216.862H216.849H216.837H216.825H216.812H216.8H216.788H216.775H216.763H216.751H216.739H216.726H216.714H216.702H216.69H216.678H216.666H216.654H216.642H216.63H216.618H216.606H216.594H216.582H216.57H216.558H216.546H216.534H216.522H216.511H216.499H216.487H216.475H216.464H216.452H216.44H216.429H216.417H216.405H216.394H216.382H216.371H216.359H216.347H216.336H216.325H216.313H216.302H216.29H216.279H216.267H216.256H216.245H216.233H216.222H216.211H216.2H216.188H216.177H216.166H216.155H216.144H216.132H216.121H216.11H216.099H216.088H216.077H216.066H216.055H216.044H216.033H216.022H216.011H216H215.989H215.978H215.967H215.957H215.946H215.935H215.924H215.913H215.903H215.892H215.881H215.87H215.86H215.849H215.838H215.828H215.817H215.806H215.796H215.785H215.775H215.764H215.754H215.743H215.733H215.722H215.712H215.701H215.691H215.681H215.67H215.66H215.649H215.639H215.629H215.618H215.608H215.598H215.588H215.577H215.567H215.557H215.547H215.537H215.526H215.516H215.506H215.496H215.486H215.476H215.466H215.456H215.446H215.436H215.426H215.416H215.406H215.396H215.386H215.376H215.366H215.356H215.346H215.336H215.326H215.316H215.307H215.297H215.287H215.277H215.267H215.258H215.248H215.238H215.228H215.219H215.209H215.199H215.19H215.18H215.17H215.161H215.151H215.141H215.132H215.122H215.113H215.103H215.094H215.084H215.075H215.065H215.056H215.046H215.037H215.027H215.018H215.008H214.999H214.99H214.98H214.971H214.961H214.952H214.943H214.933H214.924H214.915H214.905H214.896H214.887H214.878H214.868H214.859H214.85H214.841H214.832H214.822H214.813H214.804H214.795H214.786H214.777H214.767H214.758H214.749H214.74H214.731H214.722H214.713H214.704H214.695H214.686H214.677H214.668H214.659H214.65H214.641H214.632H214.623H214.614H214.605H214.596H214.587H214.578H214.569H214.561H214.552H214.543H214.534H214.525H214.516H214.507H214.499H214.49H214.481H214.472H214.463H214.455H214.446H214.437H214.428H214.419H214.411H214.402H214.393H214.385H214.376H214.367H214.359H214.35H214.341H214.332H214.324H214.315H214.307H214.298H214.289H214.281H214.272H214.263H214.255H214.246H214.238H214.229H214.221H214.212H214.203H214.195H214.186H214.178H214.169H214.161H214.152H214.144H214.135H214.127H214.118H214.11H214.101H214.093H214.084H214.076H214.067H214.059H214.051H214.042H214.034H214.025H214.017H214.009H214H213.992H213.983H213.975H213.967H213.958H213.95H213.941H213.933H213.925H213.916H213.908H213.9H213.891H213.883H213.875H213.866H213.858H213.85H213.841H213.833H213.825H213.817H213.808H213.8H213.792H213.783H213.775H213.767H213.759H213.75H213.742H213.734H213.726H213.717H213.709H213.701H213.693H213.684H213.676H213.668H213.66H213.652H213.643H213.635H213.627H213.619H213.61H213.602H213.594H213.586H213.578H213.569H213.561H213.553H213.545H213.537H213.529H213.52H213.512H213.504H213.496H213.488H213.479H213.471H213.463H213.455H213.447H213.439H213.43H213.422H213.414H213.406H213.398H213.39H213.382H213.373H213.365H213.357H213.349H213.341H213.333H213.325H213.316H213.308H213.3H213.293C212.342 93.1327 211.229 92.6181 210.24 92.0786C209.263 91.5461 208.441 91.0081 208.068 90.7561V83.0161V83.0161Z" fill="#222222" stroke="#222222"/>
<path d="M199.565 57.0065C199.565 51.4559 201.425 47.3455 204.385 44.6194C207.351 41.8871 211.473 40.5 216.071 40.5C220.67 40.5 224.791 41.8871 227.758 44.6194C230.718 47.3455 232.578 51.4559 232.578 57.0065C232.578 62.6479 231.827 64.721 230.842 66.0467C230.488 66.5226 230.112 66.8982 229.688 67.3224C229.489 67.521 229.279 67.7302 229.057 67.9654C228.375 68.6849 227.655 69.5682 226.962 70.955C225.076 74.7268 224.422 77.2773 224.195 78.6054C224.137 78.9431 223.851 79.1818 223.575 79.1818H208.568C208.292 79.1818 208.006 78.9431 207.948 78.6054C207.721 77.2773 207.067 74.7268 205.181 70.955C204.488 69.5682 203.768 68.6849 203.086 67.9654C202.864 67.7302 202.654 67.521 202.455 67.3224C202.031 66.8982 201.655 66.5226 201.301 66.0467C200.316 64.721 199.565 62.6479 199.565 57.0065Z" fill="#F1F51B" stroke="#222222"/>
<path d="M210.403 55.5895C210.403 54.1723 211.82 51.3379 214.654 51.3379" stroke="#222222" stroke-linecap="round"/>
<path d="M185 122.169H197.584V104.403H215.351V122.169H228.675V104.403H242" stroke="black" stroke-width="2"/>
<path d="M44.4365 5.1875V7.49023H46.2119V8.74707H44.4365V14.6445C44.4365 15.0254 44.5156 15.3125 44.6738 15.5059C44.832 15.6934 45.1016 15.7871 45.4824 15.7871C45.6699 15.7871 45.9277 15.752 46.2559 15.6816V17C45.8281 17.1172 45.4121 17.1758 45.0078 17.1758C44.2812 17.1758 43.7334 16.9561 43.3643 16.5166C42.9951 16.0771 42.8105 15.4531 42.8105 14.6445V8.74707H41.0791V7.49023H42.8105V5.1875H44.4365Z" fill="black"/>
<path d="M52.0586 16.3613C52.0586 17.6309 51.8418 18.5742 51.4082 19.1914C50.9746 19.8086 50.2969 20.1172 49.375 20.1172C48.4648 20.1172 47.791 19.8164 47.3535 19.2148C46.916 18.6094 46.6895 17.707 46.6738 16.5078V15.0605C46.6738 13.8066 46.8906 12.875 47.3242 12.2656C47.7578 11.6562 48.4375 11.3516 49.3633 11.3516C50.2812 11.3516 50.957 11.6465 51.3906 12.2363C51.8242 12.8223 52.0469 13.7285 52.0586 14.9551V16.3613ZM50.9746 14.8789C50.9746 13.9609 50.8457 13.293 50.5879 12.875C50.3301 12.4531 49.9219 12.2422 49.3633 12.2422C48.8086 12.2422 48.4043 12.4512 48.1504 12.8691C47.8965 13.2871 47.7656 13.9297 47.7578 14.7969V16.5312C47.7578 17.4531 47.8906 18.1348 48.1562 18.5762C48.4258 19.0137 48.832 19.2324 49.375 19.2324C49.9102 19.2324 50.3066 19.0254 50.5645 18.6113C50.8262 18.1973 50.9629 17.5449 50.9746 16.6543V14.8789Z" fill="black"/>
<path d="M211.437 5.1875V7.49023H213.212V8.74707H211.437V14.6445C211.437 15.0254 211.516 15.3125 211.674 15.5059C211.832 15.6934 212.102 15.7871 212.482 15.7871C212.67 15.7871 212.928 15.752 213.256 15.6816V17C212.828 17.1172 212.412 17.1758 212.008 17.1758C211.281 17.1758 210.733 16.9561 210.364 16.5166C209.995 16.0771 209.811 15.4531 209.811 14.6445V8.74707H208.079V7.49023H209.811V5.1875H211.437Z" fill="black"/>
<path d="M217.271 20H216.182V12.7754L213.996 13.5781V12.5938L217.102 11.4277H217.271V20Z" fill="black"/>
<path d="M378.437 5.1875V7.49023H380.212V8.74707H378.437V14.6445C378.437 15.0254 378.516 15.3125 378.674 15.5059C378.832 15.6934 379.102 15.7871 379.482 15.7871C379.67 15.7871 379.928 15.752 380.256 15.6816V17C379.828 17.1172 379.412 17.1758 379.008 17.1758C378.281 17.1758 377.733 16.9561 377.364 16.5166C376.995 16.0771 376.811 15.4531 376.811 14.6445V8.74707H375.079V7.49023H376.811V5.1875H378.437Z" fill="black"/>
<path d="M386.299 20H380.709V19.2207L383.662 15.9395C384.1 15.4434 384.4 15.041 384.564 14.7324C384.732 14.4199 384.816 14.0977 384.816 13.7656C384.816 13.3203 384.682 12.9551 384.412 12.6699C384.143 12.3848 383.783 12.2422 383.334 12.2422C382.795 12.2422 382.375 12.3965 382.074 12.7051C381.777 13.0098 381.629 13.4355 381.629 13.9824H380.545C380.545 13.1973 380.797 12.5625 381.301 12.0781C381.809 11.5938 382.486 11.3516 383.334 11.3516C384.127 11.3516 384.754 11.5605 385.215 11.9785C385.676 12.3926 385.906 12.9453 385.906 13.6367C385.906 14.4766 385.371 15.4766 384.301 16.6367L382.016 19.1152H386.299V20Z" fill="black"/>
<path d="M545.437 5.1875V7.49023H547.212V8.74707H545.437V14.6445C545.437 15.0254 545.516 15.3125 545.674 15.5059C545.832 15.6934 546.102 15.7871 546.482 15.7871C546.67 15.7871 546.928 15.752 547.256 15.6816V17C546.828 17.1172 546.412 17.1758 546.008 17.1758C545.281 17.1758 544.733 16.9561 544.364 16.5166C543.995 16.0771 543.811 15.4531 543.811 14.6445V8.74707H542.079V7.49023H543.811V5.1875H545.437Z" fill="black"/>
<path d="M549.285 15.207H550.1C550.611 15.1992 551.014 15.0645 551.307 14.8027C551.6 14.541 551.746 14.1875 551.746 13.7422C551.746 12.7422 551.248 12.2422 550.252 12.2422C549.783 12.2422 549.408 12.377 549.127 12.6465C548.85 12.9121 548.711 13.2656 548.711 13.707H547.627C547.627 13.0312 547.873 12.4707 548.365 12.0254C548.861 11.5762 549.49 11.3516 550.252 11.3516C551.057 11.3516 551.688 11.5645 552.145 11.9902C552.602 12.416 552.83 13.0078 552.83 13.7656C552.83 14.1367 552.709 14.4961 552.467 14.8438C552.229 15.1914 551.902 15.4512 551.488 15.623C551.957 15.7715 552.318 16.0176 552.572 16.3613C552.83 16.7051 552.959 17.125 552.959 17.6211C552.959 18.3867 552.709 18.9941 552.209 19.4434C551.709 19.8926 551.059 20.1172 550.258 20.1172C549.457 20.1172 548.805 19.9004 548.301 19.4668C547.801 19.0332 547.551 18.4609 547.551 17.75H548.641C548.641 18.1992 548.787 18.5586 549.08 18.8281C549.373 19.0977 549.766 19.2324 550.258 19.2324C550.781 19.2324 551.182 19.0957 551.459 18.8223C551.736 18.5488 551.875 18.1562 551.875 17.6445C551.875 17.1484 551.723 16.7676 551.418 16.502C551.113 16.2363 550.674 16.0996 550.1 16.0918H549.285V15.207Z" fill="black"/>
<defs>
<clipPath id="clip0">
<rect width="101" height="100" fill="white" transform="translate(0 29)"/>
</clipPath>
<clipPath id="clip1">
<rect width="101" height="100" fill="white" transform="translate(164 31)"/>
</clipPath>
<clipPath id="clip2">
<rect width="101" height="100" fill="white" transform="translate(327 32)"/>
</clipPath>
<clipPath id="clip3">
<rect width="101" height="100" fill="white" transform="translate(497 31)"/>
</clipPath>
</defs>
</svg>
