<svg width="1558" height="551" viewBox="0 0 1558 551" fill="none" xmlns="http://www.w3.org/2000/svg">
<rect x="186.5" y="0.5" width="548" height="470" rx="6.5" fill="#F0F0F0"/>
<path d="M435.053 230.969L437.842 237.93L440.631 230.969H442.09V239.5H440.965V236.178L441.07 232.592L438.27 239.5H437.408L434.613 232.609L434.725 236.178V239.5H433.6V230.969H435.053ZM446.9 238.006L449.338 230.969H450.568L447.404 239.5H446.408L443.25 230.969H444.475L446.9 238.006ZM456.539 235.557H452.842V238.58H457.137V239.5H451.717V230.969H457.078V231.895H452.842V234.637H456.539V235.557ZM464.027 235.697C463.062 235.42 462.359 235.08 461.918 234.678C461.48 234.271 461.262 233.771 461.262 233.178C461.262 232.506 461.529 231.951 462.064 231.514C462.604 231.072 463.303 230.852 464.162 230.852C464.748 230.852 465.27 230.965 465.727 231.191C466.188 231.418 466.543 231.73 466.793 232.129C467.047 232.527 467.174 232.963 467.174 233.436H466.043C466.043 232.92 465.879 232.516 465.551 232.223C465.223 231.926 464.76 231.777 464.162 231.777C463.607 231.777 463.174 231.9 462.861 232.146C462.553 232.389 462.398 232.727 462.398 233.16C462.398 233.508 462.545 233.803 462.838 234.045C463.135 234.283 463.637 234.502 464.344 234.701C465.055 234.9 465.609 235.121 466.008 235.363C466.41 235.602 466.707 235.881 466.898 236.201C467.094 236.521 467.191 236.898 467.191 237.332C467.191 238.023 466.922 238.578 466.383 238.996C465.844 239.41 465.123 239.617 464.221 239.617C463.635 239.617 463.088 239.506 462.58 239.283C462.072 239.057 461.68 238.748 461.402 238.357C461.129 237.967 460.992 237.523 460.992 237.027H462.123C462.123 237.543 462.312 237.951 462.691 238.252C463.074 238.549 463.584 238.697 464.221 238.697C464.814 238.697 465.27 238.576 465.586 238.334C465.902 238.092 466.061 237.762 466.061 237.344C466.061 236.926 465.914 236.604 465.621 236.377C465.328 236.146 464.797 235.92 464.027 235.697ZM469.939 231.625V233.16H471.123V233.998H469.939V237.93C469.939 238.184 469.992 238.375 470.098 238.504C470.203 238.629 470.383 238.691 470.637 238.691C470.762 238.691 470.934 238.668 471.152 238.621V239.5C470.867 239.578 470.59 239.617 470.32 239.617C469.836 239.617 469.471 239.471 469.225 239.178C468.979 238.885 468.855 238.469 468.855 237.93V233.998H467.701V233.16H468.855V231.625H469.939ZM476.309 239.5C476.246 239.375 476.195 239.152 476.156 238.832C475.652 239.355 475.051 239.617 474.352 239.617C473.727 239.617 473.213 239.441 472.811 239.09C472.412 238.734 472.213 238.285 472.213 237.742C472.213 237.082 472.463 236.57 472.963 236.207C473.467 235.84 474.174 235.656 475.084 235.656H476.139V235.158C476.139 234.779 476.025 234.479 475.799 234.256C475.572 234.029 475.238 233.916 474.797 233.916C474.41 233.916 474.086 234.014 473.824 234.209C473.562 234.404 473.432 234.641 473.432 234.918H472.342C472.342 234.602 472.453 234.297 472.676 234.004C472.902 233.707 473.207 233.473 473.59 233.301C473.977 233.129 474.4 233.043 474.861 233.043C475.592 233.043 476.164 233.227 476.578 233.594C476.992 233.957 477.207 234.459 477.223 235.1V238.018C477.223 238.6 477.297 239.062 477.445 239.406V239.5H476.309ZM474.51 238.674C474.85 238.674 475.172 238.586 475.477 238.41C475.781 238.234 476.002 238.006 476.139 237.725V236.424H475.289C473.961 236.424 473.297 236.812 473.297 237.59C473.297 237.93 473.41 238.195 473.637 238.387C473.863 238.578 474.154 238.674 474.51 238.674ZM480.393 231.625V233.16H481.576V233.998H480.393V237.93C480.393 238.184 480.445 238.375 480.551 238.504C480.656 238.629 480.836 238.691 481.09 238.691C481.215 238.691 481.387 238.668 481.605 238.621V239.5C481.32 239.578 481.043 239.617 480.773 239.617C480.289 239.617 479.924 239.471 479.678 239.178C479.432 238.885 479.309 238.469 479.309 237.93V233.998H478.154V233.16H479.309V231.625H480.393ZM485.479 239.617C484.619 239.617 483.92 239.336 483.381 238.773C482.842 238.207 482.572 237.451 482.572 236.506V236.307C482.572 235.678 482.691 235.117 482.93 234.625C483.172 234.129 483.508 233.742 483.938 233.465C484.371 233.184 484.84 233.043 485.344 233.043C486.168 233.043 486.809 233.314 487.266 233.857C487.723 234.4 487.951 235.178 487.951 236.189V236.641H483.656C483.672 237.266 483.854 237.771 484.201 238.158C484.553 238.541 484.998 238.732 485.537 238.732C485.92 238.732 486.244 238.654 486.51 238.498C486.775 238.342 487.008 238.135 487.207 237.877L487.869 238.393C487.338 239.209 486.541 239.617 485.479 239.617ZM485.344 233.934C484.906 233.934 484.539 234.094 484.242 234.414C483.945 234.73 483.762 235.176 483.691 235.75H486.867V235.668C486.836 235.117 486.688 234.691 486.422 234.391C486.156 234.086 485.797 233.934 485.344 233.934Z" fill="black"/>
<rect x="186.5" y="0.5" width="548" height="470" rx="6.5" stroke="black"/>
<g clip-path="url(#clip0)">
<rect width="501" height="400" transform="translate(208 51)" fill="white"/>
<line x1="308.5" y1="51" x2="308.5" y2="652.001" stroke="black"/>
<line x1="408.5" y1="51" x2="408.5" y2="652.001" stroke="black"/>
<line x1="508.5" y1="51" x2="508.5" y2="652.001" stroke="black"/>
<line x1="608.5" y1="51" x2="608.5" y2="652.001" stroke="black"/>
<line x1="708.5" y1="51" x2="708.5" y2="652.001" stroke="black"/>
<line x1="208.5" y1="51" x2="208.5" y2="652.001" stroke="black"/>
<line x1="208" y1="450.5" x2="1009" y2="450.5" stroke="black"/>
<line x1="208" y1="350.5" x2="1009" y2="350.5" stroke="black"/>
<line x1="208" y1="250.5" x2="1009" y2="250.5" stroke="black"/>
<line x1="208" y1="150.5" x2="1009" y2="150.5" stroke="black"/>
<line x1="208" y1="51.5" x2="1009" y2="51.5" stroke="black"/>
<line x1="208" y1="450.5" x2="1009" y2="450.5" stroke="black"/>
<line x1="208" y1="350.5" x2="1009" y2="350.5" stroke="black"/>
<line x1="208" y1="250.5" x2="1009" y2="250.5" stroke="black"/>
<line x1="208" y1="150.5" x2="1009" y2="150.5" stroke="black"/>
<line x1="208" y1="51.5" x2="1009" y2="51.5" stroke="black"/>
<rect x="309" y="251" width="99" height="99" fill="#E9FFDB"/>
<rect x="509" y="151" width="99" height="99" fill="#E9FFDB"/>
<rect x="509" y="251" width="99" height="99" fill="#E9FFDB"/>
<rect x="504.5" y="146.5" width="108" height="208" stroke="black" stroke-width="3" stroke-dasharray="7 7"/>
</g>
<path d="M212.887 17.9375L218.465 31.8594L224.043 17.9375H226.961V35H224.711V28.3555L224.922 21.1836L219.32 35H217.598L212.008 21.2188L212.23 28.3555V35H209.98V17.9375H212.887ZM236.582 32.0117L241.457 17.9375H243.918L237.59 35H235.598L229.281 17.9375H231.73L236.582 32.0117ZM255.859 27.1133H248.465V33.1602H257.055V35H246.215V17.9375H256.938V19.7891H248.465V25.2734H255.859V27.1133ZM270.836 27.3945C268.906 26.8398 267.5 26.1602 266.617 25.3555C265.742 24.543 265.305 23.543 265.305 22.3555C265.305 21.0117 265.84 19.9023 266.91 19.0273C267.988 18.1445 269.387 17.7031 271.105 17.7031C272.277 17.7031 273.32 17.9297 274.234 18.3828C275.156 18.8359 275.867 19.4609 276.367 20.2578C276.875 21.0547 277.129 21.9258 277.129 22.8711H274.867C274.867 21.8398 274.539 21.0312 273.883 20.4453C273.227 19.8516 272.301 19.5547 271.105 19.5547C269.996 19.5547 269.129 19.8008 268.504 20.293C267.887 20.7773 267.578 21.4531 267.578 22.3203C267.578 23.0156 267.871 23.6055 268.457 24.0898C269.051 24.5664 270.055 25.0039 271.469 25.4023C272.891 25.8008 274 26.2422 274.797 26.7266C275.602 27.2031 276.195 27.7617 276.578 28.4023C276.969 29.043 277.164 29.7969 277.164 30.6641C277.164 32.0469 276.625 33.1562 275.547 33.9922C274.469 34.8203 273.027 35.2344 271.223 35.2344C270.051 35.2344 268.957 35.0117 267.941 34.5664C266.926 34.1133 266.141 33.4961 265.586 32.7148C265.039 31.9336 264.766 31.0469 264.766 30.0547H267.027C267.027 31.0859 267.406 31.9023 268.164 32.5039C268.93 33.0977 269.949 33.3945 271.223 33.3945C272.41 33.3945 273.32 33.1523 273.953 32.668C274.586 32.1836 274.902 31.5234 274.902 30.6875C274.902 29.8516 274.609 29.207 274.023 28.7539C273.438 28.293 272.375 27.8398 270.836 27.3945ZM282.66 19.25V22.3203H285.027V23.9961H282.66V31.8594C282.66 32.3672 282.766 32.75 282.977 33.0078C283.188 33.2578 283.547 33.3828 284.055 33.3828C284.305 33.3828 284.648 33.3359 285.086 33.2422V35C284.516 35.1562 283.961 35.2344 283.422 35.2344C282.453 35.2344 281.723 34.9414 281.23 34.3555C280.738 33.7695 280.492 32.9375 280.492 31.8594V23.9961H278.184V22.3203H280.492V19.25H282.66ZM295.398 35C295.273 34.75 295.172 34.3047 295.094 33.6641C294.086 34.7109 292.883 35.2344 291.484 35.2344C290.234 35.2344 289.207 34.8828 288.402 34.1797C287.605 33.4688 287.207 32.5703 287.207 31.4844C287.207 30.1641 287.707 29.1406 288.707 28.4141C289.715 27.6797 291.129 27.3125 292.949 27.3125H295.059V26.3164C295.059 25.5586 294.832 24.957 294.379 24.5117C293.926 24.0586 293.258 23.832 292.375 23.832C291.602 23.832 290.953 24.0273 290.43 24.418C289.906 24.8086 289.645 25.2812 289.645 25.8359H287.465C287.465 25.2031 287.688 24.5938 288.133 24.0078C288.586 23.4141 289.195 22.9453 289.961 22.6016C290.734 22.2578 291.582 22.0859 292.504 22.0859C293.965 22.0859 295.109 22.4531 295.938 23.1875C296.766 23.9141 297.195 24.918 297.227 26.1992V32.0352C297.227 33.1992 297.375 34.125 297.672 34.8125V35H295.398ZM291.801 33.3477C292.48 33.3477 293.125 33.1719 293.734 32.8203C294.344 32.4688 294.785 32.0117 295.059 31.4492V28.8477H293.359C290.703 28.8477 289.375 29.625 289.375 31.1797C289.375 31.8594 289.602 32.3906 290.055 32.7734C290.508 33.1562 291.09 33.3477 291.801 33.3477ZM303.566 19.25V22.3203H305.934V23.9961H303.566V31.8594C303.566 32.3672 303.672 32.75 303.883 33.0078C304.094 33.2578 304.453 33.3828 304.961 33.3828C305.211 33.3828 305.555 33.3359 305.992 33.2422V35C305.422 35.1562 304.867 35.2344 304.328 35.2344C303.359 35.2344 302.629 34.9414 302.137 34.3555C301.645 33.7695 301.398 32.9375 301.398 31.8594V23.9961H299.09V22.3203H301.398V19.25H303.566ZM313.738 35.2344C312.02 35.2344 310.621 34.6719 309.543 33.5469C308.465 32.4141 307.926 30.9023 307.926 29.0117V28.6133C307.926 27.3555 308.164 26.2344 308.641 25.25C309.125 24.2578 309.797 23.4844 310.656 22.9297C311.523 22.3672 312.461 22.0859 313.469 22.0859C315.117 22.0859 316.398 22.6289 317.312 23.7148C318.227 24.8008 318.684 26.3555 318.684 28.3789V29.2812H310.094C310.125 30.5312 310.488 31.543 311.184 32.3164C311.887 33.082 312.777 33.4648 313.855 33.4648C314.621 33.4648 315.27 33.3086 315.801 32.9961C316.332 32.6836 316.797 32.2695 317.195 31.7539L318.52 32.7852C317.457 34.418 315.863 35.2344 313.738 35.2344ZM313.469 23.8672C312.594 23.8672 311.859 24.1875 311.266 24.8281C310.672 25.4609 310.305 26.3516 310.164 27.5H316.516V27.3359C316.453 26.2344 316.156 25.3828 315.625 24.7812C315.094 24.1719 314.375 23.8672 313.469 23.8672Z" fill="black"/>
<rect x="1009.5" y="0.5" width="548" height="470" rx="6.5" fill="#F0F0F0"/>
<path d="M1258.05 230.969L1260.84 237.93L1263.63 230.969H1265.09V239.5H1263.96V236.178L1264.07 232.592L1261.27 239.5H1260.41L1257.61 232.609L1257.72 236.178V239.5H1256.6V230.969H1258.05ZM1269.9 238.006L1272.34 230.969H1273.57L1270.4 239.5H1269.41L1266.25 230.969H1267.47L1269.9 238.006ZM1279.54 235.557H1275.84V238.58H1280.14V239.5H1274.72V230.969H1280.08V231.895H1275.84V234.637H1279.54V235.557ZM1287.03 235.697C1286.06 235.42 1285.36 235.08 1284.92 234.678C1284.48 234.271 1284.26 233.771 1284.26 233.178C1284.26 232.506 1284.53 231.951 1285.06 231.514C1285.6 231.072 1286.3 230.852 1287.16 230.852C1287.75 230.852 1288.27 230.965 1288.73 231.191C1289.19 231.418 1289.54 231.73 1289.79 232.129C1290.05 232.527 1290.17 232.963 1290.17 233.436H1289.04C1289.04 232.92 1288.88 232.516 1288.55 232.223C1288.22 231.926 1287.76 231.777 1287.16 231.777C1286.61 231.777 1286.17 231.9 1285.86 232.146C1285.55 232.389 1285.4 232.727 1285.4 233.16C1285.4 233.508 1285.54 233.803 1285.84 234.045C1286.13 234.283 1286.64 234.502 1287.34 234.701C1288.05 234.9 1288.61 235.121 1289.01 235.363C1289.41 235.602 1289.71 235.881 1289.9 236.201C1290.09 236.521 1290.19 236.898 1290.19 237.332C1290.19 238.023 1289.92 238.578 1289.38 238.996C1288.84 239.41 1288.12 239.617 1287.22 239.617C1286.63 239.617 1286.09 239.506 1285.58 239.283C1285.07 239.057 1284.68 238.748 1284.4 238.357C1284.13 237.967 1283.99 237.523 1283.99 237.027H1285.12C1285.12 237.543 1285.31 237.951 1285.69 238.252C1286.07 238.549 1286.58 238.697 1287.22 238.697C1287.81 238.697 1288.27 238.576 1288.59 238.334C1288.9 238.092 1289.06 237.762 1289.06 237.344C1289.06 236.926 1288.91 236.604 1288.62 236.377C1288.33 236.146 1287.8 235.92 1287.03 235.697ZM1292.94 231.625V233.16H1294.12V233.998H1292.94V237.93C1292.94 238.184 1292.99 238.375 1293.1 238.504C1293.2 238.629 1293.38 238.691 1293.64 238.691C1293.76 238.691 1293.93 238.668 1294.15 238.621V239.5C1293.87 239.578 1293.59 239.617 1293.32 239.617C1292.84 239.617 1292.47 239.471 1292.22 239.178C1291.98 238.885 1291.86 238.469 1291.86 237.93V233.998H1290.7V233.16H1291.86V231.625H1292.94ZM1299.31 239.5C1299.25 239.375 1299.2 239.152 1299.16 238.832C1298.65 239.355 1298.05 239.617 1297.35 239.617C1296.73 239.617 1296.21 239.441 1295.81 239.09C1295.41 238.734 1295.21 238.285 1295.21 237.742C1295.21 237.082 1295.46 236.57 1295.96 236.207C1296.47 235.84 1297.17 235.656 1298.08 235.656H1299.14V235.158C1299.14 234.779 1299.03 234.479 1298.8 234.256C1298.57 234.029 1298.24 233.916 1297.8 233.916C1297.41 233.916 1297.09 234.014 1296.82 234.209C1296.56 234.404 1296.43 234.641 1296.43 234.918H1295.34C1295.34 234.602 1295.45 234.297 1295.68 234.004C1295.9 233.707 1296.21 233.473 1296.59 233.301C1296.98 233.129 1297.4 233.043 1297.86 233.043C1298.59 233.043 1299.16 233.227 1299.58 233.594C1299.99 233.957 1300.21 234.459 1300.22 235.1V238.018C1300.22 238.6 1300.3 239.062 1300.45 239.406V239.5H1299.31ZM1297.51 238.674C1297.85 238.674 1298.17 238.586 1298.48 238.41C1298.78 238.234 1299 238.006 1299.14 237.725V236.424H1298.29C1296.96 236.424 1296.3 236.812 1296.3 237.59C1296.3 237.93 1296.41 238.195 1296.64 238.387C1296.86 238.578 1297.15 238.674 1297.51 238.674ZM1303.39 231.625V233.16H1304.58V233.998H1303.39V237.93C1303.39 238.184 1303.45 238.375 1303.55 238.504C1303.66 238.629 1303.84 238.691 1304.09 238.691C1304.21 238.691 1304.39 238.668 1304.61 238.621V239.5C1304.32 239.578 1304.04 239.617 1303.77 239.617C1303.29 239.617 1302.92 239.471 1302.68 239.178C1302.43 238.885 1302.31 238.469 1302.31 237.93V233.998H1301.15V233.16H1302.31V231.625H1303.39ZM1308.48 239.617C1307.62 239.617 1306.92 239.336 1306.38 238.773C1305.84 238.207 1305.57 237.451 1305.57 236.506V236.307C1305.57 235.678 1305.69 235.117 1305.93 234.625C1306.17 234.129 1306.51 233.742 1306.94 233.465C1307.37 233.184 1307.84 233.043 1308.34 233.043C1309.17 233.043 1309.81 233.314 1310.27 233.857C1310.72 234.4 1310.95 235.178 1310.95 236.189V236.641H1306.66C1306.67 237.266 1306.85 237.771 1307.2 238.158C1307.55 238.541 1308 238.732 1308.54 238.732C1308.92 238.732 1309.24 238.654 1309.51 238.498C1309.78 238.342 1310.01 238.135 1310.21 237.877L1310.87 238.393C1310.34 239.209 1309.54 239.617 1308.48 239.617ZM1308.34 233.934C1307.91 233.934 1307.54 234.094 1307.24 234.414C1306.95 234.73 1306.76 235.176 1306.69 235.75H1309.87V235.668C1309.84 235.117 1309.69 234.691 1309.42 234.391C1309.16 234.086 1308.8 233.934 1308.34 233.934Z" fill="black"/>
<rect x="1009.5" y="0.5" width="548" height="470" rx="6.5" stroke="black"/>
<g clip-path="url(#clip1)">
<rect width="501" height="400" transform="translate(1031 51)" fill="white"/>
<line x1="1131.5" y1="51" x2="1131.5" y2="652.001" stroke="black"/>
<line x1="1231.5" y1="51" x2="1231.5" y2="652.001" stroke="black"/>
<line x1="1331.5" y1="51" x2="1331.5" y2="652.001" stroke="black"/>
<line x1="1431.5" y1="51" x2="1431.5" y2="652.001" stroke="black"/>
<line x1="1531.5" y1="51" x2="1531.5" y2="652.001" stroke="black"/>
<line x1="1031.5" y1="51" x2="1031.5" y2="652.001" stroke="black"/>
<line x1="1031" y1="450.5" x2="1832" y2="450.5" stroke="black"/>
<line x1="1031" y1="350.5" x2="1832" y2="350.5" stroke="black"/>
<line x1="1031" y1="250.5" x2="1832" y2="250.5" stroke="black"/>
<line x1="1031" y1="150.5" x2="1832" y2="150.5" stroke="black"/>
<line x1="1031" y1="51.5" x2="1832" y2="51.5" stroke="black"/>
<line x1="1031" y1="450.5" x2="1832" y2="450.5" stroke="black"/>
<line x1="1031" y1="350.5" x2="1832" y2="350.5" stroke="black"/>
<line x1="1031" y1="250.5" x2="1832" y2="250.5" stroke="black"/>
<line x1="1031" y1="150.5" x2="1832" y2="150.5" stroke="black"/>
<line x1="1031" y1="51.5" x2="1832" y2="51.5" stroke="black"/>
<rect x="1132" y="251" width="99" height="99" fill="#E0DBFF"/>
<rect x="1332" y="151" width="99" height="99" fill="#E0DBFF"/>
<rect x="1332" y="251" width="99" height="99" fill="#E0DBFF"/>
<rect x="1327.5" y="146.5" width="108" height="208" stroke="black" stroke-width="3" stroke-dasharray="7 7"/>
</g>
<path d="M1035.89 17.9375L1041.46 31.8594L1047.04 17.9375H1049.96V35H1047.71V28.3555L1047.92 21.1836L1042.32 35H1040.6L1035.01 21.2188L1035.23 28.3555V35H1032.98V17.9375H1035.89ZM1059.58 32.0117L1064.46 17.9375H1066.92L1060.59 35H1058.6L1052.28 17.9375H1054.73L1059.58 32.0117ZM1078.86 27.1133H1071.46V33.1602H1080.05V35H1069.21V17.9375H1079.94V19.7891H1071.46V25.2734H1078.86V27.1133ZM1093.84 27.3945C1091.91 26.8398 1090.5 26.1602 1089.62 25.3555C1088.74 24.543 1088.3 23.543 1088.3 22.3555C1088.3 21.0117 1088.84 19.9023 1089.91 19.0273C1090.99 18.1445 1092.39 17.7031 1094.11 17.7031C1095.28 17.7031 1096.32 17.9297 1097.23 18.3828C1098.16 18.8359 1098.87 19.4609 1099.37 20.2578C1099.88 21.0547 1100.13 21.9258 1100.13 22.8711H1097.87C1097.87 21.8398 1097.54 21.0312 1096.88 20.4453C1096.23 19.8516 1095.3 19.5547 1094.11 19.5547C1093 19.5547 1092.13 19.8008 1091.5 20.293C1090.89 20.7773 1090.58 21.4531 1090.58 22.3203C1090.58 23.0156 1090.87 23.6055 1091.46 24.0898C1092.05 24.5664 1093.05 25.0039 1094.47 25.4023C1095.89 25.8008 1097 26.2422 1097.8 26.7266C1098.6 27.2031 1099.2 27.7617 1099.58 28.4023C1099.97 29.043 1100.16 29.7969 1100.16 30.6641C1100.16 32.0469 1099.62 33.1562 1098.55 33.9922C1097.47 34.8203 1096.03 35.2344 1094.22 35.2344C1093.05 35.2344 1091.96 35.0117 1090.94 34.5664C1089.93 34.1133 1089.14 33.4961 1088.59 32.7148C1088.04 31.9336 1087.77 31.0469 1087.77 30.0547H1090.03C1090.03 31.0859 1090.41 31.9023 1091.16 32.5039C1091.93 33.0977 1092.95 33.3945 1094.22 33.3945C1095.41 33.3945 1096.32 33.1523 1096.95 32.668C1097.59 32.1836 1097.9 31.5234 1097.9 30.6875C1097.9 29.8516 1097.61 29.207 1097.02 28.7539C1096.44 28.293 1095.38 27.8398 1093.84 27.3945ZM1105.66 19.25V22.3203H1108.03V23.9961H1105.66V31.8594C1105.66 32.3672 1105.77 32.75 1105.98 33.0078C1106.19 33.2578 1106.55 33.3828 1107.05 33.3828C1107.3 33.3828 1107.65 33.3359 1108.09 33.2422V35C1107.52 35.1562 1106.96 35.2344 1106.42 35.2344C1105.45 35.2344 1104.72 34.9414 1104.23 34.3555C1103.74 33.7695 1103.49 32.9375 1103.49 31.8594V23.9961H1101.18V22.3203H1103.49V19.25H1105.66ZM1118.4 35C1118.27 34.75 1118.17 34.3047 1118.09 33.6641C1117.09 34.7109 1115.88 35.2344 1114.48 35.2344C1113.23 35.2344 1112.21 34.8828 1111.4 34.1797C1110.61 33.4688 1110.21 32.5703 1110.21 31.4844C1110.21 30.1641 1110.71 29.1406 1111.71 28.4141C1112.71 27.6797 1114.13 27.3125 1115.95 27.3125H1118.06V26.3164C1118.06 25.5586 1117.83 24.957 1117.38 24.5117C1116.93 24.0586 1116.26 23.832 1115.38 23.832C1114.6 23.832 1113.95 24.0273 1113.43 24.418C1112.91 24.8086 1112.64 25.2812 1112.64 25.8359H1110.46C1110.46 25.2031 1110.69 24.5938 1111.13 24.0078C1111.59 23.4141 1112.2 22.9453 1112.96 22.6016C1113.73 22.2578 1114.58 22.0859 1115.5 22.0859C1116.96 22.0859 1118.11 22.4531 1118.94 23.1875C1119.77 23.9141 1120.2 24.918 1120.23 26.1992V32.0352C1120.23 33.1992 1120.38 34.125 1120.67 34.8125V35H1118.4ZM1114.8 33.3477C1115.48 33.3477 1116.12 33.1719 1116.73 32.8203C1117.34 32.4688 1117.79 32.0117 1118.06 31.4492V28.8477H1116.36C1113.7 28.8477 1112.38 29.625 1112.38 31.1797C1112.38 31.8594 1112.6 32.3906 1113.05 32.7734C1113.51 33.1562 1114.09 33.3477 1114.8 33.3477ZM1126.57 19.25V22.3203H1128.93V23.9961H1126.57V31.8594C1126.57 32.3672 1126.67 32.75 1126.88 33.0078C1127.09 33.2578 1127.45 33.3828 1127.96 33.3828C1128.21 33.3828 1128.55 33.3359 1128.99 33.2422V35C1128.42 35.1562 1127.87 35.2344 1127.33 35.2344C1126.36 35.2344 1125.63 34.9414 1125.14 34.3555C1124.64 33.7695 1124.4 32.9375 1124.4 31.8594V23.9961H1122.09V22.3203H1124.4V19.25H1126.57ZM1136.74 35.2344C1135.02 35.2344 1133.62 34.6719 1132.54 33.5469C1131.46 32.4141 1130.93 30.9023 1130.93 29.0117V28.6133C1130.93 27.3555 1131.16 26.2344 1131.64 25.25C1132.12 24.2578 1132.8 23.4844 1133.66 22.9297C1134.52 22.3672 1135.46 22.0859 1136.47 22.0859C1138.12 22.0859 1139.4 22.6289 1140.31 23.7148C1141.23 24.8008 1141.68 26.3555 1141.68 28.3789V29.2812H1133.09C1133.12 30.5312 1133.49 31.543 1134.18 32.3164C1134.89 33.082 1135.78 33.4648 1136.86 33.4648C1137.62 33.4648 1138.27 33.3086 1138.8 32.9961C1139.33 32.6836 1139.8 32.2695 1140.2 31.7539L1141.52 32.7852C1140.46 34.418 1138.86 35.2344 1136.74 35.2344ZM1136.47 23.8672C1135.59 23.8672 1134.86 24.1875 1134.27 24.8281C1133.67 25.4609 1133.3 26.3516 1133.16 27.5H1139.52V27.3359C1139.45 26.2344 1139.16 25.3828 1138.62 24.7812C1138.09 24.1719 1137.38 23.8672 1136.47 23.8672Z" fill="black"/>
<path d="M28.672 203.768C28.544 201.72 28.0533 199.779 27.2 197.944C26.3467 196.109 25.1093 194.616 23.488 193.464C21.8667 192.312 19.7973 191.736 17.28 191.736C14.6347 191.736 12.608 192.483 11.2 193.976C9.792 195.469 9.088 197.219 9.088 199.224C9.088 201.016 9.6 202.531 10.624 203.768C11.648 204.963 12.9707 206.029 14.592 206.968C16.256 207.864 18.0053 208.739 19.84 209.592C21.4613 210.317 23.0827 211.107 24.704 211.96C26.3253 212.771 27.7973 213.709 29.12 214.776C30.4427 215.843 31.488 217.123 32.256 218.616C33.0667 220.067 33.472 221.816 33.472 223.864C33.472 227.405 32.1707 230.328 29.568 232.632C26.9653 234.893 23.2747 236.024 18.496 236.024C16.576 236.024 14.592 235.747 12.544 235.192C10.496 234.637 8.68267 233.827 7.104 232.76L7.424 235.512H4.096L3.712 221.88H6.208C6.42133 225.635 7.72267 228.493 10.112 230.456C12.5013 232.376 15.3813 233.336 18.752 233.336C20.416 233.336 21.952 233.037 23.36 232.44C24.768 231.8 25.8773 230.883 26.688 229.688C27.5413 228.493 27.968 227.043 27.968 225.336C27.968 223.416 27.456 221.816 26.432 220.536C25.408 219.256 24.0853 218.147 22.464 217.208C20.8427 216.269 19.1147 215.373 17.28 214.52C15.6587 213.795 14.0587 213.027 12.48 212.216C10.9013 211.405 9.45067 210.488 8.128 209.464C6.848 208.397 5.80267 207.139 4.992 205.688C4.224 204.237 3.84 202.488 3.84 200.44C3.84 199.331 4.032 198.136 4.416 196.856C4.8 195.576 5.46133 194.36 6.4 193.208C7.38133 192.013 8.704 191.053 10.368 190.328C12.0747 189.56 14.2293 189.176 16.832 189.176C18.4533 189.176 20.2667 189.411 22.272 189.88C24.32 190.307 26.2187 191.16 27.968 192.44L27.712 189.688H30.976V203.768H28.672ZM54.2325 192.312C52.6538 192.355 51.5445 192.717 50.9045 193.4C50.3072 194.083 49.9658 195 49.8805 196.152C49.8378 197.304 49.8165 198.648 49.8165 200.184V227.384C49.8165 229.645 49.7525 231.331 49.6245 232.44C50.3925 232.397 51.1605 232.355 51.9285 232.312C52.6965 232.269 53.4645 232.227 54.2325 232.184V235H39.8325V232.888C41.4538 232.803 42.5632 232.44 43.1605 231.8C43.7578 231.117 44.0778 230.2 44.1205 229.048C44.2058 227.853 44.2485 226.509 44.2485 225.016V197.368C44.2485 195.576 44.3125 194.04 44.4405 192.76C43.6725 192.803 42.9045 192.845 42.1365 192.888C41.3685 192.931 40.6005 192.973 39.8325 193.016V190.2H54.2325V192.312ZM85.398 235.64C83.5207 231.373 81.622 227.128 79.702 222.904C77.782 218.637 75.9047 214.328 74.07 209.976C73.174 207.928 72.2993 205.859 71.446 203.768C70.6353 201.677 69.8247 199.565 69.014 197.432C69.014 197.901 68.9927 198.371 68.95 198.84C68.95 199.309 68.95 199.779 68.95 200.248C68.9073 201.784 68.8433 203.64 68.758 205.816C68.7153 207.949 68.6513 210.253 68.566 212.728C68.4807 215.16 68.4167 217.613 68.374 220.088C68.3313 222.52 68.2887 224.824 68.246 227C68.2033 227.939 68.1607 228.877 68.118 229.816C68.118 230.755 68.0753 231.629 67.99 232.44C68.8007 232.397 69.59 232.355 70.358 232.312C71.1687 232.269 71.9793 232.227 72.79 232.184V235H60.566V232.888C61.8887 232.845 62.8487 232.568 63.446 232.056C64.086 231.501 64.4913 230.776 64.662 229.88C64.8327 228.984 64.9393 228.024 64.982 227L66.198 197.816C66.2407 196.963 66.262 196.109 66.262 195.256C66.3047 194.403 66.3473 193.571 66.39 192.76C65.622 192.803 64.854 192.845 64.086 192.888C63.318 192.888 62.55 192.909 61.782 192.952V190.2H71.574L82.582 215.608C83.3927 217.528 84.2033 219.448 85.014 221.368C85.8673 223.245 86.7207 225.187 87.574 227.192H87.702C88.1713 226.04 88.726 224.675 89.366 223.096C90.006 221.475 90.5393 220.088 90.966 218.936C92.8433 214.243 94.7847 209.549 96.79 204.856C98.838 200.12 100.843 195.235 102.806 190.2H112.278V192.312C110.699 192.269 109.526 192.76 108.758 193.784C107.99 194.808 107.691 196.643 107.862 199.288L109.526 228.408C109.611 229.133 109.654 229.837 109.654 230.52C109.654 231.203 109.654 231.821 109.654 232.376C110.422 232.333 111.19 232.312 111.958 232.312C112.769 232.269 113.558 232.227 114.326 232.184V235H99.99V232.888C101.995 232.803 103.233 232.12 103.702 230.84C104.171 229.56 104.342 227.704 104.214 225.272L102.934 204.152C102.891 203.128 102.827 202.104 102.742 201.08C102.699 200.056 102.635 199.032 102.55 198.008C102.422 198.307 102.273 198.627 102.102 198.968C101.974 199.309 101.846 199.672 101.718 200.056L87.318 235.64H85.398ZM150.145 186.36L151.745 187.832C148.459 192.227 146.027 197.133 144.449 202.552C142.87 207.971 142.081 213.688 142.081 219.704C142.081 225.72 142.87 231.309 144.449 236.472C146.027 241.677 148.459 246.477 151.745 250.872L150.145 252.344C148.566 250.893 146.923 249.037 145.217 246.776C143.51 244.557 141.931 242.019 140.481 239.16C139.03 236.301 137.857 233.229 136.961 229.944C136.065 226.659 135.617 223.245 135.617 219.704C135.617 216.163 136.065 212.707 136.961 209.336C137.857 205.965 139.03 202.808 140.481 199.864C141.931 196.92 143.51 194.296 145.217 191.992C146.923 189.688 148.566 187.811 150.145 186.36Z" fill="black"/>
<path d="M447.848 536.024C446.867 536.024 445.864 535.875 444.84 535.576C443.816 535.32 442.856 534.787 441.96 533.976C441.107 533.165 440.424 531.992 439.912 530.456C439.4 528.877 439.144 526.808 439.144 524.248L439.272 505.688L434.344 505.752V503C435.453 502.957 436.584 502.552 437.736 501.784C438.888 500.973 439.912 499.885 440.808 498.52C441.747 497.155 442.387 495.661 442.728 494.04H444.904V503H455.656V505.496L444.904 505.624L444.776 523.416C444.776 526.317 445.139 528.536 445.864 530.072C446.632 531.608 447.891 532.376 449.64 532.376C450.835 532.376 451.944 532.035 452.968 531.352C454.035 530.669 454.973 529.731 455.784 528.536L457.512 529.944C456.275 531.821 455.037 533.187 453.8 534.04C452.605 534.893 451.496 535.427 450.472 535.64C449.448 535.896 448.573 536.024 447.848 536.024Z" fill="black"/>
<path d="M471.928 543.768C469.496 543.768 467.48 543.256 465.88 542.232C464.28 541.176 463.032 539.8 462.136 538.104C461.24 536.376 460.6 534.488 460.216 532.44C459.864 530.392 459.688 528.36 459.688 526.344C459.688 524.328 459.912 522.28 460.36 520.2C460.84 518.12 461.576 516.216 462.568 514.488C463.56 512.728 464.84 511.32 466.408 510.264C467.976 509.176 469.88 508.632 472.12 508.632C474.456 508.632 476.392 509.16 477.928 510.216C479.496 511.272 480.728 512.664 481.624 514.392C482.552 516.088 483.208 517.96 483.592 520.008C483.976 522.056 484.168 524.088 484.168 526.104C484.168 528.088 483.944 530.12 483.496 532.2C483.048 534.28 482.344 536.2 481.384 537.96C480.424 539.688 479.16 541.096 477.592 542.184C476.056 543.24 474.168 543.768 471.928 543.768ZM472.216 541.896C473.592 541.896 474.728 541.464 475.624 540.6C476.52 539.736 477.224 538.584 477.736 537.144C478.28 535.704 478.664 534.12 478.888 532.392C479.112 530.632 479.224 528.872 479.224 527.112C479.224 525.16 479.112 523.208 478.888 521.256C478.664 519.304 478.28 517.512 477.736 515.88C477.192 514.248 476.456 512.936 475.528 511.944C474.6 510.952 473.432 510.456 472.024 510.456C470.648 510.456 469.48 510.888 468.52 511.752C467.592 512.616 466.84 513.768 466.264 515.208C465.688 516.648 465.272 518.248 465.016 520.008C464.76 521.768 464.632 523.544 464.632 525.336C464.632 526.68 464.696 528.104 464.824 529.608C464.952 531.112 465.176 532.6 465.496 534.072C465.848 535.512 466.312 536.824 466.888 538.008C467.464 539.192 468.184 540.136 469.048 540.84C469.912 541.544 470.968 541.896 472.216 541.896Z" fill="black"/>
<path d="M1272.85 536.024C1271.87 536.024 1270.86 535.875 1269.84 535.576C1268.82 535.32 1267.86 534.787 1266.96 533.976C1266.11 533.165 1265.42 531.992 1264.91 530.456C1264.4 528.877 1264.14 526.808 1264.14 524.248L1264.27 505.688L1259.34 505.752V503C1260.45 502.957 1261.58 502.552 1262.74 501.784C1263.89 500.973 1264.91 499.885 1265.81 498.52C1266.75 497.155 1267.39 495.661 1267.73 494.04H1269.9V503H1280.66V505.496L1269.9 505.624L1269.78 523.416C1269.78 526.317 1270.14 528.536 1270.86 530.072C1271.63 531.608 1272.89 532.376 1274.64 532.376C1275.83 532.376 1276.94 532.035 1277.97 531.352C1279.03 530.669 1279.97 529.731 1280.78 528.536L1282.51 529.944C1281.27 531.821 1280.04 533.187 1278.8 534.04C1277.61 534.893 1276.5 535.427 1275.47 535.64C1274.45 535.896 1273.57 536.024 1272.85 536.024Z" fill="black"/>
<path d="M1285.55 543V541.416C1287.22 541.352 1288.32 540.84 1288.86 539.88C1289.44 538.92 1289.73 537.608 1289.73 535.944L1289.58 513.288L1283.82 516.984L1282.86 515.592L1292.22 508.632H1293.86L1293.9 537.768C1293.9 538.376 1293.89 538.968 1293.86 539.544C1293.86 540.12 1293.82 540.632 1293.76 541.08C1294.43 541.048 1295.1 541.016 1295.78 540.984C1296.45 540.952 1297.12 540.92 1297.79 540.888V543H1285.55Z" fill="black"/>
<path d="M760.752 252.344L759.152 250.872C762.437 246.477 764.869 241.571 766.448 236.152C768.027 230.733 768.816 225.016 768.816 219C768.816 212.984 768.027 207.395 766.448 202.232C764.869 197.027 762.437 192.227 759.152 187.832L760.752 186.36C762.331 187.811 763.973 189.667 765.68 191.928C767.387 194.147 768.965 196.685 770.416 199.544C771.867 202.403 773.04 205.475 773.936 208.76C774.832 212.045 775.28 215.459 775.28 219C775.28 222.541 774.832 225.997 773.936 229.368C773.04 232.739 771.867 235.896 770.416 238.84C768.965 241.784 767.387 244.408 765.68 246.712C763.973 249.016 762.331 250.893 760.752 252.344Z" fill="black"/>
<path d="M933 222.5L918 213.84V231.16L933 222.5ZM823 224H919.5V221H823V224Z" fill="black"/>
<defs>
<clipPath id="clip0">
<rect width="501" height="400" fill="white" transform="translate(208 51)"/>
</clipPath>
<clipPath id="clip1">
<rect width="501" height="400" fill="white" transform="translate(1031 51)"/>
</clipPath>
</defs>
</svg>
