<svg width="850" height="471" viewBox="0 0 850 471" fill="none" xmlns="http://www.w3.org/2000/svg">
<rect x="0.5" y="0.5" width="548" height="470" rx="6.5" fill="#F0F0F0"/>
<path d="M249.053 230.969L251.842 237.93L254.631 230.969H256.09V239.5H254.965V236.178L255.07 232.592L252.27 239.5H251.408L248.613 232.609L248.725 236.178V239.5H247.6V230.969H249.053ZM260.9 238.006L263.338 230.969H264.568L261.404 239.5H260.408L257.25 230.969H258.475L260.9 238.006ZM270.539 235.557H266.842V238.58H271.137V239.5H265.717V230.969H271.078V231.895H266.842V234.637H270.539V235.557ZM278.027 235.697C277.062 235.42 276.359 235.08 275.918 234.678C275.48 234.271 275.262 233.771 275.262 233.178C275.262 232.506 275.529 231.951 276.064 231.514C276.604 231.072 277.303 230.852 278.162 230.852C278.748 230.852 279.27 230.965 279.727 231.191C280.188 231.418 280.543 231.73 280.793 232.129C281.047 232.527 281.174 232.963 281.174 233.436H280.043C280.043 232.92 279.879 232.516 279.551 232.223C279.223 231.926 278.76 231.777 278.162 231.777C277.607 231.777 277.174 231.9 276.861 232.146C276.553 232.389 276.398 232.727 276.398 233.16C276.398 233.508 276.545 233.803 276.838 234.045C277.135 234.283 277.637 234.502 278.344 234.701C279.055 234.9 279.609 235.121 280.008 235.363C280.41 235.602 280.707 235.881 280.898 236.201C281.094 236.521 281.191 236.898 281.191 237.332C281.191 238.023 280.922 238.578 280.383 238.996C279.844 239.41 279.123 239.617 278.221 239.617C277.635 239.617 277.088 239.506 276.58 239.283C276.072 239.057 275.68 238.748 275.402 238.357C275.129 237.967 274.992 237.523 274.992 237.027H276.123C276.123 237.543 276.312 237.951 276.691 238.252C277.074 238.549 277.584 238.697 278.221 238.697C278.814 238.697 279.27 238.576 279.586 238.334C279.902 238.092 280.061 237.762 280.061 237.344C280.061 236.926 279.914 236.604 279.621 236.377C279.328 236.146 278.797 235.92 278.027 235.697ZM283.939 231.625V233.16H285.123V233.998H283.939V237.93C283.939 238.184 283.992 238.375 284.098 238.504C284.203 238.629 284.383 238.691 284.637 238.691C284.762 238.691 284.934 238.668 285.152 238.621V239.5C284.867 239.578 284.59 239.617 284.32 239.617C283.836 239.617 283.471 239.471 283.225 239.178C282.979 238.885 282.855 238.469 282.855 237.93V233.998H281.701V233.16H282.855V231.625H283.939ZM290.309 239.5C290.246 239.375 290.195 239.152 290.156 238.832C289.652 239.355 289.051 239.617 288.352 239.617C287.727 239.617 287.213 239.441 286.811 239.09C286.412 238.734 286.213 238.285 286.213 237.742C286.213 237.082 286.463 236.57 286.963 236.207C287.467 235.84 288.174 235.656 289.084 235.656H290.139V235.158C290.139 234.779 290.025 234.479 289.799 234.256C289.572 234.029 289.238 233.916 288.797 233.916C288.41 233.916 288.086 234.014 287.824 234.209C287.562 234.404 287.432 234.641 287.432 234.918H286.342C286.342 234.602 286.453 234.297 286.676 234.004C286.902 233.707 287.207 233.473 287.59 233.301C287.977 233.129 288.4 233.043 288.861 233.043C289.592 233.043 290.164 233.227 290.578 233.594C290.992 233.957 291.207 234.459 291.223 235.1V238.018C291.223 238.6 291.297 239.062 291.445 239.406V239.5H290.309ZM288.51 238.674C288.85 238.674 289.172 238.586 289.477 238.41C289.781 238.234 290.002 238.006 290.139 237.725V236.424H289.289C287.961 236.424 287.297 236.812 287.297 237.59C287.297 237.93 287.41 238.195 287.637 238.387C287.863 238.578 288.154 238.674 288.51 238.674ZM294.393 231.625V233.16H295.576V233.998H294.393V237.93C294.393 238.184 294.445 238.375 294.551 238.504C294.656 238.629 294.836 238.691 295.09 238.691C295.215 238.691 295.387 238.668 295.605 238.621V239.5C295.32 239.578 295.043 239.617 294.773 239.617C294.289 239.617 293.924 239.471 293.678 239.178C293.432 238.885 293.309 238.469 293.309 237.93V233.998H292.154V233.16H293.309V231.625H294.393ZM299.479 239.617C298.619 239.617 297.92 239.336 297.381 238.773C296.842 238.207 296.572 237.451 296.572 236.506V236.307C296.572 235.678 296.691 235.117 296.93 234.625C297.172 234.129 297.508 233.742 297.938 233.465C298.371 233.184 298.84 233.043 299.344 233.043C300.168 233.043 300.809 233.314 301.266 233.857C301.723 234.4 301.951 235.178 301.951 236.189V236.641H297.656C297.672 237.266 297.854 237.771 298.201 238.158C298.553 238.541 298.998 238.732 299.537 238.732C299.92 238.732 300.244 238.654 300.51 238.498C300.775 238.342 301.008 238.135 301.207 237.877L301.869 238.393C301.338 239.209 300.541 239.617 299.479 239.617ZM299.344 233.934C298.906 233.934 298.539 234.094 298.242 234.414C297.945 234.73 297.762 235.176 297.691 235.75H300.867V235.668C300.836 235.117 300.688 234.691 300.422 234.391C300.156 234.086 299.797 233.934 299.344 233.934Z" fill="black"/>
<rect x="0.5" y="0.5" width="548" height="470" rx="6.5" stroke="black"/>
<g clip-path="url(#clip0)">
<rect width="501" height="400" transform="translate(22 51)" fill="white"/>
<line x1="122.5" y1="51" x2="122.5" y2="652.001" stroke="black"/>
<line x1="222.5" y1="51" x2="222.5" y2="652.001" stroke="black"/>
<line x1="322.5" y1="51" x2="322.5" y2="652.001" stroke="black"/>
<line x1="422.5" y1="51" x2="422.5" y2="652.001" stroke="black"/>
<line x1="522.5" y1="51" x2="522.5" y2="652.001" stroke="black"/>
<line x1="22.5" y1="51" x2="22.5" y2="652.001" stroke="black"/>
<line x1="22" y1="450.5" x2="823" y2="450.5" stroke="black"/>
<line x1="22" y1="350.5" x2="823" y2="350.5" stroke="black"/>
<line x1="22" y1="250.5" x2="823" y2="250.5" stroke="black"/>
<line x1="22" y1="150.5" x2="823" y2="150.5" stroke="black"/>
<line x1="22" y1="51.5" x2="823" y2="51.5" stroke="black"/>
<line x1="22" y1="450.5" x2="823" y2="450.5" stroke="black"/>
<line x1="22" y1="350.5" x2="823" y2="350.5" stroke="black"/>
<line x1="22" y1="250.5" x2="823" y2="250.5" stroke="black"/>
<line x1="22" y1="150.5" x2="823" y2="150.5" stroke="black"/>
<line x1="22" y1="51.5" x2="823" y2="51.5" stroke="black"/>
<rect x="123" y="251" width="99" height="99" fill="#E9FFDB"/>
<rect x="323" y="151" width="99" height="99" fill="#E9FFDB"/>
<rect x="323" y="251" width="99" height="99" fill="#E9FFDB"/>
<rect x="318.5" y="146.5" width="108" height="208" stroke="black" stroke-width="3" stroke-dasharray="7 7"/>
</g>
<rect x="567.5" y="223.799" width="37" height="37" fill="#E9FFDB" stroke="black"/>
<path d="M627.752 239.587C627.704 238.819 627.52 238.091 627.2 237.403C626.88 236.715 626.416 236.155 625.808 235.723C625.2 235.291 624.424 235.075 623.48 235.075C622.488 235.075 621.728 235.355 621.2 235.915C620.672 236.475 620.408 237.131 620.408 237.883C620.408 238.555 620.6 239.123 620.984 239.587C621.368 240.035 621.864 240.435 622.472 240.787C623.096 241.123 623.752 241.451 624.44 241.771C625.048 242.043 625.656 242.339 626.264 242.659C626.872 242.963 627.424 243.315 627.92 243.715C628.416 244.115 628.808 244.595 629.096 245.155C629.4 245.699 629.552 246.355 629.552 247.123C629.552 248.451 629.064 249.547 628.088 250.411C627.112 251.259 625.728 251.683 623.936 251.683C623.216 251.683 622.472 251.579 621.704 251.371C620.936 251.163 620.256 250.859 619.664 250.459L619.784 251.491H618.536L618.392 246.379H619.328C619.408 247.787 619.896 248.859 620.792 249.595C621.688 250.315 622.768 250.675 624.032 250.675C624.656 250.675 625.232 250.563 625.76 250.339C626.288 250.099 626.704 249.755 627.008 249.307C627.328 248.859 627.488 248.315 627.488 247.675C627.488 246.955 627.296 246.355 626.912 245.875C626.528 245.395 626.032 244.979 625.424 244.627C624.816 244.275 624.168 243.939 623.48 243.619C622.872 243.347 622.272 243.059 621.68 242.755C621.088 242.451 620.544 242.107 620.048 241.723C619.568 241.323 619.176 240.851 618.872 240.307C618.584 239.763 618.44 239.107 618.44 238.339C618.44 237.923 618.512 237.475 618.656 236.995C618.8 236.515 619.048 236.059 619.4 235.627C619.768 235.179 620.264 234.819 620.888 234.547C621.528 234.259 622.336 234.115 623.312 234.115C623.92 234.115 624.6 234.203 625.352 234.379C626.12 234.539 626.832 234.859 627.488 235.339L627.392 234.307H628.616V239.587H627.752ZM631.533 250.579C632.029 250.579 632.373 250.459 632.565 250.219C632.757 249.963 632.869 249.619 632.901 249.187C632.933 248.739 632.949 248.227 632.949 247.651V242.179C632.949 241.923 632.957 241.683 632.973 241.459C632.989 241.219 633.013 240.939 633.045 240.619C632.757 240.635 632.469 240.651 632.181 240.667C631.909 240.683 631.629 240.699 631.341 240.715V239.707C632.045 239.707 632.589 239.675 632.973 239.611C633.357 239.547 633.645 239.467 633.837 239.371C634.045 239.275 634.205 239.171 634.317 239.059H635.013V248.755C635.013 249.075 635.005 249.363 634.989 249.619C634.989 249.859 634.965 250.115 634.917 250.387C635.173 250.371 635.421 250.363 635.661 250.363C635.917 250.347 636.173 250.331 636.429 250.315V251.299H631.533V250.579ZM633.861 236.683C633.525 236.683 633.229 236.547 632.973 236.275C632.717 236.003 632.589 235.667 632.589 235.267C632.589 234.867 632.717 234.531 632.973 234.259C633.245 233.971 633.549 233.827 633.885 233.827C634.253 233.827 634.557 233.971 634.797 234.259C635.053 234.531 635.181 234.867 635.181 235.267C635.181 235.667 635.045 236.003 634.773 236.275C634.517 236.547 634.213 236.683 633.861 236.683ZM638.283 251.299V250.579C638.779 250.579 639.123 250.459 639.315 250.219C639.507 249.963 639.619 249.619 639.651 249.187C639.683 248.739 639.699 248.227 639.699 247.651V242.179C639.699 241.923 639.699 241.667 639.699 241.411C639.715 241.155 639.747 240.891 639.795 240.619C639.507 240.635 639.219 240.651 638.931 240.667C638.659 240.683 638.379 240.699 638.091 240.715V239.707C638.795 239.707 639.323 239.675 639.675 239.611C640.043 239.547 640.315 239.467 640.491 239.371C640.667 239.275 640.811 239.171 640.923 239.059H641.619C641.651 239.219 641.667 239.403 641.667 239.611C641.683 239.819 641.699 240.059 641.715 240.331C642.195 239.915 642.747 239.579 643.371 239.323C643.995 239.051 644.619 238.915 645.243 238.915C646.043 238.915 646.715 239.059 647.259 239.347C647.803 239.635 648.227 240.027 648.531 240.523C649.075 240.075 649.699 239.699 650.403 239.395C651.123 239.075 651.827 238.915 652.515 238.915C653.907 238.915 654.931 239.339 655.587 240.187C656.243 241.019 656.555 242.387 656.523 244.291L656.499 248.755C656.499 249.075 656.491 249.363 656.475 249.619C656.475 249.859 656.451 250.115 656.403 250.387C656.659 250.371 656.907 250.363 657.147 250.363C657.403 250.347 657.659 250.331 657.915 250.315V251.299H653.019V250.579C653.515 250.579 653.859 250.459 654.051 250.219C654.243 249.963 654.355 249.619 654.387 249.187C654.419 248.739 654.435 248.227 654.435 247.651V244.291C654.435 242.915 654.211 241.883 653.763 241.195C653.331 240.507 652.643 240.171 651.699 240.187C651.203 240.187 650.707 240.299 650.211 240.523C649.715 240.747 649.283 241.027 648.915 241.363C648.995 241.619 649.051 241.899 649.083 242.203C649.131 242.491 649.155 242.795 649.155 243.115C649.139 244.043 649.131 244.979 649.131 245.923C649.131 246.867 649.123 247.811 649.107 248.755C649.107 249.075 649.099 249.363 649.083 249.619C649.083 249.859 649.059 250.115 649.011 250.387C649.267 250.371 649.515 250.363 649.755 250.363C650.011 250.347 650.267 250.331 650.523 250.315V251.299H645.627V250.579C646.123 250.579 646.459 250.459 646.635 250.219C646.827 249.963 646.939 249.619 646.971 249.187C647.019 248.739 647.043 248.227 647.043 247.651L647.067 244.291C647.083 242.915 646.883 241.875 646.467 241.171C646.051 240.467 645.371 240.123 644.427 240.139C643.931 240.139 643.443 240.251 642.963 240.475C642.483 240.683 642.075 240.955 641.739 241.291C641.739 241.483 641.739 241.691 641.739 241.915C641.755 242.123 641.763 242.347 641.763 242.587V248.755C641.763 249.075 641.755 249.363 641.739 249.619C641.739 249.859 641.715 250.115 641.667 250.387C641.923 250.371 642.171 250.363 642.411 250.363C642.667 250.347 642.923 250.331 643.179 250.315V251.299H638.283ZM664.792 251.683C663.928 251.683 663.2 251.523 662.608 251.203C662.032 250.883 661.592 250.339 661.288 249.571C661 248.803 660.856 247.763 660.856 246.451V242.179C660.856 241.923 660.856 241.667 660.856 241.411C660.872 241.155 660.904 240.891 660.952 240.619C660.68 240.635 660.4 240.651 660.112 240.667C659.84 240.667 659.568 240.675 659.296 240.691V239.707H660.04C660.728 239.707 661.224 239.643 661.528 239.515C661.848 239.371 662.096 239.219 662.272 239.059H662.968V246.379C662.968 247.755 663.16 248.787 663.544 249.475C663.944 250.147 664.616 250.475 665.56 250.459C666.168 250.443 666.744 250.259 667.288 249.907C667.848 249.539 668.296 249.107 668.632 248.611V242.443C668.632 242.059 668.64 241.731 668.656 241.459C668.672 241.171 668.704 240.891 668.752 240.619C668.464 240.635 668.176 240.651 667.888 240.667C667.6 240.667 667.312 240.675 667.024 240.691V239.707H667.768C668.456 239.707 668.952 239.643 669.256 239.515C669.576 239.371 669.824 239.219 670 239.059H670.696L670.672 248.131C670.672 248.387 670.664 248.747 670.648 249.211C670.632 249.675 670.608 250.067 670.576 250.387C670.864 250.371 671.152 250.355 671.44 250.339C671.728 250.323 672.016 250.307 672.304 250.291V251.299H668.872C668.824 251.027 668.784 250.771 668.752 250.531C668.736 250.291 668.72 250.067 668.704 249.859C668.208 250.355 667.608 250.787 666.904 251.155C666.2 251.507 665.496 251.683 664.792 251.683ZM673.808 250.579C674.304 250.579 674.648 250.459 674.84 250.219C675.032 249.963 675.144 249.619 675.176 249.187C675.208 248.739 675.224 248.227 675.224 247.651V236.299C675.224 236.043 675.224 235.803 675.224 235.579C675.24 235.339 675.264 235.059 675.296 234.739C675.008 234.755 674.72 234.771 674.432 234.787C674.16 234.803 673.88 234.819 673.592 234.835V233.827C674.296 233.827 674.84 233.795 675.224 233.731C675.624 233.667 675.92 233.587 676.112 233.491C676.32 233.395 676.48 233.291 676.592 233.179H677.288L677.312 248.755C677.312 249.075 677.304 249.363 677.288 249.619C677.272 249.859 677.24 250.115 677.192 250.387C677.448 250.371 677.696 250.363 677.936 250.363C678.192 250.347 678.448 250.331 678.704 250.315V251.299H673.808V250.579ZM687.883 251.299C687.835 251.027 687.803 250.787 687.787 250.579C687.771 250.371 687.747 250.155 687.715 249.931C687.171 250.475 686.579 250.907 685.939 251.227C685.315 251.531 684.651 251.683 683.947 251.683C682.731 251.683 681.827 251.411 681.235 250.867C680.643 250.307 680.347 249.627 680.347 248.827C680.347 248.091 680.571 247.459 681.019 246.931C681.483 246.387 682.075 245.947 682.795 245.611C683.531 245.259 684.323 245.003 685.171 244.843C686.035 244.667 686.867 244.587 687.667 244.603V243.115C687.667 242.555 687.619 242.027 687.523 241.531C687.427 241.035 687.219 240.627 686.899 240.307C686.579 239.987 686.067 239.819 685.363 239.803C684.899 239.787 684.419 239.875 683.923 240.067C683.443 240.259 683.091 240.587 682.867 241.051C682.995 241.179 683.075 241.331 683.107 241.507C683.155 241.667 683.179 241.819 683.179 241.963C683.179 242.155 683.099 242.379 682.939 242.635C682.779 242.875 682.499 242.987 682.099 242.971C681.763 242.971 681.507 242.859 681.331 242.635C681.155 242.395 681.067 242.115 681.067 241.795C681.067 241.251 681.267 240.763 681.667 240.331C682.083 239.899 682.651 239.555 683.371 239.299C684.091 239.043 684.907 238.915 685.819 238.915C687.163 238.915 688.155 239.275 688.795 239.995C689.435 240.699 689.747 241.819 689.731 243.355C689.731 244.251 689.723 245.155 689.707 246.067C689.707 246.963 689.707 247.859 689.707 248.755C689.707 249.011 689.699 249.267 689.683 249.523C689.667 249.779 689.643 250.067 689.611 250.387C689.899 250.371 690.179 250.355 690.451 250.339C690.739 250.323 691.027 250.307 691.315 250.291V251.299H687.883ZM687.667 245.419C687.123 245.435 686.547 245.507 685.939 245.635C685.347 245.747 684.795 245.923 684.283 246.163C683.787 246.403 683.379 246.723 683.059 247.123C682.755 247.507 682.611 247.979 682.627 248.539C682.659 249.131 682.851 249.579 683.203 249.883C683.571 250.171 684.003 250.315 684.499 250.315C685.155 250.315 685.723 250.195 686.203 249.955C686.699 249.699 687.187 249.347 687.667 248.899C687.651 248.723 687.643 248.531 687.643 248.323C687.643 248.115 687.643 247.899 687.643 247.675C687.643 247.595 687.643 247.339 687.643 246.907C687.659 246.475 687.667 245.979 687.667 245.419ZM697.31 251.683C696.942 251.683 696.566 251.627 696.182 251.515C695.798 251.419 695.438 251.219 695.102 250.915C694.782 250.611 694.526 250.171 694.334 249.595C694.142 249.003 694.046 248.227 694.046 247.267L694.094 240.307L692.246 240.331V239.299C692.662 239.283 693.086 239.131 693.518 238.843C693.95 238.539 694.334 238.131 694.67 237.619C695.022 237.107 695.262 236.547 695.39 235.939H696.206V239.299H700.238V240.235L696.206 240.283L696.158 246.955C696.158 248.043 696.294 248.875 696.566 249.451C696.854 250.027 697.326 250.315 697.982 250.315C698.43 250.315 698.846 250.187 699.23 249.931C699.63 249.675 699.982 249.323 700.286 248.875L700.934 249.403C700.47 250.107 700.006 250.619 699.542 250.939C699.094 251.259 698.678 251.459 698.294 251.539C697.91 251.635 697.582 251.683 697.31 251.683ZM707.887 251.683C706.783 251.683 705.783 251.427 704.887 250.915C704.007 250.387 703.311 249.651 702.799 248.707C702.287 247.747 702.031 246.619 702.031 245.323C702.031 244.203 702.279 243.155 702.775 242.179C703.287 241.203 703.999 240.419 704.911 239.827C705.823 239.219 706.879 238.915 708.079 238.915C708.975 238.915 709.791 239.107 710.527 239.491C711.263 239.875 711.847 240.459 712.279 241.243C712.727 242.027 712.951 243.019 712.951 244.219L704.503 244.363C704.487 246.203 704.791 247.683 705.415 248.803C706.039 249.907 707.055 250.459 708.463 250.459C708.959 250.459 709.463 250.371 709.975 250.195C710.503 250.019 710.991 249.779 711.439 249.475C711.887 249.171 712.247 248.835 712.519 248.467L713.095 248.947C712.663 249.619 712.143 250.155 711.535 250.555C710.927 250.955 710.303 251.243 709.663 251.419C709.023 251.595 708.431 251.683 707.887 251.683ZM704.575 243.355H710.695C710.695 242.779 710.607 242.227 710.431 241.699C710.271 241.155 709.999 240.715 709.615 240.379C709.231 240.027 708.727 239.851 708.103 239.851C707.175 239.851 706.399 240.131 705.775 240.691C705.167 241.235 704.767 242.123 704.575 243.355ZM720.106 251.683C719.13 251.683 718.25 251.443 717.466 250.963C716.682 250.467 716.058 249.763 715.594 248.851C715.146 247.939 714.922 246.867 714.922 245.635C714.922 244.323 715.186 243.163 715.714 242.155C716.242 241.147 716.97 240.355 717.898 239.779C718.842 239.203 719.906 238.915 721.09 238.915C721.618 238.915 722.138 238.987 722.65 239.131C723.178 239.259 723.594 239.411 723.898 239.587V236.299C723.898 236.043 723.898 235.803 723.898 235.579C723.914 235.339 723.938 235.059 723.97 234.739C723.682 234.755 723.394 234.771 723.106 234.787C722.834 234.803 722.554 234.819 722.266 234.835V233.827C722.97 233.827 723.514 233.795 723.898 233.731C724.282 233.667 724.57 233.587 724.762 233.491C724.97 233.395 725.13 233.291 725.242 233.179H725.938V248.755C725.938 249.011 725.93 249.267 725.914 249.523C725.898 249.779 725.874 250.067 725.842 250.387C726.13 250.371 726.41 250.355 726.682 250.339C726.97 250.323 727.258 250.307 727.546 250.291V251.299H724.114C724.034 250.867 723.978 250.451 723.946 250.051C723.498 250.547 722.946 250.947 722.29 251.251C721.634 251.539 720.906 251.683 720.106 251.683ZM720.97 250.507C721.498 250.507 722.026 250.355 722.554 250.051C723.098 249.747 723.546 249.371 723.898 248.923C723.882 248.731 723.874 248.531 723.874 248.323C723.874 248.099 723.874 247.859 723.874 247.603L723.898 240.691C723.514 240.403 723.09 240.195 722.626 240.067C722.178 239.923 721.714 239.851 721.234 239.851C720.434 239.851 719.738 240.083 719.146 240.547C718.554 241.011 718.106 241.659 717.802 242.491C717.498 243.323 717.362 244.299 717.394 245.419C717.426 246.395 717.578 247.267 717.85 248.035C718.138 248.803 718.538 249.411 719.05 249.859C719.578 250.291 720.218 250.507 720.97 250.507ZM741.427 251.683C740.323 251.683 739.323 251.427 738.427 250.915C737.547 250.387 736.851 249.651 736.339 248.707C735.827 247.747 735.571 246.619 735.571 245.323C735.571 244.203 735.819 243.155 736.315 242.179C736.827 241.203 737.539 240.419 738.451 239.827C739.363 239.219 740.419 238.915 741.618 238.915C742.515 238.915 743.331 239.107 744.067 239.491C744.803 239.875 745.387 240.459 745.819 241.243C746.267 242.027 746.491 243.019 746.491 244.219L738.043 244.363C738.027 246.203 738.331 247.683 738.955 248.803C739.579 249.907 740.595 250.459 742.003 250.459C742.499 250.459 743.003 250.371 743.515 250.195C744.043 250.019 744.531 249.779 744.979 249.475C745.427 249.171 745.787 248.835 746.059 248.467L746.635 248.947C746.203 249.619 745.683 250.155 745.075 250.555C744.467 250.955 743.843 251.243 743.203 251.419C742.563 251.595 741.971 251.683 741.427 251.683ZM738.115 243.355H744.235C744.235 242.779 744.147 242.227 743.971 241.699C743.811 241.155 743.539 240.715 743.155 240.379C742.771 240.027 742.267 239.851 741.643 239.851C740.715 239.851 739.939 240.131 739.315 240.691C738.707 241.235 738.307 242.123 738.115 243.355ZM748.386 250.579C748.882 250.579 749.226 250.459 749.418 250.219C749.61 249.963 749.722 249.619 749.754 249.187C749.786 248.739 749.802 248.227 749.802 247.651V236.299C749.802 236.043 749.802 235.803 749.802 235.579C749.818 235.339 749.842 235.059 749.874 234.739C749.586 234.755 749.298 234.771 749.01 234.787C748.738 234.803 748.458 234.819 748.17 234.835V233.827C748.874 233.827 749.418 233.795 749.802 233.731C750.202 233.667 750.498 233.587 750.69 233.491C750.898 233.395 751.058 233.291 751.17 233.179H751.866L751.89 248.755C751.89 249.075 751.882 249.363 751.866 249.619C751.85 249.859 751.818 250.115 751.77 250.387C752.026 250.371 752.274 250.363 752.514 250.363C752.77 250.347 753.026 250.331 753.282 250.315V251.299H748.386V250.579ZM760.973 251.683C759.869 251.683 758.869 251.427 757.973 250.915C757.093 250.387 756.397 249.651 755.885 248.707C755.373 247.747 755.117 246.619 755.117 245.323C755.117 244.203 755.365 243.155 755.861 242.179C756.373 241.203 757.085 240.419 757.997 239.827C758.909 239.219 759.965 238.915 761.165 238.915C762.061 238.915 762.877 239.107 763.613 239.491C764.349 239.875 764.933 240.459 765.365 241.243C765.813 242.027 766.037 243.019 766.037 244.219L757.589 244.363C757.573 246.203 757.877 247.683 758.501 248.803C759.125 249.907 760.141 250.459 761.549 250.459C762.045 250.459 762.549 250.371 763.061 250.195C763.589 250.019 764.077 249.779 764.525 249.475C764.973 249.171 765.333 248.835 765.605 248.467L766.181 248.947C765.749 249.619 765.229 250.155 764.621 250.555C764.013 250.955 763.389 251.243 762.749 251.419C762.109 251.595 761.517 251.683 760.973 251.683ZM757.661 243.355H763.781C763.781 242.779 763.693 242.227 763.517 241.699C763.357 241.155 763.085 240.715 762.701 240.379C762.317 240.027 761.813 239.851 761.189 239.851C760.261 239.851 759.485 240.131 758.861 240.691C758.253 241.235 757.853 242.123 757.661 243.355ZM768.173 251.299V250.579C768.669 250.579 769.013 250.459 769.205 250.219C769.397 249.963 769.509 249.619 769.541 249.187C769.573 248.739 769.589 248.227 769.589 247.651V242.179C769.589 241.923 769.589 241.667 769.589 241.411C769.605 241.155 769.637 240.891 769.685 240.619C769.397 240.635 769.109 240.651 768.821 240.667C768.549 240.683 768.269 240.699 767.981 240.715V239.707C768.685 239.707 769.213 239.675 769.565 239.611C769.933 239.547 770.205 239.467 770.381 239.371C770.557 239.275 770.701 239.171 770.813 239.059H771.509C771.541 239.219 771.557 239.403 771.557 239.611C771.573 239.819 771.589 240.059 771.605 240.331C772.085 239.915 772.637 239.579 773.261 239.323C773.885 239.051 774.509 238.915 775.133 238.915C775.933 238.915 776.605 239.059 777.149 239.347C777.693 239.635 778.117 240.027 778.421 240.523C778.965 240.075 779.589 239.699 780.293 239.395C781.013 239.075 781.717 238.915 782.405 238.915C783.797 238.915 784.821 239.339 785.477 240.187C786.133 241.019 786.445 242.387 786.413 244.291L786.389 248.755C786.389 249.075 786.381 249.363 786.365 249.619C786.365 249.859 786.341 250.115 786.293 250.387C786.549 250.371 786.797 250.363 787.037 250.363C787.293 250.347 787.549 250.331 787.805 250.315V251.299H782.909V250.579C783.405 250.579 783.749 250.459 783.941 250.219C784.133 249.963 784.245 249.619 784.277 249.187C784.309 248.739 784.325 248.227 784.325 247.651V244.291C784.325 242.915 784.101 241.883 783.653 241.195C783.221 240.507 782.533 240.171 781.589 240.187C781.093 240.187 780.597 240.299 780.101 240.523C779.605 240.747 779.173 241.027 778.805 241.363C778.885 241.619 778.941 241.899 778.973 242.203C779.021 242.491 779.045 242.795 779.045 243.115C779.029 244.043 779.021 244.979 779.021 245.923C779.021 246.867 779.013 247.811 778.997 248.755C778.997 249.075 778.989 249.363 778.973 249.619C778.973 249.859 778.949 250.115 778.901 250.387C779.157 250.371 779.405 250.363 779.645 250.363C779.901 250.347 780.157 250.331 780.413 250.315V251.299H775.517V250.579C776.013 250.579 776.349 250.459 776.525 250.219C776.717 249.963 776.829 249.619 776.861 249.187C776.909 248.739 776.933 248.227 776.933 247.651L776.957 244.291C776.973 242.915 776.773 241.875 776.357 241.171C775.941 240.467 775.261 240.123 774.317 240.139C773.821 240.139 773.333 240.251 772.853 240.475C772.373 240.683 771.965 240.955 771.629 241.291C771.629 241.483 771.629 241.691 771.629 241.915C771.645 242.123 771.653 242.347 771.653 242.587V248.755C771.653 249.075 771.645 249.363 771.629 249.619C771.629 249.859 771.605 250.115 771.557 250.387C771.813 250.371 772.061 250.363 772.301 250.363C772.557 250.347 772.813 250.331 773.069 250.315V251.299H768.173ZM795.427 251.683C794.323 251.683 793.323 251.427 792.427 250.915C791.547 250.387 790.851 249.651 790.339 248.707C789.827 247.747 789.571 246.619 789.571 245.323C789.571 244.203 789.819 243.155 790.315 242.179C790.827 241.203 791.539 240.419 792.451 239.827C793.363 239.219 794.419 238.915 795.618 238.915C796.515 238.915 797.331 239.107 798.067 239.491C798.803 239.875 799.387 240.459 799.819 241.243C800.267 242.027 800.491 243.019 800.491 244.219L792.043 244.363C792.027 246.203 792.331 247.683 792.955 248.803C793.579 249.907 794.595 250.459 796.003 250.459C796.499 250.459 797.003 250.371 797.515 250.195C798.043 250.019 798.531 249.779 798.979 249.475C799.427 249.171 799.787 248.835 800.059 248.467L800.635 248.947C800.203 249.619 799.683 250.155 799.075 250.555C798.467 250.955 797.843 251.243 797.203 251.419C796.563 251.595 795.971 251.683 795.427 251.683ZM792.115 243.355H798.235C798.235 242.779 798.147 242.227 797.971 241.699C797.811 241.155 797.539 240.715 797.155 240.379C796.771 240.027 796.267 239.851 795.643 239.851C794.715 239.851 793.939 240.131 793.315 240.691C792.707 241.235 792.307 242.123 792.115 243.355ZM802.626 251.299V250.579C803.122 250.579 803.466 250.459 803.658 250.219C803.85 249.963 803.962 249.619 803.994 249.187C804.026 248.739 804.042 248.227 804.042 247.651L804.066 242.179C804.066 241.923 804.066 241.667 804.066 241.411C804.082 241.155 804.114 240.891 804.162 240.619C803.874 240.635 803.586 240.651 803.298 240.667C803.026 240.683 802.746 240.699 802.458 240.715V239.707C803.162 239.707 803.69 239.675 804.042 239.611C804.41 239.547 804.682 239.467 804.858 239.371C805.034 239.275 805.178 239.171 805.29 239.059H805.986C806.018 239.235 806.034 239.443 806.034 239.683C806.05 239.907 806.066 240.187 806.082 240.523C806.594 240.059 807.202 239.675 807.906 239.371C808.61 239.067 809.306 238.915 809.994 238.915C811.386 238.915 812.402 239.355 813.042 240.235C813.682 241.099 814.002 242.451 814.002 244.291V248.755C814.002 249.075 813.994 249.363 813.978 249.619C813.978 249.859 813.954 250.115 813.906 250.387C814.162 250.371 814.41 250.363 814.65 250.363C814.906 250.347 815.162 250.331 815.418 250.315V251.299H810.522V250.579C811.018 250.579 811.362 250.459 811.554 250.219C811.746 249.963 811.858 249.619 811.89 249.187C811.922 248.739 811.938 248.227 811.938 247.651V244.291C811.922 242.915 811.69 241.875 811.242 241.171C810.81 240.467 810.122 240.123 809.178 240.139C808.602 240.155 808.034 240.307 807.474 240.595C806.93 240.883 806.474 241.251 806.106 241.699C806.122 241.827 806.13 241.971 806.13 242.131C806.13 242.291 806.13 242.459 806.13 242.635L806.106 248.755C806.106 249.075 806.098 249.363 806.082 249.619C806.082 249.859 806.058 250.115 806.01 250.387C806.266 250.371 806.514 250.363 806.754 250.363C807.01 250.347 807.266 250.331 807.522 250.315V251.299H802.626ZM821.506 251.683C821.138 251.683 820.762 251.627 820.378 251.515C819.994 251.419 819.634 251.219 819.298 250.915C818.978 250.611 818.722 250.171 818.53 249.595C818.338 249.003 818.242 248.227 818.242 247.267L818.29 240.307L816.442 240.331V239.299C816.858 239.283 817.282 239.131 817.714 238.843C818.146 238.539 818.53 238.131 818.866 237.619C819.218 237.107 819.458 236.547 819.586 235.939H820.402V239.299H824.434V240.235L820.402 240.283L820.354 246.955C820.354 248.043 820.49 248.875 820.762 249.451C821.05 250.027 821.522 250.315 822.178 250.315C822.626 250.315 823.042 250.187 823.426 249.931C823.826 249.675 824.178 249.323 824.482 248.875L825.13 249.403C824.666 250.107 824.202 250.619 823.738 250.939C823.29 251.259 822.874 251.459 822.49 251.539C822.106 251.635 821.778 251.683 821.506 251.683Z" fill="black"/>
<rect x="568" y="286.299" width="36" height="36" fill="white" stroke="black" stroke-width="2" stroke-dasharray="5 5"/>
<path d="M626.672 307.083C626.672 306.379 626.576 305.875 626.384 305.571C626.192 305.267 625.888 305.083 625.472 305.019C625.056 304.955 624.504 304.939 623.816 304.971L622.064 305.043V310.539C622.064 311.371 622.04 311.995 621.992 312.411L626.576 312.339C627.28 312.323 627.888 312.211 628.4 312.003C628.912 311.779 629.312 311.395 629.6 310.851C629.888 310.307 630.032 309.563 630.032 308.619H630.848L630.704 313.299H618.32V312.507C618.928 312.475 619.344 312.339 619.568 312.099C619.792 311.843 619.912 311.499 619.928 311.067C619.96 310.619 619.976 310.115 619.976 309.555V299.187C619.976 298.515 620 297.939 620.048 297.459C619.76 297.475 619.472 297.491 619.184 297.507C618.896 297.523 618.608 297.539 618.32 297.555V296.499H629.864L629.984 300.699H629.192C629.192 299.755 629.048 299.043 628.76 298.563C628.472 298.067 628.08 297.739 627.584 297.579C627.104 297.403 626.56 297.323 625.952 297.339L623.888 297.387C623.296 297.403 622.872 297.515 622.616 297.723C622.36 297.931 622.2 298.243 622.136 298.659C622.088 299.059 622.064 299.587 622.064 300.243V304.083L626.576 304.107L626.408 302.043H627.464V307.083H626.672ZM632.746 312.579C633.242 312.579 633.586 312.459 633.778 312.219C633.97 311.963 634.082 311.619 634.114 311.187C634.146 310.739 634.162 310.227 634.162 309.651V298.299C634.162 298.043 634.162 297.803 634.162 297.579C634.178 297.339 634.202 297.059 634.234 296.739C633.946 296.755 633.658 296.771 633.37 296.787C633.098 296.803 632.818 296.819 632.53 296.835V295.827C633.234 295.827 633.778 295.795 634.162 295.731C634.562 295.667 634.858 295.587 635.05 295.491C635.258 295.395 635.418 295.291 635.53 295.179H636.226L636.25 310.755C636.25 311.075 636.242 311.363 636.226 311.619C636.21 311.859 636.178 312.115 636.13 312.387C636.386 312.371 636.634 312.363 636.874 312.363C637.13 312.347 637.386 312.331 637.642 312.315V313.299H632.746V312.579ZM645.333 313.683C644.229 313.683 643.229 313.427 642.333 312.915C641.453 312.387 640.757 311.651 640.245 310.707C639.733 309.747 639.477 308.619 639.477 307.323C639.477 306.203 639.725 305.155 640.221 304.179C640.733 303.203 641.445 302.419 642.357 301.827C643.269 301.219 644.325 300.915 645.525 300.915C646.421 300.915 647.237 301.107 647.973 301.491C648.709 301.875 649.293 302.459 649.725 303.243C650.173 304.027 650.397 305.019 650.397 306.219L641.949 306.363C641.933 308.203 642.237 309.683 642.861 310.803C643.485 311.907 644.501 312.459 645.909 312.459C646.405 312.459 646.909 312.371 647.421 312.195C647.949 312.019 648.437 311.779 648.885 311.475C649.333 311.171 649.693 310.835 649.965 310.467L650.541 310.947C650.109 311.619 649.589 312.155 648.981 312.555C648.373 312.955 647.749 313.243 647.109 313.419C646.469 313.595 645.877 313.683 645.333 313.683ZM642.021 305.355H648.141C648.141 304.779 648.053 304.227 647.877 303.699C647.717 303.155 647.445 302.715 647.061 302.379C646.677 302.027 646.173 301.851 645.549 301.851C644.621 301.851 643.845 302.131 643.221 302.691C642.613 303.235 642.213 304.123 642.021 305.355ZM652.533 313.299V312.579C653.029 312.579 653.373 312.459 653.565 312.219C653.757 311.963 653.869 311.619 653.901 311.187C653.933 310.739 653.949 310.227 653.949 309.651V304.179C653.949 303.923 653.949 303.667 653.949 303.411C653.965 303.155 653.997 302.891 654.045 302.619C653.757 302.635 653.469 302.651 653.181 302.667C652.909 302.683 652.629 302.699 652.341 302.715V301.707C653.045 301.707 653.573 301.675 653.925 301.611C654.293 301.547 654.565 301.467 654.741 301.371C654.917 301.275 655.061 301.171 655.173 301.059H655.869C655.901 301.219 655.917 301.403 655.917 301.611C655.933 301.819 655.949 302.059 655.965 302.331C656.445 301.915 656.997 301.579 657.621 301.323C658.245 301.051 658.869 300.915 659.493 300.915C660.293 300.915 660.965 301.059 661.509 301.347C662.053 301.635 662.477 302.027 662.781 302.523C663.325 302.075 663.949 301.699 664.653 301.395C665.373 301.075 666.077 300.915 666.765 300.915C668.157 300.915 669.181 301.339 669.837 302.187C670.493 303.019 670.805 304.387 670.773 306.291L670.749 310.755C670.749 311.075 670.741 311.363 670.725 311.619C670.725 311.859 670.701 312.115 670.653 312.387C670.909 312.371 671.157 312.363 671.397 312.363C671.653 312.347 671.909 312.331 672.165 312.315V313.299H667.269V312.579C667.765 312.579 668.109 312.459 668.301 312.219C668.493 311.963 668.605 311.619 668.637 311.187C668.669 310.739 668.685 310.227 668.685 309.651V306.291C668.685 304.915 668.461 303.883 668.013 303.195C667.581 302.507 666.893 302.171 665.949 302.187C665.453 302.187 664.957 302.299 664.461 302.523C663.965 302.747 663.533 303.027 663.165 303.363C663.245 303.619 663.301 303.899 663.333 304.203C663.381 304.491 663.405 304.795 663.405 305.115C663.389 306.043 663.381 306.979 663.381 307.923C663.381 308.867 663.373 309.811 663.357 310.755C663.357 311.075 663.349 311.363 663.333 311.619C663.333 311.859 663.309 312.115 663.261 312.387C663.517 312.371 663.765 312.363 664.005 312.363C664.261 312.347 664.517 312.331 664.773 312.315V313.299H659.877V312.579C660.373 312.579 660.709 312.459 660.885 312.219C661.077 311.963 661.189 311.619 661.221 311.187C661.269 310.739 661.293 310.227 661.293 309.651L661.317 306.291C661.333 304.915 661.133 303.875 660.717 303.171C660.301 302.467 659.621 302.123 658.677 302.139C658.181 302.139 657.693 302.251 657.213 302.475C656.733 302.683 656.325 302.955 655.989 303.291C655.989 303.483 655.989 303.691 655.989 303.915C656.005 304.123 656.013 304.347 656.013 304.587V310.755C656.013 311.075 656.005 311.363 655.989 311.619C655.989 311.859 655.965 312.115 655.917 312.387C656.173 312.371 656.421 312.363 656.661 312.363C656.917 312.347 657.173 312.331 657.429 312.315V313.299H652.533ZM679.786 313.683C678.682 313.683 677.682 313.427 676.786 312.915C675.906 312.387 675.21 311.651 674.698 310.707C674.186 309.747 673.93 308.619 673.93 307.323C673.93 306.203 674.178 305.155 674.674 304.179C675.186 303.203 675.898 302.419 676.81 301.827C677.722 301.219 678.778 300.915 679.978 300.915C680.874 300.915 681.69 301.107 682.426 301.491C683.162 301.875 683.746 302.459 684.178 303.243C684.626 304.027 684.85 305.019 684.85 306.219L676.402 306.363C676.386 308.203 676.69 309.683 677.314 310.803C677.938 311.907 678.954 312.459 680.362 312.459C680.858 312.459 681.362 312.371 681.874 312.195C682.402 312.019 682.89 311.779 683.338 311.475C683.786 311.171 684.146 310.835 684.418 310.467L684.994 310.947C684.562 311.619 684.042 312.155 683.434 312.555C682.826 312.955 682.202 313.243 681.562 313.419C680.922 313.595 680.33 313.683 679.786 313.683ZM676.474 305.355H682.594C682.594 304.779 682.506 304.227 682.33 303.699C682.17 303.155 681.898 302.715 681.514 302.379C681.13 302.027 680.626 301.851 680.002 301.851C679.074 301.851 678.298 302.131 677.674 302.691C677.066 303.235 676.666 304.123 676.474 305.355ZM686.986 313.299V312.579C687.482 312.579 687.826 312.459 688.018 312.219C688.21 311.963 688.322 311.619 688.354 311.187C688.386 310.739 688.402 310.227 688.402 309.651L688.426 304.179C688.426 303.923 688.426 303.667 688.426 303.411C688.442 303.155 688.474 302.891 688.522 302.619C688.234 302.635 687.946 302.651 687.658 302.667C687.386 302.683 687.106 302.699 686.818 302.715V301.707C687.522 301.707 688.05 301.675 688.402 301.611C688.77 301.547 689.042 301.467 689.218 301.371C689.394 301.275 689.538 301.171 689.65 301.059H690.346C690.378 301.235 690.394 301.443 690.394 301.683C690.41 301.907 690.426 302.187 690.442 302.523C690.954 302.059 691.562 301.675 692.266 301.371C692.97 301.067 693.666 300.915 694.354 300.915C695.746 300.915 696.762 301.355 697.402 302.235C698.042 303.099 698.362 304.451 698.362 306.291V310.755C698.362 311.075 698.354 311.363 698.338 311.619C698.338 311.859 698.314 312.115 698.266 312.387C698.522 312.371 698.77 312.363 699.01 312.363C699.266 312.347 699.522 312.331 699.778 312.315V313.299H694.882V312.579C695.378 312.579 695.722 312.459 695.914 312.219C696.106 311.963 696.218 311.619 696.25 311.187C696.282 310.739 696.298 310.227 696.298 309.651V306.291C696.282 304.915 696.05 303.875 695.602 303.171C695.17 302.467 694.482 302.123 693.538 302.139C692.962 302.155 692.394 302.307 691.834 302.595C691.29 302.883 690.834 303.251 690.466 303.699C690.482 303.827 690.49 303.971 690.49 304.131C690.49 304.291 690.49 304.459 690.49 304.635L690.466 310.755C690.466 311.075 690.458 311.363 690.442 311.619C690.442 311.859 690.418 312.115 690.37 312.387C690.626 312.371 690.874 312.363 691.114 312.363C691.37 312.347 691.626 312.331 691.882 312.315V313.299H686.986ZM705.865 313.683C705.497 313.683 705.121 313.627 704.737 313.515C704.353 313.419 703.993 313.219 703.657 312.915C703.337 312.611 703.081 312.171 702.889 311.595C702.697 311.003 702.601 310.227 702.601 309.267L702.649 302.307L700.801 302.331V301.299C701.217 301.283 701.641 301.131 702.073 300.843C702.505 300.539 702.889 300.131 703.225 299.619C703.577 299.107 703.817 298.547 703.945 297.939H704.761V301.299H708.793V302.235L704.761 302.283L704.713 308.955C704.713 310.043 704.849 310.875 705.121 311.451C705.409 312.027 705.881 312.315 706.537 312.315C706.985 312.315 707.401 312.187 707.785 311.931C708.185 311.675 708.537 311.323 708.841 310.875L709.489 311.403C709.025 312.107 708.561 312.619 708.097 312.939C707.649 313.259 707.233 313.459 706.849 313.539C706.465 313.635 706.137 313.683 705.865 313.683ZM716.939 312.579C717.435 312.579 717.779 312.459 717.971 312.219C718.163 311.963 718.275 311.619 718.307 311.187C718.339 310.739 718.355 310.227 718.355 309.651V304.179C718.355 303.923 718.363 303.683 718.379 303.459C718.395 303.219 718.419 302.939 718.451 302.619C718.163 302.635 717.875 302.651 717.587 302.667C717.315 302.683 717.035 302.699 716.747 302.715V301.707C717.451 301.707 717.995 301.675 718.379 301.611C718.763 301.547 719.051 301.467 719.243 301.371C719.451 301.275 719.611 301.171 719.723 301.059H720.419V310.755C720.419 311.075 720.411 311.363 720.395 311.619C720.395 311.859 720.371 312.115 720.323 312.387C720.579 312.371 720.827 312.363 721.067 312.363C721.323 312.347 721.579 312.331 721.835 312.315V313.299H716.939V312.579ZM719.267 298.683C718.931 298.683 718.635 298.547 718.379 298.275C718.123 298.003 717.995 297.667 717.995 297.267C717.995 296.867 718.123 296.531 718.379 296.259C718.651 295.971 718.955 295.827 719.291 295.827C719.659 295.827 719.963 295.971 720.203 296.259C720.459 296.531 720.587 296.867 720.587 297.267C720.587 297.667 720.451 298.003 720.179 298.275C719.923 298.547 719.619 298.683 719.267 298.683ZM723.689 313.299V312.579C724.185 312.579 724.529 312.459 724.721 312.219C724.913 311.963 725.025 311.619 725.057 311.187C725.089 310.739 725.105 310.227 725.105 309.651L725.129 304.179C725.129 303.923 725.129 303.667 725.129 303.411C725.145 303.155 725.177 302.891 725.225 302.619C724.937 302.635 724.649 302.651 724.361 302.667C724.089 302.683 723.809 302.699 723.521 302.715V301.707C724.225 301.707 724.753 301.675 725.105 301.611C725.473 301.547 725.745 301.467 725.921 301.371C726.097 301.275 726.241 301.171 726.353 301.059H727.049C727.081 301.235 727.097 301.443 727.097 301.683C727.113 301.907 727.129 302.187 727.145 302.523C727.657 302.059 728.265 301.675 728.969 301.371C729.673 301.067 730.369 300.915 731.057 300.915C732.449 300.915 733.465 301.355 734.105 302.235C734.745 303.099 735.065 304.451 735.065 306.291V310.755C735.065 311.075 735.057 311.363 735.041 311.619C735.041 311.859 735.017 312.115 734.969 312.387C735.225 312.371 735.473 312.363 735.713 312.363C735.969 312.347 736.225 312.331 736.481 312.315V313.299H731.585V312.579C732.081 312.579 732.425 312.459 732.617 312.219C732.809 311.963 732.921 311.619 732.953 311.187C732.985 310.739 733.001 310.227 733.001 309.651V306.291C732.985 304.915 732.753 303.875 732.305 303.171C731.873 302.467 731.185 302.123 730.241 302.139C729.665 302.155 729.097 302.307 728.537 302.595C727.993 302.883 727.537 303.251 727.169 303.699C727.185 303.827 727.193 303.971 727.193 304.131C727.193 304.291 727.193 304.459 727.193 304.635L727.169 310.755C727.169 311.075 727.161 311.363 727.145 311.619C727.145 311.859 727.121 312.115 727.073 312.387C727.329 312.371 727.577 312.363 727.817 312.363C728.073 312.347 728.329 312.331 728.585 312.315V313.299H723.689ZM742.568 313.683C742.2 313.683 741.824 313.627 741.44 313.515C741.056 313.419 740.696 313.219 740.36 312.915C740.04 312.611 739.784 312.171 739.592 311.595C739.4 311.003 739.304 310.227 739.304 309.267L739.352 302.307L737.504 302.331V301.299C737.92 301.283 738.344 301.131 738.776 300.843C739.208 300.539 739.592 300.131 739.928 299.619C740.28 299.107 740.52 298.547 740.648 297.939H741.464V301.299H745.496V302.235L741.464 302.283L741.416 308.955C741.416 310.043 741.552 310.875 741.824 311.451C742.112 312.027 742.584 312.315 743.24 312.315C743.688 312.315 744.104 312.187 744.488 311.931C744.888 311.675 745.24 311.323 745.544 310.875L746.192 311.403C745.728 312.107 745.264 312.619 744.8 312.939C744.352 313.259 743.936 313.459 743.552 313.539C743.168 313.635 742.84 313.683 742.568 313.683ZM753.145 313.683C752.041 313.683 751.041 313.427 750.145 312.915C749.265 312.387 748.569 311.651 748.057 310.707C747.545 309.747 747.289 308.619 747.289 307.323C747.289 306.203 747.537 305.155 748.033 304.179C748.545 303.203 749.257 302.419 750.169 301.827C751.081 301.219 752.137 300.915 753.337 300.915C754.233 300.915 755.049 301.107 755.785 301.491C756.521 301.875 757.105 302.459 757.537 303.243C757.985 304.027 758.209 305.019 758.209 306.219L749.761 306.363C749.745 308.203 750.049 309.683 750.673 310.803C751.297 311.907 752.313 312.459 753.721 312.459C754.217 312.459 754.721 312.371 755.233 312.195C755.761 312.019 756.249 311.779 756.697 311.475C757.145 311.171 757.505 310.835 757.777 310.467L758.353 310.947C757.921 311.619 757.401 312.155 756.793 312.555C756.185 312.955 755.561 313.243 754.921 313.419C754.281 313.595 753.689 313.683 753.145 313.683ZM749.833 305.355H755.953C755.953 304.779 755.865 304.227 755.689 303.699C755.529 303.155 755.257 302.715 754.873 302.379C754.489 302.027 753.985 301.851 753.361 301.851C752.433 301.851 751.657 302.131 751.033 302.691C750.425 303.235 750.025 304.123 749.833 305.355ZM760.345 312.579C760.841 312.579 761.185 312.459 761.377 312.219C761.569 311.963 761.681 311.619 761.713 311.187C761.745 310.739 761.761 310.227 761.761 309.651V304.179C761.761 303.923 761.761 303.667 761.761 303.411C761.777 303.155 761.809 302.891 761.857 302.619C761.569 302.635 761.281 302.651 760.993 302.667C760.721 302.667 760.441 302.675 760.153 302.691V301.707H760.897C761.585 301.707 762.057 301.643 762.313 301.515C762.585 301.371 762.809 301.219 762.985 301.059H763.681C763.713 301.315 763.737 301.635 763.753 302.019C763.769 302.387 763.785 302.859 763.801 303.435C764.041 303.035 764.369 302.643 764.785 302.259C765.201 301.875 765.665 301.555 766.177 301.299C766.705 301.043 767.257 300.915 767.833 300.915C768.281 300.915 768.673 301.035 769.009 301.275C769.345 301.515 769.513 301.899 769.513 302.427C769.513 302.635 769.417 302.883 769.225 303.171C769.049 303.459 768.745 303.595 768.313 303.579C767.961 303.563 767.681 303.427 767.473 303.171C767.265 302.899 767.185 302.587 767.233 302.235C766.625 302.203 766.009 302.435 765.385 302.931C764.761 303.427 764.241 304.067 763.825 304.851L763.849 310.755C763.849 311.075 763.841 311.363 763.825 311.619C763.825 311.859 763.801 312.115 763.753 312.387C764.009 312.371 764.257 312.363 764.497 312.363C764.753 312.347 765.009 312.331 765.265 312.315V313.299H760.345V312.579ZM777.86 313.299C777.812 313.027 777.78 312.787 777.764 312.579C777.748 312.371 777.724 312.155 777.692 311.931C777.148 312.475 776.556 312.907 775.916 313.227C775.292 313.531 774.628 313.683 773.924 313.683C772.708 313.683 771.804 313.411 771.212 312.867C770.62 312.307 770.324 311.627 770.324 310.827C770.324 310.091 770.548 309.459 770.996 308.931C771.46 308.387 772.052 307.947 772.772 307.611C773.508 307.259 774.3 307.003 775.148 306.843C776.012 306.667 776.844 306.587 777.644 306.603V305.115C777.644 304.555 777.596 304.027 777.5 303.531C777.404 303.035 777.196 302.627 776.876 302.307C776.556 301.987 776.044 301.819 775.34 301.803C774.876 301.787 774.396 301.875 773.9 302.067C773.42 302.259 773.068 302.587 772.844 303.051C772.972 303.179 773.052 303.331 773.084 303.507C773.132 303.667 773.156 303.819 773.156 303.963C773.156 304.155 773.076 304.379 772.916 304.635C772.756 304.875 772.476 304.987 772.076 304.971C771.74 304.971 771.484 304.859 771.308 304.635C771.132 304.395 771.044 304.115 771.044 303.795C771.044 303.251 771.244 302.763 771.644 302.331C772.06 301.899 772.628 301.555 773.348 301.299C774.068 301.043 774.884 300.915 775.796 300.915C777.14 300.915 778.132 301.275 778.772 301.995C779.412 302.699 779.724 303.819 779.708 305.355C779.708 306.251 779.7 307.155 779.684 308.067C779.684 308.963 779.684 309.859 779.684 310.755C779.684 311.011 779.676 311.267 779.66 311.523C779.644 311.779 779.62 312.067 779.588 312.387C779.876 312.371 780.156 312.355 780.428 312.339C780.716 312.323 781.004 312.307 781.292 312.291V313.299H777.86ZM777.644 307.419C777.1 307.435 776.524 307.507 775.916 307.635C775.324 307.747 774.772 307.923 774.26 308.163C773.764 308.403 773.356 308.723 773.036 309.123C772.732 309.507 772.588 309.979 772.604 310.539C772.636 311.131 772.828 311.579 773.18 311.883C773.548 312.171 773.98 312.315 774.476 312.315C775.132 312.315 775.7 312.195 776.18 311.955C776.676 311.699 777.164 311.347 777.644 310.899C777.628 310.723 777.62 310.531 777.62 310.323C777.62 310.115 777.62 309.899 777.62 309.675C777.62 309.595 777.62 309.339 777.62 308.907C777.636 308.475 777.644 307.979 777.644 307.419ZM788.795 313.683C787.723 313.683 786.731 313.443 785.819 312.963C784.923 312.467 784.203 311.763 783.659 310.851C783.131 309.923 782.867 308.811 782.867 307.515C782.867 306.683 783.019 305.875 783.323 305.091C783.627 304.307 784.051 303.603 784.595 302.979C785.155 302.339 785.819 301.835 786.587 301.467C787.355 301.099 788.203 300.915 789.131 300.915C790.027 300.915 790.803 301.051 791.459 301.323C792.131 301.595 792.651 301.955 793.019 302.403C793.387 302.851 793.571 303.339 793.571 303.867C793.571 304.219 793.475 304.523 793.283 304.779C793.091 305.019 792.811 305.139 792.443 305.139C792.043 305.155 791.755 305.035 791.579 304.779C791.419 304.507 791.339 304.267 791.339 304.059C791.339 303.899 791.363 303.739 791.411 303.579C791.459 303.403 791.555 303.243 791.699 303.099C791.571 302.715 791.347 302.435 791.027 302.259C790.707 302.067 790.371 301.947 790.019 301.899C789.683 301.835 789.403 301.803 789.179 301.803C788.091 301.803 787.171 302.243 786.419 303.123C785.683 303.987 785.315 305.251 785.315 306.915C785.315 307.987 785.483 308.939 785.819 309.771C786.171 310.603 786.659 311.259 787.283 311.739C787.907 312.203 788.627 312.435 789.443 312.435C790.195 312.435 790.915 312.235 791.603 311.835C792.291 311.435 792.827 310.947 793.211 310.371L793.835 310.851C793.419 311.523 792.915 312.067 792.323 312.483C791.747 312.899 791.147 313.203 790.523 313.395C789.915 313.587 789.339 313.683 788.795 313.683ZM800.107 313.683C799.739 313.683 799.363 313.627 798.979 313.515C798.595 313.419 798.235 313.219 797.899 312.915C797.579 312.611 797.323 312.171 797.131 311.595C796.939 311.003 796.843 310.227 796.843 309.267L796.891 302.307L795.043 302.331V301.299C795.459 301.283 795.883 301.131 796.315 300.843C796.747 300.539 797.131 300.131 797.467 299.619C797.819 299.107 798.059 298.547 798.187 297.939H799.003V301.299H803.035V302.235L799.003 302.283L798.955 308.955C798.955 310.043 799.091 310.875 799.363 311.451C799.651 312.027 800.123 312.315 800.779 312.315C801.227 312.315 801.643 312.187 802.027 311.931C802.427 311.675 802.779 311.323 803.083 310.875L803.731 311.403C803.267 312.107 802.803 312.619 802.339 312.939C801.891 313.259 801.475 313.459 801.091 313.539C800.707 313.635 800.379 313.683 800.107 313.683ZM804.876 312.579C805.372 312.579 805.716 312.459 805.908 312.219C806.1 311.963 806.212 311.619 806.244 311.187C806.276 310.739 806.292 310.227 806.292 309.651V304.179C806.292 303.923 806.3 303.683 806.316 303.459C806.332 303.219 806.356 302.939 806.388 302.619C806.1 302.635 805.812 302.651 805.524 302.667C805.252 302.683 804.972 302.699 804.684 302.715V301.707C805.388 301.707 805.932 301.675 806.316 301.611C806.7 301.547 806.988 301.467 807.18 301.371C807.388 301.275 807.548 301.171 807.66 301.059H808.356V310.755C808.356 311.075 808.348 311.363 808.332 311.619C808.332 311.859 808.308 312.115 808.26 312.387C808.516 312.371 808.764 312.363 809.004 312.363C809.26 312.347 809.516 312.331 809.772 312.315V313.299H804.876V312.579ZM807.204 298.683C806.868 298.683 806.572 298.547 806.316 298.275C806.06 298.003 805.932 297.667 805.932 297.267C805.932 296.867 806.06 296.531 806.316 296.259C806.588 295.971 806.892 295.827 807.228 295.827C807.596 295.827 807.9 295.971 808.14 296.259C808.396 296.531 808.524 296.867 808.524 297.267C808.524 297.667 808.388 298.003 808.116 298.275C807.86 298.547 807.556 298.683 807.204 298.683ZM817.578 313.683C816.458 313.683 815.442 313.427 814.53 312.915C813.618 312.387 812.89 311.667 812.346 310.755C811.818 309.827 811.554 308.771 811.554 307.587C811.554 306.323 811.818 305.187 812.346 304.179C812.874 303.171 813.594 302.379 814.506 301.803C815.418 301.211 816.442 300.915 817.578 300.915C818.698 300.915 819.714 301.187 820.626 301.731C821.538 302.259 822.266 302.979 822.81 303.891C823.354 304.803 823.626 305.843 823.626 307.011C823.626 308.243 823.354 309.371 822.81 310.395C822.282 311.403 821.562 312.203 820.65 312.795C819.738 313.387 818.714 313.683 817.578 313.683ZM817.77 312.723C818.618 312.723 819.29 312.483 819.786 312.003C820.282 311.523 820.634 310.899 820.842 310.131C821.066 309.363 821.178 308.555 821.178 307.707C821.178 306.987 821.106 306.283 820.962 305.595C820.834 304.891 820.626 304.259 820.338 303.699C820.05 303.123 819.674 302.667 819.21 302.331C818.762 301.995 818.218 301.827 817.578 301.827C816.746 301.827 816.066 302.067 815.538 302.547C815.01 303.027 814.618 303.651 814.362 304.419C814.122 305.187 814.002 306.011 814.002 306.891C814.002 307.883 814.138 308.827 814.41 309.723C814.682 310.603 815.098 311.323 815.658 311.883C816.218 312.443 816.922 312.723 817.77 312.723ZM825.665 313.299V312.579C826.161 312.579 826.505 312.459 826.697 312.219C826.889 311.963 827.001 311.619 827.033 311.187C827.065 310.739 827.081 310.227 827.081 309.651L827.105 304.179C827.105 303.923 827.105 303.667 827.105 303.411C827.121 303.155 827.153 302.891 827.201 302.619C826.913 302.635 826.625 302.651 826.337 302.667C826.065 302.683 825.785 302.699 825.497 302.715V301.707C826.201 301.707 826.729 301.675 827.081 301.611C827.449 301.547 827.721 301.467 827.897 301.371C828.073 301.275 828.217 301.171 828.329 301.059H829.025C829.057 301.235 829.073 301.443 829.073 301.683C829.089 301.907 829.105 302.187 829.121 302.523C829.633 302.059 830.241 301.675 830.945 301.371C831.649 301.067 832.345 300.915 833.033 300.915C834.425 300.915 835.441 301.355 836.081 302.235C836.721 303.099 837.041 304.451 837.041 306.291V310.755C837.041 311.075 837.033 311.363 837.017 311.619C837.017 311.859 836.993 312.115 836.945 312.387C837.201 312.371 837.449 312.363 837.689 312.363C837.945 312.347 838.201 312.331 838.457 312.315V313.299H833.561V312.579C834.057 312.579 834.401 312.459 834.593 312.219C834.785 311.963 834.897 311.619 834.929 311.187C834.961 310.739 834.977 310.227 834.977 309.651V306.291C834.961 304.915 834.729 303.875 834.281 303.171C833.849 302.467 833.161 302.123 832.217 302.139C831.641 302.155 831.073 302.307 830.513 302.595C829.969 302.883 829.513 303.251 829.145 303.699C829.161 303.827 829.169 303.971 829.169 304.131C829.169 304.291 829.169 304.459 829.169 304.635L829.145 310.755C829.145 311.075 829.137 311.363 829.121 311.619C829.121 311.859 829.097 312.115 829.049 312.387C829.305 312.371 829.553 312.363 829.793 312.363C830.049 312.347 830.305 312.331 830.561 312.315V313.299H825.665Z" fill="black"/>
<rect x="567.5" y="161.5" width="37" height="37" fill="white" stroke="black"/>
<path d="M626.672 181.784C626.672 181.08 626.576 180.576 626.384 180.272C626.192 179.968 625.888 179.784 625.472 179.72C625.056 179.656 624.504 179.64 623.816 179.672L622.064 179.744V185.24C622.064 186.072 622.04 186.696 621.992 187.112L626.576 187.04C627.28 187.024 627.888 186.912 628.4 186.704C628.912 186.48 629.312 186.096 629.6 185.552C629.888 185.008 630.032 184.264 630.032 183.32H630.848L630.704 188H618.32V187.208C618.928 187.176 619.344 187.04 619.568 186.8C619.792 186.544 619.912 186.2 619.928 185.768C619.96 185.32 619.976 184.816 619.976 184.256V173.888C619.976 173.216 620 172.64 620.048 172.16C619.76 172.176 619.472 172.192 619.184 172.208C618.896 172.224 618.608 172.24 618.32 172.256V171.2H629.864L629.984 175.4H629.192C629.192 174.456 629.048 173.744 628.76 173.264C628.472 172.768 628.08 172.44 627.584 172.28C627.104 172.104 626.56 172.024 625.952 172.04L623.888 172.088C623.296 172.104 622.872 172.216 622.616 172.424C622.36 172.632 622.2 172.944 622.136 173.36C622.088 173.76 622.064 174.288 622.064 174.944V178.784L626.576 178.808L626.408 176.744H627.464V181.784H626.672ZM632.986 188V187.28C633.482 187.28 633.826 187.16 634.018 186.92C634.21 186.664 634.322 186.32 634.354 185.888C634.386 185.44 634.402 184.928 634.402 184.352V178.88C634.402 178.624 634.402 178.368 634.402 178.112C634.418 177.856 634.45 177.592 634.498 177.32C634.21 177.336 633.922 177.352 633.634 177.368C633.362 177.384 633.082 177.4 632.794 177.416V176.408C633.498 176.408 634.026 176.376 634.378 176.312C634.746 176.248 635.018 176.168 635.194 176.072C635.37 175.976 635.514 175.872 635.626 175.76H636.322C636.354 175.92 636.37 176.104 636.37 176.312C636.386 176.52 636.402 176.76 636.418 177.032C636.898 176.616 637.45 176.28 638.074 176.024C638.698 175.752 639.322 175.616 639.946 175.616C640.746 175.616 641.418 175.76 641.962 176.048C642.506 176.336 642.93 176.728 643.234 177.224C643.778 176.776 644.402 176.4 645.106 176.096C645.826 175.776 646.53 175.616 647.218 175.616C648.61 175.616 649.634 176.04 650.29 176.888C650.946 177.72 651.258 179.088 651.226 180.992L651.202 185.456C651.202 185.776 651.194 186.064 651.178 186.32C651.178 186.56 651.154 186.816 651.106 187.088C651.362 187.072 651.61 187.064 651.85 187.064C652.106 187.048 652.362 187.032 652.618 187.016V188H647.722V187.28C648.218 187.28 648.562 187.16 648.754 186.92C648.946 186.664 649.058 186.32 649.09 185.888C649.122 185.44 649.138 184.928 649.138 184.352V180.992C649.138 179.616 648.914 178.584 648.466 177.896C648.034 177.208 647.346 176.872 646.402 176.888C645.906 176.888 645.41 177 644.914 177.224C644.418 177.448 643.986 177.728 643.618 178.064C643.698 178.32 643.754 178.6 643.786 178.904C643.834 179.192 643.858 179.496 643.858 179.816C643.842 180.744 643.834 181.68 643.834 182.624C643.834 183.568 643.826 184.512 643.81 185.456C643.81 185.776 643.802 186.064 643.786 186.32C643.786 186.56 643.762 186.816 643.714 187.088C643.97 187.072 644.218 187.064 644.458 187.064C644.714 187.048 644.97 187.032 645.226 187.016V188H640.33V187.28C640.826 187.28 641.162 187.16 641.338 186.92C641.53 186.664 641.642 186.32 641.674 185.888C641.722 185.44 641.746 184.928 641.746 184.352L641.77 180.992C641.786 179.616 641.586 178.576 641.17 177.872C640.754 177.168 640.074 176.824 639.13 176.84C638.634 176.84 638.146 176.952 637.666 177.176C637.186 177.384 636.778 177.656 636.442 177.992C636.442 178.184 636.442 178.392 636.442 178.616C636.458 178.824 636.466 179.048 636.466 179.288V185.456C636.466 185.776 636.458 186.064 636.442 186.32C636.442 186.56 636.418 186.816 636.37 187.088C636.626 187.072 636.874 187.064 637.114 187.064C637.37 187.048 637.626 187.032 637.882 187.016V188H632.986ZM654.215 194.12V193.4C654.711 193.4 655.055 193.272 655.247 193.016C655.439 192.776 655.551 192.432 655.583 191.984C655.615 191.552 655.631 191.048 655.631 190.472L655.679 178.88C655.679 178.624 655.679 178.368 655.679 178.112C655.695 177.856 655.727 177.592 655.775 177.32C655.487 177.336 655.199 177.352 654.911 177.368C654.639 177.384 654.359 177.4 654.071 177.416V176.408C654.775 176.408 655.303 176.376 655.655 176.312C656.023 176.248 656.287 176.168 656.447 176.072C656.623 175.976 656.767 175.872 656.879 175.76H657.599C657.615 175.92 657.631 176.112 657.647 176.336C657.663 176.544 657.679 176.784 657.695 177.056C658.175 176.624 658.743 176.28 659.399 176.024C660.071 175.752 660.743 175.616 661.415 175.616C662.343 175.616 663.207 175.856 664.007 176.336C664.807 176.816 665.455 177.504 665.951 178.4C666.447 179.28 666.695 180.336 666.695 181.568C666.695 182.928 666.407 184.12 665.831 185.144C665.271 186.168 664.527 186.968 663.599 187.544C662.671 188.104 661.663 188.384 660.575 188.384C659.471 188.384 658.511 188.12 657.695 187.592V191.576C657.695 191.896 657.687 192.176 657.671 192.416C657.671 192.672 657.647 192.936 657.599 193.208C657.855 193.192 658.103 193.176 658.343 193.16C658.599 193.16 658.855 193.152 659.111 193.136V194.12H654.215ZM660.527 187.424C661.295 187.424 661.951 187.192 662.495 186.728C663.055 186.248 663.479 185.6 663.767 184.784C664.071 183.952 664.223 183.008 664.223 181.952C664.223 181.088 664.095 180.264 663.839 179.48C663.599 178.68 663.207 178.032 662.663 177.536C662.135 177.04 661.431 176.792 660.551 176.792C660.007 176.792 659.479 176.928 658.967 177.2C658.471 177.456 658.055 177.768 657.719 178.136C657.719 178.2 657.719 178.296 657.719 178.424C657.735 178.536 657.743 178.744 657.743 179.048C657.743 179.336 657.743 179.776 657.743 180.368C657.743 180.944 657.735 181.728 657.719 182.72C657.719 183.712 657.719 184.968 657.719 186.488C658.535 187.112 659.471 187.424 660.527 187.424ZM673.263 188.384C672.895 188.384 672.519 188.328 672.135 188.216C671.751 188.12 671.391 187.92 671.055 187.616C670.735 187.312 670.479 186.872 670.287 186.296C670.095 185.704 669.999 184.928 669.999 183.968L670.047 177.008L668.199 177.032V176C668.615 175.984 669.039 175.832 669.471 175.544C669.903 175.24 670.287 174.832 670.623 174.32C670.975 173.808 671.215 173.248 671.343 172.64H672.159V176H676.191V176.936L672.159 176.984L672.111 183.656C672.111 184.744 672.247 185.576 672.519 186.152C672.807 186.728 673.279 187.016 673.935 187.016C674.383 187.016 674.799 186.888 675.183 186.632C675.583 186.376 675.935 186.024 676.239 185.576L676.887 186.104C676.423 186.808 675.959 187.32 675.495 187.64C675.047 187.96 674.631 188.16 674.247 188.24C673.863 188.336 673.535 188.384 673.263 188.384ZM679.927 194.504C679.431 194.504 679.007 194.384 678.655 194.144C678.303 193.904 678.127 193.536 678.127 193.04C678.127 192.752 678.223 192.488 678.415 192.248C678.607 192.008 678.855 191.888 679.159 191.888C679.543 191.872 679.799 191.992 679.927 192.248C680.071 192.504 680.143 192.728 680.143 192.92C680.143 192.968 680.143 193.016 680.143 193.064C680.143 193.128 680.135 193.192 680.119 193.256C680.167 193.288 680.255 193.304 680.383 193.304C680.575 193.304 680.783 193.224 681.007 193.064C681.231 192.904 681.431 192.672 681.607 192.368C681.815 192.016 682.055 191.488 682.327 190.784C682.615 190.08 682.935 189.24 683.287 188.264L679.543 180.248C679.127 179.352 678.823 178.64 678.631 178.112C678.455 177.584 678.335 177.192 678.271 176.936L677.119 176.984V176H682.087V176.72H681.991C681.319 176.768 680.951 177.024 680.887 177.488C680.823 177.936 681.007 178.624 681.439 179.552L684.247 185.576C684.615 184.552 684.967 183.544 685.303 182.552C685.639 181.544 685.975 180.544 686.311 179.552C686.439 179.2 686.567 178.84 686.695 178.472C686.839 178.088 686.975 177.752 687.103 177.464C687.247 177.16 687.375 176.968 687.487 176.888L685.831 176.984V176H689.599V176.72C689.007 176.944 688.559 177.32 688.255 177.848C687.967 178.36 687.671 179.024 687.367 179.84L684.367 188.216C683.887 189.56 683.447 190.696 683.047 191.624C682.647 192.568 682.207 193.28 681.727 193.76C681.247 194.256 680.647 194.504 679.927 194.504ZM701.984 188.384C701.184 188.384 700.472 188.272 699.848 188.048C699.224 187.84 698.712 187.6 698.312 187.328L698.408 188.168H697.4L697.256 184.04H698C698.032 184.696 698.216 185.288 698.552 185.816C698.888 186.328 699.32 186.728 699.848 187.016C700.376 187.304 700.944 187.448 701.552 187.448C701.968 187.448 702.376 187.384 702.776 187.256C703.176 187.112 703.512 186.904 703.784 186.632C704.056 186.344 704.192 185.984 704.192 185.552C704.192 185.104 704.056 184.736 703.784 184.448C703.528 184.144 703.184 183.88 702.752 183.656C702.32 183.432 701.856 183.224 701.36 183.032C700.72 182.776 700.08 182.504 699.44 182.216C698.816 181.912 698.296 181.52 697.88 181.04C697.464 180.544 697.256 179.896 697.256 179.096C697.256 178.76 697.32 178.392 697.448 177.992C697.576 177.592 697.792 177.216 698.096 176.864C698.4 176.496 698.816 176.2 699.344 175.976C699.872 175.736 700.544 175.616 701.36 175.616C701.792 175.616 702.272 175.688 702.8 175.832C703.328 175.976 703.84 176.248 704.336 176.648L704.288 175.736H705.296V179.936H704.528C704.496 179.376 704.368 178.84 704.144 178.328C703.92 177.8 703.592 177.368 703.16 177.032C702.728 176.68 702.168 176.504 701.48 176.504C700.744 176.504 700.168 176.688 699.752 177.056C699.336 177.424 699.128 177.848 699.128 178.328C699.128 178.824 699.28 179.24 699.584 179.576C699.904 179.896 700.312 180.176 700.808 180.416C701.304 180.656 701.832 180.888 702.392 181.112C703 181.368 703.592 181.648 704.168 181.952C704.744 182.256 705.216 182.64 705.584 183.104C705.952 183.552 706.136 184.136 706.136 184.856C706.136 185.656 705.928 186.32 705.512 186.848C705.112 187.376 704.592 187.76 703.952 188C703.328 188.256 702.672 188.384 701.984 188.384ZM707.957 194.12V193.4C708.453 193.4 708.797 193.272 708.989 193.016C709.181 192.776 709.293 192.432 709.325 191.984C709.357 191.552 709.373 191.048 709.373 190.472L709.421 178.88C709.421 178.624 709.421 178.368 709.421 178.112C709.437 177.856 709.469 177.592 709.517 177.32C709.229 177.336 708.941 177.352 708.653 177.368C708.381 177.384 708.101 177.4 707.813 177.416V176.408C708.517 176.408 709.045 176.376 709.397 176.312C709.765 176.248 710.029 176.168 710.189 176.072C710.365 175.976 710.509 175.872 710.621 175.76H711.341C711.357 175.92 711.373 176.112 711.389 176.336C711.405 176.544 711.421 176.784 711.437 177.056C711.917 176.624 712.485 176.28 713.141 176.024C713.813 175.752 714.485 175.616 715.157 175.616C716.085 175.616 716.949 175.856 717.749 176.336C718.549 176.816 719.197 177.504 719.693 178.4C720.189 179.28 720.437 180.336 720.437 181.568C720.437 182.928 720.149 184.12 719.573 185.144C719.013 186.168 718.269 186.968 717.341 187.544C716.413 188.104 715.405 188.384 714.317 188.384C713.213 188.384 712.253 188.12 711.437 187.592V191.576C711.437 191.896 711.429 192.176 711.413 192.416C711.413 192.672 711.389 192.936 711.341 193.208C711.597 193.192 711.845 193.176 712.085 193.16C712.341 193.16 712.597 193.152 712.853 193.136V194.12H707.957ZM714.269 187.424C715.037 187.424 715.693 187.192 716.237 186.728C716.797 186.248 717.221 185.6 717.509 184.784C717.813 183.952 717.965 183.008 717.965 181.952C717.965 181.088 717.837 180.264 717.581 179.48C717.341 178.68 716.949 178.032 716.405 177.536C715.877 177.04 715.173 176.792 714.293 176.792C713.749 176.792 713.221 176.928 712.709 177.2C712.213 177.456 711.797 177.768 711.461 178.136C711.461 178.2 711.461 178.296 711.461 178.424C711.477 178.536 711.485 178.744 711.485 179.048C711.485 179.336 711.485 179.776 711.485 180.368C711.485 180.944 711.477 181.728 711.461 182.72C711.461 183.712 711.461 184.968 711.461 186.488C712.277 187.112 713.213 187.424 714.269 187.424ZM729.79 188C729.742 187.728 729.71 187.488 729.694 187.28C729.678 187.072 729.654 186.856 729.622 186.632C729.078 187.176 728.486 187.608 727.846 187.928C727.222 188.232 726.558 188.384 725.854 188.384C724.638 188.384 723.734 188.112 723.142 187.568C722.55 187.008 722.254 186.328 722.254 185.528C722.254 184.792 722.478 184.16 722.926 183.632C723.39 183.088 723.982 182.648 724.702 182.312C725.438 181.96 726.23 181.704 727.078 181.544C727.942 181.368 728.774 181.288 729.574 181.304V179.816C729.574 179.256 729.526 178.728 729.43 178.232C729.334 177.736 729.126 177.328 728.806 177.008C728.486 176.688 727.974 176.52 727.27 176.504C726.806 176.488 726.326 176.576 725.83 176.768C725.35 176.96 724.998 177.288 724.774 177.752C724.902 177.88 724.982 178.032 725.014 178.208C725.062 178.368 725.086 178.52 725.086 178.664C725.086 178.856 725.006 179.08 724.846 179.336C724.686 179.576 724.406 179.688 724.006 179.672C723.67 179.672 723.414 179.56 723.238 179.336C723.062 179.096 722.974 178.816 722.974 178.496C722.974 177.952 723.174 177.464 723.574 177.032C723.99 176.6 724.558 176.256 725.278 176C725.998 175.744 726.814 175.616 727.726 175.616C729.07 175.616 730.062 175.976 730.702 176.696C731.342 177.4 731.654 178.52 731.638 180.056C731.638 180.952 731.63 181.856 731.614 182.768C731.614 183.664 731.614 184.56 731.614 185.456C731.614 185.712 731.606 185.968 731.59 186.224C731.574 186.48 731.55 186.768 731.518 187.088C731.806 187.072 732.086 187.056 732.358 187.04C732.646 187.024 732.934 187.008 733.222 186.992V188H729.79ZM729.574 182.12C729.03 182.136 728.454 182.208 727.846 182.336C727.254 182.448 726.702 182.624 726.19 182.864C725.694 183.104 725.286 183.424 724.965 183.824C724.662 184.208 724.518 184.68 724.534 185.24C724.566 185.832 724.758 186.28 725.11 186.584C725.478 186.872 725.91 187.016 726.406 187.016C727.062 187.016 727.63 186.896 728.11 186.656C728.606 186.4 729.094 186.048 729.574 185.6C729.558 185.424 729.55 185.232 729.55 185.024C729.55 184.816 729.55 184.6 729.55 184.376C729.55 184.296 729.55 184.04 729.55 183.608C729.566 183.176 729.574 182.68 729.574 182.12ZM740.725 188.384C739.653 188.384 738.661 188.144 737.749 187.664C736.853 187.168 736.133 186.464 735.589 185.552C735.061 184.624 734.797 183.512 734.797 182.216C734.797 181.384 734.949 180.576 735.253 179.792C735.557 179.008 735.981 178.304 736.525 177.68C737.085 177.04 737.749 176.536 738.517 176.168C739.285 175.8 740.133 175.616 741.061 175.616C741.957 175.616 742.733 175.752 743.389 176.024C744.061 176.296 744.581 176.656 744.949 177.104C745.317 177.552 745.501 178.04 745.501 178.568C745.501 178.92 745.405 179.224 745.213 179.48C745.021 179.72 744.741 179.84 744.373 179.84C743.973 179.856 743.685 179.736 743.509 179.48C743.349 179.208 743.269 178.968 743.269 178.76C743.269 178.6 743.293 178.44 743.341 178.28C743.389 178.104 743.485 177.944 743.629 177.8C743.501 177.416 743.277 177.136 742.957 176.96C742.637 176.768 742.301 176.648 741.949 176.6C741.613 176.536 741.333 176.504 741.109 176.504C740.021 176.504 739.101 176.944 738.349 177.824C737.613 178.688 737.245 179.952 737.245 181.616C737.245 182.688 737.413 183.64 737.749 184.472C738.101 185.304 738.589 185.96 739.213 186.44C739.837 186.904 740.557 187.136 741.373 187.136C742.125 187.136 742.845 186.936 743.533 186.536C744.221 186.136 744.757 185.648 745.141 185.072L745.765 185.552C745.349 186.224 744.845 186.768 744.253 187.184C743.677 187.6 743.077 187.904 742.453 188.096C741.845 188.288 741.269 188.384 740.725 188.384ZM753.333 188.384C752.229 188.384 751.229 188.128 750.333 187.616C749.453 187.088 748.757 186.352 748.245 185.408C747.733 184.448 747.477 183.32 747.477 182.024C747.477 180.904 747.725 179.856 748.221 178.88C748.733 177.904 749.445 177.12 750.357 176.528C751.269 175.92 752.325 175.616 753.525 175.616C754.421 175.616 755.237 175.808 755.973 176.192C756.709 176.576 757.293 177.16 757.725 177.944C758.173 178.728 758.397 179.72 758.397 180.92L749.949 181.064C749.933 182.904 750.237 184.384 750.861 185.504C751.485 186.608 752.501 187.16 753.909 187.16C754.405 187.16 754.909 187.072 755.421 186.896C755.949 186.72 756.437 186.48 756.885 186.176C757.333 185.872 757.693 185.536 757.965 185.168L758.541 185.648C758.109 186.32 757.589 186.856 756.981 187.256C756.373 187.656 755.749 187.944 755.109 188.12C754.469 188.296 753.877 188.384 753.333 188.384ZM750.021 180.056H756.141C756.141 179.48 756.053 178.928 755.877 178.4C755.717 177.856 755.445 177.416 755.061 177.08C754.677 176.728 754.173 176.552 753.549 176.552C752.621 176.552 751.845 176.832 751.221 177.392C750.613 177.936 750.213 178.824 750.021 180.056Z" fill="black"/>
<path d="M26.8867 17.9375L32.4648 31.8594L38.043 17.9375H40.9609V35H38.7109V28.3555L38.9219 21.1836L33.3203 35H31.5977L26.0078 21.2188L26.2305 28.3555V35H23.9805V17.9375H26.8867ZM50.582 32.0117L55.457 17.9375H57.918L51.5898 35H49.5977L43.2812 17.9375H45.7305L50.582 32.0117ZM69.8594 27.1133H62.4648V33.1602H71.0547V35H60.2148V17.9375H70.9375V19.7891H62.4648V25.2734H69.8594V27.1133ZM84.8359 27.3945C82.9062 26.8398 81.5 26.1602 80.6172 25.3555C79.7422 24.543 79.3047 23.543 79.3047 22.3555C79.3047 21.0117 79.8398 19.9023 80.9102 19.0273C81.9883 18.1445 83.3867 17.7031 85.1055 17.7031C86.2773 17.7031 87.3203 17.9297 88.2344 18.3828C89.1562 18.8359 89.8672 19.4609 90.3672 20.2578C90.875 21.0547 91.1289 21.9258 91.1289 22.8711H88.8672C88.8672 21.8398 88.5391 21.0312 87.8828 20.4453C87.2266 19.8516 86.3008 19.5547 85.1055 19.5547C83.9961 19.5547 83.1289 19.8008 82.5039 20.293C81.8867 20.7773 81.5781 21.4531 81.5781 22.3203C81.5781 23.0156 81.8711 23.6055 82.457 24.0898C83.0508 24.5664 84.0547 25.0039 85.4688 25.4023C86.8906 25.8008 88 26.2422 88.7969 26.7266C89.6016 27.2031 90.1953 27.7617 90.5781 28.4023C90.9688 29.043 91.1641 29.7969 91.1641 30.6641C91.1641 32.0469 90.625 33.1562 89.5469 33.9922C88.4688 34.8203 87.0273 35.2344 85.2227 35.2344C84.0508 35.2344 82.957 35.0117 81.9414 34.5664C80.9258 34.1133 80.1406 33.4961 79.5859 32.7148C79.0391 31.9336 78.7656 31.0469 78.7656 30.0547H81.0273C81.0273 31.0859 81.4062 31.9023 82.1641 32.5039C82.9297 33.0977 83.9492 33.3945 85.2227 33.3945C86.4102 33.3945 87.3203 33.1523 87.9531 32.668C88.5859 32.1836 88.9023 31.5234 88.9023 30.6875C88.9023 29.8516 88.6094 29.207 88.0234 28.7539C87.4375 28.293 86.375 27.8398 84.8359 27.3945ZM96.6602 19.25V22.3203H99.0273V23.9961H96.6602V31.8594C96.6602 32.3672 96.7656 32.75 96.9766 33.0078C97.1875 33.2578 97.5469 33.3828 98.0547 33.3828C98.3047 33.3828 98.6484 33.3359 99.0859 33.2422V35C98.5156 35.1562 97.9609 35.2344 97.4219 35.2344C96.4531 35.2344 95.7227 34.9414 95.2305 34.3555C94.7383 33.7695 94.4922 32.9375 94.4922 31.8594V23.9961H92.1836V22.3203H94.4922V19.25H96.6602ZM109.398 35C109.273 34.75 109.172 34.3047 109.094 33.6641C108.086 34.7109 106.883 35.2344 105.484 35.2344C104.234 35.2344 103.207 34.8828 102.402 34.1797C101.605 33.4688 101.207 32.5703 101.207 31.4844C101.207 30.1641 101.707 29.1406 102.707 28.4141C103.715 27.6797 105.129 27.3125 106.949 27.3125H109.059V26.3164C109.059 25.5586 108.832 24.957 108.379 24.5117C107.926 24.0586 107.258 23.832 106.375 23.832C105.602 23.832 104.953 24.0273 104.43 24.418C103.906 24.8086 103.645 25.2812 103.645 25.8359H101.465C101.465 25.2031 101.688 24.5938 102.133 24.0078C102.586 23.4141 103.195 22.9453 103.961 22.6016C104.734 22.2578 105.582 22.0859 106.504 22.0859C107.965 22.0859 109.109 22.4531 109.938 23.1875C110.766 23.9141 111.195 24.918 111.227 26.1992V32.0352C111.227 33.1992 111.375 34.125 111.672 34.8125V35H109.398ZM105.801 33.3477C106.48 33.3477 107.125 33.1719 107.734 32.8203C108.344 32.4688 108.785 32.0117 109.059 31.4492V28.8477H107.359C104.703 28.8477 103.375 29.625 103.375 31.1797C103.375 31.8594 103.602 32.3906 104.055 32.7734C104.508 33.1562 105.09 33.3477 105.801 33.3477ZM117.566 19.25V22.3203H119.934V23.9961H117.566V31.8594C117.566 32.3672 117.672 32.75 117.883 33.0078C118.094 33.2578 118.453 33.3828 118.961 33.3828C119.211 33.3828 119.555 33.3359 119.992 33.2422V35C119.422 35.1562 118.867 35.2344 118.328 35.2344C117.359 35.2344 116.629 34.9414 116.137 34.3555C115.645 33.7695 115.398 32.9375 115.398 31.8594V23.9961H113.09V22.3203H115.398V19.25H117.566ZM127.738 35.2344C126.02 35.2344 124.621 34.6719 123.543 33.5469C122.465 32.4141 121.926 30.9023 121.926 29.0117V28.6133C121.926 27.3555 122.164 26.2344 122.641 25.25C123.125 24.2578 123.797 23.4844 124.656 22.9297C125.523 22.3672 126.461 22.0859 127.469 22.0859C129.117 22.0859 130.398 22.6289 131.312 23.7148C132.227 24.8008 132.684 26.3555 132.684 28.3789V29.2812H124.094C124.125 30.5312 124.488 31.543 125.184 32.3164C125.887 33.082 126.777 33.4648 127.855 33.4648C128.621 33.4648 129.27 33.3086 129.801 32.9961C130.332 32.6836 130.797 32.2695 131.195 31.7539L132.52 32.7852C131.457 34.418 129.863 35.2344 127.738 35.2344ZM127.469 23.8672C126.594 23.8672 125.859 24.1875 125.266 24.8281C124.672 25.4609 124.305 26.3516 124.164 27.5H130.516V27.3359C130.453 26.2344 130.156 25.3828 129.625 24.7812C129.094 24.1719 128.375 23.8672 127.469 23.8672Z" fill="black"/>
<defs>
<clipPath id="clip0">
<rect width="501" height="400" fill="white" transform="translate(22 51)"/>
</clipPath>
</defs>
</svg>
