<svg width="273" height="173" viewBox="0 0 273 173" fill="none" xmlns="http://www.w3.org/2000/svg">
<path fill-rule="evenodd" clip-rule="evenodd" d="M36.5 6.08333C28.1007 6.08333 21.2917 12.8923 21.2917 21.2917C21.2917 29.691 28.1007 36.5 36.5 36.5C44.8993 36.5 51.7083 29.691 51.7083 21.2917C51.7083 12.8923 44.8993 6.08333 36.5 6.08333ZM15.2083 21.2917C15.2083 9.5326 24.7409 0 36.5 0C48.2591 0 57.7917 9.5326 57.7917 21.2917C57.7917 33.0507 48.2591 42.5833 36.5 42.5833C24.7409 42.5833 15.2083 33.0507 15.2083 21.2917Z" fill="black"/>
<path fill-rule="evenodd" clip-rule="evenodd" d="M22.6242 39.0105C27.0307 37.3512 31.7449 36.5 36.5 36.5C41.2551 36.5 45.9693 37.3512 50.3758 39.0105C54.7825 40.6698 58.8042 43.1085 62.2047 46.1999C65.6057 49.2917 68.3208 52.9782 70.1794 57.0572C72.0384 61.1373 73 65.522 73 69.9583C73 71.6382 71.6382 73 69.9583 73C68.2785 73 66.9167 71.6382 66.9167 69.9583C66.9167 66.4059 66.1474 62.8801 64.6436 59.5795C63.1392 56.2779 60.9253 53.2582 58.1126 50.7012C55.2993 48.1436 51.9441 46.1013 48.2321 44.7035C44.5199 43.3057 40.5325 42.5833 36.5 42.5833C32.4675 42.5833 28.4801 43.3057 24.7679 44.7035C21.0559 46.1013 17.7007 48.1436 14.8874 50.7012C12.0747 53.2582 9.86075 56.2779 8.35642 59.5795C6.85256 62.8801 6.08333 66.4059 6.08333 69.9583C6.08333 71.6382 4.72153 73 3.04167 73C1.3618 73 0 71.6382 0 69.9583C0 65.522 0.961622 61.1373 2.82064 57.0572C4.67919 52.9782 7.39427 49.2917 10.7953 46.1999C14.1958 43.1085 18.2175 40.6698 22.6242 39.0105Z" fill="black"/>
<path fill-rule="evenodd" clip-rule="evenodd" d="M36.5 106.083C28.1007 106.083 21.2917 112.892 21.2917 121.292C21.2917 129.691 28.1007 136.5 36.5 136.5C44.8993 136.5 51.7083 129.691 51.7083 121.292C51.7083 112.892 44.8993 106.083 36.5 106.083ZM15.2083 121.292C15.2083 109.533 24.7409 100 36.5 100C48.2591 100 57.7917 109.533 57.7917 121.292C57.7917 133.051 48.2591 142.583 36.5 142.583C24.7409 142.583 15.2083 133.051 15.2083 121.292Z" fill="black"/>
<path fill-rule="evenodd" clip-rule="evenodd" d="M22.6242 139.01C27.0307 137.351 31.7449 136.5 36.5 136.5C41.2551 136.5 45.9693 137.351 50.3758 139.01C54.7825 140.67 58.8042 143.108 62.2047 146.2C65.6057 149.292 68.3208 152.978 70.1794 157.057C72.0384 161.137 73 165.522 73 169.958C73 171.638 71.6382 173 69.9583 173C68.2785 173 66.9167 171.638 66.9167 169.958C66.9167 166.406 66.1474 162.88 64.6436 159.58C63.1392 156.278 60.9253 153.258 58.1126 150.701C55.2993 148.144 51.9441 146.101 48.2321 144.704C44.5199 143.306 40.5325 142.583 36.5 142.583C32.4675 142.583 28.4801 143.306 24.7679 144.704C21.0559 146.101 17.7007 148.144 14.8874 150.701C12.0747 153.258 9.86075 156.278 8.35642 159.58C6.85256 162.88 6.08333 166.406 6.08333 169.958C6.08333 171.638 4.72153 173 3.04167 173C1.3618 173 0 171.638 0 169.958C0 165.522 0.961622 161.137 2.82064 157.057C4.67919 152.978 7.39427 149.292 10.7953 146.2C14.1958 143.108 18.2175 140.67 22.6242 139.01Z" fill="black"/>
<path fill-rule="evenodd" clip-rule="evenodd" d="M136.5 6.08333C128.101 6.08333 121.292 12.8923 121.292 21.2917C121.292 29.691 128.101 36.5 136.5 36.5C144.899 36.5 151.708 29.691 151.708 21.2917C151.708 12.8923 144.899 6.08333 136.5 6.08333ZM115.208 21.2917C115.208 9.5326 124.741 0 136.5 0C148.259 0 157.792 9.5326 157.792 21.2917C157.792 33.0507 148.259 42.5833 136.5 42.5833C124.741 42.5833 115.208 33.0507 115.208 21.2917Z" fill="black"/>
<path fill-rule="evenodd" clip-rule="evenodd" d="M122.624 39.0105C127.031 37.3512 131.745 36.5 136.5 36.5C141.255 36.5 145.969 37.3512 150.376 39.0105C154.783 40.6698 158.804 43.1085 162.205 46.1999C165.606 49.2917 168.321 52.9782 170.179 57.0572C172.038 61.1373 173 65.522 173 69.9583C173 71.6382 171.638 73 169.958 73C168.278 73 166.917 71.6382 166.917 69.9583C166.917 66.4059 166.147 62.8801 164.644 59.5795C163.139 56.2779 160.925 53.2582 158.113 50.7012C155.299 48.1436 151.944 46.1013 148.232 44.7035C144.52 43.3057 140.533 42.5833 136.5 42.5833C132.467 42.5833 128.48 43.3057 124.768 44.7035C121.056 46.1013 117.701 48.1436 114.887 50.7012C112.075 53.2582 109.861 56.2779 108.356 59.5795C106.853 62.8801 106.083 66.4059 106.083 69.9583C106.083 71.6382 104.722 73 103.042 73C101.362 73 100 71.6382 100 69.9583C100 65.522 100.962 61.1373 102.821 57.0572C104.679 52.9782 107.394 49.2917 110.795 46.1999C114.196 43.1085 118.217 40.6698 122.624 39.0105Z" fill="black"/>
<path fill-rule="evenodd" clip-rule="evenodd" d="M136.5 106.083C128.101 106.083 121.292 112.892 121.292 121.292C121.292 129.691 128.101 136.5 136.5 136.5C144.899 136.5 151.708 129.691 151.708 121.292C151.708 112.892 144.899 106.083 136.5 106.083ZM115.208 121.292C115.208 109.533 124.741 100 136.5 100C148.259 100 157.792 109.533 157.792 121.292C157.792 133.051 148.259 142.583 136.5 142.583C124.741 142.583 115.208 133.051 115.208 121.292Z" fill="black"/>
<path fill-rule="evenodd" clip-rule="evenodd" d="M122.624 139.01C127.031 137.351 131.745 136.5 136.5 136.5C141.255 136.5 145.969 137.351 150.376 139.01C154.783 140.67 158.804 143.108 162.205 146.2C165.606 149.292 168.321 152.978 170.179 157.057C172.038 161.137 173 165.522 173 169.958C173 171.638 171.638 173 169.958 173C168.278 173 166.917 171.638 166.917 169.958C166.917 166.406 166.147 162.88 164.644 159.58C163.139 156.278 160.925 153.258 158.113 150.701C155.299 148.144 151.944 146.101 148.232 144.704C144.52 143.306 140.533 142.583 136.5 142.583C132.467 142.583 128.48 143.306 124.768 144.704C121.056 146.101 117.701 148.144 114.887 150.701C112.075 153.258 109.861 156.278 108.356 159.58C106.853 162.88 106.083 166.406 106.083 169.958C106.083 171.638 104.722 173 103.042 173C101.362 173 100 171.638 100 169.958C100 165.522 100.962 161.137 102.821 157.057C104.679 152.978 107.394 149.292 110.795 146.2C114.196 143.108 118.217 140.67 122.624 139.01Z" fill="black"/>
<path fill-rule="evenodd" clip-rule="evenodd" d="M236.5 6.08333C228.101 6.08333 221.292 12.8923 221.292 21.2917C221.292 29.691 228.101 36.5 236.5 36.5C244.899 36.5 251.708 29.691 251.708 21.2917C251.708 12.8923 244.899 6.08333 236.5 6.08333ZM215.208 21.2917C215.208 9.5326 224.741 0 236.5 0C248.259 0 257.792 9.5326 257.792 21.2917C257.792 33.0507 248.259 42.5833 236.5 42.5833C224.741 42.5833 215.208 33.0507 215.208 21.2917Z" fill="black"/>
<path fill-rule="evenodd" clip-rule="evenodd" d="M222.624 39.0105C227.031 37.3512 231.745 36.5 236.5 36.5C241.255 36.5 245.969 37.3512 250.376 39.0105C254.783 40.6698 258.804 43.1085 262.205 46.1999C265.606 49.2917 268.321 52.9782 270.179 57.0572C272.038 61.1373 273 65.522 273 69.9583C273 71.6382 271.638 73 269.958 73C268.278 73 266.917 71.6382 266.917 69.9583C266.917 66.4059 266.147 62.8801 264.644 59.5795C263.139 56.2779 260.925 53.2582 258.113 50.7012C255.299 48.1436 251.944 46.1013 248.232 44.7035C244.52 43.3057 240.533 42.5833 236.5 42.5833C232.467 42.5833 228.48 43.3057 224.768 44.7035C221.056 46.1013 217.701 48.1436 214.887 50.7012C212.075 53.2582 209.861 56.2779 208.356 59.5795C206.853 62.8801 206.083 66.4059 206.083 69.9583C206.083 71.6382 204.722 73 203.042 73C201.362 73 200 71.6382 200 69.9583C200 65.522 200.962 61.1373 202.821 57.0572C204.679 52.9782 207.394 49.2917 210.795 46.1999C214.196 43.1085 218.217 40.6698 222.624 39.0105Z" fill="black"/>
<path fill-rule="evenodd" clip-rule="evenodd" d="M236.5 106.083C228.101 106.083 221.292 112.892 221.292 121.292C221.292 129.691 228.101 136.5 236.5 136.5C244.899 136.5 251.708 129.691 251.708 121.292C251.708 112.892 244.899 106.083 236.5 106.083ZM215.208 121.292C215.208 109.533 224.741 100 236.5 100C248.259 100 257.792 109.533 257.792 121.292C257.792 133.051 248.259 142.583 236.5 142.583C224.741 142.583 215.208 133.051 215.208 121.292Z" fill="black"/>
<path fill-rule="evenodd" clip-rule="evenodd" d="M222.624 139.01C227.031 137.351 231.745 136.5 236.5 136.5C241.255 136.5 245.969 137.351 250.376 139.01C254.783 140.67 258.804 143.108 262.205 146.2C265.606 149.292 268.321 152.978 270.179 157.057C272.038 161.137 273 165.522 273 169.958C273 171.638 271.638 173 269.958 173C268.278 173 266.917 171.638 266.917 169.958C266.917 166.406 266.147 162.88 264.644 159.58C263.139 156.278 260.925 153.258 258.113 150.701C255.299 148.144 251.944 146.101 248.232 144.704C244.52 143.306 240.533 142.583 236.5 142.583C232.467 142.583 228.48 143.306 224.768 144.704C221.056 146.101 217.701 148.144 214.887 150.701C212.075 153.258 209.861 156.278 208.356 159.58C206.853 162.88 206.083 166.406 206.083 169.958C206.083 171.638 204.722 173 203.042 173C201.362 173 200 171.638 200 169.958C200 165.522 200.962 161.137 202.821 157.057C204.679 152.978 207.394 149.292 210.795 146.2C214.196 143.108 218.217 140.67 222.624 139.01Z" fill="black"/>
</svg>
