<svg width="549" height="471" viewBox="0 0 549 471" fill="none" xmlns="http://www.w3.org/2000/svg">
<rect width="549" height="471" fill="white"/>
<rect x="0.5" y="0.5" width="548" height="470" rx="6.5" fill="#F0F0F0"/>
<path d="M249.053 230.969L251.842 237.93L254.631 230.969H256.09V239.5H254.965V236.178L255.07 232.592L252.27 239.5H251.408L248.613 232.609L248.725 236.178V239.5H247.6V230.969H249.053ZM260.9 238.006L263.338 230.969H264.568L261.404 239.5H260.408L257.25 230.969H258.475L260.9 238.006ZM270.539 235.557H266.842V238.58H271.137V239.5H265.717V230.969H271.078V231.895H266.842V234.637H270.539V235.557ZM278.027 235.697C277.062 235.42 276.359 235.08 275.918 234.678C275.48 234.271 275.262 233.771 275.262 233.178C275.262 232.506 275.529 231.951 276.064 231.514C276.604 231.072 277.303 230.852 278.162 230.852C278.748 230.852 279.27 230.965 279.727 231.191C280.188 231.418 280.543 231.73 280.793 232.129C281.047 232.527 281.174 232.963 281.174 233.436H280.043C280.043 232.92 279.879 232.516 279.551 232.223C279.223 231.926 278.76 231.777 278.162 231.777C277.607 231.777 277.174 231.9 276.861 232.146C276.553 232.389 276.398 232.727 276.398 233.16C276.398 233.508 276.545 233.803 276.838 234.045C277.135 234.283 277.637 234.502 278.344 234.701C279.055 234.9 279.609 235.121 280.008 235.363C280.41 235.602 280.707 235.881 280.898 236.201C281.094 236.521 281.191 236.898 281.191 237.332C281.191 238.023 280.922 238.578 280.383 238.996C279.844 239.41 279.123 239.617 278.221 239.617C277.635 239.617 277.088 239.506 276.58 239.283C276.072 239.057 275.68 238.748 275.402 238.357C275.129 237.967 274.992 237.523 274.992 237.027H276.123C276.123 237.543 276.312 237.951 276.691 238.252C277.074 238.549 277.584 238.697 278.221 238.697C278.814 238.697 279.27 238.576 279.586 238.334C279.902 238.092 280.061 237.762 280.061 237.344C280.061 236.926 279.914 236.604 279.621 236.377C279.328 236.146 278.797 235.92 278.027 235.697ZM283.939 231.625V233.16H285.123V233.998H283.939V237.93C283.939 238.184 283.992 238.375 284.098 238.504C284.203 238.629 284.383 238.691 284.637 238.691C284.762 238.691 284.934 238.668 285.152 238.621V239.5C284.867 239.578 284.59 239.617 284.32 239.617C283.836 239.617 283.471 239.471 283.225 239.178C282.979 238.885 282.855 238.469 282.855 237.93V233.998H281.701V233.16H282.855V231.625H283.939ZM290.309 239.5C290.246 239.375 290.195 239.152 290.156 238.832C289.652 239.355 289.051 239.617 288.352 239.617C287.727 239.617 287.213 239.441 286.811 239.09C286.412 238.734 286.213 238.285 286.213 237.742C286.213 237.082 286.463 236.57 286.963 236.207C287.467 235.84 288.174 235.656 289.084 235.656H290.139V235.158C290.139 234.779 290.025 234.479 289.799 234.256C289.572 234.029 289.238 233.916 288.797 233.916C288.41 233.916 288.086 234.014 287.824 234.209C287.562 234.404 287.432 234.641 287.432 234.918H286.342C286.342 234.602 286.453 234.297 286.676 234.004C286.902 233.707 287.207 233.473 287.59 233.301C287.977 233.129 288.4 233.043 288.861 233.043C289.592 233.043 290.164 233.227 290.578 233.594C290.992 233.957 291.207 234.459 291.223 235.1V238.018C291.223 238.6 291.297 239.062 291.445 239.406V239.5H290.309ZM288.51 238.674C288.85 238.674 289.172 238.586 289.477 238.41C289.781 238.234 290.002 238.006 290.139 237.725V236.424H289.289C287.961 236.424 287.297 236.812 287.297 237.59C287.297 237.93 287.41 238.195 287.637 238.387C287.863 238.578 288.154 238.674 288.51 238.674ZM294.393 231.625V233.16H295.576V233.998H294.393V237.93C294.393 238.184 294.445 238.375 294.551 238.504C294.656 238.629 294.836 238.691 295.09 238.691C295.215 238.691 295.387 238.668 295.605 238.621V239.5C295.32 239.578 295.043 239.617 294.773 239.617C294.289 239.617 293.924 239.471 293.678 239.178C293.432 238.885 293.309 238.469 293.309 237.93V233.998H292.154V233.16H293.309V231.625H294.393ZM299.479 239.617C298.619 239.617 297.92 239.336 297.381 238.773C296.842 238.207 296.572 237.451 296.572 236.506V236.307C296.572 235.678 296.691 235.117 296.93 234.625C297.172 234.129 297.508 233.742 297.938 233.465C298.371 233.184 298.84 233.043 299.344 233.043C300.168 233.043 300.809 233.314 301.266 233.857C301.723 234.4 301.951 235.178 301.951 236.189V236.641H297.656C297.672 237.266 297.854 237.771 298.201 238.158C298.553 238.541 298.998 238.732 299.537 238.732C299.92 238.732 300.244 238.654 300.51 238.498C300.775 238.342 301.008 238.135 301.207 237.877L301.869 238.393C301.338 239.209 300.541 239.617 299.479 239.617ZM299.344 233.934C298.906 233.934 298.539 234.094 298.242 234.414C297.945 234.73 297.762 235.176 297.691 235.75H300.867V235.668C300.836 235.117 300.688 234.691 300.422 234.391C300.156 234.086 299.797 233.934 299.344 233.934Z" fill="black"/>
<rect x="0.5" y="0.5" width="548" height="470" rx="6.5" stroke="black"/>
<g clip-path="url(#clip0)">
<rect width="501" height="400" transform="translate(22 51)" fill="white"/>
<line x1="122.5" y1="51" x2="122.5" y2="652.001" stroke="black"/>
<line x1="222.5" y1="51" x2="222.5" y2="652.001" stroke="black"/>
<line x1="322.5" y1="51" x2="322.5" y2="652.001" stroke="black"/>
<line x1="422.5" y1="51" x2="422.5" y2="652.001" stroke="black"/>
<line x1="522.5" y1="51" x2="522.5" y2="652.001" stroke="black"/>
<line x1="22.5" y1="51" x2="22.5" y2="652.001" stroke="black"/>
<line x1="22" y1="450.5" x2="823" y2="450.5" stroke="black"/>
<line x1="22" y1="350.5" x2="823" y2="350.5" stroke="black"/>
<line x1="22" y1="250.5" x2="823" y2="250.5" stroke="black"/>
<line x1="22" y1="150.5" x2="823" y2="150.5" stroke="black"/>
<line x1="22" y1="51.5" x2="823" y2="51.5" stroke="black"/>
<line x1="22" y1="450.5" x2="823" y2="450.5" stroke="black"/>
<line x1="22" y1="350.5" x2="823" y2="350.5" stroke="black"/>
<line x1="22" y1="250.5" x2="823" y2="250.5" stroke="black"/>
<line x1="22" y1="150.5" x2="823" y2="150.5" stroke="black"/>
<line x1="22" y1="51.5" x2="823" y2="51.5" stroke="black"/>
<g clip-path="url(#clip1)">
<rect width="98.5" height="97.5247" transform="translate(122 150)" fill="white"/>
<line x1="122.5" y1="150" x2="122.5" y2="751.001" stroke="black"/>
<line x1="122" y1="150.5" x2="923" y2="150.5" stroke="black"/>
<line x1="122" y1="150.5" x2="923" y2="150.5" stroke="black"/>
<rect x="123" y="151" width="196" height="194.524" fill="#E9FFDB"/>
</g>
<path d="M164.989 200.741L180.575 200.741L180.575 208.271C180.208 208.518 179.407 209.042 178.457 209.56C177.495 210.084 176.414 210.583 175.49 210.798H175.475H175.459H175.444H175.428H175.412H175.397H175.381H175.366H175.35H175.335H175.319H175.304H175.288H175.273H175.258H175.242H175.227H175.212H175.197H175.181H175.166H175.151H175.136H175.121H175.106H175.091H175.076H175.061H175.046H175.031H175.016H175.001H174.986H174.972H174.957H174.942H174.928H174.913H174.898H174.884H174.869H174.854H174.84H174.825H174.811H174.796H174.782H174.768H174.753H174.739H174.725H174.71H174.696H174.682H174.668H174.653H174.639H174.625H174.611H174.597H174.583H174.569H174.555H174.541H174.527H174.513H174.499H174.485H174.471H174.458H174.444H174.43H174.416H174.403H174.389H174.375H174.362H174.348H174.335H174.321H174.307H174.294H174.28H174.267H174.254H174.24H174.227H174.213H174.2H174.187H174.174H174.16H174.147H174.134H174.121H174.108H174.094H174.081H174.068H174.055H174.042H174.029H174.016H174.003H173.99H173.977H173.965H173.952H173.939H173.926H173.913H173.9H173.888H173.875H173.862H173.85H173.837H173.824H173.812H173.799H173.787H173.774H173.762H173.749H173.737H173.724H173.712H173.699H173.687H173.675H173.662H173.65H173.638H173.626H173.613H173.601H173.589H173.577H173.565H173.552H173.54H173.528H173.516H173.504H173.492H173.48H173.468H173.456H173.444H173.432H173.421H173.409H173.397H173.385H173.373H173.361H173.35H173.338H173.326H173.315H173.303H173.291H173.28H173.268H173.256H173.245H173.233H173.222H173.21H173.199H173.187H173.176H173.164H173.153H173.142H173.13H173.119H173.108H173.096H173.085H173.074H173.062H173.051H173.04H173.029H173.018H173.007H172.995H172.984H172.973H172.962H172.951H172.94H172.929H172.918H172.907H172.896H172.885H172.874H172.863H172.852H172.842H172.831H172.82H172.809H172.798H172.788H172.777H172.766H172.755H172.745H172.734H172.723H172.713H172.702H172.691H172.681H172.67H172.66H172.649H172.639H172.628H172.618H172.607H172.597H172.586H172.576H172.565H172.555H172.545H172.534H172.524H172.514H172.503H172.493H172.483H172.472H172.462H172.452H172.442H172.432H172.421H172.411H172.401H172.391H172.381H172.371H172.361H172.351H172.341H172.331H172.321H172.311H172.301H172.291H172.281H172.271H172.261H172.251H172.241H172.231H172.221H172.211H172.202H172.192H172.182H172.172H172.162H172.153H172.143H172.133H172.123H172.114H172.104H172.094H172.085H172.075H172.065H172.056H172.046H172.037H172.027H172.017H172.008H171.998H171.989H171.979H171.97H171.96H171.951H171.941H171.932H171.923H171.913H171.904H171.894H171.885H171.876H171.866H171.857H171.848H171.838H171.829H171.82H171.81H171.801H171.792H171.783H171.773H171.764H171.755H171.746H171.737H171.728H171.718H171.709H171.7H171.691H171.682H171.673H171.664H171.655H171.646H171.637H171.628H171.618H171.609H171.6H171.591H171.582H171.574H171.565H171.556H171.547H171.538H171.529H171.52H171.511H171.502H171.493H171.484H171.476H171.467H171.458H171.449H171.44H171.431H171.423H171.414H171.405H171.396H171.388H171.379H171.37H171.361H171.353H171.344H171.335H171.327H171.318H171.309H171.301H171.292H171.283H171.275H171.266H171.257H171.249H171.24H171.232H171.223H171.215H171.206H171.197H171.189H171.18H171.172H171.163H171.155H171.146H171.138H171.129H171.121H171.112H171.104H171.095H171.087H171.079H171.07H171.062H171.053H171.045H171.036H171.028H171.02H171.011H171.003H170.995H170.986H170.978H170.97H170.961H170.953H170.945H170.936H170.928H170.92H170.911H170.903H170.895H170.886H170.878H170.87H170.862H170.853H170.845H170.837H170.829H170.82H170.812H170.804H170.796H170.788H170.779H170.771H170.763H170.755H170.747H170.738H170.73H170.722H170.714H170.706H170.698H170.69H170.681H170.673H170.665H170.657H170.649H170.641H170.633H170.625H170.616H170.608H170.6H170.592H170.584H170.576H170.568H170.56H170.552H170.544H170.536H170.528H170.52H170.511H170.503H170.495H170.487H170.479H170.471H170.463H170.455H170.447H170.439H170.431H170.423H170.415H170.407H170.399H170.391H170.383H170.375H170.367H170.359H170.351H170.343H170.335H170.327H170.319H170.311H170.303H170.295H170.287H170.279H170.271H170.263H170.255H170.247H170.24H170.232H170.224H170.216H170.208H170.2H170.192H170.184H170.176H170.168H170.16H170.152H170.144H170.136H170.128H170.12H170.112H170.104H170.096H170.089H170.081H170.074C169.15 210.583 168.07 210.084 167.107 209.56C166.158 209.042 165.356 208.518 164.989 208.271V200.741Z" fill="#222222" stroke="#222222"/>
<path d="M156.695 175.362C156.695 169.952 158.508 165.946 161.392 163.291C164.282 160.628 168.299 159.276 172.781 159.276C177.263 159.276 181.279 160.628 184.17 163.291C187.054 165.946 188.866 169.952 188.866 175.362C188.866 180.863 188.134 182.881 187.176 184.171C186.831 184.634 186.466 185 186.052 185.413C185.858 185.607 185.653 185.811 185.436 186.041C184.77 186.743 184.068 187.606 183.391 188.96C181.563 192.615 180.921 195.095 180.695 196.399C180.637 196.737 180.35 196.976 180.074 196.976H165.488C165.212 196.976 164.925 196.737 164.866 196.399C164.641 195.095 163.999 192.615 162.171 188.96C161.494 187.606 160.792 186.743 160.126 186.041C159.908 185.811 159.704 185.607 159.51 185.413C159.096 185 158.73 184.634 158.386 184.171C157.428 182.881 156.695 180.863 156.695 175.362Z" fill="#F1F51B" stroke="#222222"/>
<path d="M167.254 173.98C167.254 172.598 168.636 169.834 171.4 169.834" stroke="#222222" stroke-linecap="round"/>
<path d="M142.479 238.911H154.751V221.585H172.078V238.911H185.073V221.585H198.068" stroke="black" stroke-width="2"/>
<g clip-path="url(#clip2)">
<rect width="98.5" height="97.5247" transform="translate(222 150)" fill="white"/>
<line x1="222.5" y1="150" x2="222.5" y2="751.001" stroke="black"/>
<line x1="222" y1="150.5" x2="1023" y2="150.5" stroke="black"/>
<line x1="222" y1="150.5" x2="1023" y2="150.5" stroke="black"/>
<rect x="223" y="151" width="196" height="194.524" fill="#E9FFDB"/>
</g>
<path d="M264.99 200.741L280.576 200.741L280.576 208.271C280.209 208.518 279.408 209.042 278.458 209.56C277.495 210.084 276.415 210.583 275.491 210.798H275.476H275.46H275.445H275.429H275.413H275.398H275.382H275.367H275.351H275.336H275.32H275.305H275.289H275.274H275.259H275.243H275.228H275.213H275.198H275.182H275.167H275.152H275.137H275.122H275.107H275.092H275.077H275.062H275.047H275.032H275.017H275.002H274.987H274.973H274.958H274.943H274.928H274.914H274.899H274.885H274.87H274.855H274.841H274.826H274.812H274.797H274.783H274.769H274.754H274.74H274.726H274.711H274.697H274.683H274.669H274.654H274.64H274.626H274.612H274.598H274.584H274.57H274.556H274.542H274.528H274.514H274.5H274.486H274.472H274.459H274.445H274.431H274.417H274.404H274.39H274.376H274.363H274.349H274.335H274.322H274.308H274.295H274.281H274.268H274.255H274.241H274.228H274.214H274.201H274.188H274.175H274.161H274.148H274.135H274.122H274.109H274.095H274.082H274.069H274.056H274.043H274.03H274.017H274.004H273.991H273.978H273.965H273.953H273.94H273.927H273.914H273.901H273.889H273.876H273.863H273.851H273.838H273.825H273.813H273.8H273.788H273.775H273.763H273.75H273.738H273.725H273.713H273.7H273.688H273.676H273.663H273.651H273.639H273.627H273.614H273.602H273.59H273.578H273.566H273.553H273.541H273.529H273.517H273.505H273.493H273.481H273.469H273.457H273.445H273.433H273.422H273.41H273.398H273.386H273.374H273.362H273.351H273.339H273.327H273.316H273.304H273.292H273.281H273.269H273.257H273.246H273.234H273.223H273.211H273.2H273.188H273.177H273.165H273.154H273.143H273.131H273.12H273.109H273.097H273.086H273.075H273.063H273.052H273.041H273.03H273.019H273.008H272.996H272.985H272.974H272.963H272.952H272.941H272.93H272.919H272.908H272.897H272.886H272.875H272.864H272.853H272.843H272.832H272.821H272.81H272.799H272.788H272.778H272.767H272.756H272.746H272.735H272.724H272.714H272.703H272.692H272.682H272.671H272.661H272.65H272.64H272.629H272.619H272.608H272.598H272.587H272.577H272.566H272.556H272.546H272.535H272.525H272.515H272.504H272.494H272.484H272.473H272.463H272.453H272.443H272.433H272.422H272.412H272.402H272.392H272.382H272.372H272.362H272.352H272.342H272.332H272.322H272.312H272.302H272.292H272.282H272.272H272.262H272.252H272.242H272.232H272.222H272.212H272.203H272.193H272.183H272.173H272.163H272.154H272.144H272.134H272.124H272.115H272.105H272.095H272.086H272.076H272.066H272.057H272.047H272.038H272.028H272.018H272.009H271.999H271.99H271.98H271.971H271.961H271.952H271.942H271.933H271.924H271.914H271.905H271.895H271.886H271.877H271.867H271.858H271.849H271.839H271.83H271.821H271.811H271.802H271.793H271.784H271.774H271.765H271.756H271.747H271.738H271.729H271.719H271.71H271.701H271.692H271.683H271.674H271.665H271.656H271.647H271.638H271.628H271.619H271.61H271.601H271.592H271.583H271.574H271.566H271.557H271.548H271.539H271.53H271.521H271.512H271.503H271.494H271.485H271.477H271.468H271.459H271.45H271.441H271.432H271.424H271.415H271.406H271.397H271.389H271.38H271.371H271.362H271.354H271.345H271.336H271.328H271.319H271.31H271.302H271.293H271.284H271.276H271.267H271.258H271.25H271.241H271.233H271.224H271.216H271.207H271.198H271.19H271.181H271.173H271.164H271.156H271.147H271.139H271.13H271.122H271.113H271.105H271.096H271.088H271.08H271.071H271.063H271.054H271.046H271.037H271.029H271.021H271.012H271.004H270.996H270.987H270.979H270.97H270.962H270.954H270.945H270.937H270.929H270.921H270.912H270.904H270.896H270.887H270.879H270.871H270.863H270.854H270.846H270.838H270.83H270.821H270.813H270.805H270.797H270.789H270.78H270.772H270.764H270.756H270.748H270.739H270.731H270.723H270.715H270.707H270.699H270.69H270.682H270.674H270.666H270.658H270.65H270.642H270.634H270.625H270.617H270.609H270.601H270.593H270.585H270.577H270.569H270.561H270.553H270.545H270.537H270.529H270.52H270.512H270.504H270.496H270.488H270.48H270.472H270.464H270.456H270.448H270.44H270.432H270.424H270.416H270.408H270.4H270.392H270.384H270.376H270.368H270.36H270.352H270.344H270.336H270.328H270.32H270.312H270.304H270.296H270.288H270.28H270.272H270.264H270.256H270.248H270.24H270.233H270.225H270.217H270.209H270.201H270.193H270.185H270.177H270.169H270.161H270.153H270.145H270.137H270.129H270.121H270.113H270.105H270.097H270.089H270.082H270.075C269.151 210.583 268.071 210.084 267.108 209.56C266.158 209.042 265.357 208.518 264.99 208.271V200.741Z" fill="#222222" stroke="#222222"/>
<path d="M256.695 175.362C256.695 169.952 258.508 165.946 261.392 163.291C264.282 160.628 268.299 159.276 272.781 159.276C277.263 159.276 281.279 160.628 284.17 163.291C287.054 165.946 288.866 169.952 288.866 175.362C288.866 180.863 288.134 182.881 287.176 184.171C286.831 184.634 286.466 185 286.052 185.413C285.858 185.607 285.653 185.811 285.436 186.041C284.77 186.743 284.068 187.606 283.391 188.96C281.563 192.615 280.921 195.095 280.695 196.399C280.637 196.737 280.35 196.976 280.074 196.976H265.488C265.212 196.976 264.925 196.737 264.866 196.399C264.641 195.095 263.999 192.615 262.171 188.96C261.494 187.606 260.792 186.743 260.126 186.041C259.908 185.811 259.704 185.607 259.51 185.413C259.096 185 258.73 184.634 258.386 184.171C257.428 182.881 256.695 180.863 256.695 175.362Z" fill="#F1F51B" stroke="#222222"/>
<path d="M267.254 173.98C267.254 172.598 268.636 169.834 271.4 169.834" stroke="#222222" stroke-linecap="round"/>
<path d="M242.479 238.911H254.751V221.585H272.078V238.911H285.073V221.585H298.068" stroke="black" stroke-width="2"/>
<g clip-path="url(#clip3)">
<rect width="98.5" height="97.5247" transform="translate(322 150)" fill="white"/>
<line x1="322.5" y1="150" x2="322.5" y2="751.001" stroke="black"/>
<line x1="322" y1="150.5" x2="1123" y2="150.5" stroke="black"/>
<line x1="322" y1="150.5" x2="1123" y2="150.5" stroke="black"/>
<rect x="323" y="151" width="196" height="194.524" fill="#E9FFDB"/>
</g>
<path d="M364.99 200.741L380.576 200.741L380.576 208.271C380.209 208.518 379.408 209.042 378.458 209.56C377.495 210.084 376.415 210.583 375.491 210.798H375.476H375.46H375.445H375.429H375.413H375.398H375.382H375.367H375.351H375.336H375.32H375.305H375.289H375.274H375.259H375.243H375.228H375.213H375.198H375.182H375.167H375.152H375.137H375.122H375.107H375.092H375.077H375.062H375.047H375.032H375.017H375.002H374.987H374.973H374.958H374.943H374.928H374.914H374.899H374.885H374.87H374.855H374.841H374.826H374.812H374.797H374.783H374.769H374.754H374.74H374.726H374.711H374.697H374.683H374.669H374.654H374.64H374.626H374.612H374.598H374.584H374.57H374.556H374.542H374.528H374.514H374.5H374.486H374.472H374.459H374.445H374.431H374.417H374.404H374.39H374.376H374.363H374.349H374.335H374.322H374.308H374.295H374.281H374.268H374.255H374.241H374.228H374.214H374.201H374.188H374.175H374.161H374.148H374.135H374.122H374.109H374.095H374.082H374.069H374.056H374.043H374.03H374.017H374.004H373.991H373.978H373.965H373.953H373.94H373.927H373.914H373.901H373.889H373.876H373.863H373.851H373.838H373.825H373.813H373.8H373.788H373.775H373.763H373.75H373.738H373.725H373.713H373.7H373.688H373.676H373.663H373.651H373.639H373.627H373.614H373.602H373.59H373.578H373.566H373.553H373.541H373.529H373.517H373.505H373.493H373.481H373.469H373.457H373.445H373.433H373.422H373.41H373.398H373.386H373.374H373.362H373.351H373.339H373.327H373.316H373.304H373.292H373.281H373.269H373.257H373.246H373.234H373.223H373.211H373.2H373.188H373.177H373.165H373.154H373.143H373.131H373.12H373.109H373.097H373.086H373.075H373.063H373.052H373.041H373.03H373.019H373.008H372.996H372.985H372.974H372.963H372.952H372.941H372.93H372.919H372.908H372.897H372.886H372.875H372.864H372.853H372.843H372.832H372.821H372.81H372.799H372.788H372.778H372.767H372.756H372.746H372.735H372.724H372.714H372.703H372.692H372.682H372.671H372.661H372.65H372.64H372.629H372.619H372.608H372.598H372.587H372.577H372.566H372.556H372.546H372.535H372.525H372.515H372.504H372.494H372.484H372.473H372.463H372.453H372.443H372.433H372.422H372.412H372.402H372.392H372.382H372.372H372.362H372.352H372.342H372.332H372.322H372.312H372.302H372.292H372.282H372.272H372.262H372.252H372.242H372.232H372.222H372.212H372.203H372.193H372.183H372.173H372.163H372.154H372.144H372.134H372.124H372.115H372.105H372.095H372.086H372.076H372.066H372.057H372.047H372.038H372.028H372.018H372.009H371.999H371.99H371.98H371.971H371.961H371.952H371.942H371.933H371.924H371.914H371.905H371.895H371.886H371.877H371.867H371.858H371.849H371.839H371.83H371.821H371.811H371.802H371.793H371.784H371.774H371.765H371.756H371.747H371.738H371.729H371.719H371.71H371.701H371.692H371.683H371.674H371.665H371.656H371.647H371.638H371.628H371.619H371.61H371.601H371.592H371.583H371.574H371.566H371.557H371.548H371.539H371.53H371.521H371.512H371.503H371.494H371.485H371.477H371.468H371.459H371.45H371.441H371.432H371.424H371.415H371.406H371.397H371.389H371.38H371.371H371.362H371.354H371.345H371.336H371.328H371.319H371.31H371.302H371.293H371.284H371.276H371.267H371.258H371.25H371.241H371.233H371.224H371.216H371.207H371.198H371.19H371.181H371.173H371.164H371.156H371.147H371.139H371.13H371.122H371.113H371.105H371.096H371.088H371.08H371.071H371.063H371.054H371.046H371.037H371.029H371.021H371.012H371.004H370.996H370.987H370.979H370.97H370.962H370.954H370.945H370.937H370.929H370.921H370.912H370.904H370.896H370.887H370.879H370.871H370.863H370.854H370.846H370.838H370.83H370.821H370.813H370.805H370.797H370.789H370.78H370.772H370.764H370.756H370.748H370.739H370.731H370.723H370.715H370.707H370.699H370.69H370.682H370.674H370.666H370.658H370.65H370.642H370.634H370.625H370.617H370.609H370.601H370.593H370.585H370.577H370.569H370.561H370.553H370.545H370.537H370.529H370.52H370.512H370.504H370.496H370.488H370.48H370.472H370.464H370.456H370.448H370.44H370.432H370.424H370.416H370.408H370.4H370.392H370.384H370.376H370.368H370.36H370.352H370.344H370.336H370.328H370.32H370.312H370.304H370.296H370.288H370.28H370.272H370.264H370.256H370.248H370.24H370.233H370.225H370.217H370.209H370.201H370.193H370.185H370.177H370.169H370.161H370.153H370.145H370.137H370.129H370.121H370.113H370.105H370.097H370.089H370.082H370.075C369.151 210.583 368.071 210.084 367.108 209.56C366.158 209.042 365.357 208.518 364.99 208.271V200.741Z" fill="#222222" stroke="#222222"/>
<path d="M356.695 175.362C356.695 169.952 358.508 165.946 361.392 163.291C364.282 160.628 368.299 159.276 372.781 159.276C377.263 159.276 381.279 160.628 384.17 163.291C387.054 165.946 388.866 169.952 388.866 175.362C388.866 180.863 388.134 182.881 387.176 184.171C386.831 184.634 386.466 185 386.052 185.413C385.858 185.607 385.653 185.811 385.436 186.041C384.77 186.743 384.068 187.606 383.391 188.96C381.563 192.615 380.921 195.095 380.695 196.399C380.637 196.737 380.35 196.976 380.074 196.976H365.488C365.212 196.976 364.925 196.737 364.866 196.399C364.641 195.095 363.999 192.615 362.171 188.96C361.494 187.606 360.792 186.743 360.126 186.041C359.908 185.811 359.704 185.607 359.51 185.413C359.096 185 358.73 184.634 358.386 184.171C357.428 182.881 356.695 180.863 356.695 175.362Z" fill="#F1F51B" stroke="#222222"/>
<path d="M367.254 173.98C367.254 172.598 368.636 169.834 371.4 169.834" stroke="#222222" stroke-linecap="round"/>
<path d="M342.479 238.911H354.751V221.585H372.078V238.911H385.073V221.585H398.068" stroke="black" stroke-width="2"/>
<g clip-path="url(#clip4)">
<rect width="98.5" height="97.5247" transform="translate(122 250)" fill="white"/>
<line x1="122.5" y1="250" x2="122.5" y2="851.001" stroke="black"/>
<line x1="122" y1="250.5" x2="923" y2="250.5" stroke="black"/>
<line x1="122" y1="250.5" x2="923" y2="250.5" stroke="black"/>
<rect x="123" y="251" width="196" height="194.524" fill="#E9FFDB"/>
</g>
<path d="M164.989 300.741L180.575 300.741L180.575 308.271C180.208 308.518 179.407 309.042 178.457 309.56C177.495 310.084 176.414 310.583 175.49 310.798H175.475H175.459H175.444H175.428H175.412H175.397H175.381H175.366H175.35H175.335H175.319H175.304H175.288H175.273H175.258H175.242H175.227H175.212H175.197H175.181H175.166H175.151H175.136H175.121H175.106H175.091H175.076H175.061H175.046H175.031H175.016H175.001H174.986H174.972H174.957H174.942H174.928H174.913H174.898H174.884H174.869H174.854H174.84H174.825H174.811H174.796H174.782H174.768H174.753H174.739H174.725H174.71H174.696H174.682H174.668H174.653H174.639H174.625H174.611H174.597H174.583H174.569H174.555H174.541H174.527H174.513H174.499H174.485H174.471H174.458H174.444H174.43H174.416H174.403H174.389H174.375H174.362H174.348H174.335H174.321H174.307H174.294H174.28H174.267H174.254H174.24H174.227H174.213H174.2H174.187H174.174H174.16H174.147H174.134H174.121H174.108H174.094H174.081H174.068H174.055H174.042H174.029H174.016H174.003H173.99H173.977H173.965H173.952H173.939H173.926H173.913H173.9H173.888H173.875H173.862H173.85H173.837H173.824H173.812H173.799H173.787H173.774H173.762H173.749H173.737H173.724H173.712H173.699H173.687H173.675H173.662H173.65H173.638H173.626H173.613H173.601H173.589H173.577H173.565H173.552H173.54H173.528H173.516H173.504H173.492H173.48H173.468H173.456H173.444H173.432H173.421H173.409H173.397H173.385H173.373H173.361H173.35H173.338H173.326H173.315H173.303H173.291H173.28H173.268H173.256H173.245H173.233H173.222H173.21H173.199H173.187H173.176H173.164H173.153H173.142H173.13H173.119H173.108H173.096H173.085H173.074H173.062H173.051H173.04H173.029H173.018H173.007H172.995H172.984H172.973H172.962H172.951H172.94H172.929H172.918H172.907H172.896H172.885H172.874H172.863H172.852H172.842H172.831H172.82H172.809H172.798H172.788H172.777H172.766H172.755H172.745H172.734H172.723H172.713H172.702H172.691H172.681H172.67H172.66H172.649H172.639H172.628H172.618H172.607H172.597H172.586H172.576H172.565H172.555H172.545H172.534H172.524H172.514H172.503H172.493H172.483H172.472H172.462H172.452H172.442H172.432H172.421H172.411H172.401H172.391H172.381H172.371H172.361H172.351H172.341H172.331H172.321H172.311H172.301H172.291H172.281H172.271H172.261H172.251H172.241H172.231H172.221H172.211H172.202H172.192H172.182H172.172H172.162H172.153H172.143H172.133H172.123H172.114H172.104H172.094H172.085H172.075H172.065H172.056H172.046H172.037H172.027H172.017H172.008H171.998H171.989H171.979H171.97H171.96H171.951H171.941H171.932H171.923H171.913H171.904H171.894H171.885H171.876H171.866H171.857H171.848H171.838H171.829H171.82H171.81H171.801H171.792H171.783H171.773H171.764H171.755H171.746H171.737H171.728H171.718H171.709H171.7H171.691H171.682H171.673H171.664H171.655H171.646H171.637H171.628H171.618H171.609H171.6H171.591H171.582H171.574H171.565H171.556H171.547H171.538H171.529H171.52H171.511H171.502H171.493H171.484H171.476H171.467H171.458H171.449H171.44H171.431H171.423H171.414H171.405H171.396H171.388H171.379H171.37H171.361H171.353H171.344H171.335H171.327H171.318H171.309H171.301H171.292H171.283H171.275H171.266H171.257H171.249H171.24H171.232H171.223H171.215H171.206H171.197H171.189H171.18H171.172H171.163H171.155H171.146H171.138H171.129H171.121H171.112H171.104H171.095H171.087H171.079H171.07H171.062H171.053H171.045H171.036H171.028H171.02H171.011H171.003H170.995H170.986H170.978H170.97H170.961H170.953H170.945H170.936H170.928H170.92H170.911H170.903H170.895H170.886H170.878H170.87H170.862H170.853H170.845H170.837H170.829H170.82H170.812H170.804H170.796H170.788H170.779H170.771H170.763H170.755H170.747H170.738H170.73H170.722H170.714H170.706H170.698H170.69H170.681H170.673H170.665H170.657H170.649H170.641H170.633H170.625H170.616H170.608H170.6H170.592H170.584H170.576H170.568H170.56H170.552H170.544H170.536H170.528H170.52H170.511H170.503H170.495H170.487H170.479H170.471H170.463H170.455H170.447H170.439H170.431H170.423H170.415H170.407H170.399H170.391H170.383H170.375H170.367H170.359H170.351H170.343H170.335H170.327H170.319H170.311H170.303H170.295H170.287H170.279H170.271H170.263H170.255H170.247H170.24H170.232H170.224H170.216H170.208H170.2H170.192H170.184H170.176H170.168H170.16H170.152H170.144H170.136H170.128H170.12H170.112H170.104H170.096H170.089H170.081H170.074C169.15 310.583 168.07 310.084 167.107 309.56C166.158 309.042 165.356 308.518 164.989 308.271V300.741Z" fill="#222222" stroke="#222222"/>
<path d="M156.695 275.362C156.695 269.952 158.508 265.946 161.392 263.291C164.282 260.628 168.299 259.276 172.781 259.276C177.263 259.276 181.279 260.628 184.17 263.291C187.054 265.946 188.866 269.952 188.866 275.362C188.866 280.863 188.134 282.881 187.176 284.171C186.831 284.634 186.466 285 186.052 285.413C185.858 285.607 185.653 285.811 185.436 286.041C184.77 286.743 184.068 287.606 183.391 288.96C181.563 292.615 180.921 295.095 180.695 296.399C180.637 296.737 180.35 296.976 180.074 296.976H165.488C165.212 296.976 164.925 296.737 164.866 296.399C164.641 295.095 163.999 292.615 162.171 288.96C161.494 287.606 160.792 286.743 160.126 286.041C159.908 285.811 159.704 285.607 159.51 285.413C159.096 285 158.73 284.634 158.386 284.171C157.428 282.881 156.695 280.863 156.695 275.362Z" fill="#F1F51B" stroke="#222222"/>
<path d="M167.254 273.98C167.254 272.598 168.636 269.834 171.4 269.834" stroke="#222222" stroke-linecap="round"/>
<path d="M142.479 338.911H154.751V321.585H172.078V338.911H185.073V321.585H198.068" stroke="black" stroke-width="2"/>
<g clip-path="url(#clip5)">
<rect width="98.5" height="97.5247" transform="translate(222 250)" fill="white"/>
<line x1="222.5" y1="250" x2="222.5" y2="851.001" stroke="black"/>
<line x1="222" y1="250.5" x2="1023" y2="250.5" stroke="black"/>
<line x1="222" y1="250.5" x2="1023" y2="250.5" stroke="black"/>
<rect x="223" y="251" width="196" height="194.524" fill="#E9FFDB"/>
</g>
<path d="M264.99 300.741L280.576 300.741L280.576 308.271C280.209 308.518 279.408 309.042 278.458 309.56C277.495 310.084 276.415 310.583 275.491 310.798H275.476H275.46H275.445H275.429H275.413H275.398H275.382H275.367H275.351H275.336H275.32H275.305H275.289H275.274H275.259H275.243H275.228H275.213H275.198H275.182H275.167H275.152H275.137H275.122H275.107H275.092H275.077H275.062H275.047H275.032H275.017H275.002H274.987H274.973H274.958H274.943H274.928H274.914H274.899H274.885H274.87H274.855H274.841H274.826H274.812H274.797H274.783H274.769H274.754H274.74H274.726H274.711H274.697H274.683H274.669H274.654H274.64H274.626H274.612H274.598H274.584H274.57H274.556H274.542H274.528H274.514H274.5H274.486H274.472H274.459H274.445H274.431H274.417H274.404H274.39H274.376H274.363H274.349H274.335H274.322H274.308H274.295H274.281H274.268H274.255H274.241H274.228H274.214H274.201H274.188H274.175H274.161H274.148H274.135H274.122H274.109H274.095H274.082H274.069H274.056H274.043H274.03H274.017H274.004H273.991H273.978H273.965H273.953H273.94H273.927H273.914H273.901H273.889H273.876H273.863H273.851H273.838H273.825H273.813H273.8H273.788H273.775H273.763H273.75H273.738H273.725H273.713H273.7H273.688H273.676H273.663H273.651H273.639H273.627H273.614H273.602H273.59H273.578H273.566H273.553H273.541H273.529H273.517H273.505H273.493H273.481H273.469H273.457H273.445H273.433H273.422H273.41H273.398H273.386H273.374H273.362H273.351H273.339H273.327H273.316H273.304H273.292H273.281H273.269H273.257H273.246H273.234H273.223H273.211H273.2H273.188H273.177H273.165H273.154H273.143H273.131H273.12H273.109H273.097H273.086H273.075H273.063H273.052H273.041H273.03H273.019H273.008H272.996H272.985H272.974H272.963H272.952H272.941H272.93H272.919H272.908H272.897H272.886H272.875H272.864H272.853H272.843H272.832H272.821H272.81H272.799H272.788H272.778H272.767H272.756H272.746H272.735H272.724H272.714H272.703H272.692H272.682H272.671H272.661H272.65H272.64H272.629H272.619H272.608H272.598H272.587H272.577H272.566H272.556H272.546H272.535H272.525H272.515H272.504H272.494H272.484H272.473H272.463H272.453H272.443H272.433H272.422H272.412H272.402H272.392H272.382H272.372H272.362H272.352H272.342H272.332H272.322H272.312H272.302H272.292H272.282H272.272H272.262H272.252H272.242H272.232H272.222H272.212H272.203H272.193H272.183H272.173H272.163H272.154H272.144H272.134H272.124H272.115H272.105H272.095H272.086H272.076H272.066H272.057H272.047H272.038H272.028H272.018H272.009H271.999H271.99H271.98H271.971H271.961H271.952H271.942H271.933H271.924H271.914H271.905H271.895H271.886H271.877H271.867H271.858H271.849H271.839H271.83H271.821H271.811H271.802H271.793H271.784H271.774H271.765H271.756H271.747H271.738H271.729H271.719H271.71H271.701H271.692H271.683H271.674H271.665H271.656H271.647H271.638H271.628H271.619H271.61H271.601H271.592H271.583H271.574H271.566H271.557H271.548H271.539H271.53H271.521H271.512H271.503H271.494H271.485H271.477H271.468H271.459H271.45H271.441H271.432H271.424H271.415H271.406H271.397H271.389H271.38H271.371H271.362H271.354H271.345H271.336H271.328H271.319H271.31H271.302H271.293H271.284H271.276H271.267H271.258H271.25H271.241H271.233H271.224H271.216H271.207H271.198H271.19H271.181H271.173H271.164H271.156H271.147H271.139H271.13H271.122H271.113H271.105H271.096H271.088H271.08H271.071H271.063H271.054H271.046H271.037H271.029H271.021H271.012H271.004H270.996H270.987H270.979H270.97H270.962H270.954H270.945H270.937H270.929H270.921H270.912H270.904H270.896H270.887H270.879H270.871H270.863H270.854H270.846H270.838H270.83H270.821H270.813H270.805H270.797H270.789H270.78H270.772H270.764H270.756H270.748H270.739H270.731H270.723H270.715H270.707H270.699H270.69H270.682H270.674H270.666H270.658H270.65H270.642H270.634H270.625H270.617H270.609H270.601H270.593H270.585H270.577H270.569H270.561H270.553H270.545H270.537H270.529H270.52H270.512H270.504H270.496H270.488H270.48H270.472H270.464H270.456H270.448H270.44H270.432H270.424H270.416H270.408H270.4H270.392H270.384H270.376H270.368H270.36H270.352H270.344H270.336H270.328H270.32H270.312H270.304H270.296H270.288H270.28H270.272H270.264H270.256H270.248H270.24H270.233H270.225H270.217H270.209H270.201H270.193H270.185H270.177H270.169H270.161H270.153H270.145H270.137H270.129H270.121H270.113H270.105H270.097H270.089H270.082H270.075C269.151 310.583 268.071 310.084 267.108 309.56C266.158 309.042 265.357 308.518 264.99 308.271V300.741Z" fill="#222222" stroke="#222222"/>
<path d="M256.695 275.362C256.695 269.952 258.508 265.946 261.392 263.291C264.282 260.628 268.299 259.276 272.781 259.276C277.263 259.276 281.279 260.628 284.17 263.291C287.054 265.946 288.866 269.952 288.866 275.362C288.866 280.863 288.134 282.881 287.176 284.171C286.831 284.634 286.466 285 286.052 285.413C285.858 285.607 285.653 285.811 285.436 286.041C284.77 286.743 284.068 287.606 283.391 288.96C281.563 292.615 280.921 295.095 280.695 296.399C280.637 296.737 280.35 296.976 280.074 296.976H265.488C265.212 296.976 264.925 296.737 264.866 296.399C264.641 295.095 263.999 292.615 262.171 288.96C261.494 287.606 260.792 286.743 260.126 286.041C259.908 285.811 259.704 285.607 259.51 285.413C259.096 285 258.73 284.634 258.386 284.171C257.428 282.881 256.695 280.863 256.695 275.362Z" fill="#F1F51B" stroke="#222222"/>
<path d="M267.254 273.98C267.254 272.598 268.636 269.834 271.4 269.834" stroke="#222222" stroke-linecap="round"/>
<path d="M242.479 338.911H254.751V321.585H272.078V338.911H285.073V321.585H298.068" stroke="black" stroke-width="2"/>
<g clip-path="url(#clip6)">
<rect width="98.5" height="97.5247" transform="translate(322 250)" fill="white"/>
<line x1="322.5" y1="250" x2="322.5" y2="851.001" stroke="black"/>
<line x1="322" y1="250.5" x2="1123" y2="250.5" stroke="black"/>
<line x1="322" y1="250.5" x2="1123" y2="250.5" stroke="black"/>
<rect x="323" y="251" width="196" height="194.524" fill="#E9FFDB"/>
</g>
<path d="M364.99 300.741L380.576 300.741L380.576 308.271C380.209 308.518 379.408 309.042 378.458 309.56C377.495 310.084 376.415 310.583 375.491 310.798H375.476H375.46H375.445H375.429H375.413H375.398H375.382H375.367H375.351H375.336H375.32H375.305H375.289H375.274H375.259H375.243H375.228H375.213H375.198H375.182H375.167H375.152H375.137H375.122H375.107H375.092H375.077H375.062H375.047H375.032H375.017H375.002H374.987H374.973H374.958H374.943H374.928H374.914H374.899H374.885H374.87H374.855H374.841H374.826H374.812H374.797H374.783H374.769H374.754H374.74H374.726H374.711H374.697H374.683H374.669H374.654H374.64H374.626H374.612H374.598H374.584H374.57H374.556H374.542H374.528H374.514H374.5H374.486H374.472H374.459H374.445H374.431H374.417H374.404H374.39H374.376H374.363H374.349H374.335H374.322H374.308H374.295H374.281H374.268H374.255H374.241H374.228H374.214H374.201H374.188H374.175H374.161H374.148H374.135H374.122H374.109H374.095H374.082H374.069H374.056H374.043H374.03H374.017H374.004H373.991H373.978H373.965H373.953H373.94H373.927H373.914H373.901H373.889H373.876H373.863H373.851H373.838H373.825H373.813H373.8H373.788H373.775H373.763H373.75H373.738H373.725H373.713H373.7H373.688H373.676H373.663H373.651H373.639H373.627H373.614H373.602H373.59H373.578H373.566H373.553H373.541H373.529H373.517H373.505H373.493H373.481H373.469H373.457H373.445H373.433H373.422H373.41H373.398H373.386H373.374H373.362H373.351H373.339H373.327H373.316H373.304H373.292H373.281H373.269H373.257H373.246H373.234H373.223H373.211H373.2H373.188H373.177H373.165H373.154H373.143H373.131H373.12H373.109H373.097H373.086H373.075H373.063H373.052H373.041H373.03H373.019H373.008H372.996H372.985H372.974H372.963H372.952H372.941H372.93H372.919H372.908H372.897H372.886H372.875H372.864H372.853H372.843H372.832H372.821H372.81H372.799H372.788H372.778H372.767H372.756H372.746H372.735H372.724H372.714H372.703H372.692H372.682H372.671H372.661H372.65H372.64H372.629H372.619H372.608H372.598H372.587H372.577H372.566H372.556H372.546H372.535H372.525H372.515H372.504H372.494H372.484H372.473H372.463H372.453H372.443H372.433H372.422H372.412H372.402H372.392H372.382H372.372H372.362H372.352H372.342H372.332H372.322H372.312H372.302H372.292H372.282H372.272H372.262H372.252H372.242H372.232H372.222H372.212H372.203H372.193H372.183H372.173H372.163H372.154H372.144H372.134H372.124H372.115H372.105H372.095H372.086H372.076H372.066H372.057H372.047H372.038H372.028H372.018H372.009H371.999H371.99H371.98H371.971H371.961H371.952H371.942H371.933H371.924H371.914H371.905H371.895H371.886H371.877H371.867H371.858H371.849H371.839H371.83H371.821H371.811H371.802H371.793H371.784H371.774H371.765H371.756H371.747H371.738H371.729H371.719H371.71H371.701H371.692H371.683H371.674H371.665H371.656H371.647H371.638H371.628H371.619H371.61H371.601H371.592H371.583H371.574H371.566H371.557H371.548H371.539H371.53H371.521H371.512H371.503H371.494H371.485H371.477H371.468H371.459H371.45H371.441H371.432H371.424H371.415H371.406H371.397H371.389H371.38H371.371H371.362H371.354H371.345H371.336H371.328H371.319H371.31H371.302H371.293H371.284H371.276H371.267H371.258H371.25H371.241H371.233H371.224H371.216H371.207H371.198H371.19H371.181H371.173H371.164H371.156H371.147H371.139H371.13H371.122H371.113H371.105H371.096H371.088H371.08H371.071H371.063H371.054H371.046H371.037H371.029H371.021H371.012H371.004H370.996H370.987H370.979H370.97H370.962H370.954H370.945H370.937H370.929H370.921H370.912H370.904H370.896H370.887H370.879H370.871H370.863H370.854H370.846H370.838H370.83H370.821H370.813H370.805H370.797H370.789H370.78H370.772H370.764H370.756H370.748H370.739H370.731H370.723H370.715H370.707H370.699H370.69H370.682H370.674H370.666H370.658H370.65H370.642H370.634H370.625H370.617H370.609H370.601H370.593H370.585H370.577H370.569H370.561H370.553H370.545H370.537H370.529H370.52H370.512H370.504H370.496H370.488H370.48H370.472H370.464H370.456H370.448H370.44H370.432H370.424H370.416H370.408H370.4H370.392H370.384H370.376H370.368H370.36H370.352H370.344H370.336H370.328H370.32H370.312H370.304H370.296H370.288H370.28H370.272H370.264H370.256H370.248H370.24H370.233H370.225H370.217H370.209H370.201H370.193H370.185H370.177H370.169H370.161H370.153H370.145H370.137H370.129H370.121H370.113H370.105H370.097H370.089H370.082H370.075C369.151 310.583 368.071 310.084 367.108 309.56C366.158 309.042 365.357 308.518 364.99 308.271V300.741Z" fill="#222222" stroke="#222222"/>
<path d="M356.695 275.362C356.695 269.952 358.508 265.946 361.392 263.291C364.282 260.628 368.299 259.276 372.781 259.276C377.263 259.276 381.279 260.628 384.17 263.291C387.054 265.946 388.866 269.952 388.866 275.362C388.866 280.863 388.134 282.881 387.176 284.171C386.831 284.634 386.466 285 386.052 285.413C385.858 285.607 385.653 285.811 385.436 286.041C384.77 286.743 384.068 287.606 383.391 288.96C381.563 292.615 380.921 295.095 380.695 296.399C380.637 296.737 380.35 296.976 380.074 296.976H365.488C365.212 296.976 364.925 296.737 364.866 296.399C364.641 295.095 363.999 292.615 362.171 288.96C361.494 287.606 360.792 286.743 360.126 286.041C359.908 285.811 359.704 285.607 359.51 285.413C359.096 285 358.73 284.634 358.386 284.171C357.428 282.881 356.695 280.863 356.695 275.362Z" fill="#F1F51B" stroke="#222222"/>
<path d="M367.254 273.98C367.254 272.598 368.636 269.834 371.4 269.834" stroke="#222222" stroke-linecap="round"/>
<path d="M342.479 338.911H354.751V321.585H372.078V338.911H385.073V321.585H398.068" stroke="black" stroke-width="2"/>
</g>
<path d="M26.8867 17.9375L32.4648 31.8594L38.043 17.9375H40.9609V35H38.7109V28.3555L38.9219 21.1836L33.3203 35H31.5977L26.0078 21.2188L26.2305 28.3555V35H23.9805V17.9375H26.8867ZM50.582 32.0117L55.457 17.9375H57.918L51.5898 35H49.5977L43.2812 17.9375H45.7305L50.582 32.0117ZM69.8594 27.1133H62.4648V33.1602H71.0547V35H60.2148V17.9375H70.9375V19.7891H62.4648V25.2734H69.8594V27.1133ZM84.8359 27.3945C82.9062 26.8398 81.5 26.1602 80.6172 25.3555C79.7422 24.543 79.3047 23.543 79.3047 22.3555C79.3047 21.0117 79.8398 19.9023 80.9102 19.0273C81.9883 18.1445 83.3867 17.7031 85.1055 17.7031C86.2773 17.7031 87.3203 17.9297 88.2344 18.3828C89.1562 18.8359 89.8672 19.4609 90.3672 20.2578C90.875 21.0547 91.1289 21.9258 91.1289 22.8711H88.8672C88.8672 21.8398 88.5391 21.0312 87.8828 20.4453C87.2266 19.8516 86.3008 19.5547 85.1055 19.5547C83.9961 19.5547 83.1289 19.8008 82.5039 20.293C81.8867 20.7773 81.5781 21.4531 81.5781 22.3203C81.5781 23.0156 81.8711 23.6055 82.457 24.0898C83.0508 24.5664 84.0547 25.0039 85.4688 25.4023C86.8906 25.8008 88 26.2422 88.7969 26.7266C89.6016 27.2031 90.1953 27.7617 90.5781 28.4023C90.9688 29.043 91.1641 29.7969 91.1641 30.6641C91.1641 32.0469 90.625 33.1562 89.5469 33.9922C88.4688 34.8203 87.0273 35.2344 85.2227 35.2344C84.0508 35.2344 82.957 35.0117 81.9414 34.5664C80.9258 34.1133 80.1406 33.4961 79.5859 32.7148C79.0391 31.9336 78.7656 31.0469 78.7656 30.0547H81.0273C81.0273 31.0859 81.4062 31.9023 82.1641 32.5039C82.9297 33.0977 83.9492 33.3945 85.2227 33.3945C86.4102 33.3945 87.3203 33.1523 87.9531 32.668C88.5859 32.1836 88.9023 31.5234 88.9023 30.6875C88.9023 29.8516 88.6094 29.207 88.0234 28.7539C87.4375 28.293 86.375 27.8398 84.8359 27.3945ZM96.6602 19.25V22.3203H99.0273V23.9961H96.6602V31.8594C96.6602 32.3672 96.7656 32.75 96.9766 33.0078C97.1875 33.2578 97.5469 33.3828 98.0547 33.3828C98.3047 33.3828 98.6484 33.3359 99.0859 33.2422V35C98.5156 35.1562 97.9609 35.2344 97.4219 35.2344C96.4531 35.2344 95.7227 34.9414 95.2305 34.3555C94.7383 33.7695 94.4922 32.9375 94.4922 31.8594V23.9961H92.1836V22.3203H94.4922V19.25H96.6602ZM109.398 35C109.273 34.75 109.172 34.3047 109.094 33.6641C108.086 34.7109 106.883 35.2344 105.484 35.2344C104.234 35.2344 103.207 34.8828 102.402 34.1797C101.605 33.4688 101.207 32.5703 101.207 31.4844C101.207 30.1641 101.707 29.1406 102.707 28.4141C103.715 27.6797 105.129 27.3125 106.949 27.3125H109.059V26.3164C109.059 25.5586 108.832 24.957 108.379 24.5117C107.926 24.0586 107.258 23.832 106.375 23.832C105.602 23.832 104.953 24.0273 104.43 24.418C103.906 24.8086 103.645 25.2812 103.645 25.8359H101.465C101.465 25.2031 101.688 24.5938 102.133 24.0078C102.586 23.4141 103.195 22.9453 103.961 22.6016C104.734 22.2578 105.582 22.0859 106.504 22.0859C107.965 22.0859 109.109 22.4531 109.938 23.1875C110.766 23.9141 111.195 24.918 111.227 26.1992V32.0352C111.227 33.1992 111.375 34.125 111.672 34.8125V35H109.398ZM105.801 33.3477C106.48 33.3477 107.125 33.1719 107.734 32.8203C108.344 32.4688 108.785 32.0117 109.059 31.4492V28.8477H107.359C104.703 28.8477 103.375 29.625 103.375 31.1797C103.375 31.8594 103.602 32.3906 104.055 32.7734C104.508 33.1562 105.09 33.3477 105.801 33.3477ZM117.566 19.25V22.3203H119.934V23.9961H117.566V31.8594C117.566 32.3672 117.672 32.75 117.883 33.0078C118.094 33.2578 118.453 33.3828 118.961 33.3828C119.211 33.3828 119.555 33.3359 119.992 33.2422V35C119.422 35.1562 118.867 35.2344 118.328 35.2344C117.359 35.2344 116.629 34.9414 116.137 34.3555C115.645 33.7695 115.398 32.9375 115.398 31.8594V23.9961H113.09V22.3203H115.398V19.25H117.566ZM127.738 35.2344C126.02 35.2344 124.621 34.6719 123.543 33.5469C122.465 32.4141 121.926 30.9023 121.926 29.0117V28.6133C121.926 27.3555 122.164 26.2344 122.641 25.25C123.125 24.2578 123.797 23.4844 124.656 22.9297C125.523 22.3672 126.461 22.0859 127.469 22.0859C129.117 22.0859 130.398 22.6289 131.312 23.7148C132.227 24.8008 132.684 26.3555 132.684 28.3789V29.2812H124.094C124.125 30.5312 124.488 31.543 125.184 32.3164C125.887 33.082 126.777 33.4648 127.855 33.4648C128.621 33.4648 129.27 33.3086 129.801 32.9961C130.332 32.6836 130.797 32.2695 131.195 31.7539L132.52 32.7852C131.457 34.418 129.863 35.2344 127.738 35.2344ZM127.469 23.8672C126.594 23.8672 125.859 24.1875 125.266 24.8281C124.672 25.4609 124.305 26.3516 124.164 27.5H130.516V27.3359C130.453 26.2344 130.156 25.3828 129.625 24.7812C129.094 24.1719 128.375 23.8672 127.469 23.8672Z" fill="black"/>
<defs>
<clipPath id="clip0">
<rect width="501" height="400" fill="white" transform="translate(22 51)"/>
</clipPath>
<clipPath id="clip1">
<rect width="98.5" height="97.5247" fill="white" transform="translate(122 150)"/>
</clipPath>
<clipPath id="clip2">
<rect width="98.5" height="97.5247" fill="white" transform="translate(222 150)"/>
</clipPath>
<clipPath id="clip3">
<rect width="98.5" height="97.5247" fill="white" transform="translate(322 150)"/>
</clipPath>
<clipPath id="clip4">
<rect width="98.5" height="97.5247" fill="white" transform="translate(122 250)"/>
</clipPath>
<clipPath id="clip5">
<rect width="98.5" height="97.5247" fill="white" transform="translate(222 250)"/>
</clipPath>
<clipPath id="clip6">
<rect width="98.5" height="97.5247" fill="white" transform="translate(322 250)"/>
</clipPath>
</defs>
</svg>
