<svg width="549" height="471" viewBox="0 0 549 471" fill="none" xmlns="http://www.w3.org/2000/svg">
<rect width="549" height="471" fill="white"/>
<rect x="0.5" y="0.5" width="548" height="470" rx="6.5" fill="#F0F0F0"/>
<path d="M249.053 230.969L251.842 237.93L254.631 230.969H256.09V239.5H254.965V236.178L255.07 232.592L252.27 239.5H251.408L248.613 232.609L248.725 236.178V239.5H247.6V230.969H249.053ZM260.9 238.006L263.338 230.969H264.568L261.404 239.5H260.408L257.25 230.969H258.475L260.9 238.006ZM270.539 235.557H266.842V238.58H271.137V239.5H265.717V230.969H271.078V231.895H266.842V234.637H270.539V235.557ZM278.027 235.697C277.062 235.42 276.359 235.08 275.918 234.678C275.48 234.271 275.262 233.771 275.262 233.178C275.262 232.506 275.529 231.951 276.064 231.514C276.604 231.072 277.303 230.852 278.162 230.852C278.748 230.852 279.27 230.965 279.727 231.191C280.188 231.418 280.543 231.73 280.793 232.129C281.047 232.527 281.174 232.963 281.174 233.436H280.043C280.043 232.92 279.879 232.516 279.551 232.223C279.223 231.926 278.76 231.777 278.162 231.777C277.607 231.777 277.174 231.9 276.861 232.146C276.553 232.389 276.398 232.727 276.398 233.16C276.398 233.508 276.545 233.803 276.838 234.045C277.135 234.283 277.637 234.502 278.344 234.701C279.055 234.9 279.609 235.121 280.008 235.363C280.41 235.602 280.707 235.881 280.898 236.201C281.094 236.521 281.191 236.898 281.191 237.332C281.191 238.023 280.922 238.578 280.383 238.996C279.844 239.41 279.123 239.617 278.221 239.617C277.635 239.617 277.088 239.506 276.58 239.283C276.072 239.057 275.68 238.748 275.402 238.357C275.129 237.967 274.992 237.523 274.992 237.027H276.123C276.123 237.543 276.312 237.951 276.691 238.252C277.074 238.549 277.584 238.697 278.221 238.697C278.814 238.697 279.27 238.576 279.586 238.334C279.902 238.092 280.061 237.762 280.061 237.344C280.061 236.926 279.914 236.604 279.621 236.377C279.328 236.146 278.797 235.92 278.027 235.697ZM283.939 231.625V233.16H285.123V233.998H283.939V237.93C283.939 238.184 283.992 238.375 284.098 238.504C284.203 238.629 284.383 238.691 284.637 238.691C284.762 238.691 284.934 238.668 285.152 238.621V239.5C284.867 239.578 284.59 239.617 284.32 239.617C283.836 239.617 283.471 239.471 283.225 239.178C282.979 238.885 282.855 238.469 282.855 237.93V233.998H281.701V233.16H282.855V231.625H283.939ZM290.309 239.5C290.246 239.375 290.195 239.152 290.156 238.832C289.652 239.355 289.051 239.617 288.352 239.617C287.727 239.617 287.213 239.441 286.811 239.09C286.412 238.734 286.213 238.285 286.213 237.742C286.213 237.082 286.463 236.57 286.963 236.207C287.467 235.84 288.174 235.656 289.084 235.656H290.139V235.158C290.139 234.779 290.025 234.479 289.799 234.256C289.572 234.029 289.238 233.916 288.797 233.916C288.41 233.916 288.086 234.014 287.824 234.209C287.562 234.404 287.432 234.641 287.432 234.918H286.342C286.342 234.602 286.453 234.297 286.676 234.004C286.902 233.707 287.207 233.473 287.59 233.301C287.977 233.129 288.4 233.043 288.861 233.043C289.592 233.043 290.164 233.227 290.578 233.594C290.992 233.957 291.207 234.459 291.223 235.1V238.018C291.223 238.6 291.297 239.062 291.445 239.406V239.5H290.309ZM288.51 238.674C288.85 238.674 289.172 238.586 289.477 238.41C289.781 238.234 290.002 238.006 290.139 237.725V236.424H289.289C287.961 236.424 287.297 236.812 287.297 237.59C287.297 237.93 287.41 238.195 287.637 238.387C287.863 238.578 288.154 238.674 288.51 238.674ZM294.393 231.625V233.16H295.576V233.998H294.393V237.93C294.393 238.184 294.445 238.375 294.551 238.504C294.656 238.629 294.836 238.691 295.09 238.691C295.215 238.691 295.387 238.668 295.605 238.621V239.5C295.32 239.578 295.043 239.617 294.773 239.617C294.289 239.617 293.924 239.471 293.678 239.178C293.432 238.885 293.309 238.469 293.309 237.93V233.998H292.154V233.16H293.309V231.625H294.393ZM299.479 239.617C298.619 239.617 297.92 239.336 297.381 238.773C296.842 238.207 296.572 237.451 296.572 236.506V236.307C296.572 235.678 296.691 235.117 296.93 234.625C297.172 234.129 297.508 233.742 297.938 233.465C298.371 233.184 298.84 233.043 299.344 233.043C300.168 233.043 300.809 233.314 301.266 233.857C301.723 234.4 301.951 235.178 301.951 236.189V236.641H297.656C297.672 237.266 297.854 237.771 298.201 238.158C298.553 238.541 298.998 238.732 299.537 238.732C299.92 238.732 300.244 238.654 300.51 238.498C300.775 238.342 301.008 238.135 301.207 237.877L301.869 238.393C301.338 239.209 300.541 239.617 299.479 239.617ZM299.344 233.934C298.906 233.934 298.539 234.094 298.242 234.414C297.945 234.73 297.762 235.176 297.691 235.75H300.867V235.668C300.836 235.117 300.688 234.691 300.422 234.391C300.156 234.086 299.797 233.934 299.344 233.934Z" fill="black"/>
<rect x="0.5" y="0.5" width="548" height="470" rx="6.5" stroke="black"/>
<g clip-path="url(#clip0)">
<rect width="501" height="400" transform="translate(22 51)" fill="white"/>
<line x1="122.5" y1="51" x2="122.5" y2="652.001" stroke="black"/>
<line x1="222.5" y1="51" x2="222.5" y2="652.001" stroke="black"/>
<line x1="322.5" y1="51" x2="322.5" y2="652.001" stroke="black"/>
<line x1="422.5" y1="51" x2="422.5" y2="652.001" stroke="black"/>
<line x1="522.5" y1="51" x2="522.5" y2="652.001" stroke="black"/>
<line x1="22.5" y1="51" x2="22.5" y2="652.001" stroke="black"/>
<line x1="22" y1="450.5" x2="823" y2="450.5" stroke="black"/>
<line x1="22" y1="350.5" x2="823" y2="350.5" stroke="black"/>
<line x1="22" y1="250.5" x2="823" y2="250.5" stroke="black"/>
<line x1="22" y1="150.5" x2="823" y2="150.5" stroke="black"/>
<line x1="22" y1="51.5" x2="823" y2="51.5" stroke="black"/>
<line x1="22" y1="450.5" x2="823" y2="450.5" stroke="black"/>
<line x1="22" y1="350.5" x2="823" y2="350.5" stroke="black"/>
<line x1="22" y1="250.5" x2="823" y2="250.5" stroke="black"/>
<line x1="22" y1="150.5" x2="823" y2="150.5" stroke="black"/>
<line x1="22" y1="51.5" x2="823" y2="51.5" stroke="black"/>
<rect x="23" y="52" width="99" height="98" fill="#E9FFDB"/>
<rect x="24" y="251" width="198" height="198" fill="#DBE9FF"/>
<path d="M58.8574 425.021H82.9449V391.016H116.951V425.021H142.455V391.016H167.959" stroke="black" stroke-width="2"/>
<path fill-rule="evenodd" clip-rule="evenodd" d="M94.4313 285.155C89.5171 289.681 86.3613 296.555 86.3613 306C86.3613 315.809 87.6775 319.128 89.177 321.146C89.746 321.912 90.3179 322.483 91.0244 323.188C91.381 323.544 91.7719 323.934 92.2141 324.4C93.464 325.72 94.7948 327.354 96.0686 329.902C99.4469 336.658 100.619 341.25 101.025 343.674H127.208C127.614 341.25 128.786 336.658 132.164 329.902C133.438 327.354 134.769 325.72 136.019 324.4C136.461 323.934 136.852 323.544 137.208 323.188L137.208 323.188C137.915 322.483 138.487 321.912 139.056 321.146C140.555 319.128 141.872 315.809 141.872 306C141.872 296.555 138.716 289.681 133.802 285.155C128.86 280.604 121.942 278.245 114.116 278.245C106.291 278.245 99.3724 280.604 94.4313 285.155ZM84.3613 306C84.3613 286.163 97.6831 276.245 114.116 276.245C130.55 276.245 143.872 286.163 143.872 306C143.872 319.358 141.489 321.74 138.508 324.719C137.063 326.164 135.476 327.749 133.953 330.796C130.275 338.152 129.325 342.78 129.079 344.681C129.009 345.228 128.546 345.674 127.994 345.674H100.239C99.6866 345.674 99.2241 345.228 99.1534 344.681C98.9079 342.78 97.9577 338.152 94.2797 330.796C92.7564 327.749 91.1701 326.164 89.7245 324.719C86.7439 321.74 84.3613 319.358 84.3613 306ZM99.2389 351.133C99.2389 350.857 99.4628 350.633 99.7389 350.633H128.494C128.77 350.633 128.994 350.857 128.994 351.133V365.252C128.994 365.414 128.918 365.564 128.784 365.656C127.725 366.38 122.869 369.606 119.129 370.458C119.093 370.466 119.056 370.47 119.02 370.47H109.212C109.176 370.47 109.14 370.466 109.104 370.458C105.364 369.606 100.508 366.38 99.4486 365.656C99.3146 365.564 99.2389 365.414 99.2389 365.252V351.133ZM105.198 303.521C105.198 302.544 105.716 300.899 106.839 299.496C107.936 298.125 109.529 297.082 111.637 297.082C112.189 297.082 112.637 296.634 112.637 296.082C112.637 295.53 112.189 295.082 111.637 295.082C108.786 295.082 106.66 296.519 105.277 298.247C103.92 299.943 103.198 302.018 103.198 303.521C103.198 304.073 103.646 304.521 104.198 304.521C104.75 304.521 105.198 304.073 105.198 303.521Z" fill="#222222"/>
<rect x="323" y="52" width="198" height="198" fill="#DBE9FF"/>
<path d="M357.857 226.021H381.945V192.016H415.951V226.021H441.455V192.016H466.959" stroke="black" stroke-width="2"/>
<path d="M409.01 149.17L435.003 149.17V161.905C434.504 162.245 433.182 163.125 431.571 164.014C429.945 164.912 428.063 165.797 426.45 166.166H426.424H426.398H426.372H426.346H426.321H426.295H426.27H426.244H426.218H426.193H426.168H426.142H426.117H426.092H426.066H426.041H426.016H425.991H425.966H425.941H425.916H425.891H425.866H425.842H425.817H425.792H425.768H425.743H425.718H425.694H425.67H425.645H425.621H425.596H425.572H425.548H425.524H425.5H425.476H425.452H425.428H425.404H425.38H425.356H425.332H425.308H425.285H425.261H425.237H425.214H425.19H425.167H425.143H425.12H425.097H425.073H425.05H425.027H425.004H424.981H424.957H424.934H424.911H424.888H424.866H424.843H424.82H424.797H424.774H424.752H424.729H424.706H424.684H424.661H424.639H424.616H424.594H424.572H424.549H424.527H424.505H424.483H424.461H424.439H424.417H424.395H424.373H424.351H424.329H424.307H424.285H424.263H424.242H424.22H424.198H424.177H424.155H424.134H424.112H424.091H424.069H424.048H424.027H424.005H423.984H423.963H423.942H423.921H423.9H423.879H423.858H423.837H423.816H423.795H423.774H423.753H423.732H423.712H423.691H423.67H423.65H423.629H423.609H423.588H423.568H423.547H423.527H423.507H423.486H423.466H423.446H423.426H423.406H423.385H423.365H423.345H423.325H423.305H423.285H423.265H423.246H423.226H423.206H423.186H423.167H423.147H423.127H423.108H423.088H423.069H423.049H423.03H423.01H422.991H422.971H422.952H422.933H422.914H422.894H422.875H422.856H422.837H422.818H422.799H422.78H422.761H422.742H422.723H422.704H422.685H422.666H422.648H422.629H422.61H422.591H422.573H422.554H422.536H422.517H422.499H422.48H422.462H422.443H422.425H422.406H422.388H422.37H422.352H422.333H422.315H422.297H422.279H422.261H422.243H422.225H422.207H422.189H422.171H422.153H422.135H422.117H422.099H422.082H422.064H422.046H422.028H422.011H421.993H421.975H421.958H421.94H421.923H421.905H421.888H421.87H421.853H421.836H421.818H421.801H421.784H421.766H421.749H421.732H421.715H421.698H421.681H421.664H421.646H421.629H421.612H421.595H421.579H421.562H421.545H421.528H421.511H421.494H421.477H421.461H421.444H421.427H421.411H421.394H421.377H421.361H421.344H421.328H421.311H421.295H421.278H421.262H421.245H421.229H421.213H421.196H421.18H421.164H421.147H421.131H421.115H421.099H421.083H421.066H421.05H421.034H421.018H421.002H420.986H420.97H420.954H420.938H420.922H420.906H420.89H420.875H420.859H420.843H420.827H420.811H420.796H420.78H420.764H420.749H420.733H420.717H420.702H420.686H420.671H420.655H420.64H420.624H420.609H420.593H420.578H420.562H420.547H420.532H420.516H420.501H420.486H420.47H420.455H420.44H420.425H420.41H420.394H420.379H420.364H420.349H420.334H420.319H420.304H420.289H420.274H420.259H420.244H420.229H420.214H420.199H420.184H420.169H420.154H420.14H420.125H420.11H420.095H420.08H420.066H420.051H420.036H420.021H420.007H419.992H419.978H419.963H419.948H419.934H419.919H419.905H419.89H419.876H419.861H419.847H419.832H419.818H419.803H419.789H419.774H419.76H419.746H419.731H419.717H419.703H419.688H419.674H419.66H419.646H419.631H419.617H419.603H419.589H419.575H419.56H419.546H419.532H419.518H419.504H419.49H419.476H419.462H419.448H419.434H419.42H419.406H419.392H419.378H419.364H419.35H419.336H419.322H419.308H419.294H419.28H419.266H419.252H419.238H419.225H419.211H419.197H419.183H419.169H419.156H419.142H419.128H419.114H419.101H419.087H419.073H419.06H419.046H419.032H419.019H419.005H418.991H418.978H418.964H418.95H418.937H418.923H418.91H418.896H418.883H418.869H418.856H418.842H418.829H418.815H418.802H418.788H418.775H418.761H418.748H418.734H418.721H418.707H418.694H418.681H418.667H418.654H418.64H418.627H418.614H418.6H418.587H418.574H418.56H418.547H418.534H418.52H418.507H418.494H418.48H418.467H418.454H418.441H418.427H418.414H418.401H418.388H418.374H418.361H418.348H418.335H418.321H418.308H418.295H418.282H418.269H418.255H418.242H418.229H418.216H418.203H418.19H418.177H418.163H418.15H418.137H418.124H418.111H418.098H418.085H418.072H418.058H418.045H418.032H418.019H418.006H417.993H417.98H417.967H417.954H417.941H417.928H417.914H417.901H417.888H417.875H417.862H417.849H417.836H417.823H417.81H417.797H417.784H417.771H417.758H417.745H417.732H417.719H417.706H417.693H417.68H417.667H417.654H417.641H417.628H417.615H417.602H417.589H417.575H417.563C415.95 165.797 414.068 164.912 412.442 164.014C410.831 163.125 409.509 162.245 409.01 161.905V149.17Z" fill="#222222" stroke="#222222"/>
<path d="M395.513 108.181C395.513 99.3009 398.49 92.6938 403.258 88.3032C408.032 83.9064 414.65 81.687 422.006 81.687C429.362 81.687 435.981 83.9064 440.755 88.3032C445.522 92.6938 448.5 99.3009 448.5 108.181C448.5 117.151 447.307 120.522 445.686 122.705C445.112 123.478 444.492 124.097 443.809 124.779C443.496 125.092 443.171 125.417 442.83 125.777C441.763 126.903 440.639 128.282 439.555 130.451C436.254 137.053 435.346 141.274 435.097 143.112C435.053 143.437 434.78 143.672 434.503 143.672H409.509C409.232 143.672 408.959 143.437 408.915 143.112C408.666 141.274 407.759 137.053 404.458 130.451C403.373 128.282 402.25 126.903 401.183 125.777C400.842 125.417 400.516 125.092 400.203 124.779C399.52 124.097 398.9 123.478 398.326 122.705C396.705 120.522 395.513 117.151 395.513 108.181Z" fill="#F1F51B" stroke="#222222"/>
<path d="M413.009 105.931C413.009 103.682 415.258 99.1831 419.757 99.1831" stroke="#222222" stroke-linecap="round"/>
</g>
<path d="M26.8867 17.9375L32.4648 31.8594L38.043 17.9375H40.9609V35H38.7109V28.3555L38.9219 21.1836L33.3203 35H31.5977L26.0078 21.2188L26.2305 28.3555V35H23.9805V17.9375H26.8867ZM50.582 32.0117L55.457 17.9375H57.918L51.5898 35H49.5977L43.2812 17.9375H45.7305L50.582 32.0117ZM69.8594 27.1133H62.4648V33.1602H71.0547V35H60.2148V17.9375H70.9375V19.7891H62.4648V25.2734H69.8594V27.1133ZM84.8359 27.3945C82.9062 26.8398 81.5 26.1602 80.6172 25.3555C79.7422 24.543 79.3047 23.543 79.3047 22.3555C79.3047 21.0117 79.8398 19.9023 80.9102 19.0273C81.9883 18.1445 83.3867 17.7031 85.1055 17.7031C86.2773 17.7031 87.3203 17.9297 88.2344 18.3828C89.1562 18.8359 89.8672 19.4609 90.3672 20.2578C90.875 21.0547 91.1289 21.9258 91.1289 22.8711H88.8672C88.8672 21.8398 88.5391 21.0312 87.8828 20.4453C87.2266 19.8516 86.3008 19.5547 85.1055 19.5547C83.9961 19.5547 83.1289 19.8008 82.5039 20.293C81.8867 20.7773 81.5781 21.4531 81.5781 22.3203C81.5781 23.0156 81.8711 23.6055 82.457 24.0898C83.0508 24.5664 84.0547 25.0039 85.4688 25.4023C86.8906 25.8008 88 26.2422 88.7969 26.7266C89.6016 27.2031 90.1953 27.7617 90.5781 28.4023C90.9688 29.043 91.1641 29.7969 91.1641 30.6641C91.1641 32.0469 90.625 33.1562 89.5469 33.9922C88.4688 34.8203 87.0273 35.2344 85.2227 35.2344C84.0508 35.2344 82.957 35.0117 81.9414 34.5664C80.9258 34.1133 80.1406 33.4961 79.5859 32.7148C79.0391 31.9336 78.7656 31.0469 78.7656 30.0547H81.0273C81.0273 31.0859 81.4062 31.9023 82.1641 32.5039C82.9297 33.0977 83.9492 33.3945 85.2227 33.3945C86.4102 33.3945 87.3203 33.1523 87.9531 32.668C88.5859 32.1836 88.9023 31.5234 88.9023 30.6875C88.9023 29.8516 88.6094 29.207 88.0234 28.7539C87.4375 28.293 86.375 27.8398 84.8359 27.3945ZM96.6602 19.25V22.3203H99.0273V23.9961H96.6602V31.8594C96.6602 32.3672 96.7656 32.75 96.9766 33.0078C97.1875 33.2578 97.5469 33.3828 98.0547 33.3828C98.3047 33.3828 98.6484 33.3359 99.0859 33.2422V35C98.5156 35.1562 97.9609 35.2344 97.4219 35.2344C96.4531 35.2344 95.7227 34.9414 95.2305 34.3555C94.7383 33.7695 94.4922 32.9375 94.4922 31.8594V23.9961H92.1836V22.3203H94.4922V19.25H96.6602ZM109.398 35C109.273 34.75 109.172 34.3047 109.094 33.6641C108.086 34.7109 106.883 35.2344 105.484 35.2344C104.234 35.2344 103.207 34.8828 102.402 34.1797C101.605 33.4688 101.207 32.5703 101.207 31.4844C101.207 30.1641 101.707 29.1406 102.707 28.4141C103.715 27.6797 105.129 27.3125 106.949 27.3125H109.059V26.3164C109.059 25.5586 108.832 24.957 108.379 24.5117C107.926 24.0586 107.258 23.832 106.375 23.832C105.602 23.832 104.953 24.0273 104.43 24.418C103.906 24.8086 103.645 25.2812 103.645 25.8359H101.465C101.465 25.2031 101.688 24.5938 102.133 24.0078C102.586 23.4141 103.195 22.9453 103.961 22.6016C104.734 22.2578 105.582 22.0859 106.504 22.0859C107.965 22.0859 109.109 22.4531 109.938 23.1875C110.766 23.9141 111.195 24.918 111.227 26.1992V32.0352C111.227 33.1992 111.375 34.125 111.672 34.8125V35H109.398ZM105.801 33.3477C106.48 33.3477 107.125 33.1719 107.734 32.8203C108.344 32.4688 108.785 32.0117 109.059 31.4492V28.8477H107.359C104.703 28.8477 103.375 29.625 103.375 31.1797C103.375 31.8594 103.602 32.3906 104.055 32.7734C104.508 33.1562 105.09 33.3477 105.801 33.3477ZM117.566 19.25V22.3203H119.934V23.9961H117.566V31.8594C117.566 32.3672 117.672 32.75 117.883 33.0078C118.094 33.2578 118.453 33.3828 118.961 33.3828C119.211 33.3828 119.555 33.3359 119.992 33.2422V35C119.422 35.1562 118.867 35.2344 118.328 35.2344C117.359 35.2344 116.629 34.9414 116.137 34.3555C115.645 33.7695 115.398 32.9375 115.398 31.8594V23.9961H113.09V22.3203H115.398V19.25H117.566ZM127.738 35.2344C126.02 35.2344 124.621 34.6719 123.543 33.5469C122.465 32.4141 121.926 30.9023 121.926 29.0117V28.6133C121.926 27.3555 122.164 26.2344 122.641 25.25C123.125 24.2578 123.797 23.4844 124.656 22.9297C125.523 22.3672 126.461 22.0859 127.469 22.0859C129.117 22.0859 130.398 22.6289 131.312 23.7148C132.227 24.8008 132.684 26.3555 132.684 28.3789V29.2812H124.094C124.125 30.5312 124.488 31.543 125.184 32.3164C125.887 33.082 126.777 33.4648 127.855 33.4648C128.621 33.4648 129.27 33.3086 129.801 32.9961C130.332 32.6836 130.797 32.2695 131.195 31.7539L132.52 32.7852C131.457 34.418 129.863 35.2344 127.738 35.2344ZM127.469 23.8672C126.594 23.8672 125.859 24.1875 125.266 24.8281C124.672 25.4609 124.305 26.3516 124.164 27.5H130.516V27.3359C130.453 26.2344 130.156 25.3828 129.625 24.7812C129.094 24.1719 128.375 23.8672 127.469 23.8672Z" fill="black"/>
<rect x="17" y="245" width="210" height="210" stroke="black" stroke-width="2" stroke-dasharray="4 4"/>
<rect x="317" y="46" width="210" height="210" stroke="black" stroke-width="2" stroke-dasharray="4 4"/>
<defs>
<clipPath id="clip0">
<rect width="501" height="400" fill="white" transform="translate(22 51)"/>
</clipPath>
</defs>
</svg>
