<svg width="549" height="626" viewBox="0 0 549 626" fill="none" xmlns="http://www.w3.org/2000/svg">
<rect x="0.5" y="0.5" width="548" height="470" rx="6.5" fill="#F0F0F0"/>
<path d="M249.053 230.969L251.842 237.93L254.631 230.969H256.09V239.5H254.965V236.178L255.07 232.592L252.27 239.5H251.408L248.613 232.609L248.725 236.178V239.5H247.6V230.969H249.053ZM260.9 238.006L263.338 230.969H264.568L261.404 239.5H260.408L257.25 230.969H258.475L260.9 238.006ZM270.539 235.557H266.842V238.58H271.137V239.5H265.717V230.969H271.078V231.895H266.842V234.637H270.539V235.557ZM278.027 235.697C277.062 235.42 276.359 235.08 275.918 234.678C275.48 234.271 275.262 233.771 275.262 233.178C275.262 232.506 275.529 231.951 276.064 231.514C276.604 231.072 277.303 230.852 278.162 230.852C278.748 230.852 279.27 230.965 279.727 231.191C280.188 231.418 280.543 231.73 280.793 232.129C281.047 232.527 281.174 232.963 281.174 233.436H280.043C280.043 232.92 279.879 232.516 279.551 232.223C279.223 231.926 278.76 231.777 278.162 231.777C277.607 231.777 277.174 231.9 276.861 232.146C276.553 232.389 276.398 232.727 276.398 233.16C276.398 233.508 276.545 233.803 276.838 234.045C277.135 234.283 277.637 234.502 278.344 234.701C279.055 234.9 279.609 235.121 280.008 235.363C280.41 235.602 280.707 235.881 280.898 236.201C281.094 236.521 281.191 236.898 281.191 237.332C281.191 238.023 280.922 238.578 280.383 238.996C279.844 239.41 279.123 239.617 278.221 239.617C277.635 239.617 277.088 239.506 276.58 239.283C276.072 239.057 275.68 238.748 275.402 238.357C275.129 237.967 274.992 237.523 274.992 237.027H276.123C276.123 237.543 276.312 237.951 276.691 238.252C277.074 238.549 277.584 238.697 278.221 238.697C278.814 238.697 279.27 238.576 279.586 238.334C279.902 238.092 280.061 237.762 280.061 237.344C280.061 236.926 279.914 236.604 279.621 236.377C279.328 236.146 278.797 235.92 278.027 235.697ZM283.939 231.625V233.16H285.123V233.998H283.939V237.93C283.939 238.184 283.992 238.375 284.098 238.504C284.203 238.629 284.383 238.691 284.637 238.691C284.762 238.691 284.934 238.668 285.152 238.621V239.5C284.867 239.578 284.59 239.617 284.32 239.617C283.836 239.617 283.471 239.471 283.225 239.178C282.979 238.885 282.855 238.469 282.855 237.93V233.998H281.701V233.16H282.855V231.625H283.939ZM290.309 239.5C290.246 239.375 290.195 239.152 290.156 238.832C289.652 239.355 289.051 239.617 288.352 239.617C287.727 239.617 287.213 239.441 286.811 239.09C286.412 238.734 286.213 238.285 286.213 237.742C286.213 237.082 286.463 236.57 286.963 236.207C287.467 235.84 288.174 235.656 289.084 235.656H290.139V235.158C290.139 234.779 290.025 234.479 289.799 234.256C289.572 234.029 289.238 233.916 288.797 233.916C288.41 233.916 288.086 234.014 287.824 234.209C287.562 234.404 287.432 234.641 287.432 234.918H286.342C286.342 234.602 286.453 234.297 286.676 234.004C286.902 233.707 287.207 233.473 287.59 233.301C287.977 233.129 288.4 233.043 288.861 233.043C289.592 233.043 290.164 233.227 290.578 233.594C290.992 233.957 291.207 234.459 291.223 235.1V238.018C291.223 238.6 291.297 239.062 291.445 239.406V239.5H290.309ZM288.51 238.674C288.85 238.674 289.172 238.586 289.477 238.41C289.781 238.234 290.002 238.006 290.139 237.725V236.424H289.289C287.961 236.424 287.297 236.812 287.297 237.59C287.297 237.93 287.41 238.195 287.637 238.387C287.863 238.578 288.154 238.674 288.51 238.674ZM294.393 231.625V233.16H295.576V233.998H294.393V237.93C294.393 238.184 294.445 238.375 294.551 238.504C294.656 238.629 294.836 238.691 295.09 238.691C295.215 238.691 295.387 238.668 295.605 238.621V239.5C295.32 239.578 295.043 239.617 294.773 239.617C294.289 239.617 293.924 239.471 293.678 239.178C293.432 238.885 293.309 238.469 293.309 237.93V233.998H292.154V233.16H293.309V231.625H294.393ZM299.479 239.617C298.619 239.617 297.92 239.336 297.381 238.773C296.842 238.207 296.572 237.451 296.572 236.506V236.307C296.572 235.678 296.691 235.117 296.93 234.625C297.172 234.129 297.508 233.742 297.938 233.465C298.371 233.184 298.84 233.043 299.344 233.043C300.168 233.043 300.809 233.314 301.266 233.857C301.723 234.4 301.951 235.178 301.951 236.189V236.641H297.656C297.672 237.266 297.854 237.771 298.201 238.158C298.553 238.541 298.998 238.732 299.537 238.732C299.92 238.732 300.244 238.654 300.51 238.498C300.775 238.342 301.008 238.135 301.207 237.877L301.869 238.393C301.338 239.209 300.541 239.617 299.479 239.617ZM299.344 233.934C298.906 233.934 298.539 234.094 298.242 234.414C297.945 234.73 297.762 235.176 297.691 235.75H300.867V235.668C300.836 235.117 300.688 234.691 300.422 234.391C300.156 234.086 299.797 233.934 299.344 233.934Z" fill="black"/>
<rect x="0.5" y="0.5" width="548" height="470" rx="6.5" stroke="black"/>
<g clip-path="url(#clip0)">
<rect width="501" height="400" transform="translate(22 51)" fill="white"/>
<line x1="122.5" y1="51" x2="122.5" y2="652.001" stroke="black"/>
<line x1="222.5" y1="51" x2="222.5" y2="652.001" stroke="black"/>
<line x1="322.5" y1="51" x2="322.5" y2="652.001" stroke="black"/>
<line x1="422.5" y1="51" x2="422.5" y2="652.001" stroke="black"/>
<line x1="522.5" y1="51" x2="522.5" y2="652.001" stroke="black"/>
<line x1="22.5" y1="51" x2="22.5" y2="652.001" stroke="black"/>
<line x1="22" y1="450.5" x2="823" y2="450.5" stroke="black"/>
<line x1="22" y1="350.5" x2="823" y2="350.5" stroke="black"/>
<line x1="22" y1="250.5" x2="823" y2="250.5" stroke="black"/>
<line x1="22" y1="150.5" x2="823" y2="150.5" stroke="black"/>
<line x1="22" y1="51.5" x2="823" y2="51.5" stroke="black"/>
<line x1="22" y1="450.5" x2="823" y2="450.5" stroke="black"/>
<line x1="22" y1="350.5" x2="823" y2="350.5" stroke="black"/>
<line x1="22" y1="250.5" x2="823" y2="250.5" stroke="black"/>
<line x1="22" y1="150.5" x2="823" y2="150.5" stroke="black"/>
<line x1="22" y1="51.5" x2="823" y2="51.5" stroke="black"/>
<rect x="23" y="52" width="99" height="98" fill="#E9FFDB"/>
<rect x="24" y="251" width="198" height="198" fill="#DBE9FF"/>
<path d="M58.8574 425.021H82.9449V391.016H116.951V425.021H142.455V391.016H167.959" stroke="black" stroke-width="2"/>
<path fill-rule="evenodd" clip-rule="evenodd" d="M94.4313 285.155C89.5171 289.681 86.3613 296.555 86.3613 306C86.3613 315.809 87.6775 319.128 89.177 321.146C89.746 321.912 90.3179 322.483 91.0244 323.188C91.381 323.544 91.7719 323.934 92.2141 324.4C93.464 325.72 94.7948 327.354 96.0686 329.902C99.4469 336.658 100.619 341.25 101.025 343.674H127.208C127.614 341.25 128.786 336.658 132.164 329.902C133.438 327.354 134.769 325.72 136.019 324.4C136.461 323.934 136.852 323.544 137.208 323.188L137.208 323.188C137.915 322.483 138.487 321.912 139.056 321.146C140.555 319.128 141.872 315.809 141.872 306C141.872 296.555 138.716 289.681 133.802 285.155C128.86 280.604 121.942 278.245 114.116 278.245C106.291 278.245 99.3724 280.604 94.4313 285.155ZM84.3613 306C84.3613 286.163 97.6831 276.245 114.116 276.245C130.55 276.245 143.872 286.163 143.872 306C143.872 319.358 141.489 321.74 138.508 324.719C137.063 326.164 135.476 327.749 133.953 330.796C130.275 338.152 129.325 342.78 129.079 344.681C129.009 345.228 128.546 345.674 127.994 345.674H100.239C99.6866 345.674 99.2241 345.228 99.1534 344.681C98.9079 342.78 97.9577 338.152 94.2797 330.796C92.7564 327.749 91.1701 326.164 89.7245 324.719C86.7439 321.74 84.3613 319.358 84.3613 306ZM99.2389 351.133C99.2389 350.857 99.4628 350.633 99.7389 350.633H128.494C128.77 350.633 128.994 350.857 128.994 351.133V365.252C128.994 365.414 128.918 365.564 128.784 365.656C127.725 366.38 122.869 369.606 119.129 370.458C119.093 370.466 119.056 370.47 119.02 370.47H109.212C109.176 370.47 109.14 370.466 109.104 370.458C105.364 369.606 100.508 366.38 99.4486 365.656C99.3146 365.564 99.2389 365.414 99.2389 365.252V351.133ZM105.198 303.521C105.198 302.544 105.716 300.899 106.839 299.496C107.936 298.125 109.529 297.082 111.637 297.082C112.189 297.082 112.637 296.634 112.637 296.082C112.637 295.53 112.189 295.082 111.637 295.082C108.786 295.082 106.66 296.519 105.277 298.247C103.92 299.943 103.198 302.018 103.198 303.521C103.198 304.073 103.646 304.521 104.198 304.521C104.75 304.521 105.198 304.073 105.198 303.521Z" fill="#222222"/>
<rect x="323" y="52" width="198" height="198" fill="#DBE9FF"/>
<path d="M357.857 226.021H381.945V192.016H415.951V226.021H441.455V192.016H466.959" stroke="black" stroke-width="2"/>
<path d="M409.01 149.17L435.003 149.17V161.905C434.504 162.245 433.182 163.125 431.571 164.014C429.945 164.912 428.063 165.797 426.45 166.166H426.424H426.398H426.372H426.346H426.321H426.295H426.27H426.244H426.218H426.193H426.168H426.142H426.117H426.092H426.066H426.041H426.016H425.991H425.966H425.941H425.916H425.891H425.866H425.842H425.817H425.792H425.768H425.743H425.718H425.694H425.67H425.645H425.621H425.596H425.572H425.548H425.524H425.5H425.476H425.452H425.428H425.404H425.38H425.356H425.332H425.308H425.285H425.261H425.237H425.214H425.19H425.167H425.143H425.12H425.097H425.073H425.05H425.027H425.004H424.981H424.957H424.934H424.911H424.888H424.866H424.843H424.82H424.797H424.774H424.752H424.729H424.706H424.684H424.661H424.639H424.616H424.594H424.572H424.549H424.527H424.505H424.483H424.461H424.439H424.417H424.395H424.373H424.351H424.329H424.307H424.285H424.263H424.242H424.22H424.198H424.177H424.155H424.134H424.112H424.091H424.069H424.048H424.027H424.005H423.984H423.963H423.942H423.921H423.9H423.879H423.858H423.837H423.816H423.795H423.774H423.753H423.732H423.712H423.691H423.67H423.65H423.629H423.609H423.588H423.568H423.547H423.527H423.507H423.486H423.466H423.446H423.426H423.406H423.385H423.365H423.345H423.325H423.305H423.285H423.265H423.246H423.226H423.206H423.186H423.167H423.147H423.127H423.108H423.088H423.069H423.049H423.03H423.01H422.991H422.971H422.952H422.933H422.914H422.894H422.875H422.856H422.837H422.818H422.799H422.78H422.761H422.742H422.723H422.704H422.685H422.666H422.648H422.629H422.61H422.591H422.573H422.554H422.536H422.517H422.499H422.48H422.462H422.443H422.425H422.406H422.388H422.37H422.352H422.333H422.315H422.297H422.279H422.261H422.243H422.225H422.207H422.189H422.171H422.153H422.135H422.117H422.099H422.082H422.064H422.046H422.028H422.011H421.993H421.975H421.958H421.94H421.923H421.905H421.888H421.87H421.853H421.836H421.818H421.801H421.784H421.766H421.749H421.732H421.715H421.698H421.681H421.664H421.646H421.629H421.612H421.595H421.579H421.562H421.545H421.528H421.511H421.494H421.477H421.461H421.444H421.427H421.411H421.394H421.377H421.361H421.344H421.328H421.311H421.295H421.278H421.262H421.245H421.229H421.213H421.196H421.18H421.164H421.147H421.131H421.115H421.099H421.083H421.066H421.05H421.034H421.018H421.002H420.986H420.97H420.954H420.938H420.922H420.906H420.89H420.875H420.859H420.843H420.827H420.811H420.796H420.78H420.764H420.749H420.733H420.717H420.702H420.686H420.671H420.655H420.64H420.624H420.609H420.593H420.578H420.562H420.547H420.532H420.516H420.501H420.486H420.47H420.455H420.44H420.425H420.41H420.394H420.379H420.364H420.349H420.334H420.319H420.304H420.289H420.274H420.259H420.244H420.229H420.214H420.199H420.184H420.169H420.154H420.14H420.125H420.11H420.095H420.08H420.066H420.051H420.036H420.021H420.007H419.992H419.978H419.963H419.948H419.934H419.919H419.905H419.89H419.876H419.861H419.847H419.832H419.818H419.803H419.789H419.774H419.76H419.746H419.731H419.717H419.703H419.688H419.674H419.66H419.646H419.631H419.617H419.603H419.589H419.575H419.56H419.546H419.532H419.518H419.504H419.49H419.476H419.462H419.448H419.434H419.42H419.406H419.392H419.378H419.364H419.35H419.336H419.322H419.308H419.294H419.28H419.266H419.252H419.238H419.225H419.211H419.197H419.183H419.169H419.156H419.142H419.128H419.114H419.101H419.087H419.073H419.06H419.046H419.032H419.019H419.005H418.991H418.978H418.964H418.95H418.937H418.923H418.91H418.896H418.883H418.869H418.856H418.842H418.829H418.815H418.802H418.788H418.775H418.761H418.748H418.734H418.721H418.707H418.694H418.681H418.667H418.654H418.64H418.627H418.614H418.6H418.587H418.574H418.56H418.547H418.534H418.52H418.507H418.494H418.48H418.467H418.454H418.441H418.427H418.414H418.401H418.388H418.374H418.361H418.348H418.335H418.321H418.308H418.295H418.282H418.269H418.255H418.242H418.229H418.216H418.203H418.19H418.177H418.163H418.15H418.137H418.124H418.111H418.098H418.085H418.072H418.058H418.045H418.032H418.019H418.006H417.993H417.98H417.967H417.954H417.941H417.928H417.914H417.901H417.888H417.875H417.862H417.849H417.836H417.823H417.81H417.797H417.784H417.771H417.758H417.745H417.732H417.719H417.706H417.693H417.68H417.667H417.654H417.641H417.628H417.615H417.602H417.589H417.575H417.563C415.95 165.797 414.068 164.912 412.442 164.014C410.831 163.125 409.509 162.245 409.01 161.905V149.17Z" fill="#222222" stroke="#222222"/>
<path d="M395.513 108.181C395.513 99.3009 398.49 92.6938 403.258 88.3032C408.032 83.9064 414.65 81.687 422.006 81.687C429.362 81.687 435.981 83.9064 440.755 88.3032C445.522 92.6938 448.5 99.3009 448.5 108.181C448.5 117.151 447.307 120.522 445.686 122.705C445.112 123.478 444.492 124.097 443.809 124.779C443.496 125.092 443.171 125.417 442.83 125.777C441.763 126.903 440.639 128.282 439.555 130.451C436.254 137.053 435.346 141.274 435.097 143.112C435.053 143.437 434.78 143.672 434.503 143.672H409.509C409.232 143.672 408.959 143.437 408.915 143.112C408.666 141.274 407.759 137.053 404.458 130.451C403.373 128.282 402.25 126.903 401.183 125.777C400.842 125.417 400.516 125.092 400.203 124.779C399.52 124.097 398.9 123.478 398.326 122.705C396.705 120.522 395.513 117.151 395.513 108.181Z" fill="#F1F51B" stroke="#222222"/>
<path d="M413.009 105.931C413.009 103.682 415.258 99.1831 419.757 99.1831" stroke="#222222" stroke-linecap="round"/>
</g>
<path d="M26.8867 17.9375L32.4648 31.8594L38.043 17.9375H40.9609V35H38.7109V28.3555L38.9219 21.1836L33.3203 35H31.5977L26.0078 21.2188L26.2305 28.3555V35H23.9805V17.9375H26.8867ZM50.582 32.0117L55.457 17.9375H57.918L51.5898 35H49.5977L43.2812 17.9375H45.7305L50.582 32.0117ZM69.8594 27.1133H62.4648V33.1602H71.0547V35H60.2148V17.9375H70.9375V19.7891H62.4648V25.2734H69.8594V27.1133ZM84.8359 27.3945C82.9062 26.8398 81.5 26.1602 80.6172 25.3555C79.7422 24.543 79.3047 23.543 79.3047 22.3555C79.3047 21.0117 79.8398 19.9023 80.9102 19.0273C81.9883 18.1445 83.3867 17.7031 85.1055 17.7031C86.2773 17.7031 87.3203 17.9297 88.2344 18.3828C89.1562 18.8359 89.8672 19.4609 90.3672 20.2578C90.875 21.0547 91.1289 21.9258 91.1289 22.8711H88.8672C88.8672 21.8398 88.5391 21.0312 87.8828 20.4453C87.2266 19.8516 86.3008 19.5547 85.1055 19.5547C83.9961 19.5547 83.1289 19.8008 82.5039 20.293C81.8867 20.7773 81.5781 21.4531 81.5781 22.3203C81.5781 23.0156 81.8711 23.6055 82.457 24.0898C83.0508 24.5664 84.0547 25.0039 85.4688 25.4023C86.8906 25.8008 88 26.2422 88.7969 26.7266C89.6016 27.2031 90.1953 27.7617 90.5781 28.4023C90.9688 29.043 91.1641 29.7969 91.1641 30.6641C91.1641 32.0469 90.625 33.1562 89.5469 33.9922C88.4688 34.8203 87.0273 35.2344 85.2227 35.2344C84.0508 35.2344 82.957 35.0117 81.9414 34.5664C80.9258 34.1133 80.1406 33.4961 79.5859 32.7148C79.0391 31.9336 78.7656 31.0469 78.7656 30.0547H81.0273C81.0273 31.0859 81.4062 31.9023 82.1641 32.5039C82.9297 33.0977 83.9492 33.3945 85.2227 33.3945C86.4102 33.3945 87.3203 33.1523 87.9531 32.668C88.5859 32.1836 88.9023 31.5234 88.9023 30.6875C88.9023 29.8516 88.6094 29.207 88.0234 28.7539C87.4375 28.293 86.375 27.8398 84.8359 27.3945ZM96.6602 19.25V22.3203H99.0273V23.9961H96.6602V31.8594C96.6602 32.3672 96.7656 32.75 96.9766 33.0078C97.1875 33.2578 97.5469 33.3828 98.0547 33.3828C98.3047 33.3828 98.6484 33.3359 99.0859 33.2422V35C98.5156 35.1562 97.9609 35.2344 97.4219 35.2344C96.4531 35.2344 95.7227 34.9414 95.2305 34.3555C94.7383 33.7695 94.4922 32.9375 94.4922 31.8594V23.9961H92.1836V22.3203H94.4922V19.25H96.6602ZM109.398 35C109.273 34.75 109.172 34.3047 109.094 33.6641C108.086 34.7109 106.883 35.2344 105.484 35.2344C104.234 35.2344 103.207 34.8828 102.402 34.1797C101.605 33.4688 101.207 32.5703 101.207 31.4844C101.207 30.1641 101.707 29.1406 102.707 28.4141C103.715 27.6797 105.129 27.3125 106.949 27.3125H109.059V26.3164C109.059 25.5586 108.832 24.957 108.379 24.5117C107.926 24.0586 107.258 23.832 106.375 23.832C105.602 23.832 104.953 24.0273 104.43 24.418C103.906 24.8086 103.645 25.2812 103.645 25.8359H101.465C101.465 25.2031 101.688 24.5938 102.133 24.0078C102.586 23.4141 103.195 22.9453 103.961 22.6016C104.734 22.2578 105.582 22.0859 106.504 22.0859C107.965 22.0859 109.109 22.4531 109.938 23.1875C110.766 23.9141 111.195 24.918 111.227 26.1992V32.0352C111.227 33.1992 111.375 34.125 111.672 34.8125V35H109.398ZM105.801 33.3477C106.48 33.3477 107.125 33.1719 107.734 32.8203C108.344 32.4688 108.785 32.0117 109.059 31.4492V28.8477H107.359C104.703 28.8477 103.375 29.625 103.375 31.1797C103.375 31.8594 103.602 32.3906 104.055 32.7734C104.508 33.1562 105.09 33.3477 105.801 33.3477ZM117.566 19.25V22.3203H119.934V23.9961H117.566V31.8594C117.566 32.3672 117.672 32.75 117.883 33.0078C118.094 33.2578 118.453 33.3828 118.961 33.3828C119.211 33.3828 119.555 33.3359 119.992 33.2422V35C119.422 35.1562 118.867 35.2344 118.328 35.2344C117.359 35.2344 116.629 34.9414 116.137 34.3555C115.645 33.7695 115.398 32.9375 115.398 31.8594V23.9961H113.09V22.3203H115.398V19.25H117.566ZM127.738 35.2344C126.02 35.2344 124.621 34.6719 123.543 33.5469C122.465 32.4141 121.926 30.9023 121.926 29.0117V28.6133C121.926 27.3555 122.164 26.2344 122.641 25.25C123.125 24.2578 123.797 23.4844 124.656 22.9297C125.523 22.3672 126.461 22.0859 127.469 22.0859C129.117 22.0859 130.398 22.6289 131.312 23.7148C132.227 24.8008 132.684 26.3555 132.684 28.3789V29.2812H124.094C124.125 30.5312 124.488 31.543 125.184 32.3164C125.887 33.082 126.777 33.4648 127.855 33.4648C128.621 33.4648 129.27 33.3086 129.801 32.9961C130.332 32.6836 130.797 32.2695 131.195 31.7539L132.52 32.7852C131.457 34.418 129.863 35.2344 127.738 35.2344ZM127.469 23.8672C126.594 23.8672 125.859 24.1875 125.266 24.8281C124.672 25.4609 124.305 26.3516 124.164 27.5H130.516V27.3359C130.453 26.2344 130.156 25.3828 129.625 24.7812C129.094 24.1719 128.375 23.8672 127.469 23.8672Z" fill="black"/>
<rect x="17" y="245" width="210" height="210" stroke="black" stroke-width="2" stroke-dasharray="4 4"/>
<rect x="317" y="46" width="210" height="210" stroke="black" stroke-width="2" stroke-dasharray="4 4"/>
<rect x="253" y="495" width="36" height="36" fill="white" stroke="black" stroke-width="2" stroke-dasharray="5 5"/>
<path d="M312.752 510.288C312.704 509.52 312.52 508.792 312.2 508.104C311.88 507.416 311.416 506.856 310.808 506.424C310.2 505.992 309.424 505.776 308.48 505.776C307.488 505.776 306.728 506.056 306.2 506.616C305.672 507.176 305.408 507.832 305.408 508.584C305.408 509.256 305.6 509.824 305.984 510.288C306.368 510.736 306.864 511.136 307.472 511.488C308.096 511.824 308.752 512.152 309.44 512.472C310.048 512.744 310.656 513.04 311.264 513.36C311.872 513.664 312.424 514.016 312.92 514.416C313.416 514.816 313.808 515.296 314.096 515.856C314.4 516.4 314.552 517.056 314.552 517.824C314.552 519.152 314.064 520.248 313.088 521.112C312.112 521.96 310.728 522.384 308.936 522.384C308.216 522.384 307.472 522.28 306.704 522.072C305.936 521.864 305.256 521.56 304.664 521.16L304.784 522.192H303.536L303.392 517.08H304.328C304.408 518.488 304.896 519.56 305.792 520.296C306.688 521.016 307.768 521.376 309.032 521.376C309.656 521.376 310.232 521.264 310.76 521.04C311.288 520.8 311.704 520.456 312.008 520.008C312.328 519.56 312.488 519.016 312.488 518.376C312.488 517.656 312.296 517.056 311.912 516.576C311.528 516.096 311.032 515.68 310.424 515.328C309.816 514.976 309.168 514.64 308.48 514.32C307.872 514.048 307.272 513.76 306.68 513.456C306.088 513.152 305.544 512.808 305.048 512.424C304.568 512.024 304.176 511.552 303.872 511.008C303.584 510.464 303.44 509.808 303.44 509.04C303.44 508.624 303.512 508.176 303.656 507.696C303.8 507.216 304.048 506.76 304.4 506.328C304.768 505.88 305.264 505.52 305.888 505.248C306.528 504.96 307.336 504.816 308.312 504.816C308.92 504.816 309.6 504.904 310.352 505.08C311.12 505.24 311.832 505.56 312.488 506.04L312.392 505.008H313.616V510.288H312.752ZM316.533 521.28C317.029 521.28 317.373 521.16 317.565 520.92C317.757 520.664 317.869 520.32 317.901 519.888C317.933 519.44 317.949 518.928 317.949 518.352V512.88C317.949 512.624 317.957 512.384 317.973 512.16C317.989 511.92 318.013 511.64 318.045 511.32C317.757 511.336 317.469 511.352 317.181 511.368C316.909 511.384 316.629 511.4 316.341 511.416V510.408C317.045 510.408 317.589 510.376 317.973 510.312C318.357 510.248 318.645 510.168 318.837 510.072C319.045 509.976 319.205 509.872 319.317 509.76H320.013V519.456C320.013 519.776 320.005 520.064 319.989 520.32C319.989 520.56 319.965 520.816 319.917 521.088C320.173 521.072 320.421 521.064 320.661 521.064C320.917 521.048 321.173 521.032 321.429 521.016V522H316.533V521.28ZM318.861 507.384C318.525 507.384 318.229 507.248 317.973 506.976C317.717 506.704 317.589 506.368 317.589 505.968C317.589 505.568 317.717 505.232 317.973 504.96C318.245 504.672 318.549 504.528 318.885 504.528C319.253 504.528 319.557 504.672 319.797 504.96C320.053 505.232 320.181 505.568 320.181 505.968C320.181 506.368 320.045 506.704 319.773 506.976C319.517 507.248 319.213 507.384 318.861 507.384ZM323.283 522V521.28C323.779 521.28 324.123 521.16 324.315 520.92C324.507 520.664 324.619 520.32 324.651 519.888C324.683 519.44 324.699 518.928 324.699 518.352V512.88C324.699 512.624 324.699 512.368 324.699 512.112C324.715 511.856 324.747 511.592 324.795 511.32C324.507 511.336 324.219 511.352 323.931 511.368C323.659 511.384 323.379 511.4 323.091 511.416V510.408C323.795 510.408 324.323 510.376 324.675 510.312C325.043 510.248 325.315 510.168 325.491 510.072C325.667 509.976 325.811 509.872 325.923 509.76H326.619C326.651 509.92 326.667 510.104 326.667 510.312C326.683 510.52 326.699 510.76 326.715 511.032C327.195 510.616 327.747 510.28 328.371 510.024C328.995 509.752 329.619 509.616 330.243 509.616C331.043 509.616 331.715 509.76 332.259 510.048C332.803 510.336 333.227 510.728 333.531 511.224C334.075 510.776 334.699 510.4 335.403 510.096C336.123 509.776 336.827 509.616 337.515 509.616C338.907 509.616 339.931 510.04 340.587 510.888C341.243 511.72 341.555 513.088 341.523 514.992L341.499 519.456C341.499 519.776 341.491 520.064 341.475 520.32C341.475 520.56 341.451 520.816 341.403 521.088C341.659 521.072 341.907 521.064 342.147 521.064C342.403 521.048 342.659 521.032 342.915 521.016V522H338.019V521.28C338.515 521.28 338.859 521.16 339.051 520.92C339.243 520.664 339.355 520.32 339.387 519.888C339.419 519.44 339.435 518.928 339.435 518.352V514.992C339.435 513.616 339.211 512.584 338.763 511.896C338.331 511.208 337.643 510.872 336.699 510.888C336.203 510.888 335.707 511 335.211 511.224C334.715 511.448 334.283 511.728 333.915 512.064C333.995 512.32 334.051 512.6 334.083 512.904C334.131 513.192 334.155 513.496 334.155 513.816C334.139 514.744 334.131 515.68 334.131 516.624C334.131 517.568 334.123 518.512 334.107 519.456C334.107 519.776 334.099 520.064 334.083 520.32C334.083 520.56 334.059 520.816 334.011 521.088C334.267 521.072 334.515 521.064 334.755 521.064C335.011 521.048 335.267 521.032 335.523 521.016V522H330.627V521.28C331.123 521.28 331.459 521.16 331.635 520.92C331.827 520.664 331.939 520.32 331.971 519.888C332.019 519.44 332.043 518.928 332.043 518.352L332.067 514.992C332.083 513.616 331.883 512.576 331.467 511.872C331.051 511.168 330.371 510.824 329.427 510.84C328.931 510.84 328.443 510.952 327.963 511.176C327.483 511.384 327.075 511.656 326.739 511.992C326.739 512.184 326.739 512.392 326.739 512.616C326.755 512.824 326.763 513.048 326.763 513.288V519.456C326.763 519.776 326.755 520.064 326.739 520.32C326.739 520.56 326.715 520.816 326.667 521.088C326.923 521.072 327.171 521.064 327.411 521.064C327.667 521.048 327.923 521.032 328.179 521.016V522H323.283ZM349.792 522.384C348.928 522.384 348.2 522.224 347.608 521.904C347.032 521.584 346.592 521.04 346.288 520.272C346 519.504 345.856 518.464 345.856 517.152V512.88C345.856 512.624 345.856 512.368 345.856 512.112C345.872 511.856 345.904 511.592 345.952 511.32C345.68 511.336 345.4 511.352 345.112 511.368C344.84 511.368 344.568 511.376 344.296 511.392V510.408H345.04C345.728 510.408 346.224 510.344 346.528 510.216C346.848 510.072 347.096 509.92 347.272 509.76H347.968V517.08C347.968 518.456 348.16 519.488 348.544 520.176C348.944 520.848 349.616 521.176 350.56 521.16C351.168 521.144 351.744 520.96 352.288 520.608C352.848 520.24 353.296 519.808 353.632 519.312V513.144C353.632 512.76 353.64 512.432 353.656 512.16C353.672 511.872 353.704 511.592 353.752 511.32C353.464 511.336 353.176 511.352 352.888 511.368C352.6 511.368 352.312 511.376 352.024 511.392V510.408H352.768C353.456 510.408 353.952 510.344 354.256 510.216C354.576 510.072 354.824 509.92 355 509.76H355.696L355.672 518.832C355.672 519.088 355.664 519.448 355.648 519.912C355.632 520.376 355.608 520.768 355.576 521.088C355.864 521.072 356.152 521.056 356.44 521.04C356.728 521.024 357.016 521.008 357.304 520.992V522H353.872C353.824 521.728 353.784 521.472 353.752 521.232C353.736 520.992 353.72 520.768 353.704 520.56C353.208 521.056 352.608 521.488 351.904 521.856C351.2 522.208 350.496 522.384 349.792 522.384ZM358.808 521.28C359.304 521.28 359.648 521.16 359.84 520.92C360.032 520.664 360.144 520.32 360.176 519.888C360.208 519.44 360.224 518.928 360.224 518.352V507C360.224 506.744 360.224 506.504 360.224 506.28C360.24 506.04 360.264 505.76 360.296 505.44C360.008 505.456 359.72 505.472 359.432 505.488C359.16 505.504 358.88 505.52 358.592 505.536V504.528C359.296 504.528 359.84 504.496 360.224 504.432C360.624 504.368 360.92 504.288 361.112 504.192C361.32 504.096 361.48 503.992 361.592 503.88H362.288L362.312 519.456C362.312 519.776 362.304 520.064 362.288 520.32C362.272 520.56 362.24 520.816 362.192 521.088C362.448 521.072 362.696 521.064 362.936 521.064C363.192 521.048 363.448 521.032 363.704 521.016V522H358.808V521.28ZM372.883 522C372.835 521.728 372.803 521.488 372.787 521.28C372.771 521.072 372.747 520.856 372.715 520.632C372.171 521.176 371.579 521.608 370.939 521.928C370.315 522.232 369.651 522.384 368.947 522.384C367.731 522.384 366.827 522.112 366.235 521.568C365.643 521.008 365.347 520.328 365.347 519.528C365.347 518.792 365.571 518.16 366.019 517.632C366.483 517.088 367.075 516.648 367.795 516.312C368.531 515.96 369.323 515.704 370.171 515.544C371.035 515.368 371.867 515.288 372.667 515.304V513.816C372.667 513.256 372.619 512.728 372.523 512.232C372.427 511.736 372.219 511.328 371.899 511.008C371.579 510.688 371.067 510.52 370.363 510.504C369.899 510.488 369.419 510.576 368.923 510.768C368.443 510.96 368.091 511.288 367.867 511.752C367.995 511.88 368.075 512.032 368.107 512.208C368.155 512.368 368.179 512.52 368.179 512.664C368.179 512.856 368.099 513.08 367.939 513.336C367.779 513.576 367.499 513.688 367.099 513.672C366.763 513.672 366.507 513.56 366.331 513.336C366.155 513.096 366.067 512.816 366.067 512.496C366.067 511.952 366.267 511.464 366.667 511.032C367.083 510.6 367.651 510.256 368.371 510C369.091 509.744 369.907 509.616 370.819 509.616C372.163 509.616 373.155 509.976 373.795 510.696C374.435 511.4 374.747 512.52 374.731 514.056C374.731 514.952 374.723 515.856 374.707 516.768C374.707 517.664 374.707 518.56 374.707 519.456C374.707 519.712 374.699 519.968 374.683 520.224C374.667 520.48 374.643 520.768 374.611 521.088C374.899 521.072 375.179 521.056 375.451 521.04C375.739 521.024 376.027 521.008 376.315 520.992V522H372.883ZM372.667 516.12C372.123 516.136 371.547 516.208 370.939 516.336C370.347 516.448 369.795 516.624 369.283 516.864C368.787 517.104 368.379 517.424 368.059 517.824C367.755 518.208 367.611 518.68 367.627 519.24C367.659 519.832 367.851 520.28 368.203 520.584C368.571 520.872 369.003 521.016 369.499 521.016C370.155 521.016 370.723 520.896 371.203 520.656C371.699 520.4 372.187 520.048 372.667 519.6C372.651 519.424 372.643 519.232 372.643 519.024C372.643 518.816 372.643 518.6 372.643 518.376C372.643 518.296 372.643 518.04 372.643 517.608C372.659 517.176 372.667 516.68 372.667 516.12ZM382.31 522.384C381.942 522.384 381.566 522.328 381.182 522.216C380.798 522.12 380.438 521.92 380.102 521.616C379.782 521.312 379.526 520.872 379.334 520.296C379.142 519.704 379.046 518.928 379.046 517.968L379.094 511.008L377.246 511.032V510C377.662 509.984 378.086 509.832 378.518 509.544C378.95 509.24 379.334 508.832 379.67 508.32C380.022 507.808 380.262 507.248 380.39 506.64H381.206V510H385.238V510.936L381.206 510.984L381.158 517.656C381.158 518.744 381.294 519.576 381.566 520.152C381.854 520.728 382.326 521.016 382.982 521.016C383.43 521.016 383.846 520.888 384.23 520.632C384.63 520.376 384.982 520.024 385.286 519.576L385.934 520.104C385.47 520.808 385.006 521.32 384.542 521.64C384.094 521.96 383.678 522.16 383.294 522.24C382.91 522.336 382.582 522.384 382.31 522.384ZM392.887 522.384C391.783 522.384 390.783 522.128 389.887 521.616C389.007 521.088 388.311 520.352 387.799 519.408C387.287 518.448 387.031 517.32 387.031 516.024C387.031 514.904 387.279 513.856 387.775 512.88C388.287 511.904 388.999 511.12 389.911 510.528C390.823 509.92 391.879 509.616 393.079 509.616C393.975 509.616 394.791 509.808 395.527 510.192C396.263 510.576 396.847 511.16 397.279 511.944C397.727 512.728 397.951 513.72 397.951 514.92L389.503 515.064C389.487 516.904 389.791 518.384 390.415 519.504C391.039 520.608 392.055 521.16 393.463 521.16C393.959 521.16 394.463 521.072 394.975 520.896C395.503 520.72 395.991 520.48 396.439 520.176C396.887 519.872 397.247 519.536 397.519 519.168L398.095 519.648C397.663 520.32 397.143 520.856 396.535 521.256C395.927 521.656 395.303 521.944 394.663 522.12C394.023 522.296 393.431 522.384 392.887 522.384ZM389.575 514.056H395.695C395.695 513.48 395.607 512.928 395.431 512.4C395.271 511.856 394.999 511.416 394.615 511.08C394.231 510.728 393.727 510.552 393.103 510.552C392.175 510.552 391.399 510.832 390.775 511.392C390.167 511.936 389.767 512.824 389.575 514.056ZM405.106 522.384C404.13 522.384 403.25 522.144 402.466 521.664C401.682 521.168 401.058 520.464 400.594 519.552C400.146 518.64 399.922 517.568 399.922 516.336C399.922 515.024 400.186 513.864 400.714 512.856C401.242 511.848 401.97 511.056 402.898 510.48C403.842 509.904 404.906 509.616 406.09 509.616C406.618 509.616 407.138 509.688 407.65 509.832C408.178 509.96 408.594 510.112 408.898 510.288V507C408.898 506.744 408.898 506.504 408.898 506.28C408.914 506.04 408.938 505.76 408.97 505.44C408.682 505.456 408.394 505.472 408.106 505.488C407.834 505.504 407.554 505.52 407.266 505.536V504.528C407.97 504.528 408.514 504.496 408.898 504.432C409.282 504.368 409.57 504.288 409.762 504.192C409.97 504.096 410.13 503.992 410.242 503.88H410.938V519.456C410.938 519.712 410.93 519.968 410.914 520.224C410.898 520.48 410.874 520.768 410.842 521.088C411.13 521.072 411.41 521.056 411.682 521.04C411.97 521.024 412.258 521.008 412.546 520.992V522H409.114C409.034 521.568 408.978 521.152 408.946 520.752C408.498 521.248 407.946 521.648 407.29 521.952C406.634 522.24 405.906 522.384 405.106 522.384ZM405.97 521.208C406.498 521.208 407.026 521.056 407.554 520.752C408.098 520.448 408.546 520.072 408.898 519.624C408.882 519.432 408.874 519.232 408.874 519.024C408.874 518.8 408.874 518.56 408.874 518.304L408.898 511.392C408.514 511.104 408.09 510.896 407.626 510.768C407.178 510.624 406.714 510.552 406.234 510.552C405.434 510.552 404.738 510.784 404.146 511.248C403.554 511.712 403.106 512.36 402.802 513.192C402.498 514.024 402.362 515 402.394 516.12C402.426 517.096 402.578 517.968 402.85 518.736C403.138 519.504 403.538 520.112 404.05 520.56C404.578 520.992 405.218 521.208 405.97 521.208ZM426.475 522.384C425.403 522.384 424.411 522.144 423.499 521.664C422.603 521.168 421.883 520.464 421.339 519.552C420.811 518.624 420.547 517.512 420.547 516.216C420.547 515.384 420.699 514.576 421.003 513.792C421.307 513.008 421.731 512.304 422.275 511.68C422.835 511.04 423.499 510.536 424.267 510.168C425.035 509.8 425.883 509.616 426.811 509.616C427.707 509.616 428.483 509.752 429.139 510.024C429.811 510.296 430.331 510.656 430.699 511.104C431.067 511.552 431.251 512.04 431.251 512.568C431.251 512.92 431.155 513.224 430.963 513.48C430.771 513.72 430.491 513.84 430.123 513.84C429.723 513.856 429.435 513.736 429.259 513.48C429.099 513.208 429.019 512.968 429.019 512.76C429.019 512.6 429.043 512.44 429.091 512.28C429.139 512.104 429.235 511.944 429.379 511.8C429.251 511.416 429.027 511.136 428.707 510.96C428.387 510.768 428.051 510.648 427.699 510.6C427.363 510.536 427.083 510.504 426.859 510.504C425.771 510.504 424.851 510.944 424.099 511.824C423.363 512.688 422.995 513.952 422.995 515.616C422.995 516.688 423.163 517.64 423.499 518.472C423.851 519.304 424.339 519.96 424.963 520.44C425.587 520.904 426.307 521.136 427.123 521.136C427.875 521.136 428.595 520.936 429.283 520.536C429.971 520.136 430.507 519.648 430.891 519.072L431.515 519.552C431.099 520.224 430.595 520.768 430.003 521.184C429.427 521.6 428.827 521.904 428.203 522.096C427.595 522.288 427.019 522.384 426.475 522.384ZM439.227 522.384C438.107 522.384 437.091 522.128 436.179 521.616C435.267 521.088 434.539 520.368 433.995 519.456C433.467 518.528 433.203 517.472 433.203 516.288C433.203 515.024 433.467 513.888 433.995 512.88C434.523 511.872 435.243 511.08 436.155 510.504C437.067 509.912 438.091 509.616 439.227 509.616C440.347 509.616 441.363 509.888 442.275 510.432C443.187 510.96 443.915 511.68 444.459 512.592C445.003 513.504 445.275 514.544 445.275 515.712C445.275 516.944 445.003 518.072 444.459 519.096C443.931 520.104 443.211 520.904 442.299 521.496C441.387 522.088 440.363 522.384 439.227 522.384ZM439.419 521.424C440.267 521.424 440.939 521.184 441.435 520.704C441.931 520.224 442.283 519.6 442.491 518.832C442.715 518.064 442.827 517.256 442.827 516.408C442.827 515.688 442.755 514.984 442.611 514.296C442.483 513.592 442.275 512.96 441.987 512.4C441.699 511.824 441.323 511.368 440.859 511.032C440.411 510.696 439.867 510.528 439.227 510.528C438.395 510.528 437.715 510.768 437.187 511.248C436.659 511.728 436.267 512.352 436.011 513.12C435.771 513.888 435.651 514.712 435.651 515.592C435.651 516.584 435.787 517.528 436.059 518.424C436.331 519.304 436.747 520.024 437.307 520.584C437.867 521.144 438.571 521.424 439.419 521.424ZM447.314 522V521.28C447.81 521.28 448.154 521.16 448.346 520.92C448.538 520.664 448.65 520.32 448.682 519.888C448.714 519.44 448.73 518.928 448.73 518.352L448.754 512.88C448.754 512.624 448.754 512.368 448.754 512.112C448.77 511.856 448.802 511.592 448.85 511.32C448.562 511.336 448.274 511.352 447.986 511.368C447.714 511.384 447.434 511.4 447.146 511.416V510.408C447.85 510.408 448.378 510.376 448.73 510.312C449.098 510.248 449.37 510.168 449.546 510.072C449.722 509.976 449.866 509.872 449.978 509.76H450.674C450.706 509.936 450.722 510.144 450.722 510.384C450.738 510.608 450.754 510.888 450.77 511.224C451.282 510.76 451.89 510.376 452.594 510.072C453.298 509.768 453.994 509.616 454.682 509.616C456.074 509.616 457.09 510.056 457.73 510.936C458.37 511.8 458.69 513.152 458.69 514.992V519.456C458.69 519.776 458.682 520.064 458.666 520.32C458.666 520.56 458.642 520.816 458.594 521.088C458.85 521.072 459.098 521.064 459.338 521.064C459.594 521.048 459.85 521.032 460.106 521.016V522H455.21V521.28C455.706 521.28 456.05 521.16 456.242 520.92C456.434 520.664 456.546 520.32 456.578 519.888C456.61 519.44 456.626 518.928 456.626 518.352V514.992C456.61 513.616 456.378 512.576 455.93 511.872C455.498 511.168 454.81 510.824 453.866 510.84C453.29 510.856 452.722 511.008 452.162 511.296C451.618 511.584 451.162 511.952 450.794 512.4C450.81 512.528 450.818 512.672 450.818 512.832C450.818 512.992 450.818 513.16 450.818 513.336L450.794 519.456C450.794 519.776 450.786 520.064 450.77 520.32C450.77 520.56 450.746 520.816 450.698 521.088C450.954 521.072 451.202 521.064 451.442 521.064C451.698 521.048 451.954 521.032 452.21 521.016V522H447.314ZM466.812 522.384C466.012 522.384 465.3 522.272 464.676 522.048C464.052 521.84 463.54 521.6 463.14 521.328L463.236 522.168H462.228L462.084 518.04H462.828C462.86 518.696 463.044 519.288 463.38 519.816C463.716 520.328 464.148 520.728 464.676 521.016C465.204 521.304 465.772 521.448 466.38 521.448C466.796 521.448 467.204 521.384 467.604 521.256C468.004 521.112 468.34 520.904 468.612 520.632C468.884 520.344 469.02 519.984 469.02 519.552C469.02 519.104 468.884 518.736 468.612 518.448C468.356 518.144 468.012 517.88 467.58 517.656C467.148 517.432 466.684 517.224 466.188 517.032C465.548 516.776 464.908 516.504 464.268 516.216C463.644 515.912 463.124 515.52 462.708 515.04C462.292 514.544 462.084 513.896 462.084 513.096C462.084 512.76 462.148 512.392 462.276 511.992C462.404 511.592 462.62 511.216 462.924 510.864C463.228 510.496 463.644 510.2 464.172 509.976C464.7 509.736 465.372 509.616 466.188 509.616C466.62 509.616 467.1 509.688 467.628 509.832C468.156 509.976 468.668 510.248 469.164 510.648L469.116 509.736H470.124V513.936H469.356C469.324 513.376 469.196 512.84 468.972 512.328C468.748 511.8 468.42 511.368 467.988 511.032C467.556 510.68 466.996 510.504 466.308 510.504C465.572 510.504 464.996 510.688 464.58 511.056C464.164 511.424 463.956 511.848 463.956 512.328C463.956 512.824 464.108 513.24 464.412 513.576C464.732 513.896 465.14 514.176 465.636 514.416C466.132 514.656 466.66 514.888 467.22 515.112C467.828 515.368 468.42 515.648 468.996 515.952C469.572 516.256 470.044 516.64 470.412 517.104C470.78 517.552 470.964 518.136 470.964 518.856C470.964 519.656 470.756 520.32 470.34 520.848C469.94 521.376 469.42 521.76 468.78 522C468.156 522.256 467.5 522.384 466.812 522.384ZM477.513 522.384C477.145 522.384 476.769 522.328 476.385 522.216C476.001 522.12 475.641 521.92 475.305 521.616C474.985 521.312 474.729 520.872 474.537 520.296C474.345 519.704 474.249 518.928 474.249 517.968L474.297 511.008L472.449 511.032V510C472.865 509.984 473.289 509.832 473.721 509.544C474.153 509.24 474.537 508.832 474.873 508.32C475.225 507.808 475.465 507.248 475.593 506.64H476.409V510H480.441V510.936L476.409 510.984L476.361 517.656C476.361 518.744 476.497 519.576 476.769 520.152C477.057 520.728 477.529 521.016 478.185 521.016C478.633 521.016 479.049 520.888 479.433 520.632C479.833 520.376 480.185 520.024 480.489 519.576L481.137 520.104C480.673 520.808 480.209 521.32 479.745 521.64C479.297 521.96 478.881 522.16 478.497 522.24C478.113 522.336 477.785 522.384 477.513 522.384ZM482.283 521.28C482.779 521.28 483.123 521.16 483.315 520.92C483.507 520.664 483.619 520.32 483.651 519.888C483.683 519.44 483.699 518.928 483.699 518.352V512.88C483.699 512.624 483.699 512.368 483.699 512.112C483.715 511.856 483.747 511.592 483.795 511.32C483.507 511.336 483.219 511.352 482.931 511.368C482.659 511.368 482.379 511.376 482.091 511.392V510.408H482.835C483.523 510.408 483.995 510.344 484.251 510.216C484.523 510.072 484.747 509.92 484.923 509.76H485.619C485.651 510.016 485.675 510.336 485.691 510.72C485.707 511.088 485.723 511.56 485.739 512.136C485.979 511.736 486.307 511.344 486.723 510.96C487.139 510.576 487.603 510.256 488.115 510C488.643 509.744 489.195 509.616 489.771 509.616C490.219 509.616 490.611 509.736 490.947 509.976C491.283 510.216 491.451 510.6 491.451 511.128C491.451 511.336 491.355 511.584 491.163 511.872C490.987 512.16 490.683 512.296 490.251 512.28C489.899 512.264 489.619 512.128 489.411 511.872C489.203 511.6 489.123 511.288 489.171 510.936C488.563 510.904 487.947 511.136 487.323 511.632C486.699 512.128 486.179 512.768 485.763 513.552L485.787 519.456C485.787 519.776 485.779 520.064 485.763 520.32C485.763 520.56 485.739 520.816 485.691 521.088C485.947 521.072 486.195 521.064 486.435 521.064C486.691 521.048 486.947 521.032 487.203 521.016V522H482.283V521.28ZM497.729 522.384C496.865 522.384 496.137 522.224 495.545 521.904C494.969 521.584 494.529 521.04 494.225 520.272C493.937 519.504 493.793 518.464 493.793 517.152V512.88C493.793 512.624 493.793 512.368 493.793 512.112C493.809 511.856 493.841 511.592 493.889 511.32C493.617 511.336 493.337 511.352 493.049 511.368C492.777 511.368 492.505 511.376 492.233 511.392V510.408H492.977C493.665 510.408 494.161 510.344 494.465 510.216C494.785 510.072 495.033 509.92 495.209 509.76H495.905V517.08C495.905 518.456 496.097 519.488 496.481 520.176C496.881 520.848 497.553 521.176 498.497 521.16C499.105 521.144 499.681 520.96 500.225 520.608C500.785 520.24 501.233 519.808 501.569 519.312V513.144C501.569 512.76 501.577 512.432 501.593 512.16C501.609 511.872 501.641 511.592 501.689 511.32C501.401 511.336 501.113 511.352 500.825 511.368C500.537 511.368 500.249 511.376 499.961 511.392V510.408H500.705C501.393 510.408 501.889 510.344 502.193 510.216C502.513 510.072 502.761 509.92 502.937 509.76H503.633L503.609 518.832C503.609 519.088 503.601 519.448 503.585 519.912C503.569 520.376 503.545 520.768 503.513 521.088C503.801 521.072 504.089 521.056 504.377 521.04C504.665 521.024 504.953 521.008 505.241 520.992V522H501.809C501.761 521.728 501.721 521.472 501.689 521.232C501.673 520.992 501.657 520.768 501.641 520.56C501.145 521.056 500.545 521.488 499.841 521.856C499.137 522.208 498.433 522.384 497.729 522.384ZM512.842 522.384C511.77 522.384 510.778 522.144 509.866 521.664C508.97 521.168 508.25 520.464 507.706 519.552C507.178 518.624 506.914 517.512 506.914 516.216C506.914 515.384 507.066 514.576 507.37 513.792C507.674 513.008 508.098 512.304 508.642 511.68C509.202 511.04 509.866 510.536 510.634 510.168C511.402 509.8 512.25 509.616 513.178 509.616C514.074 509.616 514.85 509.752 515.506 510.024C516.178 510.296 516.698 510.656 517.066 511.104C517.434 511.552 517.618 512.04 517.618 512.568C517.618 512.92 517.522 513.224 517.33 513.48C517.138 513.72 516.858 513.84 516.49 513.84C516.09 513.856 515.802 513.736 515.626 513.48C515.466 513.208 515.386 512.968 515.386 512.76C515.386 512.6 515.41 512.44 515.458 512.28C515.506 512.104 515.602 511.944 515.746 511.8C515.618 511.416 515.394 511.136 515.074 510.96C514.754 510.768 514.418 510.648 514.066 510.6C513.73 510.536 513.45 510.504 513.226 510.504C512.138 510.504 511.218 510.944 510.466 511.824C509.73 512.688 509.362 513.952 509.362 515.616C509.362 516.688 509.53 517.64 509.866 518.472C510.218 519.304 510.706 519.96 511.33 520.44C511.954 520.904 512.674 521.136 513.49 521.136C514.242 521.136 514.962 520.936 515.65 520.536C516.338 520.136 516.874 519.648 517.258 519.072L517.882 519.552C517.466 520.224 516.962 520.768 516.37 521.184C515.794 521.6 515.194 521.904 514.57 522.096C513.962 522.288 513.386 522.384 512.842 522.384ZM524.154 522.384C523.786 522.384 523.41 522.328 523.026 522.216C522.642 522.12 522.282 521.92 521.946 521.616C521.626 521.312 521.37 520.872 521.178 520.296C520.986 519.704 520.89 518.928 520.89 517.968L520.938 511.008L519.09 511.032V510C519.506 509.984 519.93 509.832 520.362 509.544C520.794 509.24 521.178 508.832 521.514 508.32C521.866 507.808 522.106 507.248 522.234 506.64H523.05V510H527.082V510.936L523.05 510.984L523.002 517.656C523.002 518.744 523.138 519.576 523.41 520.152C523.698 520.728 524.17 521.016 524.826 521.016C525.274 521.016 525.69 520.888 526.074 520.632C526.474 520.376 526.826 520.024 527.13 519.576L527.778 520.104C527.314 520.808 526.85 521.32 526.386 521.64C525.938 521.96 525.522 522.16 525.138 522.24C524.754 522.336 524.426 522.384 524.154 522.384Z" fill="black"/>
<rect x="27.5" y="555.799" width="37" height="37" fill="#E9FFDB" stroke="black"/>
<path d="M87.752 571.587C87.704 570.819 87.52 570.091 87.2 569.403C86.88 568.715 86.416 568.155 85.808 567.723C85.2 567.291 84.424 567.075 83.48 567.075C82.488 567.075 81.728 567.355 81.2 567.915C80.672 568.475 80.408 569.131 80.408 569.883C80.408 570.555 80.6 571.123 80.984 571.587C81.368 572.035 81.864 572.435 82.472 572.787C83.096 573.123 83.752 573.451 84.44 573.771C85.048 574.043 85.656 574.339 86.264 574.659C86.872 574.963 87.424 575.315 87.92 575.715C88.416 576.115 88.808 576.595 89.096 577.155C89.4 577.699 89.552 578.355 89.552 579.123C89.552 580.451 89.064 581.547 88.088 582.411C87.112 583.259 85.728 583.683 83.936 583.683C83.216 583.683 82.472 583.579 81.704 583.371C80.936 583.163 80.256 582.859 79.664 582.459L79.784 583.491H78.536L78.392 578.379H79.328C79.408 579.787 79.896 580.859 80.792 581.595C81.688 582.315 82.768 582.675 84.032 582.675C84.656 582.675 85.232 582.563 85.76 582.339C86.288 582.099 86.704 581.755 87.008 581.307C87.328 580.859 87.488 580.315 87.488 579.675C87.488 578.955 87.296 578.355 86.912 577.875C86.528 577.395 86.032 576.979 85.424 576.627C84.816 576.275 84.168 575.939 83.48 575.619C82.872 575.347 82.272 575.059 81.68 574.755C81.088 574.451 80.544 574.107 80.048 573.723C79.568 573.323 79.176 572.851 78.872 572.307C78.584 571.763 78.44 571.107 78.44 570.339C78.44 569.923 78.512 569.475 78.656 568.995C78.8 568.515 79.048 568.059 79.4 567.627C79.768 567.179 80.264 566.819 80.888 566.547C81.528 566.259 82.336 566.115 83.312 566.115C83.92 566.115 84.6 566.203 85.352 566.379C86.12 566.539 86.832 566.859 87.488 567.339L87.392 566.307H88.616V571.587H87.752ZM91.5326 582.579C92.0286 582.579 92.3726 582.459 92.5646 582.219C92.7566 581.963 92.8686 581.619 92.9006 581.187C92.9326 580.739 92.9486 580.227 92.9486 579.651V574.179C92.9486 573.923 92.9566 573.683 92.9726 573.459C92.9886 573.219 93.0126 572.939 93.0446 572.619C92.7566 572.635 92.4686 572.651 92.1806 572.667C91.9086 572.683 91.6286 572.699 91.3406 572.715V571.707C92.0446 571.707 92.5886 571.675 92.9726 571.611C93.3566 571.547 93.6446 571.467 93.8366 571.371C94.0446 571.275 94.2046 571.171 94.3166 571.059H95.0126V580.755C95.0126 581.075 95.0046 581.363 94.9886 581.619C94.9886 581.859 94.9646 582.115 94.9166 582.387C95.1726 582.371 95.4206 582.363 95.6606 582.363C95.9166 582.347 96.1726 582.331 96.4286 582.315V583.299H91.5326V582.579ZM93.8606 568.683C93.5246 568.683 93.2286 568.547 92.9726 568.275C92.7166 568.003 92.5886 567.667 92.5886 567.267C92.5886 566.867 92.7166 566.531 92.9726 566.259C93.2446 565.971 93.5486 565.827 93.8846 565.827C94.2526 565.827 94.5566 565.971 94.7966 566.259C95.0526 566.531 95.1806 566.867 95.1806 567.267C95.1806 567.667 95.0446 568.003 94.7726 568.275C94.5166 568.547 94.2126 568.683 93.8606 568.683ZM98.2826 583.299V582.579C98.7786 582.579 99.1226 582.459 99.3146 582.219C99.5066 581.963 99.6186 581.619 99.6506 581.187C99.6826 580.739 99.6986 580.227 99.6986 579.651V574.179C99.6986 573.923 99.6986 573.667 99.6986 573.411C99.7146 573.155 99.7466 572.891 99.7946 572.619C99.5066 572.635 99.2186 572.651 98.9306 572.667C98.6586 572.683 98.3786 572.699 98.0906 572.715V571.707C98.7946 571.707 99.3226 571.675 99.6746 571.611C100.043 571.547 100.315 571.467 100.491 571.371C100.667 571.275 100.811 571.171 100.923 571.059H101.619C101.651 571.219 101.667 571.403 101.667 571.611C101.683 571.819 101.699 572.059 101.715 572.331C102.195 571.915 102.747 571.579 103.371 571.323C103.995 571.051 104.619 570.915 105.243 570.915C106.043 570.915 106.715 571.059 107.259 571.347C107.803 571.635 108.227 572.027 108.531 572.523C109.075 572.075 109.699 571.699 110.403 571.395C111.123 571.075 111.827 570.915 112.515 570.915C113.907 570.915 114.931 571.339 115.587 572.187C116.243 573.019 116.555 574.387 116.523 576.291L116.499 580.755C116.499 581.075 116.491 581.363 116.475 581.619C116.475 581.859 116.451 582.115 116.403 582.387C116.659 582.371 116.907 582.363 117.147 582.363C117.403 582.347 117.659 582.331 117.915 582.315V583.299H113.019V582.579C113.515 582.579 113.859 582.459 114.051 582.219C114.243 581.963 114.355 581.619 114.387 581.187C114.419 580.739 114.435 580.227 114.435 579.651V576.291C114.435 574.915 114.211 573.883 113.763 573.195C113.331 572.507 112.643 572.171 111.699 572.187C111.203 572.187 110.707 572.299 110.211 572.523C109.715 572.747 109.283 573.027 108.915 573.363C108.995 573.619 109.051 573.899 109.083 574.203C109.131 574.491 109.155 574.795 109.155 575.115C109.139 576.043 109.131 576.979 109.131 577.923C109.131 578.867 109.123 579.811 109.107 580.755C109.107 581.075 109.099 581.363 109.083 581.619C109.083 581.859 109.059 582.115 109.011 582.387C109.267 582.371 109.515 582.363 109.755 582.363C110.011 582.347 110.267 582.331 110.523 582.315V583.299H105.627V582.579C106.123 582.579 106.459 582.459 106.635 582.219C106.827 581.963 106.939 581.619 106.971 581.187C107.019 580.739 107.043 580.227 107.043 579.651L107.067 576.291C107.083 574.915 106.883 573.875 106.467 573.171C106.051 572.467 105.371 572.123 104.427 572.139C103.931 572.139 103.443 572.251 102.963 572.475C102.483 572.683 102.075 572.955 101.739 573.291C101.739 573.483 101.739 573.691 101.739 573.915C101.755 574.123 101.763 574.347 101.763 574.587V580.755C101.763 581.075 101.755 581.363 101.739 581.619C101.739 581.859 101.715 582.115 101.667 582.387C101.923 582.371 102.171 582.363 102.411 582.363C102.667 582.347 102.923 582.331 103.179 582.315V583.299H98.2826ZM124.792 583.683C123.928 583.683 123.2 583.523 122.608 583.203C122.032 582.883 121.592 582.339 121.288 581.571C121 580.803 120.856 579.763 120.856 578.451V574.179C120.856 573.923 120.856 573.667 120.856 573.411C120.872 573.155 120.904 572.891 120.952 572.619C120.68 572.635 120.4 572.651 120.112 572.667C119.84 572.667 119.568 572.675 119.296 572.691V571.707H120.04C120.728 571.707 121.224 571.643 121.528 571.515C121.848 571.371 122.096 571.219 122.272 571.059H122.968V578.379C122.968 579.755 123.16 580.787 123.544 581.475C123.944 582.147 124.616 582.475 125.56 582.459C126.168 582.443 126.744 582.259 127.288 581.907C127.848 581.539 128.296 581.107 128.632 580.611V574.443C128.632 574.059 128.64 573.731 128.656 573.459C128.672 573.171 128.704 572.891 128.752 572.619C128.464 572.635 128.176 572.651 127.888 572.667C127.6 572.667 127.312 572.675 127.024 572.691V571.707H127.768C128.456 571.707 128.952 571.643 129.256 571.515C129.576 571.371 129.824 571.219 130 571.059H130.696L130.672 580.131C130.672 580.387 130.664 580.747 130.648 581.211C130.632 581.675 130.608 582.067 130.576 582.387C130.864 582.371 131.152 582.355 131.44 582.339C131.728 582.323 132.016 582.307 132.304 582.291V583.299H128.872C128.824 583.027 128.784 582.771 128.752 582.531C128.736 582.291 128.72 582.067 128.704 581.859C128.208 582.355 127.608 582.787 126.904 583.155C126.2 583.507 125.496 583.683 124.792 583.683ZM133.808 582.579C134.304 582.579 134.648 582.459 134.84 582.219C135.032 581.963 135.144 581.619 135.176 581.187C135.208 580.739 135.224 580.227 135.224 579.651V568.299C135.224 568.043 135.224 567.803 135.224 567.579C135.24 567.339 135.264 567.059 135.296 566.739C135.008 566.755 134.72 566.771 134.432 566.787C134.16 566.803 133.88 566.819 133.592 566.835V565.827C134.296 565.827 134.84 565.795 135.224 565.731C135.624 565.667 135.92 565.587 136.112 565.491C136.32 565.395 136.48 565.291 136.592 565.179H137.288L137.312 580.755C137.312 581.075 137.304 581.363 137.288 581.619C137.272 581.859 137.24 582.115 137.192 582.387C137.448 582.371 137.696 582.363 137.936 582.363C138.192 582.347 138.448 582.331 138.704 582.315V583.299H133.808V582.579ZM147.883 583.299C147.835 583.027 147.803 582.787 147.787 582.579C147.771 582.371 147.747 582.155 147.715 581.931C147.171 582.475 146.579 582.907 145.939 583.227C145.315 583.531 144.651 583.683 143.947 583.683C142.731 583.683 141.827 583.411 141.235 582.867C140.643 582.307 140.347 581.627 140.347 580.827C140.347 580.091 140.571 579.459 141.019 578.931C141.483 578.387 142.075 577.947 142.795 577.611C143.531 577.259 144.323 577.003 145.171 576.843C146.035 576.667 146.867 576.587 147.667 576.603V575.115C147.667 574.555 147.619 574.027 147.523 573.531C147.427 573.035 147.219 572.627 146.899 572.307C146.579 571.987 146.067 571.819 145.363 571.803C144.899 571.787 144.419 571.875 143.923 572.067C143.443 572.259 143.091 572.587 142.867 573.051C142.995 573.179 143.075 573.331 143.107 573.507C143.155 573.667 143.179 573.819 143.179 573.963C143.179 574.155 143.099 574.379 142.939 574.635C142.779 574.875 142.499 574.987 142.099 574.971C141.763 574.971 141.507 574.859 141.331 574.635C141.155 574.395 141.067 574.115 141.067 573.795C141.067 573.251 141.267 572.763 141.667 572.331C142.083 571.899 142.651 571.555 143.371 571.299C144.091 571.043 144.907 570.915 145.819 570.915C147.163 570.915 148.155 571.275 148.795 571.995C149.435 572.699 149.747 573.819 149.731 575.355C149.731 576.251 149.723 577.155 149.707 578.067C149.707 578.963 149.707 579.859 149.707 580.755C149.707 581.011 149.699 581.267 149.683 581.523C149.667 581.779 149.643 582.067 149.611 582.387C149.899 582.371 150.179 582.355 150.451 582.339C150.739 582.323 151.027 582.307 151.315 582.291V583.299H147.883ZM147.667 577.419C147.123 577.435 146.547 577.507 145.939 577.635C145.347 577.747 144.795 577.923 144.283 578.163C143.787 578.403 143.379 578.723 143.059 579.123C142.755 579.507 142.611 579.979 142.627 580.539C142.659 581.131 142.851 581.579 143.203 581.883C143.571 582.171 144.003 582.315 144.499 582.315C145.155 582.315 145.723 582.195 146.203 581.955C146.699 581.699 147.187 581.347 147.667 580.899C147.651 580.723 147.643 580.531 147.643 580.323C147.643 580.115 147.643 579.899 147.643 579.675C147.643 579.595 147.643 579.339 147.643 578.907C147.659 578.475 147.667 577.979 147.667 577.419ZM157.31 583.683C156.942 583.683 156.566 583.627 156.182 583.515C155.798 583.419 155.438 583.219 155.102 582.915C154.782 582.611 154.526 582.171 154.334 581.595C154.142 581.003 154.046 580.227 154.046 579.267L154.094 572.307L152.246 572.331V571.299C152.662 571.283 153.086 571.131 153.518 570.843C153.95 570.539 154.334 570.131 154.67 569.619C155.022 569.107 155.262 568.547 155.39 567.939H156.206V571.299H160.238V572.235L156.206 572.283L156.158 578.955C156.158 580.043 156.294 580.875 156.566 581.451C156.854 582.027 157.326 582.315 157.982 582.315C158.43 582.315 158.846 582.187 159.23 581.931C159.63 581.675 159.982 581.323 160.286 580.875L160.934 581.403C160.47 582.107 160.006 582.619 159.542 582.939C159.094 583.259 158.678 583.459 158.294 583.539C157.91 583.635 157.582 583.683 157.31 583.683ZM167.887 583.683C166.783 583.683 165.783 583.427 164.887 582.915C164.007 582.387 163.311 581.651 162.799 580.707C162.287 579.747 162.031 578.619 162.031 577.323C162.031 576.203 162.279 575.155 162.775 574.179C163.287 573.203 163.999 572.419 164.911 571.827C165.823 571.219 166.879 570.915 168.079 570.915C168.975 570.915 169.791 571.107 170.527 571.491C171.263 571.875 171.847 572.459 172.279 573.243C172.727 574.027 172.951 575.019 172.951 576.219L164.503 576.363C164.487 578.203 164.791 579.683 165.415 580.803C166.039 581.907 167.055 582.459 168.463 582.459C168.959 582.459 169.463 582.371 169.975 582.195C170.503 582.019 170.991 581.779 171.439 581.475C171.887 581.171 172.247 580.835 172.519 580.467L173.095 580.947C172.663 581.619 172.143 582.155 171.535 582.555C170.927 582.955 170.303 583.243 169.663 583.419C169.023 583.595 168.431 583.683 167.887 583.683ZM164.575 575.355H170.695C170.695 574.779 170.607 574.227 170.431 573.699C170.271 573.155 169.999 572.715 169.615 572.379C169.231 572.027 168.727 571.851 168.103 571.851C167.175 571.851 166.399 572.131 165.775 572.691C165.167 573.235 164.767 574.123 164.575 575.355ZM180.106 583.683C179.13 583.683 178.25 583.443 177.466 582.963C176.682 582.467 176.058 581.763 175.594 580.851C175.146 579.939 174.922 578.867 174.922 577.635C174.922 576.323 175.186 575.163 175.714 574.155C176.242 573.147 176.97 572.355 177.898 571.779C178.842 571.203 179.906 570.915 181.09 570.915C181.618 570.915 182.138 570.987 182.65 571.131C183.178 571.259 183.594 571.411 183.898 571.587V568.299C183.898 568.043 183.898 567.803 183.898 567.579C183.914 567.339 183.938 567.059 183.97 566.739C183.682 566.755 183.394 566.771 183.106 566.787C182.834 566.803 182.554 566.819 182.266 566.835V565.827C182.97 565.827 183.514 565.795 183.898 565.731C184.282 565.667 184.57 565.587 184.762 565.491C184.97 565.395 185.13 565.291 185.242 565.179H185.938V580.755C185.938 581.011 185.93 581.267 185.914 581.523C185.898 581.779 185.874 582.067 185.842 582.387C186.13 582.371 186.41 582.355 186.682 582.339C186.97 582.323 187.258 582.307 187.546 582.291V583.299H184.114C184.034 582.867 183.978 582.451 183.946 582.051C183.498 582.547 182.946 582.947 182.29 583.251C181.634 583.539 180.906 583.683 180.106 583.683ZM180.97 582.507C181.498 582.507 182.026 582.355 182.554 582.051C183.098 581.747 183.546 581.371 183.898 580.923C183.882 580.731 183.874 580.531 183.874 580.323C183.874 580.099 183.874 579.859 183.874 579.603L183.898 572.691C183.514 572.403 183.09 572.195 182.626 572.067C182.178 571.923 181.714 571.851 181.234 571.851C180.434 571.851 179.738 572.083 179.146 572.547C178.554 573.011 178.106 573.659 177.802 574.491C177.498 575.323 177.362 576.299 177.394 577.419C177.426 578.395 177.578 579.267 177.85 580.035C178.138 580.803 178.538 581.411 179.05 581.859C179.578 582.291 180.218 582.507 180.97 582.507ZM201.427 583.683C200.323 583.683 199.323 583.427 198.427 582.915C197.547 582.387 196.851 581.651 196.339 580.707C195.827 579.747 195.571 578.619 195.571 577.323C195.571 576.203 195.819 575.155 196.315 574.179C196.827 573.203 197.539 572.419 198.451 571.827C199.363 571.219 200.419 570.915 201.618 570.915C202.515 570.915 203.331 571.107 204.067 571.491C204.803 571.875 205.387 572.459 205.819 573.243C206.267 574.027 206.491 575.019 206.491 576.219L198.043 576.363C198.027 578.203 198.331 579.683 198.955 580.803C199.579 581.907 200.595 582.459 202.003 582.459C202.499 582.459 203.003 582.371 203.515 582.195C204.043 582.019 204.531 581.779 204.979 581.475C205.427 581.171 205.787 580.835 206.059 580.467L206.635 580.947C206.203 581.619 205.683 582.155 205.075 582.555C204.467 582.955 203.843 583.243 203.203 583.419C202.563 583.595 201.971 583.683 201.427 583.683ZM198.115 575.355H204.235C204.235 574.779 204.147 574.227 203.971 573.699C203.811 573.155 203.539 572.715 203.155 572.379C202.771 572.027 202.267 571.851 201.643 571.851C200.715 571.851 199.939 572.131 199.315 572.691C198.707 573.235 198.307 574.123 198.115 575.355ZM208.386 582.579C208.882 582.579 209.226 582.459 209.418 582.219C209.61 581.963 209.722 581.619 209.754 581.187C209.786 580.739 209.802 580.227 209.802 579.651V568.299C209.802 568.043 209.802 567.803 209.802 567.579C209.818 567.339 209.842 567.059 209.874 566.739C209.586 566.755 209.298 566.771 209.01 566.787C208.738 566.803 208.458 566.819 208.17 566.835V565.827C208.874 565.827 209.418 565.795 209.802 565.731C210.202 565.667 210.498 565.587 210.69 565.491C210.898 565.395 211.058 565.291 211.17 565.179H211.866L211.89 580.755C211.89 581.075 211.882 581.363 211.866 581.619C211.85 581.859 211.818 582.115 211.77 582.387C212.026 582.371 212.274 582.363 212.514 582.363C212.77 582.347 213.026 582.331 213.282 582.315V583.299H208.386V582.579ZM220.973 583.683C219.869 583.683 218.869 583.427 217.973 582.915C217.093 582.387 216.397 581.651 215.885 580.707C215.373 579.747 215.117 578.619 215.117 577.323C215.117 576.203 215.365 575.155 215.861 574.179C216.373 573.203 217.085 572.419 217.997 571.827C218.909 571.219 219.965 570.915 221.165 570.915C222.061 570.915 222.877 571.107 223.613 571.491C224.349 571.875 224.933 572.459 225.365 573.243C225.813 574.027 226.037 575.019 226.037 576.219L217.589 576.363C217.573 578.203 217.877 579.683 218.501 580.803C219.125 581.907 220.141 582.459 221.549 582.459C222.045 582.459 222.549 582.371 223.061 582.195C223.589 582.019 224.077 581.779 224.525 581.475C224.973 581.171 225.333 580.835 225.605 580.467L226.181 580.947C225.749 581.619 225.229 582.155 224.621 582.555C224.013 582.955 223.389 583.243 222.749 583.419C222.109 583.595 221.517 583.683 220.973 583.683ZM217.661 575.355H223.781C223.781 574.779 223.693 574.227 223.517 573.699C223.357 573.155 223.085 572.715 222.701 572.379C222.317 572.027 221.813 571.851 221.189 571.851C220.261 571.851 219.485 572.131 218.861 572.691C218.253 573.235 217.853 574.123 217.661 575.355ZM228.173 583.299V582.579C228.669 582.579 229.013 582.459 229.205 582.219C229.397 581.963 229.509 581.619 229.541 581.187C229.573 580.739 229.589 580.227 229.589 579.651V574.179C229.589 573.923 229.589 573.667 229.589 573.411C229.605 573.155 229.637 572.891 229.685 572.619C229.397 572.635 229.109 572.651 228.821 572.667C228.549 572.683 228.269 572.699 227.981 572.715V571.707C228.685 571.707 229.213 571.675 229.565 571.611C229.933 571.547 230.205 571.467 230.381 571.371C230.557 571.275 230.701 571.171 230.813 571.059H231.509C231.541 571.219 231.557 571.403 231.557 571.611C231.573 571.819 231.589 572.059 231.605 572.331C232.085 571.915 232.637 571.579 233.261 571.323C233.885 571.051 234.509 570.915 235.133 570.915C235.933 570.915 236.605 571.059 237.149 571.347C237.693 571.635 238.117 572.027 238.421 572.523C238.965 572.075 239.589 571.699 240.293 571.395C241.013 571.075 241.717 570.915 242.405 570.915C243.797 570.915 244.821 571.339 245.477 572.187C246.133 573.019 246.445 574.387 246.413 576.291L246.389 580.755C246.389 581.075 246.381 581.363 246.365 581.619C246.365 581.859 246.341 582.115 246.293 582.387C246.549 582.371 246.797 582.363 247.037 582.363C247.293 582.347 247.549 582.331 247.805 582.315V583.299H242.909V582.579C243.405 582.579 243.749 582.459 243.941 582.219C244.133 581.963 244.245 581.619 244.277 581.187C244.309 580.739 244.325 580.227 244.325 579.651V576.291C244.325 574.915 244.101 573.883 243.653 573.195C243.221 572.507 242.533 572.171 241.589 572.187C241.093 572.187 240.597 572.299 240.101 572.523C239.605 572.747 239.173 573.027 238.805 573.363C238.885 573.619 238.941 573.899 238.973 574.203C239.021 574.491 239.045 574.795 239.045 575.115C239.029 576.043 239.021 576.979 239.021 577.923C239.021 578.867 239.013 579.811 238.997 580.755C238.997 581.075 238.989 581.363 238.973 581.619C238.973 581.859 238.949 582.115 238.901 582.387C239.157 582.371 239.405 582.363 239.645 582.363C239.901 582.347 240.157 582.331 240.413 582.315V583.299H235.517V582.579C236.013 582.579 236.349 582.459 236.525 582.219C236.717 581.963 236.829 581.619 236.861 581.187C236.909 580.739 236.933 580.227 236.933 579.651L236.957 576.291C236.973 574.915 236.773 573.875 236.357 573.171C235.941 572.467 235.261 572.123 234.317 572.139C233.821 572.139 233.333 572.251 232.853 572.475C232.373 572.683 231.965 572.955 231.629 573.291C231.629 573.483 231.629 573.691 231.629 573.915C231.645 574.123 231.653 574.347 231.653 574.587V580.755C231.653 581.075 231.645 581.363 231.629 581.619C231.629 581.859 231.605 582.115 231.557 582.387C231.813 582.371 232.061 582.363 232.301 582.363C232.557 582.347 232.813 582.331 233.069 582.315V583.299H228.173ZM255.427 583.683C254.323 583.683 253.323 583.427 252.427 582.915C251.547 582.387 250.851 581.651 250.339 580.707C249.827 579.747 249.571 578.619 249.571 577.323C249.571 576.203 249.819 575.155 250.315 574.179C250.827 573.203 251.539 572.419 252.451 571.827C253.363 571.219 254.419 570.915 255.618 570.915C256.515 570.915 257.331 571.107 258.067 571.491C258.803 571.875 259.387 572.459 259.819 573.243C260.267 574.027 260.491 575.019 260.491 576.219L252.043 576.363C252.027 578.203 252.331 579.683 252.955 580.803C253.579 581.907 254.595 582.459 256.003 582.459C256.499 582.459 257.003 582.371 257.515 582.195C258.043 582.019 258.531 581.779 258.979 581.475C259.427 581.171 259.787 580.835 260.059 580.467L260.635 580.947C260.203 581.619 259.683 582.155 259.075 582.555C258.467 582.955 257.843 583.243 257.203 583.419C256.563 583.595 255.971 583.683 255.427 583.683ZM252.115 575.355H258.235C258.235 574.779 258.147 574.227 257.971 573.699C257.811 573.155 257.539 572.715 257.155 572.379C256.771 572.027 256.267 571.851 255.643 571.851C254.715 571.851 253.939 572.131 253.315 572.691C252.707 573.235 252.307 574.123 252.115 575.355ZM262.626 583.299V582.579C263.122 582.579 263.466 582.459 263.658 582.219C263.85 581.963 263.962 581.619 263.994 581.187C264.026 580.739 264.042 580.227 264.042 579.651L264.066 574.179C264.066 573.923 264.066 573.667 264.066 573.411C264.082 573.155 264.114 572.891 264.162 572.619C263.874 572.635 263.586 572.651 263.298 572.667C263.026 572.683 262.746 572.699 262.458 572.715V571.707C263.162 571.707 263.69 571.675 264.042 571.611C264.41 571.547 264.682 571.467 264.858 571.371C265.034 571.275 265.178 571.171 265.29 571.059H265.986C266.018 571.235 266.034 571.443 266.034 571.683C266.05 571.907 266.066 572.187 266.082 572.523C266.594 572.059 267.202 571.675 267.906 571.371C268.61 571.067 269.306 570.915 269.994 570.915C271.386 570.915 272.402 571.355 273.042 572.235C273.682 573.099 274.002 574.451 274.002 576.291V580.755C274.002 581.075 273.994 581.363 273.978 581.619C273.978 581.859 273.954 582.115 273.906 582.387C274.162 582.371 274.41 582.363 274.65 582.363C274.906 582.347 275.162 582.331 275.418 582.315V583.299H270.522V582.579C271.018 582.579 271.362 582.459 271.554 582.219C271.746 581.963 271.858 581.619 271.89 581.187C271.922 580.739 271.938 580.227 271.938 579.651V576.291C271.922 574.915 271.69 573.875 271.242 573.171C270.81 572.467 270.122 572.123 269.178 572.139C268.602 572.155 268.034 572.307 267.474 572.595C266.93 572.883 266.474 573.251 266.106 573.699C266.122 573.827 266.13 573.971 266.13 574.131C266.13 574.291 266.13 574.459 266.13 574.635L266.106 580.755C266.106 581.075 266.098 581.363 266.082 581.619C266.082 581.859 266.058 582.115 266.01 582.387C266.266 582.371 266.514 582.363 266.754 582.363C267.01 582.347 267.266 582.331 267.522 582.315V583.299H262.626ZM281.506 583.683C281.138 583.683 280.762 583.627 280.378 583.515C279.994 583.419 279.634 583.219 279.298 582.915C278.978 582.611 278.722 582.171 278.53 581.595C278.338 581.003 278.242 580.227 278.242 579.267L278.29 572.307L276.442 572.331V571.299C276.858 571.283 277.282 571.131 277.714 570.843C278.146 570.539 278.53 570.131 278.866 569.619C279.218 569.107 279.458 568.547 279.586 567.939H280.402V571.299H284.434V572.235L280.402 572.283L280.354 578.955C280.354 580.043 280.49 580.875 280.762 581.451C281.05 582.027 281.522 582.315 282.178 582.315C282.626 582.315 283.042 582.187 283.426 581.931C283.826 581.675 284.178 581.323 284.482 580.875L285.13 581.403C284.666 582.107 284.202 582.619 283.738 582.939C283.29 583.259 282.874 583.459 282.49 583.539C282.106 583.635 281.778 583.683 281.506 583.683Z" fill="black"/>
<rect x="27.5" y="493.5" width="37" height="37" fill="white" stroke="black"/>
<path d="M86.672 513.784C86.672 513.08 86.576 512.576 86.384 512.272C86.192 511.968 85.888 511.784 85.472 511.72C85.056 511.656 84.504 511.64 83.816 511.672L82.064 511.744V517.24C82.064 518.072 82.04 518.696 81.992 519.112L86.576 519.04C87.28 519.024 87.888 518.912 88.4 518.704C88.912 518.48 89.312 518.096 89.6 517.552C89.888 517.008 90.032 516.264 90.032 515.32H90.848L90.704 520H78.32V519.208C78.928 519.176 79.344 519.04 79.568 518.8C79.792 518.544 79.912 518.2 79.928 517.768C79.96 517.32 79.976 516.816 79.976 516.256V505.888C79.976 505.216 80 504.64 80.048 504.16C79.76 504.176 79.472 504.192 79.184 504.208C78.896 504.224 78.608 504.24 78.32 504.256V503.2H89.864L89.984 507.4H89.192C89.192 506.456 89.048 505.744 88.76 505.264C88.472 504.768 88.08 504.44 87.584 504.28C87.104 504.104 86.56 504.024 85.952 504.04L83.888 504.088C83.296 504.104 82.872 504.216 82.616 504.424C82.36 504.632 82.2 504.944 82.136 505.36C82.088 505.76 82.064 506.288 82.064 506.944V510.784L86.576 510.808L86.408 508.744H87.464V513.784H86.672ZM92.9857 520V519.28C93.4817 519.28 93.8257 519.16 94.0177 518.92C94.2097 518.664 94.3217 518.32 94.3537 517.888C94.3857 517.44 94.4017 516.928 94.4017 516.352V510.88C94.4017 510.624 94.4017 510.368 94.4017 510.112C94.4177 509.856 94.4497 509.592 94.4977 509.32C94.2097 509.336 93.9217 509.352 93.6337 509.368C93.3617 509.384 93.0817 509.4 92.7937 509.416V508.408C93.4977 508.408 94.0257 508.376 94.3777 508.312C94.7457 508.248 95.0177 508.168 95.1937 508.072C95.3697 507.976 95.5137 507.872 95.6257 507.76H96.3217C96.3537 507.92 96.3697 508.104 96.3697 508.312C96.3857 508.52 96.4017 508.76 96.4177 509.032C96.8977 508.616 97.4497 508.28 98.0737 508.024C98.6977 507.752 99.3217 507.616 99.9457 507.616C100.746 507.616 101.418 507.76 101.962 508.048C102.506 508.336 102.93 508.728 103.234 509.224C103.778 508.776 104.402 508.4 105.106 508.096C105.826 507.776 106.53 507.616 107.218 507.616C108.61 507.616 109.634 508.04 110.29 508.888C110.946 509.72 111.258 511.088 111.226 512.992L111.202 517.456C111.202 517.776 111.194 518.064 111.178 518.32C111.178 518.56 111.154 518.816 111.106 519.088C111.362 519.072 111.61 519.064 111.85 519.064C112.106 519.048 112.362 519.032 112.618 519.016V520H107.722V519.28C108.218 519.28 108.562 519.16 108.754 518.92C108.946 518.664 109.058 518.32 109.09 517.888C109.122 517.44 109.138 516.928 109.138 516.352V512.992C109.138 511.616 108.914 510.584 108.466 509.896C108.034 509.208 107.346 508.872 106.402 508.888C105.906 508.888 105.41 509 104.914 509.224C104.418 509.448 103.986 509.728 103.618 510.064C103.698 510.32 103.754 510.6 103.786 510.904C103.834 511.192 103.858 511.496 103.858 511.816C103.842 512.744 103.834 513.68 103.834 514.624C103.834 515.568 103.826 516.512 103.81 517.456C103.81 517.776 103.802 518.064 103.786 518.32C103.786 518.56 103.762 518.816 103.714 519.088C103.97 519.072 104.218 519.064 104.458 519.064C104.714 519.048 104.97 519.032 105.226 519.016V520H100.33V519.28C100.826 519.28 101.162 519.16 101.338 518.92C101.53 518.664 101.642 518.32 101.674 517.888C101.722 517.44 101.746 516.928 101.746 516.352L101.77 512.992C101.786 511.616 101.586 510.576 101.17 509.872C100.754 509.168 100.074 508.824 99.1297 508.84C98.6337 508.84 98.1457 508.952 97.6657 509.176C97.1857 509.384 96.7777 509.656 96.4417 509.992C96.4417 510.184 96.4417 510.392 96.4417 510.616C96.4577 510.824 96.4657 511.048 96.4657 511.288V517.456C96.4657 517.776 96.4577 518.064 96.4417 518.32C96.4417 518.56 96.4177 518.816 96.3697 519.088C96.6257 519.072 96.8737 519.064 97.1137 519.064C97.3697 519.048 97.6257 519.032 97.8817 519.016V520H92.9857ZM114.215 526.12V525.4C114.711 525.4 115.055 525.272 115.247 525.016C115.439 524.776 115.551 524.432 115.583 523.984C115.615 523.552 115.631 523.048 115.631 522.472L115.679 510.88C115.679 510.624 115.679 510.368 115.679 510.112C115.695 509.856 115.727 509.592 115.775 509.32C115.487 509.336 115.199 509.352 114.911 509.368C114.639 509.384 114.359 509.4 114.071 509.416V508.408C114.775 508.408 115.303 508.376 115.655 508.312C116.023 508.248 116.287 508.168 116.447 508.072C116.623 507.976 116.767 507.872 116.879 507.76H117.599C117.615 507.92 117.631 508.112 117.647 508.336C117.663 508.544 117.679 508.784 117.695 509.056C118.175 508.624 118.743 508.28 119.399 508.024C120.071 507.752 120.743 507.616 121.415 507.616C122.343 507.616 123.207 507.856 124.007 508.336C124.807 508.816 125.455 509.504 125.951 510.4C126.447 511.28 126.695 512.336 126.695 513.568C126.695 514.928 126.407 516.12 125.831 517.144C125.271 518.168 124.527 518.968 123.599 519.544C122.671 520.104 121.663 520.384 120.575 520.384C119.471 520.384 118.511 520.12 117.695 519.592V523.576C117.695 523.896 117.687 524.176 117.671 524.416C117.671 524.672 117.647 524.936 117.599 525.208C117.855 525.192 118.103 525.176 118.343 525.16C118.599 525.16 118.855 525.152 119.111 525.136V526.12H114.215ZM120.527 519.424C121.295 519.424 121.951 519.192 122.495 518.728C123.055 518.248 123.479 517.6 123.767 516.784C124.071 515.952 124.223 515.008 124.223 513.952C124.223 513.088 124.095 512.264 123.839 511.48C123.599 510.68 123.207 510.032 122.663 509.536C122.135 509.04 121.431 508.792 120.551 508.792C120.007 508.792 119.479 508.928 118.967 509.2C118.471 509.456 118.055 509.768 117.719 510.136C117.719 510.2 117.719 510.296 117.719 510.424C117.735 510.536 117.743 510.744 117.743 511.048C117.743 511.336 117.743 511.776 117.743 512.368C117.743 512.944 117.735 513.728 117.719 514.72C117.719 515.712 117.719 516.968 117.719 518.488C118.535 519.112 119.471 519.424 120.527 519.424ZM133.263 520.384C132.895 520.384 132.519 520.328 132.135 520.216C131.751 520.12 131.391 519.92 131.055 519.616C130.735 519.312 130.479 518.872 130.287 518.296C130.095 517.704 129.999 516.928 129.999 515.968L130.047 509.008L128.199 509.032V508C128.615 507.984 129.039 507.832 129.471 507.544C129.903 507.24 130.287 506.832 130.623 506.32C130.975 505.808 131.215 505.248 131.343 504.64H132.159V508H136.191V508.936L132.159 508.984L132.111 515.656C132.111 516.744 132.247 517.576 132.519 518.152C132.807 518.728 133.279 519.016 133.935 519.016C134.383 519.016 134.799 518.888 135.183 518.632C135.583 518.376 135.935 518.024 136.239 517.576L136.887 518.104C136.423 518.808 135.959 519.32 135.495 519.64C135.047 519.96 134.631 520.16 134.247 520.24C133.863 520.336 133.535 520.384 133.263 520.384ZM139.927 526.504C139.431 526.504 139.007 526.384 138.655 526.144C138.303 525.904 138.127 525.536 138.127 525.04C138.127 524.752 138.223 524.488 138.415 524.248C138.607 524.008 138.855 523.888 139.159 523.888C139.543 523.872 139.799 523.992 139.927 524.248C140.071 524.504 140.143 524.728 140.143 524.92C140.143 524.968 140.143 525.016 140.143 525.064C140.143 525.128 140.135 525.192 140.119 525.256C140.167 525.288 140.255 525.304 140.383 525.304C140.575 525.304 140.783 525.224 141.007 525.064C141.231 524.904 141.431 524.672 141.607 524.368C141.815 524.016 142.055 523.488 142.327 522.784C142.615 522.08 142.935 521.24 143.287 520.264L139.543 512.248C139.127 511.352 138.823 510.64 138.631 510.112C138.455 509.584 138.335 509.192 138.271 508.936L137.119 508.984V508H142.087V508.72H141.991C141.319 508.768 140.951 509.024 140.887 509.488C140.823 509.936 141.007 510.624 141.439 511.552L144.247 517.576C144.615 516.552 144.967 515.544 145.303 514.552C145.639 513.544 145.975 512.544 146.311 511.552C146.439 511.2 146.567 510.84 146.695 510.472C146.839 510.088 146.975 509.752 147.103 509.464C147.247 509.16 147.375 508.968 147.487 508.888L145.831 508.984V508H149.599V508.72C149.007 508.944 148.559 509.32 148.255 509.848C147.967 510.36 147.671 511.024 147.367 511.84L144.367 520.216C143.887 521.56 143.447 522.696 143.047 523.624C142.647 524.568 142.207 525.28 141.727 525.76C141.247 526.256 140.647 526.504 139.927 526.504ZM161.984 520.384C161.184 520.384 160.472 520.272 159.848 520.048C159.224 519.84 158.712 519.6 158.312 519.328L158.408 520.168H157.4L157.256 516.04H158C158.032 516.696 158.216 517.288 158.552 517.816C158.888 518.328 159.32 518.728 159.848 519.016C160.376 519.304 160.944 519.448 161.552 519.448C161.968 519.448 162.376 519.384 162.776 519.256C163.176 519.112 163.512 518.904 163.784 518.632C164.056 518.344 164.192 517.984 164.192 517.552C164.192 517.104 164.056 516.736 163.784 516.448C163.528 516.144 163.184 515.88 162.752 515.656C162.32 515.432 161.856 515.224 161.36 515.032C160.72 514.776 160.08 514.504 159.44 514.216C158.816 513.912 158.296 513.52 157.88 513.04C157.464 512.544 157.256 511.896 157.256 511.096C157.256 510.76 157.32 510.392 157.448 509.992C157.576 509.592 157.792 509.216 158.096 508.864C158.4 508.496 158.816 508.2 159.344 507.976C159.872 507.736 160.544 507.616 161.36 507.616C161.792 507.616 162.272 507.688 162.8 507.832C163.328 507.976 163.84 508.248 164.336 508.648L164.288 507.736H165.296V511.936H164.528C164.496 511.376 164.368 510.84 164.144 510.328C163.92 509.8 163.592 509.368 163.16 509.032C162.728 508.68 162.168 508.504 161.48 508.504C160.744 508.504 160.168 508.688 159.752 509.056C159.336 509.424 159.128 509.848 159.128 510.328C159.128 510.824 159.28 511.24 159.584 511.576C159.904 511.896 160.312 512.176 160.808 512.416C161.304 512.656 161.832 512.888 162.392 513.112C163 513.368 163.592 513.648 164.168 513.952C164.744 514.256 165.216 514.64 165.584 515.104C165.952 515.552 166.136 516.136 166.136 516.856C166.136 517.656 165.928 518.32 165.512 518.848C165.112 519.376 164.592 519.76 163.952 520C163.328 520.256 162.672 520.384 161.984 520.384ZM167.957 526.12V525.4C168.453 525.4 168.797 525.272 168.989 525.016C169.181 524.776 169.293 524.432 169.325 523.984C169.357 523.552 169.373 523.048 169.373 522.472L169.421 510.88C169.421 510.624 169.421 510.368 169.421 510.112C169.437 509.856 169.469 509.592 169.517 509.32C169.229 509.336 168.941 509.352 168.653 509.368C168.381 509.384 168.101 509.4 167.813 509.416V508.408C168.517 508.408 169.045 508.376 169.397 508.312C169.765 508.248 170.029 508.168 170.189 508.072C170.365 507.976 170.509 507.872 170.621 507.76H171.341C171.357 507.92 171.373 508.112 171.389 508.336C171.405 508.544 171.421 508.784 171.437 509.056C171.917 508.624 172.485 508.28 173.141 508.024C173.813 507.752 174.485 507.616 175.157 507.616C176.085 507.616 176.949 507.856 177.749 508.336C178.549 508.816 179.197 509.504 179.693 510.4C180.189 511.28 180.437 512.336 180.437 513.568C180.437 514.928 180.149 516.12 179.573 517.144C179.013 518.168 178.269 518.968 177.341 519.544C176.413 520.104 175.405 520.384 174.317 520.384C173.213 520.384 172.253 520.12 171.437 519.592V523.576C171.437 523.896 171.429 524.176 171.413 524.416C171.413 524.672 171.389 524.936 171.341 525.208C171.597 525.192 171.845 525.176 172.085 525.16C172.341 525.16 172.597 525.152 172.853 525.136V526.12H167.957ZM174.269 519.424C175.037 519.424 175.693 519.192 176.237 518.728C176.797 518.248 177.221 517.6 177.509 516.784C177.813 515.952 177.965 515.008 177.965 513.952C177.965 513.088 177.837 512.264 177.581 511.48C177.341 510.68 176.949 510.032 176.405 509.536C175.877 509.04 175.173 508.792 174.293 508.792C173.749 508.792 173.221 508.928 172.709 509.2C172.213 509.456 171.797 509.768 171.461 510.136C171.461 510.2 171.461 510.296 171.461 510.424C171.477 510.536 171.485 510.744 171.485 511.048C171.485 511.336 171.485 511.776 171.485 512.368C171.485 512.944 171.477 513.728 171.461 514.72C171.461 515.712 171.461 516.968 171.461 518.488C172.277 519.112 173.213 519.424 174.269 519.424ZM189.79 520C189.742 519.728 189.71 519.488 189.694 519.28C189.678 519.072 189.654 518.856 189.622 518.632C189.078 519.176 188.486 519.608 187.846 519.928C187.222 520.232 186.558 520.384 185.854 520.384C184.638 520.384 183.734 520.112 183.142 519.568C182.55 519.008 182.254 518.328 182.254 517.528C182.254 516.792 182.478 516.16 182.926 515.632C183.39 515.088 183.982 514.648 184.702 514.312C185.438 513.96 186.23 513.704 187.078 513.544C187.942 513.368 188.774 513.288 189.574 513.304V511.816C189.574 511.256 189.526 510.728 189.43 510.232C189.334 509.736 189.126 509.328 188.806 509.008C188.486 508.688 187.974 508.52 187.27 508.504C186.806 508.488 186.326 508.576 185.83 508.768C185.35 508.96 184.998 509.288 184.774 509.752C184.902 509.88 184.982 510.032 185.014 510.208C185.062 510.368 185.086 510.52 185.086 510.664C185.086 510.856 185.006 511.08 184.846 511.336C184.686 511.576 184.406 511.688 184.006 511.672C183.67 511.672 183.414 511.56 183.238 511.336C183.062 511.096 182.974 510.816 182.974 510.496C182.974 509.952 183.174 509.464 183.574 509.032C183.99 508.6 184.558 508.256 185.278 508C185.998 507.744 186.814 507.616 187.726 507.616C189.07 507.616 190.062 507.976 190.702 508.696C191.342 509.4 191.654 510.52 191.638 512.056C191.638 512.952 191.63 513.856 191.614 514.768C191.614 515.664 191.614 516.56 191.614 517.456C191.614 517.712 191.606 517.968 191.59 518.224C191.574 518.48 191.55 518.768 191.518 519.088C191.806 519.072 192.086 519.056 192.358 519.04C192.646 519.024 192.934 519.008 193.222 518.992V520H189.79ZM189.574 514.12C189.03 514.136 188.454 514.208 187.846 514.336C187.254 514.448 186.702 514.624 186.19 514.864C185.694 515.104 185.286 515.424 184.965 515.824C184.662 516.208 184.518 516.68 184.534 517.24C184.566 517.832 184.758 518.28 185.11 518.584C185.478 518.872 185.91 519.016 186.406 519.016C187.062 519.016 187.63 518.896 188.11 518.656C188.606 518.4 189.094 518.048 189.574 517.6C189.558 517.424 189.55 517.232 189.55 517.024C189.55 516.816 189.55 516.6 189.55 516.376C189.55 516.296 189.55 516.04 189.55 515.608C189.566 515.176 189.574 514.68 189.574 514.12ZM200.725 520.384C199.653 520.384 198.661 520.144 197.749 519.664C196.853 519.168 196.133 518.464 195.589 517.552C195.061 516.624 194.797 515.512 194.797 514.216C194.797 513.384 194.949 512.576 195.253 511.792C195.557 511.008 195.981 510.304 196.525 509.68C197.085 509.04 197.749 508.536 198.517 508.168C199.285 507.8 200.133 507.616 201.061 507.616C201.957 507.616 202.733 507.752 203.389 508.024C204.061 508.296 204.581 508.656 204.949 509.104C205.317 509.552 205.501 510.04 205.501 510.568C205.501 510.92 205.405 511.224 205.213 511.48C205.021 511.72 204.741 511.84 204.373 511.84C203.973 511.856 203.685 511.736 203.509 511.48C203.349 511.208 203.269 510.968 203.269 510.76C203.269 510.6 203.293 510.44 203.341 510.28C203.389 510.104 203.485 509.944 203.629 509.8C203.501 509.416 203.277 509.136 202.957 508.96C202.637 508.768 202.301 508.648 201.949 508.6C201.613 508.536 201.333 508.504 201.109 508.504C200.021 508.504 199.101 508.944 198.349 509.824C197.613 510.688 197.245 511.952 197.245 513.616C197.245 514.688 197.413 515.64 197.749 516.472C198.101 517.304 198.589 517.96 199.213 518.44C199.837 518.904 200.557 519.136 201.373 519.136C202.125 519.136 202.845 518.936 203.533 518.536C204.221 518.136 204.757 517.648 205.141 517.072L205.765 517.552C205.349 518.224 204.845 518.768 204.253 519.184C203.677 519.6 203.077 519.904 202.453 520.096C201.845 520.288 201.269 520.384 200.725 520.384ZM213.333 520.384C212.229 520.384 211.229 520.128 210.333 519.616C209.453 519.088 208.757 518.352 208.245 517.408C207.733 516.448 207.477 515.32 207.477 514.024C207.477 512.904 207.725 511.856 208.221 510.88C208.733 509.904 209.445 509.12 210.357 508.528C211.269 507.92 212.325 507.616 213.525 507.616C214.421 507.616 215.237 507.808 215.973 508.192C216.709 508.576 217.293 509.16 217.725 509.944C218.173 510.728 218.397 511.72 218.397 512.92L209.949 513.064C209.933 514.904 210.237 516.384 210.861 517.504C211.485 518.608 212.501 519.16 213.909 519.16C214.405 519.16 214.909 519.072 215.421 518.896C215.949 518.72 216.437 518.48 216.885 518.176C217.333 517.872 217.693 517.536 217.965 517.168L218.541 517.648C218.109 518.32 217.589 518.856 216.981 519.256C216.373 519.656 215.749 519.944 215.109 520.12C214.469 520.296 213.877 520.384 213.333 520.384ZM210.021 512.056H216.141C216.141 511.48 216.053 510.928 215.877 510.4C215.717 509.856 215.445 509.416 215.061 509.08C214.677 508.728 214.173 508.552 213.549 508.552C212.621 508.552 211.845 508.832 211.221 509.392C210.613 509.936 210.213 510.824 210.021 512.056Z" fill="black"/>
<defs>
<clipPath id="clip0">
<rect width="501" height="400" fill="white" transform="translate(22 51)"/>
</clipPath>
</defs>
</svg>
