<svg width="924" height="650" viewBox="0 0 924 650" fill="none" xmlns="http://www.w3.org/2000/svg">
<rect x="0.5" y="83.5" width="548" height="470" rx="6.5" fill="#F0F0F0"/>
<path d="M249.053 313.969L251.842 320.93L254.631 313.969H256.09V322.5H254.965V319.178L255.07 315.592L252.27 322.5H251.408L248.613 315.609L248.725 319.178V322.5H247.6V313.969H249.053ZM260.9 321.006L263.338 313.969H264.568L261.404 322.5H260.408L257.25 313.969H258.475L260.9 321.006ZM270.539 318.557H266.842V321.58H271.137V322.5H265.717V313.969H271.078V314.895H266.842V317.637H270.539V318.557ZM278.027 318.697C277.062 318.42 276.359 318.08 275.918 317.678C275.48 317.271 275.262 316.771 275.262 316.178C275.262 315.506 275.529 314.951 276.064 314.514C276.604 314.072 277.303 313.852 278.162 313.852C278.748 313.852 279.27 313.965 279.727 314.191C280.188 314.418 280.543 314.73 280.793 315.129C281.047 315.527 281.174 315.963 281.174 316.436H280.043C280.043 315.92 279.879 315.516 279.551 315.223C279.223 314.926 278.76 314.777 278.162 314.777C277.607 314.777 277.174 314.9 276.861 315.146C276.553 315.389 276.398 315.727 276.398 316.16C276.398 316.508 276.545 316.803 276.838 317.045C277.135 317.283 277.637 317.502 278.344 317.701C279.055 317.9 279.609 318.121 280.008 318.363C280.41 318.602 280.707 318.881 280.898 319.201C281.094 319.521 281.191 319.898 281.191 320.332C281.191 321.023 280.922 321.578 280.383 321.996C279.844 322.41 279.123 322.617 278.221 322.617C277.635 322.617 277.088 322.506 276.58 322.283C276.072 322.057 275.68 321.748 275.402 321.357C275.129 320.967 274.992 320.523 274.992 320.027H276.123C276.123 320.543 276.312 320.951 276.691 321.252C277.074 321.549 277.584 321.697 278.221 321.697C278.814 321.697 279.27 321.576 279.586 321.334C279.902 321.092 280.061 320.762 280.061 320.344C280.061 319.926 279.914 319.604 279.621 319.377C279.328 319.146 278.797 318.92 278.027 318.697ZM283.939 314.625V316.16H285.123V316.998H283.939V320.93C283.939 321.184 283.992 321.375 284.098 321.504C284.203 321.629 284.383 321.691 284.637 321.691C284.762 321.691 284.934 321.668 285.152 321.621V322.5C284.867 322.578 284.59 322.617 284.32 322.617C283.836 322.617 283.471 322.471 283.225 322.178C282.979 321.885 282.855 321.469 282.855 320.93V316.998H281.701V316.16H282.855V314.625H283.939ZM290.309 322.5C290.246 322.375 290.195 322.152 290.156 321.832C289.652 322.355 289.051 322.617 288.352 322.617C287.727 322.617 287.213 322.441 286.811 322.09C286.412 321.734 286.213 321.285 286.213 320.742C286.213 320.082 286.463 319.57 286.963 319.207C287.467 318.84 288.174 318.656 289.084 318.656H290.139V318.158C290.139 317.779 290.025 317.479 289.799 317.256C289.572 317.029 289.238 316.916 288.797 316.916C288.41 316.916 288.086 317.014 287.824 317.209C287.562 317.404 287.432 317.641 287.432 317.918H286.342C286.342 317.602 286.453 317.297 286.676 317.004C286.902 316.707 287.207 316.473 287.59 316.301C287.977 316.129 288.4 316.043 288.861 316.043C289.592 316.043 290.164 316.227 290.578 316.594C290.992 316.957 291.207 317.459 291.223 318.1V321.018C291.223 321.6 291.297 322.062 291.445 322.406V322.5H290.309ZM288.51 321.674C288.85 321.674 289.172 321.586 289.477 321.41C289.781 321.234 290.002 321.006 290.139 320.725V319.424H289.289C287.961 319.424 287.297 319.812 287.297 320.59C287.297 320.93 287.41 321.195 287.637 321.387C287.863 321.578 288.154 321.674 288.51 321.674ZM294.393 314.625V316.16H295.576V316.998H294.393V320.93C294.393 321.184 294.445 321.375 294.551 321.504C294.656 321.629 294.836 321.691 295.09 321.691C295.215 321.691 295.387 321.668 295.605 321.621V322.5C295.32 322.578 295.043 322.617 294.773 322.617C294.289 322.617 293.924 322.471 293.678 322.178C293.432 321.885 293.309 321.469 293.309 320.93V316.998H292.154V316.16H293.309V314.625H294.393ZM299.479 322.617C298.619 322.617 297.92 322.336 297.381 321.773C296.842 321.207 296.572 320.451 296.572 319.506V319.307C296.572 318.678 296.691 318.117 296.93 317.625C297.172 317.129 297.508 316.742 297.938 316.465C298.371 316.184 298.84 316.043 299.344 316.043C300.168 316.043 300.809 316.314 301.266 316.857C301.723 317.4 301.951 318.178 301.951 319.189V319.641H297.656C297.672 320.266 297.854 320.771 298.201 321.158C298.553 321.541 298.998 321.732 299.537 321.732C299.92 321.732 300.244 321.654 300.51 321.498C300.775 321.342 301.008 321.135 301.207 320.877L301.869 321.393C301.338 322.209 300.541 322.617 299.479 322.617ZM299.344 316.934C298.906 316.934 298.539 317.094 298.242 317.414C297.945 317.73 297.762 318.176 297.691 318.75H300.867V318.668C300.836 318.117 300.688 317.691 300.422 317.391C300.156 317.086 299.797 316.934 299.344 316.934Z" fill="black"/>
<rect x="0.5" y="83.5" width="548" height="470" rx="6.5" stroke="black"/>
<g clip-path="url(#clip0)">
<rect width="501" height="400" transform="translate(22 134)" fill="white"/>
<line x1="122.5" y1="134" x2="122.5" y2="735.001" stroke="black"/>
<line x1="222.5" y1="134" x2="222.5" y2="735.001" stroke="black"/>
<line x1="322.5" y1="134" x2="322.5" y2="735.001" stroke="black"/>
<line x1="422.5" y1="134" x2="422.5" y2="735.001" stroke="black"/>
<line x1="522.5" y1="134" x2="522.5" y2="735.001" stroke="black"/>
<line x1="22.5" y1="134" x2="22.5" y2="735.001" stroke="black"/>
<line x1="22" y1="533.5" x2="823" y2="533.5" stroke="black"/>
<line x1="22" y1="433.5" x2="823" y2="433.5" stroke="black"/>
<line x1="22" y1="333.5" x2="823" y2="333.5" stroke="black"/>
<line x1="22" y1="233.5" x2="823" y2="233.5" stroke="black"/>
<line x1="22" y1="134.5" x2="823" y2="134.5" stroke="black"/>
<line x1="22" y1="533.5" x2="823" y2="533.5" stroke="black"/>
<line x1="22" y1="433.5" x2="823" y2="433.5" stroke="black"/>
<line x1="22" y1="333.5" x2="823" y2="333.5" stroke="black"/>
<line x1="22" y1="233.5" x2="823" y2="233.5" stroke="black"/>
<line x1="22" y1="134.5" x2="823" y2="134.5" stroke="black"/>
<rect x="223" y="434" width="99" height="99" fill="#E9FFDB"/>
<rect x="323" y="434" width="99" height="99" fill="#E9FFDB"/>
<rect x="223" y="334" width="99" height="99" fill="#E9FFDB"/>
<rect x="323" y="135" width="99" height="98" fill="#E9FFDB"/>
<rect x="423" y="135" width="99" height="98" fill="#E9FFDB"/>
<rect x="23" y="135" width="99" height="98" fill="#E9FFDB"/>
<rect x="23" y="234" width="98" height="99" fill="#E9FFDB"/>
<g clip-path="url(#clip1)">
<rect width="197" height="195.049" transform="translate(222 333.476)" fill="white"/>
<line x1="322.5" y1="333.476" x2="322.5" y2="934.476" stroke="black"/>
<line x1="222.5" y1="333.476" x2="222.5" y2="934.476" stroke="black"/>
<line x1="222" y1="432.976" x2="1023" y2="432.976" stroke="black"/>
<line x1="222" y1="333.976" x2="1023" y2="333.976" stroke="black"/>
<line x1="222" y1="432.976" x2="1023" y2="432.976" stroke="black"/>
<line x1="222" y1="333.976" x2="1023" y2="333.976" stroke="black"/>
<rect x="223" y="334.476" width="196" height="194.524" fill="#E9FFDB"/>
</g>
<path d="M307.479 434.458L307.479 434.458H339.65L339.65 450.282C339.085 450.669 337.457 451.758 335.453 452.869C333.431 453.99 331.066 455.111 329.037 455.572C329.037 455.572 329.037 455.572 329.037 455.572H329.005H328.973H328.941H328.91H328.878H328.846H328.815H328.783H328.752H328.72H328.689H328.658H328.627H328.595H328.564H328.533H328.502H328.471H328.441H328.41H328.379H328.348H328.318H328.287H328.257H328.226H328.196H328.166H328.135H328.105H328.075H328.045H328.015H327.985H327.955H327.925H327.896H327.866H327.836H327.807H327.777H327.748H327.718H327.689H327.659H327.63H327.601H327.572H327.543H327.514H327.485H327.456H327.427H327.398H327.369H327.34H327.312H327.283H327.255H327.226H327.198H327.169H327.141H327.113H327.084H327.056H327.028H327H326.972H326.944H326.916H326.888H326.861H326.833H326.805H326.777H326.75H326.722H326.695H326.667H326.64H326.613H326.585H326.558H326.531H326.504H326.477H326.45H326.423H326.396H326.369H326.342H326.316H326.289H326.262H326.236H326.209H326.183H326.156H326.13H326.103H326.077H326.051H326.025H325.998H325.972H325.946H325.92H325.894H325.868H325.842H325.817H325.791H325.765H325.739H325.714H325.688H325.663H325.637H325.612H325.586H325.561H325.536H325.511H325.485H325.46H325.435H325.41H325.385H325.36H325.335H325.31H325.285H325.261H325.236H325.211H325.187H325.162H325.137H325.113H325.089H325.064H325.04H325.015H324.991H324.967H324.943H324.919H324.894H324.87H324.846H324.822H324.798H324.775H324.751H324.727H324.703H324.679H324.656H324.632H324.609H324.585H324.561H324.538H324.515H324.491H324.468H324.445H324.421H324.398H324.375H324.352H324.329H324.306H324.283H324.26H324.237H324.214H324.191H324.168H324.146H324.123H324.1H324.077H324.055H324.032H324.01H323.987H323.965H323.942H323.92H323.898H323.875H323.853H323.831H323.809H323.787H323.765H323.743H323.721H323.699H323.677H323.655H323.633H323.611H323.589H323.567H323.546H323.524H323.502H323.481H323.459H323.438H323.416H323.395H323.373H323.352H323.331H323.309H323.288H323.267H323.245H323.224H323.203H323.182H323.161H323.14H323.119H323.098H323.077H323.056H323.035H323.014H322.994H322.973H322.952H322.931H322.911H322.89H322.87H322.849H322.828H322.808H322.787H322.767H322.747H322.726H322.706H322.686H322.665H322.645H322.625H322.605H322.585H322.564H322.544H322.524H322.504H322.484H322.464H322.444H322.424H322.405H322.385H322.365H322.345H322.325H322.306H322.286H322.266H322.247H322.227H322.208H322.188H322.168H322.149H322.13H322.11H322.091H322.071H322.052H322.033H322.013H321.994H321.975H321.956H321.937H321.917H321.898H321.879H321.86H321.841H321.822H321.803H321.784H321.765H321.746H321.727H321.708H321.69H321.671H321.652H321.633H321.615H321.596H321.577H321.559H321.54H321.521H321.503H321.484H321.466H321.447H321.429H321.41H321.392H321.373H321.355H321.337H321.318H321.3H321.282H321.263H321.245H321.227H321.209H321.191H321.172H321.154H321.136H321.118H321.1H321.082H321.064H321.046H321.028H321.01H320.992H320.974H320.956H320.938H320.921H320.903H320.885H320.867H320.849H320.832H320.814H320.796H320.779H320.761H320.743H320.726H320.708H320.69H320.673H320.655H320.638H320.62H320.603H320.585H320.568H320.55H320.533H320.516H320.498H320.481H320.464H320.446H320.429H320.412H320.394H320.377H320.36H320.343H320.325H320.308H320.291H320.274H320.257H320.24H320.222H320.205H320.188H320.171H320.154H320.137H320.12H320.103H320.086H320.069H320.052H320.035H320.018H320.001H319.985H319.968H319.951H319.934H319.917H319.9H319.883H319.867H319.85H319.833H319.816H319.8H319.783H319.766H319.749H319.733H319.716H319.699H319.683H319.666H319.649H319.633H319.616H319.6H319.583H319.566H319.55H319.533H319.517H319.5H319.484H319.467H319.451H319.434H319.418H319.401H319.385H319.368H319.352H319.336H319.319H319.303H319.286H319.27H319.254H319.237H319.221H319.204H319.188H319.172H319.155H319.139H319.123H319.106H319.09H319.074H319.058H319.041H319.025H319.009H318.993H318.976H318.96H318.944H318.928H318.911H318.895H318.879H318.863H318.847H318.83H318.814H318.798H318.782H318.766H318.75H318.733H318.717H318.701H318.685H318.669H318.653H318.637H318.621H318.604H318.588H318.572H318.556H318.54H318.524H318.508H318.492H318.476H318.46H318.444H318.427H318.411H318.395H318.379H318.363H318.347H318.331H318.315H318.299H318.283H318.267H318.251H318.235H318.219H318.203H318.187H318.171H318.155H318.139H318.122H318.106H318.091C316.063 455.111 313.697 453.99 311.675 452.869C309.671 451.758 308.043 450.669 307.479 450.282V434.458Z" fill="#222222" stroke="#222222"/>
<path d="M290.893 384.201C290.893 373.263 294.562 365.111 300.447 359.691C306.339 354.264 314.501 351.53 323.564 351.53C332.626 351.53 340.789 354.264 346.68 359.691C352.566 365.111 356.235 373.263 356.235 384.201C356.235 395.231 354.77 399.405 352.755 402.118C352.044 403.074 351.273 403.845 350.431 404.686C350.048 405.069 349.65 405.467 349.236 405.903C347.93 407.282 346.557 408.967 345.231 411.62C341.033 420.016 339.992 425.268 339.734 427.375C339.695 427.696 339.426 427.929 339.149 427.929H307.978C307.702 427.929 307.433 427.696 307.393 427.375C307.135 425.268 306.095 420.016 301.897 411.62C300.57 408.967 299.197 407.282 297.891 405.903C297.478 405.467 297.08 405.069 296.697 404.686C295.854 403.845 295.083 403.074 294.373 402.118C292.358 399.405 290.893 395.231 290.893 384.201Z" fill="#F1F51B" stroke="#222222"/>
<path d="M312.507 381.437C312.507 378.673 315.271 373.145 320.8 373.145" stroke="#222222" stroke-linecap="round"/>
<path d="M262.96 511.3H287.506V476.647H322.159V511.3H348.148V476.647H374.138" stroke="black" stroke-width="2"/>
</g>
<g clip-path="url(#clip2)">
<rect width="205" height="201" transform="translate(714 183)" fill="white"/>
<line x1="814.5" y1="183" x2="814.5" y2="784.001" stroke="black"/>
<line x1="914.5" y1="183" x2="914.5" y2="784.001" stroke="black"/>
<line x1="714.5" y1="183" x2="714.5" y2="784.001" stroke="black"/>
<line x1="714" y1="382.5" x2="1515" y2="382.5" stroke="black"/>
<line x1="714" y1="282.5" x2="1515" y2="282.5" stroke="black"/>
<line x1="714" y1="183.5" x2="1515" y2="183.5" stroke="black"/>
<line x1="714" y1="382.5" x2="1515" y2="382.5" stroke="black"/>
<line x1="714" y1="282.5" x2="1515" y2="282.5" stroke="black"/>
<line x1="714" y1="183.5" x2="1515" y2="183.5" stroke="black"/>
<rect x="715" y="184" width="199" height="197.524" fill="#E9FFDB"/>
</g>
<path d="M801.603 284.458V284.458H834.603V300.278C834.025 300.665 832.355 301.755 830.299 302.867C828.226 303.989 825.798 305.111 823.715 305.572C823.714 305.572 823.714 305.572 823.713 305.573C823.714 305.572 823.715 305.572 823.715 305.572C823.716 305.572 823.716 305.572 823.715 305.572H823.682H823.65H823.617H823.584H823.552H823.52H823.487H823.455H823.423H823.39H823.358H823.326H823.294H823.262H823.23H823.199H823.167H823.135H823.104H823.072H823.04H823.009H822.978H822.946H822.915H822.884H822.853H822.822H822.791H822.76H822.729H822.698H822.667H822.636H822.606H822.575H822.545H822.514H822.484H822.453H822.423H822.393H822.362H822.332H822.302H822.272H822.242H822.212H822.182H822.153H822.123H822.093H822.064H822.034H822.005H821.975H821.946H821.916H821.887H821.858H821.829H821.8H821.771H821.742H821.713H821.684H821.655H821.626H821.597H821.569H821.54H821.511H821.483H821.455H821.426H821.398H821.369H821.341H821.313H821.285H821.257H821.229H821.201H821.173H821.145H821.117H821.09H821.062H821.034H821.007H820.979H820.952H820.924H820.897H820.869H820.842H820.815H820.788H820.76H820.733H820.706H820.679H820.652H820.626H820.599H820.572H820.545H820.519H820.492H820.465H820.439H820.412H820.386H820.36H820.333H820.307H820.281H820.255H820.228H820.202H820.176H820.15H820.124H820.099H820.073H820.047H820.021H819.995H819.97H819.944H819.919H819.893H819.868H819.842H819.817H819.792H819.766H819.741H819.716H819.691H819.666H819.641H819.616H819.591H819.566H819.541H819.516H819.491H819.467H819.442H819.417H819.393H819.368H819.344H819.319H819.295H819.27H819.246H819.222H819.198H819.173H819.149H819.125H819.101H819.077H819.053H819.029H819.005H818.981H818.958H818.934H818.91H818.887H818.863H818.839H818.816H818.792H818.769H818.745H818.722H818.699H818.675H818.652H818.629H818.606H818.583H818.559H818.536H818.513H818.49H818.467H818.445H818.422H818.399H818.376H818.353H818.331H818.308H818.285H818.263H818.24H818.218H818.195H818.173H818.151H818.128H818.106H818.084H818.061H818.039H818.017H817.995H817.973H817.951H817.929H817.907H817.885H817.863H817.841H817.819H817.797H817.776H817.754H817.732H817.711H817.689H817.667H817.646H817.624H817.603H817.581H817.56H817.539H817.517H817.496H817.475H817.454H817.432H817.411H817.39H817.369H817.348H817.327H817.306H817.285H817.264H817.243H817.222H817.202H817.181H817.16H817.139H817.119H817.098H817.077H817.057H817.036H817.016H816.995H816.975H816.954H816.934H816.913H816.893H816.873H816.852H816.832H816.812H816.792H816.772H816.752H816.731H816.711H816.691H816.671H816.651H816.631H816.611H816.592H816.572H816.552H816.532H816.512H816.492H816.473H816.453H816.433H816.414H816.394H816.375H816.355H816.336H816.316H816.297H816.277H816.258H816.238H816.219H816.2H816.18H816.161H816.142H816.123H816.103H816.084H816.065H816.046H816.027H816.008H815.989H815.97H815.951H815.932H815.913H815.894H815.875H815.856H815.837H815.818H815.8H815.781H815.762H815.743H815.725H815.706H815.687H815.669H815.65H815.631H815.613H815.594H815.576H815.557H815.539H815.52H815.502H815.483H815.465H815.447H815.428H815.41H815.392H815.373H815.355H815.337H815.319H815.301H815.282H815.264H815.246H815.228H815.21H815.192H815.174H815.156H815.138H815.12H815.102H815.084H815.066H815.048H815.03H815.012H814.994H814.976H814.959H814.941H814.923H814.905H814.887H814.87H814.852H814.834H814.817H814.799H814.781H814.764H814.746H814.728H814.711H814.693H814.676H814.658H814.641H814.623H814.606H814.588H814.571H814.553H814.536H814.519H814.501H814.484H814.467H814.449H814.432H814.415H814.397H814.38H814.363H814.345H814.328H814.311H814.294H814.277H814.259H814.242H814.225H814.208H814.191H814.174H814.157H814.139H814.122H814.105H814.088H814.071H814.054H814.037H814.02H814.003H813.986H813.969H813.952H813.935H813.918H813.901H813.884H813.868H813.851H813.834H813.817H813.8H813.783H813.766H813.75H813.733H813.716H813.699H813.682H813.665H813.649H813.632H813.615H813.598H813.582H813.565H813.548H813.531H813.515H813.498H813.481H813.465H813.448H813.431H813.415H813.398H813.381H813.365H813.348H813.331H813.315H813.298H813.282H813.265H813.248H813.232H813.215H813.199H813.182H813.166H813.149H813.132H813.116H813.099H813.083H813.066H813.05H813.033H813.017H813H812.984H812.967H812.951H812.934H812.918H812.901H812.885H812.868H812.852H812.835H812.819H812.802H812.786H812.769H812.753H812.736H812.72H812.703H812.687H812.67H812.654H812.638H812.621H812.605H812.588H812.572H812.555H812.539H812.522H812.506H812.49C810.407 305.111 807.98 303.989 805.906 302.867C803.851 301.755 802.181 300.665 801.603 300.278V284.458Z" fill="#222222" stroke="#222222"/>
<path d="M784.603 234.201C784.603 223.267 788.362 215.116 794.395 209.695C800.437 204.266 808.809 201.53 818.103 201.53C827.397 201.53 835.769 204.266 841.811 209.695C847.844 215.116 851.603 223.267 851.603 234.201C851.603 245.229 850.102 249.401 848.037 252.113C847.309 253.07 846.518 253.841 845.655 254.682C845.262 255.065 844.854 255.463 844.43 255.899C843.092 257.277 841.685 258.962 840.325 261.616C836.022 270.012 834.955 275.265 834.69 277.373C834.65 277.696 834.38 277.929 834.103 277.929H802.103C801.826 277.929 801.556 277.696 801.516 277.373C801.251 275.265 800.184 270.012 795.881 261.616C794.521 258.962 793.113 257.277 791.775 255.899C791.352 255.463 790.944 255.065 790.551 254.682C789.688 253.841 788.897 253.07 788.168 252.113C786.104 249.401 784.603 245.229 784.603 234.201Z" fill="#F1F51B" stroke="#222222"/>
<path d="M806.77 231.437C806.77 228.673 809.603 223.145 815.27 223.145" stroke="#222222" stroke-linecap="round"/>
<path d="M755.984 361.3H781.144V326.647H816.663V361.3H843.303V326.647H869.942" stroke="black" stroke-width="2"/>
<rect x="17.5" y="129.5" width="108" height="208" stroke="black" stroke-width="3" stroke-dasharray="7 7"/>
<rect x="765.5" y="446.5" width="98" height="97" fill="#E9FFDB" stroke="black"/>
<rect x="765.5" y="545.5" width="97" height="98" fill="#E9FFDB" stroke="black"/>
<rect x="760.5" y="440.5" width="108" height="208" stroke="black" stroke-width="3" stroke-dasharray="7 7"/>
<rect x="318.5" y="129.5" width="207" height="107" stroke="black" stroke-width="3" stroke-dasharray="7 7"/>
<rect x="720.5" y="7.5" width="98" height="97" fill="#E9FFDB" stroke="black"/>
<rect x="820.5" y="7.5" width="98" height="97" fill="#E9FFDB" stroke="black"/>
<rect x="715.5" y="1.5" width="207" height="107" stroke="black" stroke-width="3" stroke-dasharray="7 7"/>
<rect x="218.5" y="329.5" width="209" height="208" stroke="black" stroke-width="3" stroke-dasharray="7 7"/>
<rect x="709.5" y="179.5" width="209" height="208" stroke="black" stroke-width="3" stroke-dasharray="7 7"/>
<path d="M26.8867 100.938L32.4648 114.859L38.043 100.938H40.9609V118H38.7109V111.355L38.9219 104.184L33.3203 118H31.5977L26.0078 104.219L26.2305 111.355V118H23.9805V100.938H26.8867ZM50.582 115.012L55.457 100.938H57.918L51.5898 118H49.5977L43.2812 100.938H45.7305L50.582 115.012ZM69.8594 110.113H62.4648V116.16H71.0547V118H60.2148V100.938H70.9375V102.789H62.4648V108.273H69.8594V110.113ZM84.8359 110.395C82.9062 109.84 81.5 109.16 80.6172 108.355C79.7422 107.543 79.3047 106.543 79.3047 105.355C79.3047 104.012 79.8398 102.902 80.9102 102.027C81.9883 101.145 83.3867 100.703 85.1055 100.703C86.2773 100.703 87.3203 100.93 88.2344 101.383C89.1562 101.836 89.8672 102.461 90.3672 103.258C90.875 104.055 91.1289 104.926 91.1289 105.871H88.8672C88.8672 104.84 88.5391 104.031 87.8828 103.445C87.2266 102.852 86.3008 102.555 85.1055 102.555C83.9961 102.555 83.1289 102.801 82.5039 103.293C81.8867 103.777 81.5781 104.453 81.5781 105.32C81.5781 106.016 81.8711 106.605 82.457 107.09C83.0508 107.566 84.0547 108.004 85.4688 108.402C86.8906 108.801 88 109.242 88.7969 109.727C89.6016 110.203 90.1953 110.762 90.5781 111.402C90.9688 112.043 91.1641 112.797 91.1641 113.664C91.1641 115.047 90.625 116.156 89.5469 116.992C88.4688 117.82 87.0273 118.234 85.2227 118.234C84.0508 118.234 82.957 118.012 81.9414 117.566C80.9258 117.113 80.1406 116.496 79.5859 115.715C79.0391 114.934 78.7656 114.047 78.7656 113.055H81.0273C81.0273 114.086 81.4062 114.902 82.1641 115.504C82.9297 116.098 83.9492 116.395 85.2227 116.395C86.4102 116.395 87.3203 116.152 87.9531 115.668C88.5859 115.184 88.9023 114.523 88.9023 113.688C88.9023 112.852 88.6094 112.207 88.0234 111.754C87.4375 111.293 86.375 110.84 84.8359 110.395ZM96.6602 102.25V105.32H99.0273V106.996H96.6602V114.859C96.6602 115.367 96.7656 115.75 96.9766 116.008C97.1875 116.258 97.5469 116.383 98.0547 116.383C98.3047 116.383 98.6484 116.336 99.0859 116.242V118C98.5156 118.156 97.9609 118.234 97.4219 118.234C96.4531 118.234 95.7227 117.941 95.2305 117.355C94.7383 116.77 94.4922 115.938 94.4922 114.859V106.996H92.1836V105.32H94.4922V102.25H96.6602ZM109.398 118C109.273 117.75 109.172 117.305 109.094 116.664C108.086 117.711 106.883 118.234 105.484 118.234C104.234 118.234 103.207 117.883 102.402 117.18C101.605 116.469 101.207 115.57 101.207 114.484C101.207 113.164 101.707 112.141 102.707 111.414C103.715 110.68 105.129 110.312 106.949 110.312H109.059V109.316C109.059 108.559 108.832 107.957 108.379 107.512C107.926 107.059 107.258 106.832 106.375 106.832C105.602 106.832 104.953 107.027 104.43 107.418C103.906 107.809 103.645 108.281 103.645 108.836H101.465C101.465 108.203 101.688 107.594 102.133 107.008C102.586 106.414 103.195 105.945 103.961 105.602C104.734 105.258 105.582 105.086 106.504 105.086C107.965 105.086 109.109 105.453 109.938 106.188C110.766 106.914 111.195 107.918 111.227 109.199V115.035C111.227 116.199 111.375 117.125 111.672 117.812V118H109.398ZM105.801 116.348C106.48 116.348 107.125 116.172 107.734 115.82C108.344 115.469 108.785 115.012 109.059 114.449V111.848H107.359C104.703 111.848 103.375 112.625 103.375 114.18C103.375 114.859 103.602 115.391 104.055 115.773C104.508 116.156 105.09 116.348 105.801 116.348ZM117.566 102.25V105.32H119.934V106.996H117.566V114.859C117.566 115.367 117.672 115.75 117.883 116.008C118.094 116.258 118.453 116.383 118.961 116.383C119.211 116.383 119.555 116.336 119.992 116.242V118C119.422 118.156 118.867 118.234 118.328 118.234C117.359 118.234 116.629 117.941 116.137 117.355C115.645 116.77 115.398 115.938 115.398 114.859V106.996H113.09V105.32H115.398V102.25H117.566ZM127.738 118.234C126.02 118.234 124.621 117.672 123.543 116.547C122.465 115.414 121.926 113.902 121.926 112.012V111.613C121.926 110.355 122.164 109.234 122.641 108.25C123.125 107.258 123.797 106.484 124.656 105.93C125.523 105.367 126.461 105.086 127.469 105.086C129.117 105.086 130.398 105.629 131.312 106.715C132.227 107.801 132.684 109.355 132.684 111.379V112.281H124.094C124.125 113.531 124.488 114.543 125.184 115.316C125.887 116.082 126.777 116.465 127.855 116.465C128.621 116.465 129.27 116.309 129.801 115.996C130.332 115.684 130.797 115.27 131.195 114.754L132.52 115.785C131.457 117.418 129.863 118.234 127.738 118.234ZM127.469 106.867C126.594 106.867 125.859 107.188 125.266 107.828C124.672 108.461 124.305 109.352 124.164 110.5H130.516V110.336C130.453 109.234 130.156 108.383 129.625 107.781C129.094 107.172 128.375 106.867 127.469 106.867Z" fill="black"/>
<path d="M668 144L657.864 149.531L667.722 155.544L668 144ZM582.854 285.521L664.167 152.204L662.46 151.163L581.146 284.479L582.854 285.521Z" fill="black"/>
<path d="M668 444L667.944 432.453L657.972 438.275L668 444ZM664.325 435.724L581.864 294.496L580.136 295.504L662.598 436.732L664.325 435.724Z" fill="black"/>
<path d="M667 291L657 285.226V296.774L667 291ZM581.5 292H658V290H581.5V292Z" fill="black"/>
<defs>
<clipPath id="clip0">
<rect width="501" height="400" fill="white" transform="translate(22 134)"/>
</clipPath>
<clipPath id="clip1">
<rect width="197" height="195.049" fill="white" transform="translate(222 333.476)"/>
</clipPath>
<clipPath id="clip2">
<rect width="205" height="201" fill="white" transform="translate(714 183)"/>
</clipPath>
</defs>
</svg>
