<svg width="501" height="400" viewBox="0 0 501 400" fill="none" xmlns="http://www.w3.org/2000/svg">
<rect width="501" height="400" fill="white"/>
<g clip-path="url(#clip0)">
<rect width="501" height="400" fill="white"/>
<path fill-rule="evenodd" clip-rule="evenodd" d="M342.5 227.75C335.942 227.75 330.625 233.067 330.625 239.625C330.625 246.183 335.942 251.5 342.5 251.5C349.058 251.5 354.375 246.183 354.375 239.625C354.375 233.067 349.058 227.75 342.5 227.75ZM325.875 239.625C325.875 230.443 333.318 223 342.5 223C351.682 223 359.125 230.443 359.125 239.625C359.125 248.807 351.682 256.25 342.5 256.25C333.318 256.25 325.875 248.807 325.875 239.625Z" fill="black"/>
<path fill-rule="evenodd" clip-rule="evenodd" d="M331.665 253.46C335.106 252.165 338.787 251.5 342.5 251.5C346.213 251.5 349.894 252.165 353.335 253.46C356.775 254.756 359.916 256.66 362.571 259.074C365.226 261.488 367.346 264.367 368.798 267.552C370.249 270.737 371 274.161 371 277.625C371 278.937 369.937 280 368.625 280C367.313 280 366.25 278.937 366.25 277.625C366.25 274.851 365.649 272.098 364.475 269.521C363.301 266.943 361.572 264.585 359.376 262.589C357.179 260.592 354.559 258.997 351.661 257.906C348.762 256.814 345.649 256.25 342.5 256.25C339.351 256.25 336.238 256.814 333.339 257.906C330.441 258.997 327.821 260.592 325.624 262.589C323.428 264.585 321.699 266.943 320.525 269.521C319.351 272.098 318.75 274.851 318.75 277.625C318.75 278.937 317.687 280 316.375 280C315.063 280 314 278.937 314 277.625C314 274.161 314.751 270.737 316.202 267.552C317.654 264.367 319.774 261.488 322.429 259.074C325.084 256.66 328.225 254.756 331.665 253.46Z" fill="black"/>
<line x1="100.5" x2="100.5" y2="601.001" stroke="black"/>
<line x1="200.5" x2="200.5" y2="601.001" stroke="black"/>
<line x1="300.5" x2="300.5" y2="601.001" stroke="black"/>
<line x1="400.5" x2="400.5" y2="601.001" stroke="black"/>
<line x1="500.5" x2="500.5" y2="601.001" stroke="black"/>
<line x1="0.5" x2="0.5" y2="601.001" stroke="black"/>
<line y1="399.5" x2="801" y2="399.5" stroke="black"/>
<line y1="299.5" x2="801" y2="299.5" stroke="black"/>
<line y1="199.5" x2="801" y2="199.5" stroke="black"/>
<line y1="99.5" x2="801" y2="99.5" stroke="black"/>
<line y1="0.5" x2="801" y2="0.5" stroke="black"/>
<rect x="101" y="100" width="99" height="99" fill="#E9FFDB"/>
<path d="M153.814 164H150.545V142.326L143.988 144.734V141.781L153.305 138.283H153.814V164Z" fill="black"/>
<rect x="201" y="100" width="99" height="99" fill="#E9FFDB"/>
<path d="M259.896 164H243.127V161.662L251.986 151.818C253.299 150.33 254.201 149.123 254.693 148.197C255.197 147.26 255.449 146.293 255.449 145.297C255.449 143.961 255.045 142.865 254.236 142.01C253.428 141.154 252.35 140.727 251.002 140.727C249.385 140.727 248.125 141.189 247.223 142.115C246.332 143.029 245.887 144.307 245.887 145.947H242.635C242.635 143.592 243.391 141.688 244.902 140.234C246.426 138.781 248.459 138.055 251.002 138.055C253.381 138.055 255.262 138.682 256.645 139.936C258.027 141.178 258.719 142.836 258.719 144.91C258.719 147.43 257.113 150.43 253.902 153.91L247.047 161.346H259.896V164Z" fill="black"/>
<rect x="101" y="200" width="99" height="99" fill="#E9FFDB"/>
<path d="M147.855 249.621H150.299C151.834 249.598 153.041 249.193 153.92 248.408C154.799 247.623 155.238 246.562 155.238 245.227C155.238 242.227 153.744 240.727 150.756 240.727C149.35 240.727 148.225 241.131 147.381 241.939C146.549 242.736 146.133 243.797 146.133 245.121H142.881C142.881 243.094 143.619 241.412 145.096 240.076C146.584 238.729 148.471 238.055 150.756 238.055C153.17 238.055 155.062 238.693 156.434 239.971C157.805 241.248 158.49 243.023 158.49 245.297C158.49 246.41 158.127 247.488 157.4 248.531C156.686 249.574 155.707 250.354 154.465 250.869C155.871 251.314 156.955 252.053 157.717 253.084C158.49 254.115 158.877 255.375 158.877 256.863C158.877 259.16 158.127 260.982 156.627 262.33C155.127 263.678 153.176 264.352 150.773 264.352C148.371 264.352 146.414 263.701 144.902 262.4C143.402 261.1 142.652 259.383 142.652 257.25H145.922C145.922 258.598 146.361 259.676 147.24 260.484C148.119 261.293 149.297 261.697 150.773 261.697C152.344 261.697 153.545 261.287 154.377 260.467C155.209 259.646 155.625 258.469 155.625 256.934C155.625 255.445 155.168 254.303 154.254 253.506C153.34 252.709 152.021 252.299 150.299 252.275H147.855V249.621Z" fill="black"/>
<rect x="201" y="200" width="99" height="99" fill="#E9FFDB"/>
<path d="M256.855 255.404H260.406V258.059H256.855V264H253.586V258.059H241.932V256.143L253.393 238.406H256.855V255.404ZM245.623 255.404H253.586V242.854L253.199 243.557L245.623 255.404Z" fill="black"/>
</g>
<rect x="101" y="101" width="198" height="198" fill="#DBE9FF"/>
<path d="M136.857 275.021H160.944V241.016H194.95V275.021H220.455V241.016H245.959" stroke="black" stroke-width="2"/>
<path d="M188.01 198.171L214.003 198.171V210.905C213.504 211.246 212.182 212.125 210.571 213.015C208.945 213.912 207.063 214.798 205.45 215.166H205.424H205.398H205.372H205.346H205.321H205.295H205.27H205.244H205.218H205.193H205.168H205.142H205.117H205.092H205.066H205.041H205.016H204.991H204.966H204.941H204.916H204.891H204.866H204.842H204.817H204.792H204.768H204.743H204.718H204.694H204.67H204.645H204.621H204.596H204.572H204.548H204.524H204.5H204.476H204.452H204.428H204.404H204.38H204.356H204.332H204.308H204.285H204.261H204.237H204.214H204.19H204.167H204.143H204.12H204.097H204.073H204.05H204.027H204.004H203.981H203.957H203.934H203.911H203.888H203.866H203.843H203.82H203.797H203.774H203.752H203.729H203.706H203.684H203.661H203.639H203.616H203.594H203.572H203.549H203.527H203.505H203.483H203.461H203.439H203.417H203.395H203.373H203.351H203.329H203.307H203.285H203.263H203.242H203.22H203.198H203.177H203.155H203.134H203.112H203.091H203.069H203.048H203.027H203.005H202.984H202.963H202.942H202.921H202.9H202.879H202.858H202.837H202.816H202.795H202.774H202.753H202.732H202.712H202.691H202.67H202.65H202.629H202.609H202.588H202.568H202.547H202.527H202.507H202.486H202.466H202.446H202.426H202.406H202.385H202.365H202.345H202.325H202.305H202.285H202.265H202.246H202.226H202.206H202.186H202.167H202.147H202.127H202.108H202.088H202.069H202.049H202.03H202.01H201.991H201.971H201.952H201.933H201.914H201.894H201.875H201.856H201.837H201.818H201.799H201.78H201.761H201.742H201.723H201.704H201.685H201.666H201.648H201.629H201.61H201.591H201.573H201.554H201.536H201.517H201.499H201.48H201.462H201.443H201.425H201.406H201.388H201.37H201.352H201.333H201.315H201.297H201.279H201.261H201.243H201.225H201.207H201.189H201.171H201.153H201.135H201.117H201.099H201.082H201.064H201.046H201.028H201.011H200.993H200.975H200.958H200.94H200.923H200.905H200.888H200.87H200.853H200.836H200.818H200.801H200.784H200.766H200.749H200.732H200.715H200.698H200.681H200.664H200.646H200.629H200.612H200.595H200.579H200.562H200.545H200.528H200.511H200.494H200.477H200.461H200.444H200.427H200.411H200.394H200.377H200.361H200.344H200.328H200.311H200.295H200.278H200.262H200.245H200.229H200.213H200.196H200.18H200.164H200.147H200.131H200.115H200.099H200.083H200.066H200.05H200.034H200.018H200.002H199.986H199.97H199.954H199.938H199.922H199.906H199.89H199.875H199.859H199.843H199.827H199.811H199.796H199.78H199.764H199.749H199.733H199.717H199.702H199.686H199.671H199.655H199.64H199.624H199.609H199.593H199.578H199.562H199.547H199.532H199.516H199.501H199.486H199.47H199.455H199.44H199.425H199.41H199.394H199.379H199.364H199.349H199.334H199.319H199.304H199.289H199.274H199.259H199.244H199.229H199.214H199.199H199.184H199.169H199.154H199.14H199.125H199.11H199.095H199.08H199.066H199.051H199.036H199.021H199.007H198.992H198.978H198.963H198.948H198.934H198.919H198.905H198.89H198.876H198.861H198.847H198.832H198.818H198.803H198.789H198.774H198.76H198.746H198.731H198.717H198.703H198.688H198.674H198.66H198.646H198.631H198.617H198.603H198.589H198.575H198.56H198.546H198.532H198.518H198.504H198.49H198.476H198.462H198.448H198.434H198.42H198.406H198.392H198.378H198.364H198.35H198.336H198.322H198.308H198.294H198.28H198.266H198.252H198.238H198.225H198.211H198.197H198.183H198.169H198.156H198.142H198.128H198.114H198.101H198.087H198.073H198.06H198.046H198.032H198.019H198.005H197.991H197.978H197.964H197.95H197.937H197.923H197.91H197.896H197.883H197.869H197.856H197.842H197.829H197.815H197.802H197.788H197.775H197.761H197.748H197.734H197.721H197.707H197.694H197.681H197.667H197.654H197.64H197.627H197.614H197.6H197.587H197.574H197.56H197.547H197.534H197.52H197.507H197.494H197.48H197.467H197.454H197.441H197.427H197.414H197.401H197.388H197.374H197.361H197.348H197.335H197.321H197.308H197.295H197.282H197.269H197.255H197.242H197.229H197.216H197.203H197.19H197.177H197.163H197.15H197.137H197.124H197.111H197.098H197.085H197.072H197.058H197.045H197.032H197.019H197.006H196.993H196.98H196.967H196.954H196.941H196.928H196.914H196.901H196.888H196.875H196.862H196.849H196.836H196.823H196.81H196.797H196.784H196.771H196.758H196.745H196.732H196.719H196.706H196.693H196.68H196.667H196.654H196.641H196.628H196.615H196.602H196.589H196.575H196.563C194.95 214.798 193.068 213.912 191.442 213.015C189.831 212.125 188.509 211.246 188.01 210.905V198.171Z" fill="#222222" stroke="#222222"/>
<path d="M174.513 157.181C174.513 148.301 177.491 141.694 182.258 137.303C187.032 132.906 193.65 130.687 201.007 130.687C208.363 130.687 214.981 132.906 219.755 137.303C224.523 141.694 227.5 148.301 227.5 157.181C227.5 166.151 226.308 169.522 224.687 171.705C224.112 172.478 223.492 173.097 222.81 173.779C222.497 174.092 222.171 174.417 221.83 174.777C220.763 175.903 219.64 177.282 218.555 179.451C215.254 186.053 214.347 190.274 214.098 192.112C214.054 192.437 213.78 192.672 213.503 192.672H188.51C188.233 192.672 187.96 192.437 187.916 192.112C187.666 190.274 186.759 186.053 183.458 179.451C182.373 177.282 181.25 175.903 180.183 174.777C179.842 174.417 179.516 174.092 179.204 173.779C178.521 173.097 177.901 172.478 177.327 171.705C175.705 169.522 174.513 166.151 174.513 157.181Z" fill="#F1F51B" stroke="#222222"/>
<path d="M192.009 154.931C192.009 152.682 194.258 148.183 198.757 148.183" stroke="#222222" stroke-linecap="round"/>
<defs>
<clipPath id="clip0">
<rect width="501" height="400" fill="white"/>
</clipPath>
</defs>
</svg>
