<svg width="162" height="98" viewBox="0 0 162 98" fill="none" xmlns="http://www.w3.org/2000/svg">
<path fill-rule="evenodd" clip-rule="evenodd" d="M66 24.7222V2H99V24.7222H83.5123L83.4939 24.5562H81.5061L81.4877 24.7222H66ZM81.2655 26.7222H65C64.4477 26.7222 64 26.2745 64 25.7222V0.999999C64 0.447714 64.4477 0 65 0H100C100.552 0 101 0.447715 101 1V25.7222C101 26.2745 100.552 26.7222 100 26.7222H83.7346L84.4228 32.9167H90.7222C91.2745 32.9167 91.7222 33.3644 91.7222 33.9167C91.7222 34.469 91.2745 34.9167 90.7222 34.9167H83.5278H81.4722H74.2778C73.7255 34.9167 73.2778 34.469 73.2778 33.9167C73.2778 33.3644 73.7255 32.9167 74.2778 32.9167H80.5772L81.2655 26.7222Z" fill="#222222"/>
<path fill-rule="evenodd" clip-rule="evenodd" d="M26 81.7222V59H59V81.7222H43.5123L43.4939 81.5562H41.5061L41.4877 81.7222H26ZM41.2655 83.7222H25C24.4477 83.7222 24 83.2745 24 82.7222V58C24 57.4477 24.4477 57 25 57H60C60.5523 57 61 57.4477 61 58V82.7222C61 83.2745 60.5523 83.7222 60 83.7222H43.7346L44.4228 89.9167H50.7222C51.2745 89.9167 51.7222 90.3644 51.7222 90.9167C51.7222 91.469 51.2745 91.9167 50.7222 91.9167H43.5278H41.4722H34.2778C33.7255 91.9167 33.2778 91.469 33.2778 90.9167C33.2778 90.3644 33.7255 89.9167 34.2778 89.9167H40.5772L41.2655 83.7222Z" fill="#222222"/>
<path fill-rule="evenodd" clip-rule="evenodd" d="M129.813 71.0641C129.813 71.0641 129.997 72 130.06 72.009C133.454 72.4929 136 74.4725 136 78C136 81.866 132.866 85 129 85H111C107.134 85 104 81.866 104 78C104 74.4725 106.609 71.5544 110.003 71.0705C110.066 71.0615 110.127 71.0596 110.187 71.0641C111.089 66.4677 115.139 63 120 63C124.861 63 128.911 66.4677 129.813 71.0641Z" fill="#F3F3F3"/>
<path d="M111.529 85C107.371 85 104 81.7168 104 77.6667C104 74.1291 106.572 71.1766 109.994 70.486C111.17 66.1758 115.204 63 120 63C125.421 63 129.87 67.0587 130.316 72.2266C133.527 72.6559 136 75.3383 136 78.5833C136 82.1272 133.05 85 129.412 85H111.529Z" stroke="#231815" stroke-width="2" stroke-linecap="round" stroke-linejoin="round"/>
<path d="M83.0215 73.4238H85.4004V74.4492H83.0215V77.1445H81.9316V74.4492H79.5527V73.4238H81.9316V70.9336H83.0215V73.4238Z" fill="black"/>
<line y1="44.5" x2="162" y2="44.5" stroke="black"/>
</svg>
