<svg width="391" height="246" viewBox="0 0 391 246" fill="none" xmlns="http://www.w3.org/2000/svg">
<rect x="44.5" y="0.5" width="346" height="245" rx="8.5" fill="#F1F1F1"/>
<path d="M53.2397 8.17969L55.7964 14.5605L58.353 8.17969H59.6904V16H58.6592V12.9546L58.7559 9.66748L56.1885 16H55.3989L52.8369 9.68359L52.939 12.9546V16H51.9077V8.17969H53.2397ZM64.1001 14.6304L66.3345 8.17969H67.4624L64.562 16H63.6489L60.7539 8.17969H61.8765L64.1001 14.6304ZM72.9355 12.3853H69.5464V15.1567H73.4834V16H68.5151V8.17969H73.4297V9.02832H69.5464V11.542H72.9355V12.3853ZM79.7998 12.5142C78.9154 12.2599 78.2708 11.9484 77.8662 11.5796C77.4652 11.2072 77.2646 10.7489 77.2646 10.2046C77.2646 9.5887 77.5099 9.08024 78.0005 8.6792C78.4946 8.27458 79.1356 8.07227 79.9233 8.07227C80.4604 8.07227 80.9385 8.17611 81.3574 8.38379C81.7799 8.59147 82.1058 8.87793 82.335 9.24316C82.5677 9.6084 82.6841 10.0076 82.6841 10.4409H81.6475C81.6475 9.96826 81.4971 9.59766 81.1963 9.3291C80.8955 9.05697 80.4712 8.9209 79.9233 8.9209C79.4149 8.9209 79.0174 9.03369 78.731 9.25928C78.4481 9.48128 78.3066 9.79102 78.3066 10.1885C78.3066 10.5072 78.4409 10.7775 78.7095 10.9995C78.9816 11.2179 79.4417 11.4185 80.0898 11.6011C80.7415 11.7837 81.25 11.986 81.6152 12.208C81.984 12.4264 82.2562 12.6825 82.4316 12.9761C82.6107 13.2697 82.7002 13.6152 82.7002 14.0127C82.7002 14.6465 82.4531 15.1549 81.959 15.5381C81.4648 15.9176 80.8042 16.1074 79.9771 16.1074C79.4399 16.1074 78.9386 16.0054 78.4731 15.8013C78.0076 15.5936 77.6478 15.3107 77.3936 14.9526C77.1429 14.5946 77.0176 14.1882 77.0176 13.7334H78.0542C78.0542 14.2061 78.2279 14.5802 78.5752 14.856C78.9261 15.1281 79.3934 15.2642 79.9771 15.2642C80.5213 15.2642 80.9385 15.1532 81.2285 14.9312C81.5186 14.7091 81.6636 14.4066 81.6636 14.0234C81.6636 13.6403 81.5293 13.3449 81.2607 13.1372C80.9922 12.9259 80.5052 12.7183 79.7998 12.5142ZM86.2827 16.1074C85.495 16.1074 84.854 15.8496 84.3599 15.334C83.8657 14.8148 83.6187 14.1219 83.6187 13.2554V13.0728C83.6187 12.4963 83.7279 11.9824 83.9463 11.5312C84.1683 11.0765 84.4762 10.722 84.8701 10.4678C85.2676 10.21 85.6973 10.0811 86.1592 10.0811C86.9147 10.0811 87.502 10.3299 87.9209 10.8276C88.3398 11.3254 88.5493 12.0379 88.5493 12.9653V13.3789H84.6123C84.6266 13.9518 84.7931 14.4155 85.1118 14.77C85.4341 15.1209 85.8423 15.2964 86.3364 15.2964C86.6873 15.2964 86.9845 15.2248 87.228 15.0815C87.4715 14.9383 87.6846 14.7485 87.8672 14.5122L88.4741 14.9849C87.9871 15.7332 87.2567 16.1074 86.2827 16.1074ZM86.1592 10.8975C85.7581 10.8975 85.4215 11.0443 85.1494 11.3379C84.8773 11.6279 84.709 12.0361 84.6445 12.5625H87.5557V12.4873C87.527 11.9824 87.391 11.5921 87.1475 11.3164C86.904 11.0371 86.5745 10.8975 86.1592 10.8975ZM92.5132 11.0801C92.3628 11.055 92.1999 11.0425 92.0244 11.0425C91.3727 11.0425 90.9305 11.32 90.6978 11.875V16H89.7041V10.1885H90.6709L90.687 10.8599C91.0129 10.3407 91.4748 10.0811 92.0728 10.0811C92.2661 10.0811 92.4129 10.1061 92.5132 10.1562V11.0801ZM95.4458 14.6519L96.8853 10.1885H97.9004L95.8164 16H95.0591L92.9536 10.1885H93.9688L95.4458 14.6519ZM101.193 16.1074C100.405 16.1074 99.7642 15.8496 99.27 15.334C98.7759 14.8148 98.5288 14.1219 98.5288 13.2554V13.0728C98.5288 12.4963 98.638 11.9824 98.8564 11.5312C99.0785 11.0765 99.3864 10.722 99.7803 10.4678C100.178 10.21 100.607 10.0811 101.069 10.0811C101.825 10.0811 102.412 10.3299 102.831 10.8276C103.25 11.3254 103.459 12.0379 103.459 12.9653V13.3789H99.5225C99.5368 13.9518 99.7033 14.4155 100.022 14.77C100.344 15.1209 100.752 15.2964 101.247 15.2964C101.597 15.2964 101.895 15.2248 102.138 15.0815C102.382 14.9383 102.595 14.7485 102.777 14.5122L103.384 14.9849C102.897 15.7332 102.167 16.1074 101.193 16.1074ZM101.069 10.8975C100.668 10.8975 100.332 11.0443 100.06 11.3379C99.7874 11.6279 99.6191 12.0361 99.5547 12.5625H102.466V12.4873C102.437 11.9824 102.301 11.5921 102.058 11.3164C101.814 11.0371 101.485 10.8975 101.069 10.8975ZM107.423 11.0801C107.273 11.055 107.11 11.0425 106.935 11.0425C106.283 11.0425 105.841 11.32 105.608 11.875V16H104.614V10.1885H105.581L105.597 10.8599C105.923 10.3407 106.385 10.0811 106.983 10.0811C107.176 10.0811 107.323 10.1061 107.423 10.1562V11.0801Z" fill="black"/>
<rect x="44.5" y="0.5" width="346" height="245" rx="8.5" stroke="black"/>
<rect x="250.5" y="86.5" width="126" height="33" rx="6.5" fill="white"/>
<path d="M288.053 98.4688L290.842 105.43L293.631 98.4688H295.09V107H293.965V103.678L294.07 100.092L291.27 107H290.408L287.613 100.109L287.725 103.678V107H286.6V98.4688H288.053ZM299.9 105.506L302.338 98.4688H303.568L300.404 107H299.408L296.25 98.4688H297.475L299.9 105.506ZM309.539 103.057H305.842V106.08H310.137V107H304.717V98.4688H310.078V99.3945H305.842V102.137H309.539V103.057ZM317.027 103.197C316.062 102.92 315.359 102.58 314.918 102.178C314.48 101.771 314.262 101.271 314.262 100.678C314.262 100.006 314.529 99.4512 315.064 99.0137C315.604 98.5723 316.303 98.3516 317.162 98.3516C317.748 98.3516 318.27 98.4648 318.727 98.6914C319.188 98.918 319.543 99.2305 319.793 99.6289C320.047 100.027 320.174 100.463 320.174 100.936H319.043C319.043 100.42 318.879 100.016 318.551 99.7227C318.223 99.4258 317.76 99.2773 317.162 99.2773C316.607 99.2773 316.174 99.4004 315.861 99.6465C315.553 99.8887 315.398 100.227 315.398 100.66C315.398 101.008 315.545 101.303 315.838 101.545C316.135 101.783 316.637 102.002 317.344 102.201C318.055 102.4 318.609 102.621 319.008 102.863C319.41 103.102 319.707 103.381 319.898 103.701C320.094 104.021 320.191 104.398 320.191 104.832C320.191 105.523 319.922 106.078 319.383 106.496C318.844 106.91 318.123 107.117 317.221 107.117C316.635 107.117 316.088 107.006 315.58 106.783C315.072 106.557 314.68 106.248 314.402 105.857C314.129 105.467 313.992 105.023 313.992 104.527H315.123C315.123 105.043 315.312 105.451 315.691 105.752C316.074 106.049 316.584 106.197 317.221 106.197C317.814 106.197 318.27 106.076 318.586 105.834C318.902 105.592 319.061 105.262 319.061 104.844C319.061 104.426 318.914 104.104 318.621 103.877C318.328 103.646 317.797 103.42 317.027 103.197ZM322.939 99.125V100.66H324.123V101.498H322.939V105.43C322.939 105.684 322.992 105.875 323.098 106.004C323.203 106.129 323.383 106.191 323.637 106.191C323.762 106.191 323.934 106.168 324.152 106.121V107C323.867 107.078 323.59 107.117 323.32 107.117C322.836 107.117 322.471 106.971 322.225 106.678C321.979 106.385 321.855 105.969 321.855 105.43V101.498H320.701V100.66H321.855V99.125H322.939ZM329.309 107C329.246 106.875 329.195 106.652 329.156 106.332C328.652 106.855 328.051 107.117 327.352 107.117C326.727 107.117 326.213 106.941 325.811 106.59C325.412 106.234 325.213 105.785 325.213 105.242C325.213 104.582 325.463 104.07 325.963 103.707C326.467 103.34 327.174 103.156 328.084 103.156H329.139V102.658C329.139 102.279 329.025 101.979 328.799 101.756C328.572 101.529 328.238 101.416 327.797 101.416C327.41 101.416 327.086 101.514 326.824 101.709C326.562 101.904 326.432 102.141 326.432 102.418H325.342C325.342 102.102 325.453 101.797 325.676 101.504C325.902 101.207 326.207 100.973 326.59 100.801C326.977 100.629 327.4 100.543 327.861 100.543C328.592 100.543 329.164 100.727 329.578 101.094C329.992 101.457 330.207 101.959 330.223 102.6V105.518C330.223 106.1 330.297 106.562 330.445 106.906V107H329.309ZM327.51 106.174C327.85 106.174 328.172 106.086 328.477 105.91C328.781 105.734 329.002 105.506 329.139 105.225V103.924H328.289C326.961 103.924 326.297 104.312 326.297 105.09C326.297 105.43 326.41 105.695 326.637 105.887C326.863 106.078 327.154 106.174 327.51 106.174ZM333.393 99.125V100.66H334.576V101.498H333.393V105.43C333.393 105.684 333.445 105.875 333.551 106.004C333.656 106.129 333.836 106.191 334.09 106.191C334.215 106.191 334.387 106.168 334.605 106.121V107C334.32 107.078 334.043 107.117 333.773 107.117C333.289 107.117 332.924 106.971 332.678 106.678C332.432 106.385 332.309 105.969 332.309 105.43V101.498H331.154V100.66H332.309V99.125H333.393ZM338.479 107.117C337.619 107.117 336.92 106.836 336.381 106.273C335.842 105.707 335.572 104.951 335.572 104.006V103.807C335.572 103.178 335.691 102.617 335.93 102.125C336.172 101.629 336.508 101.242 336.938 100.965C337.371 100.684 337.84 100.543 338.344 100.543C339.168 100.543 339.809 100.814 340.266 101.357C340.723 101.9 340.951 102.678 340.951 103.689V104.141H336.656C336.672 104.766 336.854 105.271 337.201 105.658C337.553 106.041 337.998 106.232 338.537 106.232C338.92 106.232 339.244 106.154 339.51 105.998C339.775 105.842 340.008 105.635 340.207 105.377L340.869 105.893C340.338 106.709 339.541 107.117 338.479 107.117ZM338.344 101.434C337.906 101.434 337.539 101.594 337.242 101.914C336.945 102.23 336.762 102.676 336.691 103.25H339.867V103.168C339.836 102.617 339.688 102.191 339.422 101.891C339.156 101.586 338.797 101.434 338.344 101.434Z" fill="black"/>
<rect x="250.5" y="86.5" width="126" height="33" rx="6.5" stroke="black"/>
<rect x="59.5" y="28.5" width="146" height="33" rx="6.5" fill="white"/>
<path d="M109.479 49H108.348L104.053 42.4258V49H102.922V40.4688H104.053L108.359 47.0723V40.4688H109.479V49ZM113.938 49.1172C113.078 49.1172 112.379 48.8359 111.84 48.2734C111.301 47.707 111.031 46.9512 111.031 46.0059V45.8066C111.031 45.1777 111.15 44.6172 111.389 44.125C111.631 43.6289 111.967 43.2422 112.396 42.9648C112.83 42.6836 113.299 42.543 113.803 42.543C114.627 42.543 115.268 42.8145 115.725 43.3574C116.182 43.9004 116.41 44.6777 116.41 45.6895V46.1406H112.115C112.131 46.7656 112.312 47.2715 112.66 47.6582C113.012 48.041 113.457 48.2324 113.996 48.2324C114.379 48.2324 114.703 48.1543 114.969 47.998C115.234 47.8418 115.467 47.6348 115.666 47.377L116.328 47.8926C115.797 48.709 115 49.1172 113.938 49.1172ZM113.803 43.4336C113.365 43.4336 112.998 43.5938 112.701 43.9141C112.404 44.2305 112.221 44.6758 112.15 45.25H115.326V45.168C115.295 44.6172 115.146 44.1914 114.881 43.8906C114.615 43.5859 114.256 43.4336 113.803 43.4336ZM119.141 41.125V42.6602H120.324V43.498H119.141V47.4297C119.141 47.6836 119.193 47.875 119.299 48.0039C119.404 48.1289 119.584 48.1914 119.838 48.1914C119.963 48.1914 120.135 48.168 120.354 48.1211V49C120.068 49.0781 119.791 49.1172 119.521 49.1172C119.037 49.1172 118.672 48.9707 118.426 48.6777C118.18 48.3848 118.057 47.9688 118.057 47.4297V43.498H116.902V42.6602H118.057V41.125H119.141ZM127.209 47.5059L128.428 42.6602H129.512L127.666 49H126.787L125.246 44.1953L123.746 49H122.867L121.027 42.6602H122.105L123.354 47.4062L124.83 42.6602H125.703L127.209 47.5059ZM130.332 45.7715C130.332 45.1504 130.453 44.5918 130.695 44.0957C130.941 43.5996 131.281 43.2168 131.715 42.9473C132.152 42.6777 132.65 42.543 133.209 42.543C134.072 42.543 134.77 42.8418 135.301 43.4395C135.836 44.0371 136.104 44.832 136.104 45.8242V45.9004C136.104 46.5176 135.984 47.0723 135.746 47.5645C135.512 48.0527 135.174 48.4336 134.732 48.707C134.295 48.9805 133.791 49.1172 133.221 49.1172C132.361 49.1172 131.664 48.8184 131.129 48.2207C130.598 47.623 130.332 46.832 130.332 45.8477V45.7715ZM131.422 45.9004C131.422 46.6035 131.584 47.168 131.908 47.5938C132.236 48.0195 132.674 48.2324 133.221 48.2324C133.771 48.2324 134.209 48.0176 134.533 47.5879C134.857 47.1543 135.02 46.5488 135.02 45.7715C135.02 45.0762 134.854 44.5137 134.521 44.084C134.193 43.6504 133.756 43.4336 133.209 43.4336C132.674 43.4336 132.242 43.6465 131.914 44.0723C131.586 44.498 131.422 45.1074 131.422 45.9004ZM140.527 43.6328C140.363 43.6055 140.186 43.5918 139.994 43.5918C139.283 43.5918 138.801 43.8945 138.547 44.5V49H137.463V42.6602H138.518L138.535 43.3926C138.891 42.8262 139.395 42.543 140.047 42.543C140.258 42.543 140.418 42.5703 140.527 42.625V43.6328ZM143.299 46.0645L142.619 46.7734V49H141.535V40H142.619V45.4434L143.199 44.7461L145.174 42.6602H146.492L144.025 45.3086L146.779 49H145.508L143.299 46.0645ZM148.789 49H147.705V42.6602H148.789V49ZM147.617 40.9785C147.617 40.8027 147.67 40.6543 147.775 40.5332C147.885 40.4121 148.045 40.3516 148.256 40.3516C148.467 40.3516 148.627 40.4121 148.736 40.5332C148.846 40.6543 148.9 40.8027 148.9 40.9785C148.9 41.1543 148.846 41.3008 148.736 41.418C148.627 41.5352 148.467 41.5938 148.256 41.5938C148.045 41.5938 147.885 41.5352 147.775 41.418C147.67 41.3008 147.617 41.1543 147.617 40.9785ZM151.555 42.6602L151.59 43.457C152.074 42.8477 152.707 42.543 153.488 42.543C154.828 42.543 155.504 43.2988 155.516 44.8105V49H154.432V44.8047C154.428 44.3477 154.322 44.0098 154.115 43.791C153.912 43.5723 153.594 43.4629 153.16 43.4629C152.809 43.4629 152.5 43.5566 152.234 43.7441C151.969 43.9316 151.762 44.1777 151.613 44.4824V49H150.529V42.6602H151.555ZM156.893 45.7773C156.893 44.7891 157.121 44.0039 157.578 43.4219C158.035 42.8359 158.641 42.543 159.395 42.543C160.168 42.543 160.771 42.8164 161.205 43.3633L161.258 42.6602H162.248V48.8477C162.248 49.668 162.004 50.3145 161.516 50.7871C161.031 51.2598 160.379 51.4961 159.559 51.4961C159.102 51.4961 158.654 51.3984 158.217 51.2031C157.779 51.0078 157.445 50.7402 157.215 50.4004L157.777 49.75C158.242 50.3242 158.811 50.6113 159.482 50.6113C160.01 50.6113 160.42 50.4629 160.713 50.166C161.01 49.8691 161.158 49.4512 161.158 48.9121V48.3672C160.725 48.8672 160.133 49.1172 159.383 49.1172C158.641 49.1172 158.039 48.8184 157.578 48.2207C157.121 47.623 156.893 46.8086 156.893 45.7773ZM157.982 45.9004C157.982 46.6152 158.129 47.1777 158.422 47.5879C158.715 47.9941 159.125 48.1973 159.652 48.1973C160.336 48.1973 160.838 47.8867 161.158 47.2656V44.3711C160.826 43.7656 160.328 43.4629 159.664 43.4629C159.137 43.4629 158.725 43.668 158.428 44.0781C158.131 44.4883 157.982 45.0957 157.982 45.9004Z" fill="black"/>
<rect x="59.5" y="28.5" width="146" height="33" rx="6.5" stroke="black"/>
<rect x="250" y="199" width="127" height="34" rx="7" fill="white"/>
<path d="M263.396 216.197C262.432 215.92 261.729 215.58 261.287 215.178C260.85 214.771 260.631 214.271 260.631 213.678C260.631 213.006 260.898 212.451 261.434 212.014C261.973 211.572 262.672 211.352 263.531 211.352C264.117 211.352 264.639 211.465 265.096 211.691C265.557 211.918 265.912 212.23 266.162 212.629C266.416 213.027 266.543 213.463 266.543 213.936H265.412C265.412 213.42 265.248 213.016 264.92 212.723C264.592 212.426 264.129 212.277 263.531 212.277C262.977 212.277 262.543 212.4 262.23 212.646C261.922 212.889 261.768 213.227 261.768 213.66C261.768 214.008 261.914 214.303 262.207 214.545C262.504 214.783 263.006 215.002 263.713 215.201C264.424 215.4 264.979 215.621 265.377 215.863C265.779 216.102 266.076 216.381 266.268 216.701C266.463 217.021 266.561 217.398 266.561 217.832C266.561 218.523 266.291 219.078 265.752 219.496C265.213 219.91 264.492 220.117 263.59 220.117C263.004 220.117 262.457 220.006 261.949 219.783C261.441 219.557 261.049 219.248 260.771 218.857C260.498 218.467 260.361 218.023 260.361 217.527H261.492C261.492 218.043 261.682 218.451 262.061 218.752C262.443 219.049 262.953 219.197 263.59 219.197C264.184 219.197 264.639 219.076 264.955 218.834C265.271 218.592 265.43 218.262 265.43 217.844C265.43 217.426 265.283 217.104 264.99 216.877C264.697 216.646 264.166 216.42 263.396 216.197ZM270.469 220.117C269.609 220.117 268.91 219.836 268.371 219.273C267.832 218.707 267.562 217.951 267.562 217.006V216.807C267.562 216.178 267.682 215.617 267.92 215.125C268.162 214.629 268.498 214.242 268.928 213.965C269.361 213.684 269.83 213.543 270.334 213.543C271.158 213.543 271.799 213.814 272.256 214.357C272.713 214.9 272.941 215.678 272.941 216.689V217.141H268.646C268.662 217.766 268.844 218.271 269.191 218.658C269.543 219.041 269.988 219.232 270.527 219.232C270.91 219.232 271.234 219.154 271.5 218.998C271.766 218.842 271.998 218.635 272.197 218.377L272.859 218.893C272.328 219.709 271.531 220.117 270.469 220.117ZM270.334 214.434C269.896 214.434 269.529 214.594 269.232 214.914C268.936 215.23 268.752 215.676 268.682 216.25H271.857V216.168C271.826 215.617 271.678 215.191 271.412 214.891C271.146 214.586 270.787 214.434 270.334 214.434ZM277.266 214.633C277.102 214.605 276.924 214.592 276.732 214.592C276.021 214.592 275.539 214.895 275.285 215.5V220H274.201V213.66H275.256L275.273 214.393C275.629 213.826 276.133 213.543 276.785 213.543C276.996 213.543 277.156 213.57 277.266 213.625V214.633ZM280.465 218.529L282.035 213.66H283.143L280.869 220H280.043L277.746 213.66H278.854L280.465 218.529ZM286.734 220.117C285.875 220.117 285.176 219.836 284.637 219.273C284.098 218.707 283.828 217.951 283.828 217.006V216.807C283.828 216.178 283.947 215.617 284.186 215.125C284.428 214.629 284.764 214.242 285.193 213.965C285.627 213.684 286.096 213.543 286.6 213.543C287.424 213.543 288.064 213.814 288.521 214.357C288.979 214.9 289.207 215.678 289.207 216.689V217.141H284.912C284.928 217.766 285.109 218.271 285.457 218.658C285.809 219.041 286.254 219.232 286.793 219.232C287.176 219.232 287.5 219.154 287.766 218.998C288.031 218.842 288.264 218.635 288.463 218.377L289.125 218.893C288.594 219.709 287.797 220.117 286.734 220.117ZM286.6 214.434C286.162 214.434 285.795 214.594 285.498 214.914C285.201 215.23 285.018 215.676 284.947 216.25H288.123V216.168C288.092 215.617 287.943 215.191 287.678 214.891C287.412 214.586 287.053 214.434 286.6 214.434ZM293.531 214.633C293.367 214.605 293.189 214.592 292.998 214.592C292.287 214.592 291.805 214.895 291.551 215.5V220H290.467V213.66H291.521L291.539 214.393C291.895 213.826 292.398 213.543 293.051 213.543C293.262 213.543 293.422 213.57 293.531 213.625V214.633ZM300.053 219.232C300.439 219.232 300.777 219.115 301.066 218.881C301.355 218.646 301.516 218.354 301.547 218.002H302.572C302.553 218.365 302.428 218.711 302.197 219.039C301.967 219.367 301.658 219.629 301.271 219.824C300.889 220.02 300.482 220.117 300.053 220.117C299.189 220.117 298.502 219.83 297.99 219.256C297.482 218.678 297.229 217.889 297.229 216.889V216.707C297.229 216.09 297.342 215.541 297.568 215.061C297.795 214.58 298.119 214.207 298.541 213.941C298.967 213.676 299.469 213.543 300.047 213.543C300.758 213.543 301.348 213.756 301.816 214.182C302.289 214.607 302.541 215.16 302.572 215.84H301.547C301.516 215.43 301.359 215.094 301.078 214.832C300.801 214.566 300.457 214.434 300.047 214.434C299.496 214.434 299.068 214.633 298.764 215.031C298.463 215.426 298.312 215.998 298.312 216.748V216.953C298.312 217.684 298.463 218.246 298.764 218.641C299.064 219.035 299.494 219.232 300.053 219.232ZM303.504 216.771C303.504 216.15 303.625 215.592 303.867 215.096C304.113 214.6 304.453 214.217 304.887 213.947C305.324 213.678 305.822 213.543 306.381 213.543C307.244 213.543 307.941 213.842 308.473 214.439C309.008 215.037 309.275 215.832 309.275 216.824V216.9C309.275 217.518 309.156 218.072 308.918 218.564C308.684 219.053 308.346 219.434 307.904 219.707C307.467 219.98 306.963 220.117 306.393 220.117C305.533 220.117 304.836 219.818 304.301 219.221C303.77 218.623 303.504 217.832 303.504 216.848V216.771ZM304.594 216.9C304.594 217.604 304.756 218.168 305.08 218.594C305.408 219.02 305.846 219.232 306.393 219.232C306.943 219.232 307.381 219.018 307.705 218.588C308.029 218.154 308.191 217.549 308.191 216.771C308.191 216.076 308.025 215.514 307.693 215.084C307.365 214.65 306.928 214.434 306.381 214.434C305.846 214.434 305.414 214.646 305.086 215.072C304.758 215.498 304.594 216.107 304.594 216.9ZM311.66 213.66L311.695 214.457C312.18 213.848 312.812 213.543 313.594 213.543C314.934 213.543 315.609 214.299 315.621 215.811V220H314.537V215.805C314.533 215.348 314.428 215.01 314.221 214.791C314.018 214.572 313.699 214.463 313.266 214.463C312.914 214.463 312.605 214.557 312.34 214.744C312.074 214.932 311.867 215.178 311.719 215.482V220H310.635V213.66H311.66ZM317.619 220V214.498H316.617V213.66H317.619V213.121C317.619 212.414 317.82 211.863 318.223 211.469C318.629 211.074 319.201 210.877 319.939 210.877C320.377 210.877 320.93 210.996 321.598 211.234L321.416 212.148C320.928 211.953 320.463 211.855 320.021 211.855C319.557 211.855 319.221 211.961 319.014 212.172C318.811 212.379 318.709 212.691 318.709 213.109V213.66H320.004V214.498H318.709V220H317.619ZM322.137 220H321.047V213.66H322.137V220ZM323.643 216.777C323.643 215.789 323.871 215.004 324.328 214.422C324.785 213.836 325.391 213.543 326.145 213.543C326.918 213.543 327.521 213.816 327.955 214.363L328.008 213.66H328.998V219.848C328.998 220.668 328.754 221.314 328.266 221.787C327.781 222.26 327.129 222.496 326.309 222.496C325.852 222.496 325.404 222.398 324.967 222.203C324.529 222.008 324.195 221.74 323.965 221.4L324.527 220.75C324.992 221.324 325.561 221.611 326.232 221.611C326.76 221.611 327.17 221.463 327.463 221.166C327.76 220.869 327.908 220.451 327.908 219.912V219.367C327.475 219.867 326.883 220.117 326.133 220.117C325.391 220.117 324.789 219.818 324.328 219.221C323.871 218.623 323.643 217.809 323.643 216.777ZM324.732 216.9C324.732 217.615 324.879 218.178 325.172 218.588C325.465 218.994 325.875 219.197 326.402 219.197C327.086 219.197 327.588 218.887 327.908 218.266V215.371C327.576 214.766 327.078 214.463 326.414 214.463C325.887 214.463 325.475 214.668 325.178 215.078C324.881 215.488 324.732 216.096 324.732 216.9ZM334.553 219.373C334.131 219.869 333.512 220.117 332.695 220.117C332.02 220.117 331.504 219.922 331.148 219.531C330.797 219.137 330.619 218.555 330.615 217.785V213.66H331.699V217.756C331.699 218.717 332.09 219.197 332.871 219.197C333.699 219.197 334.25 218.889 334.523 218.271V213.66H335.607V220H334.576L334.553 219.373ZM340.324 214.633C340.16 214.605 339.982 214.592 339.791 214.592C339.08 214.592 338.598 214.895 338.344 215.5V220H337.26V213.66H338.314L338.332 214.393C338.688 213.826 339.191 213.543 339.844 213.543C340.055 213.543 340.215 213.57 340.324 213.625V214.633ZM345.006 220C344.943 219.875 344.893 219.652 344.854 219.332C344.35 219.855 343.748 220.117 343.049 220.117C342.424 220.117 341.91 219.941 341.508 219.59C341.109 219.234 340.91 218.785 340.91 218.242C340.91 217.582 341.16 217.07 341.66 216.707C342.164 216.34 342.871 216.156 343.781 216.156H344.836V215.658C344.836 215.279 344.723 214.979 344.496 214.756C344.27 214.529 343.936 214.416 343.494 214.416C343.107 214.416 342.783 214.514 342.521 214.709C342.26 214.904 342.129 215.141 342.129 215.418H341.039C341.039 215.102 341.15 214.797 341.373 214.504C341.6 214.207 341.904 213.973 342.287 213.801C342.674 213.629 343.098 213.543 343.559 213.543C344.289 213.543 344.861 213.727 345.275 214.094C345.689 214.457 345.904 214.959 345.92 215.6V218.518C345.92 219.1 345.994 219.562 346.143 219.906V220H345.006ZM343.207 219.174C343.547 219.174 343.869 219.086 344.174 218.91C344.479 218.734 344.699 218.506 344.836 218.225V216.924H343.986C342.658 216.924 341.994 217.312 341.994 218.09C341.994 218.43 342.107 218.695 342.334 218.887C342.561 219.078 342.852 219.174 343.207 219.174ZM349.09 212.125V213.66H350.273V214.498H349.09V218.43C349.09 218.684 349.143 218.875 349.248 219.004C349.354 219.129 349.533 219.191 349.787 219.191C349.912 219.191 350.084 219.168 350.303 219.121V220C350.018 220.078 349.74 220.117 349.471 220.117C348.986 220.117 348.621 219.971 348.375 219.678C348.129 219.385 348.006 218.969 348.006 218.43V214.498H346.852V213.66H348.006V212.125H349.09ZM352.723 220H351.639V213.66H352.723V220ZM351.551 211.979C351.551 211.803 351.604 211.654 351.709 211.533C351.818 211.412 351.979 211.352 352.189 211.352C352.4 211.352 352.561 211.412 352.67 211.533C352.779 211.654 352.834 211.803 352.834 211.979C352.834 212.154 352.779 212.301 352.67 212.418C352.561 212.535 352.4 212.594 352.189 212.594C351.979 212.594 351.818 212.535 351.709 212.418C351.604 212.301 351.551 212.154 351.551 211.979ZM354.176 216.771C354.176 216.15 354.297 215.592 354.539 215.096C354.785 214.6 355.125 214.217 355.559 213.947C355.996 213.678 356.494 213.543 357.053 213.543C357.916 213.543 358.613 213.842 359.145 214.439C359.68 215.037 359.947 215.832 359.947 216.824V216.9C359.947 217.518 359.828 218.072 359.59 218.564C359.355 219.053 359.018 219.434 358.576 219.707C358.139 219.98 357.635 220.117 357.064 220.117C356.205 220.117 355.508 219.818 354.973 219.221C354.441 218.623 354.176 217.832 354.176 216.848V216.771ZM355.266 216.9C355.266 217.604 355.428 218.168 355.752 218.594C356.08 219.02 356.518 219.232 357.064 219.232C357.615 219.232 358.053 219.018 358.377 218.588C358.701 218.154 358.863 217.549 358.863 216.771C358.863 216.076 358.697 215.514 358.365 215.084C358.037 214.65 357.6 214.434 357.053 214.434C356.518 214.434 356.086 214.646 355.758 215.072C355.43 215.498 355.266 216.107 355.266 216.9ZM362.332 213.66L362.367 214.457C362.852 213.848 363.484 213.543 364.266 213.543C365.605 213.543 366.281 214.299 366.293 215.811V220H365.209V215.805C365.205 215.348 365.1 215.01 364.893 214.791C364.689 214.572 364.371 214.463 363.938 214.463C363.586 214.463 363.277 214.557 363.012 214.744C362.746 214.932 362.539 215.178 362.391 215.482V220H361.307V213.66H362.332Z" fill="black" fill-opacity="0.15"/>
<rect x="250.5" y="199.5" width="126" height="33" rx="6.5" stroke="black" stroke-opacity="0.15"/>
<rect x="250" y="144" width="127" height="34" rx="7" fill="white"/>
<path d="M266.953 161.66V165H265.828V156.469H268.975C269.908 156.469 270.639 156.707 271.166 157.184C271.697 157.66 271.963 158.291 271.963 159.076C271.963 159.904 271.703 160.543 271.184 160.992C270.668 161.438 269.928 161.66 268.963 161.66H266.953ZM266.953 160.74H268.975C269.576 160.74 270.037 160.6 270.357 160.318C270.678 160.033 270.838 159.623 270.838 159.088C270.838 158.58 270.678 158.174 270.357 157.869C270.037 157.564 269.598 157.406 269.039 157.395H266.953V160.74ZM275.777 165.117C274.918 165.117 274.219 164.836 273.68 164.273C273.141 163.707 272.871 162.951 272.871 162.006V161.807C272.871 161.178 272.99 160.617 273.229 160.125C273.471 159.629 273.807 159.242 274.236 158.965C274.67 158.684 275.139 158.543 275.643 158.543C276.467 158.543 277.107 158.814 277.564 159.357C278.021 159.9 278.25 160.678 278.25 161.689V162.141H273.955C273.971 162.766 274.152 163.271 274.5 163.658C274.852 164.041 275.297 164.232 275.836 164.232C276.219 164.232 276.543 164.154 276.809 163.998C277.074 163.842 277.307 163.635 277.506 163.377L278.168 163.893C277.637 164.709 276.84 165.117 275.777 165.117ZM275.643 159.434C275.205 159.434 274.838 159.594 274.541 159.914C274.244 160.23 274.061 160.676 273.99 161.25H277.166V161.168C277.135 160.617 276.986 160.191 276.721 159.891C276.455 159.586 276.096 159.434 275.643 159.434ZM282.574 159.633C282.41 159.605 282.232 159.592 282.041 159.592C281.33 159.592 280.848 159.895 280.594 160.5V165H279.51V158.66H280.564L280.582 159.393C280.938 158.826 281.441 158.543 282.094 158.543C282.305 158.543 282.465 158.57 282.574 158.625V159.633ZM287.268 163.318C287.268 163.025 287.156 162.799 286.934 162.639C286.715 162.475 286.33 162.334 285.779 162.217C285.232 162.1 284.797 161.959 284.473 161.795C284.152 161.631 283.914 161.436 283.758 161.209C283.605 160.982 283.529 160.713 283.529 160.4C283.529 159.881 283.748 159.441 284.186 159.082C284.627 158.723 285.189 158.543 285.873 158.543C286.592 158.543 287.174 158.729 287.619 159.1C288.068 159.471 288.293 159.945 288.293 160.523H287.203C287.203 160.227 287.076 159.971 286.822 159.756C286.572 159.541 286.256 159.434 285.873 159.434C285.479 159.434 285.17 159.52 284.947 159.691C284.725 159.863 284.613 160.088 284.613 160.365C284.613 160.627 284.717 160.824 284.924 160.957C285.131 161.09 285.504 161.217 286.043 161.338C286.586 161.459 287.025 161.604 287.361 161.771C287.697 161.939 287.945 162.143 288.105 162.381C288.27 162.615 288.352 162.902 288.352 163.242C288.352 163.809 288.125 164.264 287.672 164.607C287.219 164.947 286.631 165.117 285.908 165.117C285.4 165.117 284.951 165.027 284.561 164.848C284.17 164.668 283.863 164.418 283.641 164.098C283.422 163.773 283.312 163.424 283.312 163.049H284.396C284.416 163.412 284.561 163.701 284.83 163.916C285.104 164.127 285.463 164.232 285.908 164.232C286.318 164.232 286.646 164.15 286.893 163.986C287.143 163.818 287.268 163.596 287.268 163.318ZM290.941 165H289.857V158.66H290.941V165ZM289.77 156.979C289.77 156.803 289.822 156.654 289.928 156.533C290.037 156.412 290.197 156.352 290.408 156.352C290.619 156.352 290.779 156.412 290.889 156.533C290.998 156.654 291.053 156.803 291.053 156.979C291.053 157.154 290.998 157.301 290.889 157.418C290.779 157.535 290.619 157.594 290.408 157.594C290.197 157.594 290.037 157.535 289.928 157.418C289.822 157.301 289.77 157.154 289.77 156.979ZM296.373 163.318C296.373 163.025 296.262 162.799 296.039 162.639C295.82 162.475 295.436 162.334 294.885 162.217C294.338 162.1 293.902 161.959 293.578 161.795C293.258 161.631 293.02 161.436 292.863 161.209C292.711 160.982 292.635 160.713 292.635 160.4C292.635 159.881 292.854 159.441 293.291 159.082C293.732 158.723 294.295 158.543 294.979 158.543C295.697 158.543 296.279 158.729 296.725 159.1C297.174 159.471 297.398 159.945 297.398 160.523H296.309C296.309 160.227 296.182 159.971 295.928 159.756C295.678 159.541 295.361 159.434 294.979 159.434C294.584 159.434 294.275 159.52 294.053 159.691C293.83 159.863 293.719 160.088 293.719 160.365C293.719 160.627 293.822 160.824 294.029 160.957C294.236 161.09 294.609 161.217 295.148 161.338C295.691 161.459 296.131 161.604 296.467 161.771C296.803 161.939 297.051 162.143 297.211 162.381C297.375 162.615 297.457 162.902 297.457 163.242C297.457 163.809 297.23 164.264 296.777 164.607C296.324 164.947 295.736 165.117 295.014 165.117C294.506 165.117 294.057 165.027 293.666 164.848C293.275 164.668 292.969 164.418 292.746 164.098C292.527 163.773 292.418 163.424 292.418 163.049H293.502C293.521 163.412 293.666 163.701 293.936 163.916C294.209 164.127 294.568 164.232 295.014 164.232C295.424 164.232 295.752 164.15 295.998 163.986C296.248 163.818 296.373 163.596 296.373 163.318ZM300.34 157.125V158.66H301.523V159.498H300.34V163.43C300.34 163.684 300.393 163.875 300.498 164.004C300.604 164.129 300.783 164.191 301.037 164.191C301.162 164.191 301.334 164.168 301.553 164.121V165C301.268 165.078 300.99 165.117 300.721 165.117C300.236 165.117 299.871 164.971 299.625 164.678C299.379 164.385 299.256 163.969 299.256 163.43V159.498H298.102V158.66H299.256V157.125H300.34ZM305.426 165.117C304.566 165.117 303.867 164.836 303.328 164.273C302.789 163.707 302.52 162.951 302.52 162.006V161.807C302.52 161.178 302.639 160.617 302.877 160.125C303.119 159.629 303.455 159.242 303.885 158.965C304.318 158.684 304.787 158.543 305.291 158.543C306.115 158.543 306.756 158.814 307.213 159.357C307.67 159.9 307.898 160.678 307.898 161.689V162.141H303.604C303.619 162.766 303.801 163.271 304.148 163.658C304.5 164.041 304.945 164.232 305.484 164.232C305.867 164.232 306.191 164.154 306.457 163.998C306.723 163.842 306.955 163.635 307.154 163.377L307.816 163.893C307.285 164.709 306.488 165.117 305.426 165.117ZM305.291 159.434C304.854 159.434 304.486 159.594 304.189 159.914C303.893 160.23 303.709 160.676 303.639 161.25H306.814V161.168C306.783 160.617 306.635 160.191 306.369 159.891C306.104 159.586 305.744 159.434 305.291 159.434ZM310.184 158.66L310.219 159.457C310.703 158.848 311.336 158.543 312.117 158.543C313.457 158.543 314.133 159.299 314.145 160.811V165H313.061V160.805C313.057 160.348 312.951 160.01 312.744 159.791C312.541 159.572 312.223 159.463 311.789 159.463C311.438 159.463 311.129 159.557 310.863 159.744C310.598 159.932 310.391 160.178 310.242 160.482V165H309.158V158.66H310.184ZM317.25 157.125V158.66H318.434V159.498H317.25V163.43C317.25 163.684 317.303 163.875 317.408 164.004C317.514 164.129 317.693 164.191 317.947 164.191C318.072 164.191 318.244 164.168 318.463 164.121V165C318.178 165.078 317.9 165.117 317.631 165.117C317.146 165.117 316.781 164.971 316.535 164.678C316.289 164.385 316.166 163.969 316.166 163.43V159.498H315.012V158.66H316.166V157.125H317.25ZM326.373 163.318C326.373 163.025 326.262 162.799 326.039 162.639C325.82 162.475 325.436 162.334 324.885 162.217C324.338 162.1 323.902 161.959 323.578 161.795C323.258 161.631 323.02 161.436 322.863 161.209C322.711 160.982 322.635 160.713 322.635 160.4C322.635 159.881 322.854 159.441 323.291 159.082C323.732 158.723 324.295 158.543 324.979 158.543C325.697 158.543 326.279 158.729 326.725 159.1C327.174 159.471 327.398 159.945 327.398 160.523H326.309C326.309 160.227 326.182 159.971 325.928 159.756C325.678 159.541 325.361 159.434 324.979 159.434C324.584 159.434 324.275 159.52 324.053 159.691C323.83 159.863 323.719 160.088 323.719 160.365C323.719 160.627 323.822 160.824 324.029 160.957C324.236 161.09 324.609 161.217 325.148 161.338C325.691 161.459 326.131 161.604 326.467 161.771C326.803 161.939 327.051 162.143 327.211 162.381C327.375 162.615 327.457 162.902 327.457 163.242C327.457 163.809 327.23 164.264 326.777 164.607C326.324 164.947 325.736 165.117 325.014 165.117C324.506 165.117 324.057 165.027 323.666 164.848C323.275 164.668 322.969 164.418 322.746 164.098C322.527 163.773 322.418 163.424 322.418 163.049H323.502C323.521 163.412 323.666 163.701 323.936 163.916C324.209 164.127 324.568 164.232 325.014 164.232C325.424 164.232 325.752 164.15 325.998 163.986C326.248 163.818 326.373 163.596 326.373 163.318ZM330.34 157.125V158.66H331.523V159.498H330.34V163.43C330.34 163.684 330.393 163.875 330.498 164.004C330.604 164.129 330.783 164.191 331.037 164.191C331.162 164.191 331.334 164.168 331.553 164.121V165C331.268 165.078 330.99 165.117 330.721 165.117C330.236 165.117 329.871 164.971 329.625 164.678C329.379 164.385 329.256 163.969 329.256 163.43V159.498H328.102V158.66H329.256V157.125H330.34ZM332.391 161.771C332.391 161.15 332.512 160.592 332.754 160.096C333 159.6 333.34 159.217 333.773 158.947C334.211 158.678 334.709 158.543 335.268 158.543C336.131 158.543 336.828 158.842 337.359 159.439C337.895 160.037 338.162 160.832 338.162 161.824V161.9C338.162 162.518 338.043 163.072 337.805 163.564C337.57 164.053 337.232 164.434 336.791 164.707C336.354 164.98 335.85 165.117 335.279 165.117C334.42 165.117 333.723 164.818 333.188 164.221C332.656 163.623 332.391 162.832 332.391 161.848V161.771ZM333.48 161.9C333.48 162.604 333.643 163.168 333.967 163.594C334.295 164.02 334.732 164.232 335.279 164.232C335.83 164.232 336.268 164.018 336.592 163.588C336.916 163.154 337.078 162.549 337.078 161.771C337.078 161.076 336.912 160.514 336.58 160.084C336.252 159.65 335.814 159.434 335.268 159.434C334.732 159.434 334.301 159.646 333.973 160.072C333.645 160.498 333.48 161.107 333.48 161.9ZM342.586 159.633C342.422 159.605 342.244 159.592 342.053 159.592C341.342 159.592 340.859 159.895 340.605 160.5V165H339.521V158.66H340.576L340.594 159.393C340.949 158.826 341.453 158.543 342.105 158.543C342.316 158.543 342.477 158.57 342.586 158.625V159.633ZM347.268 165C347.205 164.875 347.154 164.652 347.115 164.332C346.611 164.855 346.01 165.117 345.311 165.117C344.686 165.117 344.172 164.941 343.77 164.59C343.371 164.234 343.172 163.785 343.172 163.242C343.172 162.582 343.422 162.07 343.922 161.707C344.426 161.34 345.133 161.156 346.043 161.156H347.098V160.658C347.098 160.279 346.984 159.979 346.758 159.756C346.531 159.529 346.197 159.416 345.756 159.416C345.369 159.416 345.045 159.514 344.783 159.709C344.521 159.904 344.391 160.141 344.391 160.418H343.301C343.301 160.102 343.412 159.797 343.635 159.504C343.861 159.207 344.166 158.973 344.549 158.801C344.936 158.629 345.359 158.543 345.82 158.543C346.551 158.543 347.123 158.727 347.537 159.094C347.951 159.457 348.166 159.959 348.182 160.6V163.518C348.182 164.1 348.256 164.562 348.404 164.906V165H347.268ZM345.469 164.174C345.809 164.174 346.131 164.086 346.436 163.91C346.74 163.734 346.961 163.506 347.098 163.225V161.924H346.248C344.92 161.924 344.256 162.312 344.256 163.09C344.256 163.43 344.369 163.695 344.596 163.887C344.822 164.078 345.113 164.174 345.469 164.174ZM349.623 161.777C349.623 160.789 349.852 160.004 350.309 159.422C350.766 158.836 351.371 158.543 352.125 158.543C352.898 158.543 353.502 158.816 353.936 159.363L353.988 158.66H354.979V164.848C354.979 165.668 354.734 166.314 354.246 166.787C353.762 167.26 353.109 167.496 352.289 167.496C351.832 167.496 351.385 167.398 350.947 167.203C350.51 167.008 350.176 166.74 349.945 166.4L350.508 165.75C350.973 166.324 351.541 166.611 352.213 166.611C352.74 166.611 353.15 166.463 353.443 166.166C353.74 165.869 353.889 165.451 353.889 164.912V164.367C353.455 164.867 352.863 165.117 352.113 165.117C351.371 165.117 350.77 164.818 350.309 164.221C349.852 163.623 349.623 162.809 349.623 161.777ZM350.713 161.9C350.713 162.615 350.859 163.178 351.152 163.588C351.445 163.994 351.855 164.197 352.383 164.197C353.066 164.197 353.568 163.887 353.889 163.266V160.371C353.557 159.766 353.059 159.463 352.395 159.463C351.867 159.463 351.455 159.668 351.158 160.078C350.861 160.488 350.713 161.096 350.713 161.9ZM359.25 165.117C358.391 165.117 357.691 164.836 357.152 164.273C356.613 163.707 356.344 162.951 356.344 162.006V161.807C356.344 161.178 356.463 160.617 356.701 160.125C356.943 159.629 357.279 159.242 357.709 158.965C358.143 158.684 358.611 158.543 359.115 158.543C359.939 158.543 360.58 158.814 361.037 159.357C361.494 159.9 361.723 160.678 361.723 161.689V162.141H357.428C357.443 162.766 357.625 163.271 357.973 163.658C358.324 164.041 358.77 164.232 359.309 164.232C359.691 164.232 360.016 164.154 360.281 163.998C360.547 163.842 360.779 163.635 360.979 163.377L361.641 163.893C361.109 164.709 360.312 165.117 359.25 165.117ZM359.115 159.434C358.678 159.434 358.311 159.594 358.014 159.914C357.717 160.23 357.533 160.676 357.463 161.25H360.639V161.168C360.607 160.617 360.459 160.191 360.193 159.891C359.928 159.586 359.568 159.434 359.115 159.434Z" fill="black" fill-opacity="0.15"/>
<rect x="250.5" y="144.5" width="126" height="33" rx="6.5" stroke="black" stroke-opacity="0.15"/>
<rect x="59.5" y="84.5" width="146" height="148" rx="8.5" fill="#E9FFDB"/>
<path d="M68.5942 97.5347L68.7446 98.5659L68.9648 97.6367L70.5117 92.1797H71.3818L72.8911 97.6367L73.106 98.582L73.2725 97.5293L74.4863 92.1797H75.5229L73.627 100H72.687L71.0757 94.3013L70.9521 93.7051L70.8286 94.3013L69.1582 100H68.2183L66.3276 92.1797H67.3589L68.5942 97.5347ZM76.0815 97.0405C76.0815 96.4712 76.1925 95.9591 76.4146 95.5044C76.6401 95.0496 76.9517 94.6987 77.3491 94.4517C77.7502 94.2046 78.2067 94.0811 78.7188 94.0811C79.5101 94.0811 80.1493 94.355 80.6362 94.9028C81.1268 95.4507 81.3721 96.1794 81.3721 97.0889V97.1587C81.3721 97.7244 81.2629 98.2329 81.0444 98.6841C80.8296 99.1317 80.5199 99.4808 80.1152 99.7314C79.7142 99.9821 79.2523 100.107 78.7295 100.107C77.9417 100.107 77.3026 99.8335 76.812 99.2856C76.325 98.7378 76.0815 98.0127 76.0815 97.1104V97.0405ZM77.0806 97.1587C77.0806 97.8032 77.2292 98.3206 77.5264 98.7109C77.8271 99.1012 78.2282 99.2964 78.7295 99.2964C79.2344 99.2964 79.6354 99.0994 79.9326 98.7056C80.2298 98.3081 80.3784 97.7531 80.3784 97.0405C80.3784 96.4032 80.2262 95.8875 79.9219 95.4937C79.6211 95.0962 79.2201 94.8975 78.7188 94.8975C78.2282 94.8975 77.8325 95.0926 77.5317 95.4829C77.231 95.8732 77.0806 96.4318 77.0806 97.1587ZM85.4272 95.0801C85.2769 95.055 85.1139 95.0425 84.9385 95.0425C84.2868 95.0425 83.8446 95.32 83.6118 95.875V100H82.6182V94.1885H83.585L83.6011 94.8599C83.9269 94.3407 84.3888 94.0811 84.9868 94.0811C85.1802 94.0811 85.327 94.1061 85.4272 94.1562V95.0801ZM87.4253 100H86.4316V91.75H87.4253V100ZM88.7788 97.0459C88.7788 96.1543 88.9901 95.4382 89.4126 94.8975C89.8351 94.3532 90.3883 94.0811 91.0723 94.0811C91.7526 94.0811 92.2915 94.3138 92.689 94.7793V91.75H93.6826V100H92.7695L92.7212 99.377C92.3237 99.8639 91.7705 100.107 91.0615 100.107C90.3883 100.107 89.8387 99.8317 89.4126 99.2803C88.9901 98.7288 88.7788 98.0091 88.7788 97.1211V97.0459ZM89.7725 97.1587C89.7725 97.8175 89.9085 98.3332 90.1807 98.7056C90.4528 99.078 90.8288 99.2642 91.3086 99.2642C91.9388 99.2642 92.3989 98.9813 92.689 98.4155V95.7461C92.3918 95.1982 91.9352 94.9243 91.3193 94.9243C90.8324 94.9243 90.4528 95.1123 90.1807 95.4883C89.9085 95.8643 89.7725 96.4211 89.7725 97.1587ZM100.418 96.5142C99.5335 96.2599 98.889 95.9484 98.4844 95.5796C98.0833 95.2072 97.8828 94.7489 97.8828 94.2046C97.8828 93.5887 98.1281 93.0802 98.6187 92.6792C99.1128 92.2746 99.7537 92.0723 100.542 92.0723C101.079 92.0723 101.557 92.1761 101.976 92.3838C102.398 92.5915 102.724 92.8779 102.953 93.2432C103.186 93.6084 103.302 94.0076 103.302 94.4409H102.266C102.266 93.9683 102.115 93.5977 101.814 93.3291C101.514 93.057 101.089 92.9209 100.542 92.9209C100.033 92.9209 99.6356 93.0337 99.3491 93.2593C99.0662 93.4813 98.9248 93.791 98.9248 94.1885C98.9248 94.5072 99.0591 94.7775 99.3276 94.9995C99.5998 95.2179 100.06 95.4185 100.708 95.6011C101.36 95.7837 101.868 95.986 102.233 96.208C102.602 96.4264 102.874 96.6825 103.05 96.9761C103.229 97.2697 103.318 97.6152 103.318 98.0127C103.318 98.6465 103.071 99.1549 102.577 99.5381C102.083 99.9176 101.422 100.107 100.595 100.107C100.058 100.107 99.5568 100.005 99.0913 99.8013C98.6258 99.5936 98.266 99.3107 98.0117 98.9526C97.7611 98.5946 97.6357 98.1882 97.6357 97.7334H98.6724C98.6724 98.2061 98.846 98.5802 99.1934 98.856C99.5443 99.1281 100.012 99.2642 100.595 99.2642C101.139 99.2642 101.557 99.1532 101.847 98.9312C102.137 98.7091 102.282 98.4066 102.282 98.0234C102.282 97.6403 102.147 97.3449 101.879 97.1372C101.61 96.9259 101.123 96.7183 100.418 96.5142ZM105.569 100H104.575V94.1885H105.569V100ZM104.495 92.647C104.495 92.4858 104.543 92.3498 104.64 92.2388C104.74 92.1278 104.887 92.0723 105.08 92.0723C105.273 92.0723 105.42 92.1278 105.521 92.2388C105.621 92.3498 105.671 92.4858 105.671 92.647C105.671 92.8081 105.621 92.9424 105.521 93.0498C105.42 93.1572 105.273 93.2109 105.08 93.2109C104.887 93.2109 104.74 93.1572 104.64 93.0498C104.543 92.9424 104.495 92.8081 104.495 92.647ZM108.099 94.1885L108.125 94.833C108.552 94.3317 109.126 94.0811 109.85 94.0811C110.662 94.0811 111.216 94.3926 111.509 95.0156C111.703 94.7363 111.953 94.5107 112.261 94.3389C112.573 94.167 112.94 94.0811 113.362 94.0811C114.637 94.0811 115.285 94.756 115.307 96.106V100H114.313V96.165C114.313 95.7497 114.218 95.4399 114.028 95.2358C113.839 95.0282 113.52 94.9243 113.072 94.9243C112.703 94.9243 112.397 95.0353 112.154 95.2573C111.91 95.4757 111.769 95.7712 111.729 96.1436V100H110.73V96.1919C110.73 95.3468 110.317 94.9243 109.49 94.9243C108.838 94.9243 108.392 95.2018 108.152 95.7568V100H107.159V94.1885H108.099ZM120.398 99.4253C120.012 99.88 119.444 100.107 118.696 100.107C118.076 100.107 117.604 99.9284 117.278 99.5703C116.956 99.2087 116.793 98.6751 116.789 97.9697V94.1885H117.783V97.9429C117.783 98.8237 118.141 99.2642 118.857 99.2642C119.616 99.2642 120.121 98.9813 120.372 98.4155V94.1885H121.365V100H120.42L120.398 99.4253ZM123.959 100H122.966V91.75H123.959V100ZM129.143 100C129.085 99.8854 129.039 99.6813 129.003 99.3877C128.541 99.8675 127.99 100.107 127.349 100.107C126.776 100.107 126.305 99.9463 125.936 99.624C125.571 99.2982 125.388 98.8864 125.388 98.3887C125.388 97.7835 125.617 97.3145 126.076 96.9814C126.538 96.6449 127.186 96.4766 128.02 96.4766H128.987V96.02C128.987 95.6727 128.883 95.397 128.675 95.1929C128.468 94.9852 128.161 94.8813 127.757 94.8813C127.402 94.8813 127.105 94.9709 126.865 95.1499C126.625 95.3289 126.505 95.5456 126.505 95.7998H125.506C125.506 95.5098 125.608 95.2305 125.812 94.9619C126.02 94.6898 126.299 94.4749 126.65 94.3174C127.005 94.1598 127.393 94.0811 127.816 94.0811C128.486 94.0811 129.01 94.2493 129.39 94.5859C129.769 94.9189 129.966 95.3791 129.98 95.9663V98.6411C129.98 99.1746 130.049 99.599 130.185 99.9141V100H129.143ZM127.494 99.2427C127.805 99.2427 128.101 99.1621 128.38 99.001C128.659 98.8398 128.861 98.6304 128.987 98.3726V97.1802H128.208C126.991 97.1802 126.382 97.5365 126.382 98.249C126.382 98.5605 126.486 98.804 126.693 98.9795C126.901 99.1549 127.168 99.2427 127.494 99.2427ZM132.886 92.7812V94.1885H133.971V94.9565H132.886V98.5605C132.886 98.7933 132.935 98.9688 133.031 99.0869C133.128 99.2015 133.293 99.2588 133.525 99.2588C133.64 99.2588 133.798 99.2373 133.998 99.1943V100C133.737 100.072 133.482 100.107 133.235 100.107C132.791 100.107 132.457 99.9731 132.231 99.7046C132.005 99.436 131.893 99.0547 131.893 98.5605V94.9565H130.834V94.1885H131.893V92.7812H132.886ZM136.216 100H135.223V94.1885H136.216V100ZM135.142 92.647C135.142 92.4858 135.19 92.3498 135.287 92.2388C135.387 92.1278 135.534 92.0723 135.728 92.0723C135.921 92.0723 136.068 92.1278 136.168 92.2388C136.268 92.3498 136.318 92.4858 136.318 92.647C136.318 92.8081 136.268 92.9424 136.168 93.0498C136.068 93.1572 135.921 93.2109 135.728 93.2109C135.534 93.2109 135.387 93.1572 135.287 93.0498C135.19 92.9424 135.142 92.8081 135.142 92.647ZM137.548 97.0405C137.548 96.4712 137.659 95.9591 137.881 95.5044C138.107 95.0496 138.418 94.6987 138.816 94.4517C139.217 94.2046 139.674 94.0811 140.186 94.0811C140.977 94.0811 141.616 94.355 142.103 94.9028C142.594 95.4507 142.839 96.1794 142.839 97.0889V97.1587C142.839 97.7244 142.73 98.2329 142.511 98.6841C142.296 99.1317 141.987 99.4808 141.582 99.7314C141.181 99.9821 140.719 100.107 140.196 100.107C139.409 100.107 138.769 99.8335 138.279 99.2856C137.792 98.7378 137.548 98.0127 137.548 97.1104V97.0405ZM138.547 97.1587C138.547 97.8032 138.696 98.3206 138.993 98.7109C139.294 99.1012 139.695 99.2964 140.196 99.2964C140.701 99.2964 141.102 99.0994 141.399 98.7056C141.697 98.3081 141.845 97.7531 141.845 97.0405C141.845 96.4032 141.693 95.8875 141.389 95.4937C141.088 95.0962 140.687 94.8975 140.186 94.8975C139.695 94.8975 139.299 95.0926 138.999 95.4829C138.698 95.8732 138.547 96.4318 138.547 97.1587ZM145.025 94.1885L145.057 94.9189C145.501 94.3604 146.081 94.0811 146.797 94.0811C148.026 94.0811 148.645 94.7739 148.656 96.1597V100H147.662V96.1543C147.659 95.7354 147.562 95.4256 147.372 95.2251C147.186 95.0246 146.894 94.9243 146.497 94.9243C146.174 94.9243 145.891 95.0103 145.648 95.1821C145.404 95.354 145.215 95.5796 145.079 95.8589V100H144.085V94.1885H145.025Z" fill="black"/>
<rect x="59.5" y="84.5" width="146" height="148" rx="8.5" stroke="black"/>
<rect x="77.5" y="118.5" width="106" height="47" rx="6.5" fill="white"/>
<path d="M102.803 135.057H99.1055V138.08H103.4V139H97.9805V130.469H103.342V131.395H99.1055V134.137H102.803V135.057ZM105.656 132.66L105.691 133.457C106.176 132.848 106.809 132.543 107.59 132.543C108.93 132.543 109.605 133.299 109.617 134.811V139H108.533V134.805C108.529 134.348 108.424 134.01 108.217 133.791C108.014 133.572 107.695 133.463 107.262 133.463C106.91 133.463 106.602 133.557 106.336 133.744C106.07 133.932 105.863 134.178 105.715 134.482V139H104.631V132.66H105.656ZM113.344 137.529L114.914 132.66H116.021L113.748 139H112.922L110.625 132.66H111.732L113.344 137.529ZM118.242 139H117.158V132.66H118.242V139ZM117.07 130.979C117.07 130.803 117.123 130.654 117.229 130.533C117.338 130.412 117.498 130.352 117.709 130.352C117.92 130.352 118.08 130.412 118.189 130.533C118.299 130.654 118.354 130.803 118.354 130.979C118.354 131.154 118.299 131.301 118.189 131.418C118.08 131.535 117.92 131.594 117.709 131.594C117.498 131.594 117.338 131.535 117.229 131.418C117.123 131.301 117.07 131.154 117.07 130.979ZM123.047 133.633C122.883 133.605 122.705 133.592 122.514 133.592C121.803 133.592 121.32 133.895 121.066 134.5V139H119.982V132.66H121.037L121.055 133.393C121.41 132.826 121.914 132.543 122.566 132.543C122.777 132.543 122.938 132.57 123.047 132.625V133.633ZM123.645 135.771C123.645 135.15 123.766 134.592 124.008 134.096C124.254 133.6 124.594 133.217 125.027 132.947C125.465 132.678 125.963 132.543 126.521 132.543C127.385 132.543 128.082 132.842 128.613 133.439C129.148 134.037 129.416 134.832 129.416 135.824V135.9C129.416 136.518 129.297 137.072 129.059 137.564C128.824 138.053 128.486 138.434 128.045 138.707C127.607 138.98 127.104 139.117 126.533 139.117C125.674 139.117 124.977 138.818 124.441 138.221C123.91 137.623 123.645 136.832 123.645 135.848V135.771ZM124.734 135.9C124.734 136.604 124.896 137.168 125.221 137.594C125.549 138.02 125.986 138.232 126.533 138.232C127.084 138.232 127.521 138.018 127.846 137.588C128.17 137.154 128.332 136.549 128.332 135.771C128.332 135.076 128.166 134.514 127.834 134.084C127.506 133.65 127.068 133.434 126.521 133.434C125.986 133.434 125.555 133.646 125.227 134.072C124.898 134.498 124.734 135.107 124.734 135.9ZM131.801 132.66L131.836 133.457C132.32 132.848 132.953 132.543 133.734 132.543C135.074 132.543 135.75 133.299 135.762 134.811V139H134.678V134.805C134.674 134.348 134.568 134.01 134.361 133.791C134.158 133.572 133.84 133.463 133.406 133.463C133.055 133.463 132.746 133.557 132.48 133.744C132.215 133.932 132.008 134.178 131.859 134.482V139H130.775V132.66H131.801ZM138.416 132.66L138.445 133.363C138.91 132.816 139.537 132.543 140.326 132.543C141.213 132.543 141.816 132.883 142.137 133.562C142.348 133.258 142.621 133.012 142.957 132.824C143.297 132.637 143.697 132.543 144.158 132.543C145.549 132.543 146.256 133.279 146.279 134.752V139H145.195V134.816C145.195 134.363 145.092 134.025 144.885 133.803C144.678 133.576 144.33 133.463 143.842 133.463C143.439 133.463 143.105 133.584 142.84 133.826C142.574 134.064 142.42 134.387 142.377 134.793V139H141.287V134.846C141.287 133.924 140.836 133.463 139.934 133.463C139.223 133.463 138.736 133.766 138.475 134.371V139H137.391V132.66H138.416ZM150.551 139.117C149.691 139.117 148.992 138.836 148.453 138.273C147.914 137.707 147.645 136.951 147.645 136.006V135.807C147.645 135.178 147.764 134.617 148.002 134.125C148.244 133.629 148.58 133.242 149.01 132.965C149.443 132.684 149.912 132.543 150.416 132.543C151.24 132.543 151.881 132.814 152.338 133.357C152.795 133.9 153.023 134.678 153.023 135.689V136.141H148.729C148.744 136.766 148.926 137.271 149.273 137.658C149.625 138.041 150.07 138.232 150.609 138.232C150.992 138.232 151.316 138.154 151.582 137.998C151.848 137.842 152.08 137.635 152.279 137.377L152.941 137.893C152.41 138.709 151.613 139.117 150.551 139.117ZM150.416 133.434C149.979 133.434 149.611 133.594 149.314 133.914C149.018 134.23 148.834 134.676 148.764 135.25H151.939V135.168C151.908 134.617 151.76 134.191 151.494 133.891C151.229 133.586 150.869 133.434 150.416 133.434ZM155.309 132.66L155.344 133.457C155.828 132.848 156.461 132.543 157.242 132.543C158.582 132.543 159.258 133.299 159.27 134.811V139H158.186V134.805C158.182 134.348 158.076 134.01 157.869 133.791C157.666 133.572 157.348 133.463 156.914 133.463C156.562 133.463 156.254 133.557 155.988 133.744C155.723 133.932 155.516 134.178 155.367 134.482V139H154.283V132.66H155.309ZM162.375 131.125V132.66H163.559V133.498H162.375V137.43C162.375 137.684 162.428 137.875 162.533 138.004C162.639 138.129 162.818 138.191 163.072 138.191C163.197 138.191 163.369 138.168 163.588 138.121V139C163.303 139.078 163.025 139.117 162.756 139.117C162.271 139.117 161.906 138.971 161.66 138.678C161.414 138.385 161.291 137.969 161.291 137.43V133.498H160.137V132.66H161.291V131.125H162.375ZM105.533 149.197C104.568 148.92 103.865 148.58 103.424 148.178C102.986 147.771 102.768 147.271 102.768 146.678C102.768 146.006 103.035 145.451 103.57 145.014C104.109 144.572 104.809 144.352 105.668 144.352C106.254 144.352 106.775 144.465 107.232 144.691C107.693 144.918 108.049 145.23 108.299 145.629C108.553 146.027 108.68 146.463 108.68 146.936H107.549C107.549 146.42 107.385 146.016 107.057 145.723C106.729 145.426 106.266 145.277 105.668 145.277C105.113 145.277 104.68 145.4 104.367 145.646C104.059 145.889 103.904 146.227 103.904 146.66C103.904 147.008 104.051 147.303 104.344 147.545C104.641 147.783 105.143 148.002 105.85 148.201C106.561 148.4 107.115 148.621 107.514 148.863C107.916 149.102 108.213 149.381 108.404 149.701C108.6 150.021 108.697 150.398 108.697 150.832C108.697 151.523 108.428 152.078 107.889 152.496C107.35 152.91 106.629 153.117 105.727 153.117C105.141 153.117 104.594 153.006 104.086 152.783C103.578 152.557 103.186 152.248 102.908 151.857C102.635 151.467 102.498 151.023 102.498 150.527H103.629C103.629 151.043 103.818 151.451 104.197 151.752C104.58 152.049 105.09 152.197 105.727 152.197C106.32 152.197 106.775 152.076 107.092 151.834C107.408 151.592 107.566 151.262 107.566 150.844C107.566 150.426 107.42 150.104 107.127 149.877C106.834 149.646 106.303 149.42 105.533 149.197ZM111.152 153H110.068V146.66H111.152V153ZM109.98 144.979C109.98 144.803 110.033 144.654 110.139 144.533C110.248 144.412 110.408 144.352 110.619 144.352C110.83 144.352 110.99 144.412 111.1 144.533C111.209 144.654 111.264 144.803 111.264 144.979C111.264 145.154 111.209 145.301 111.1 145.418C110.99 145.535 110.83 145.594 110.619 145.594C110.408 145.594 110.248 145.535 110.139 145.418C110.033 145.301 109.98 145.154 109.98 144.979ZM113.912 146.66L113.941 147.363C114.406 146.816 115.033 146.543 115.822 146.543C116.709 146.543 117.312 146.883 117.633 147.562C117.844 147.258 118.117 147.012 118.453 146.824C118.793 146.637 119.193 146.543 119.654 146.543C121.045 146.543 121.752 147.279 121.775 148.752V153H120.691V148.816C120.691 148.363 120.588 148.025 120.381 147.803C120.174 147.576 119.826 147.463 119.338 147.463C118.936 147.463 118.602 147.584 118.336 147.826C118.07 148.064 117.916 148.387 117.873 148.793V153H116.783V148.846C116.783 147.924 116.332 147.463 115.43 147.463C114.719 147.463 114.232 147.766 113.971 148.371V153H112.887V146.66H113.912ZM127.33 152.373C126.908 152.869 126.289 153.117 125.473 153.117C124.797 153.117 124.281 152.922 123.926 152.531C123.574 152.137 123.396 151.555 123.393 150.785V146.66H124.477V150.756C124.477 151.717 124.867 152.197 125.648 152.197C126.477 152.197 127.027 151.889 127.301 151.271V146.66H128.385V153H127.354L127.33 152.373ZM131.215 153H130.131V144H131.215V153ZM136.869 153C136.807 152.875 136.756 152.652 136.717 152.332C136.213 152.855 135.611 153.117 134.912 153.117C134.287 153.117 133.773 152.941 133.371 152.59C132.973 152.234 132.773 151.785 132.773 151.242C132.773 150.582 133.023 150.07 133.523 149.707C134.027 149.34 134.734 149.156 135.645 149.156H136.699V148.658C136.699 148.279 136.586 147.979 136.359 147.756C136.133 147.529 135.799 147.416 135.357 147.416C134.971 147.416 134.646 147.514 134.385 147.709C134.123 147.904 133.992 148.141 133.992 148.418H132.902C132.902 148.102 133.014 147.797 133.236 147.504C133.463 147.207 133.768 146.973 134.15 146.801C134.537 146.629 134.961 146.543 135.422 146.543C136.152 146.543 136.725 146.727 137.139 147.094C137.553 147.457 137.768 147.959 137.783 148.6V151.518C137.783 152.1 137.857 152.562 138.006 152.906V153H136.869ZM135.07 152.174C135.41 152.174 135.732 152.086 136.037 151.91C136.342 151.734 136.562 151.506 136.699 151.225V149.924H135.85C134.521 149.924 133.857 150.312 133.857 151.09C133.857 151.43 133.971 151.695 134.197 151.887C134.424 152.078 134.715 152.174 135.07 152.174ZM140.953 145.125V146.66H142.137V147.498H140.953V151.43C140.953 151.684 141.006 151.875 141.111 152.004C141.217 152.129 141.396 152.191 141.65 152.191C141.775 152.191 141.947 152.168 142.166 152.121V153C141.881 153.078 141.604 153.117 141.334 153.117C140.85 153.117 140.484 152.971 140.238 152.678C139.992 152.385 139.869 151.969 139.869 151.43V147.498H138.715V146.66H139.869V145.125H140.953ZM144.586 153H143.502V146.66H144.586V153ZM143.414 144.979C143.414 144.803 143.467 144.654 143.572 144.533C143.682 144.412 143.842 144.352 144.053 144.352C144.264 144.352 144.424 144.412 144.533 144.533C144.643 144.654 144.697 144.803 144.697 144.979C144.697 145.154 144.643 145.301 144.533 145.418C144.424 145.535 144.264 145.594 144.053 145.594C143.842 145.594 143.682 145.535 143.572 145.418C143.467 145.301 143.414 145.154 143.414 144.979ZM146.039 149.771C146.039 149.15 146.16 148.592 146.402 148.096C146.648 147.6 146.988 147.217 147.422 146.947C147.859 146.678 148.357 146.543 148.916 146.543C149.779 146.543 150.477 146.842 151.008 147.439C151.543 148.037 151.811 148.832 151.811 149.824V149.9C151.811 150.518 151.691 151.072 151.453 151.564C151.219 152.053 150.881 152.434 150.439 152.707C150.002 152.98 149.498 153.117 148.928 153.117C148.068 153.117 147.371 152.818 146.836 152.221C146.305 151.623 146.039 150.832 146.039 149.848V149.771ZM147.129 149.9C147.129 150.604 147.291 151.168 147.615 151.594C147.943 152.02 148.381 152.232 148.928 152.232C149.479 152.232 149.916 152.018 150.24 151.588C150.564 151.154 150.727 150.549 150.727 149.771C150.727 149.076 150.561 148.514 150.229 148.084C149.9 147.65 149.463 147.434 148.916 147.434C148.381 147.434 147.949 147.646 147.621 148.072C147.293 148.498 147.129 149.107 147.129 149.9ZM154.195 146.66L154.23 147.457C154.715 146.848 155.348 146.543 156.129 146.543C157.469 146.543 158.145 147.299 158.156 148.811V153H157.072V148.805C157.068 148.348 156.963 148.01 156.756 147.791C156.553 147.572 156.234 147.463 155.801 147.463C155.449 147.463 155.141 147.557 154.875 147.744C154.609 147.932 154.402 148.178 154.254 148.482V153H153.17V146.66H154.195Z" fill="black"/>
<rect x="77.5" y="118.5" width="106" height="47" rx="6.5" stroke="black"/>
<rect x="77.5" y="185.5" width="106" height="33" rx="6.5" fill="white"/>
<path d="M91.4062 202.057H87.709V205.08H92.0039V206H86.584V197.469H91.9453V198.395H87.709V201.137H91.4062V202.057ZM94.2598 199.66L94.2949 200.457C94.7793 199.848 95.4121 199.543 96.1934 199.543C97.5332 199.543 98.209 200.299 98.2207 201.811V206H97.1367V201.805C97.1328 201.348 97.0273 201.01 96.8203 200.791C96.6172 200.572 96.2988 200.463 95.8652 200.463C95.5137 200.463 95.2051 200.557 94.9395 200.744C94.6738 200.932 94.4668 201.178 94.3184 201.482V206H93.2344V199.66H94.2598ZM101.326 198.125V199.66H102.51V200.498H101.326V204.43C101.326 204.684 101.379 204.875 101.484 205.004C101.59 205.129 101.77 205.191 102.023 205.191C102.148 205.191 102.32 205.168 102.539 205.121V206C102.254 206.078 101.977 206.117 101.707 206.117C101.223 206.117 100.857 205.971 100.611 205.678C100.365 205.385 100.242 204.969 100.242 204.43V200.498H99.0879V199.66H100.242V198.125H101.326ZM104.959 206H103.875V199.66H104.959V206ZM103.787 197.979C103.787 197.803 103.84 197.654 103.945 197.533C104.055 197.412 104.215 197.352 104.426 197.352C104.637 197.352 104.797 197.412 104.906 197.533C105.016 197.654 105.07 197.803 105.07 197.979C105.07 198.154 105.016 198.301 104.906 198.418C104.797 198.535 104.637 198.594 104.426 198.594C104.215 198.594 104.055 198.535 103.945 198.418C103.84 198.301 103.787 198.154 103.787 197.979ZM108.17 198.125V199.66H109.354V200.498H108.17V204.43C108.17 204.684 108.223 204.875 108.328 205.004C108.434 205.129 108.613 205.191 108.867 205.191C108.992 205.191 109.164 205.168 109.383 205.121V206C109.098 206.078 108.82 206.117 108.551 206.117C108.066 206.117 107.701 205.971 107.455 205.678C107.209 205.385 107.086 204.969 107.086 204.43V200.498H105.932V199.66H107.086V198.125H108.17ZM112.699 204.412L114.176 199.66H115.336L112.787 206.979C112.393 208.033 111.766 208.561 110.906 208.561L110.701 208.543L110.297 208.467V207.588L110.59 207.611C110.957 207.611 111.242 207.537 111.445 207.389C111.652 207.24 111.822 206.969 111.955 206.574L112.195 205.93L109.934 199.66H111.117L112.699 204.412ZM121.969 202.197C121.004 201.92 120.301 201.58 119.859 201.178C119.422 200.771 119.203 200.271 119.203 199.678C119.203 199.006 119.471 198.451 120.006 198.014C120.545 197.572 121.244 197.352 122.104 197.352C122.689 197.352 123.211 197.465 123.668 197.691C124.129 197.918 124.484 198.23 124.734 198.629C124.988 199.027 125.115 199.463 125.115 199.936H123.984C123.984 199.42 123.82 199.016 123.492 198.723C123.164 198.426 122.701 198.277 122.104 198.277C121.549 198.277 121.115 198.4 120.803 198.646C120.494 198.889 120.34 199.227 120.34 199.66C120.34 200.008 120.486 200.303 120.779 200.545C121.076 200.783 121.578 201.002 122.285 201.201C122.996 201.4 123.551 201.621 123.949 201.863C124.352 202.102 124.648 202.381 124.84 202.701C125.035 203.021 125.133 203.398 125.133 203.832C125.133 204.523 124.863 205.078 124.324 205.496C123.785 205.91 123.064 206.117 122.162 206.117C121.576 206.117 121.029 206.006 120.521 205.783C120.014 205.557 119.621 205.248 119.344 204.857C119.07 204.467 118.934 204.023 118.934 203.527H120.064C120.064 204.043 120.254 204.451 120.633 204.752C121.016 205.049 121.525 205.197 122.162 205.197C122.756 205.197 123.211 205.076 123.527 204.834C123.844 204.592 124.002 204.262 124.002 203.844C124.002 203.426 123.855 203.104 123.562 202.877C123.27 202.646 122.738 202.42 121.969 202.197ZM127.588 206H126.504V199.66H127.588V206ZM126.416 197.979C126.416 197.803 126.469 197.654 126.574 197.533C126.684 197.412 126.844 197.352 127.055 197.352C127.266 197.352 127.426 197.412 127.535 197.533C127.645 197.654 127.699 197.803 127.699 197.979C127.699 198.154 127.645 198.301 127.535 198.418C127.426 198.535 127.266 198.594 127.055 198.594C126.844 198.594 126.684 198.535 126.574 198.418C126.469 198.301 126.416 198.154 126.416 197.979ZM130.348 199.66L130.377 200.363C130.842 199.816 131.469 199.543 132.258 199.543C133.145 199.543 133.748 199.883 134.068 200.562C134.279 200.258 134.553 200.012 134.889 199.824C135.229 199.637 135.629 199.543 136.09 199.543C137.48 199.543 138.188 200.279 138.211 201.752V206H137.127V201.816C137.127 201.363 137.023 201.025 136.816 200.803C136.609 200.576 136.262 200.463 135.773 200.463C135.371 200.463 135.037 200.584 134.771 200.826C134.506 201.064 134.352 201.387 134.309 201.793V206H133.219V201.846C133.219 200.924 132.768 200.463 131.865 200.463C131.154 200.463 130.668 200.766 130.406 201.371V206H129.322V199.66H130.348ZM143.766 205.373C143.344 205.869 142.725 206.117 141.908 206.117C141.232 206.117 140.717 205.922 140.361 205.531C140.01 205.137 139.832 204.555 139.828 203.785V199.66H140.912V203.756C140.912 204.717 141.303 205.197 142.084 205.197C142.912 205.197 143.463 204.889 143.736 204.271V199.66H144.82V206H143.789L143.766 205.373ZM147.65 206H146.566V197H147.65V206ZM153.305 206C153.242 205.875 153.191 205.652 153.152 205.332C152.648 205.855 152.047 206.117 151.348 206.117C150.723 206.117 150.209 205.941 149.807 205.59C149.408 205.234 149.209 204.785 149.209 204.242C149.209 203.582 149.459 203.07 149.959 202.707C150.463 202.34 151.17 202.156 152.08 202.156H153.135V201.658C153.135 201.279 153.021 200.979 152.795 200.756C152.568 200.529 152.234 200.416 151.793 200.416C151.406 200.416 151.082 200.514 150.82 200.709C150.559 200.904 150.428 201.141 150.428 201.418H149.338C149.338 201.102 149.449 200.797 149.672 200.504C149.898 200.207 150.203 199.973 150.586 199.801C150.973 199.629 151.396 199.543 151.857 199.543C152.588 199.543 153.16 199.727 153.574 200.094C153.988 200.457 154.203 200.959 154.219 201.6V204.518C154.219 205.1 154.293 205.562 154.441 205.906V206H153.305ZM151.506 205.174C151.846 205.174 152.168 205.086 152.473 204.91C152.777 204.734 152.998 204.506 153.135 204.225V202.924H152.285C150.957 202.924 150.293 203.312 150.293 204.09C150.293 204.43 150.406 204.695 150.633 204.887C150.859 205.078 151.15 205.174 151.506 205.174ZM157.389 198.125V199.66H158.572V200.498H157.389V204.43C157.389 204.684 157.441 204.875 157.547 205.004C157.652 205.129 157.832 205.191 158.086 205.191C158.211 205.191 158.383 205.168 158.602 205.121V206C158.316 206.078 158.039 206.117 157.77 206.117C157.285 206.117 156.92 205.971 156.674 205.678C156.428 205.385 156.305 204.969 156.305 204.43V200.498H155.15V199.66H156.305V198.125H157.389ZM161.021 206H159.938V199.66H161.021V206ZM159.85 197.979C159.85 197.803 159.902 197.654 160.008 197.533C160.117 197.412 160.277 197.352 160.488 197.352C160.699 197.352 160.859 197.412 160.969 197.533C161.078 197.654 161.133 197.803 161.133 197.979C161.133 198.154 161.078 198.301 160.969 198.418C160.859 198.535 160.699 198.594 160.488 198.594C160.277 198.594 160.117 198.535 160.008 198.418C159.902 198.301 159.85 198.154 159.85 197.979ZM162.475 202.771C162.475 202.15 162.596 201.592 162.838 201.096C163.084 200.6 163.424 200.217 163.857 199.947C164.295 199.678 164.793 199.543 165.352 199.543C166.215 199.543 166.912 199.842 167.443 200.439C167.979 201.037 168.246 201.832 168.246 202.824V202.9C168.246 203.518 168.127 204.072 167.889 204.564C167.654 205.053 167.316 205.434 166.875 205.707C166.438 205.98 165.934 206.117 165.363 206.117C164.504 206.117 163.807 205.818 163.271 205.221C162.74 204.623 162.475 203.832 162.475 202.848V202.771ZM163.564 202.9C163.564 203.604 163.727 204.168 164.051 204.594C164.379 205.02 164.816 205.232 165.363 205.232C165.914 205.232 166.352 205.018 166.676 204.588C167 204.154 167.162 203.549 167.162 202.771C167.162 202.076 166.996 201.514 166.664 201.084C166.336 200.65 165.898 200.434 165.352 200.434C164.816 200.434 164.385 200.646 164.057 201.072C163.729 201.498 163.564 202.107 163.564 202.9ZM170.631 199.66L170.666 200.457C171.15 199.848 171.783 199.543 172.564 199.543C173.904 199.543 174.58 200.299 174.592 201.811V206H173.508V201.805C173.504 201.348 173.398 201.01 173.191 200.791C172.988 200.572 172.67 200.463 172.236 200.463C171.885 200.463 171.576 200.557 171.311 200.744C171.045 200.932 170.838 201.178 170.689 201.482V206H169.605V199.66H170.631Z" fill="black"/>
<rect x="77.5" y="185.5" width="106" height="33" rx="6.5" stroke="black"/>
<path d="M205.646 38.1464C205.451 38.3417 205.451 38.6583 205.646 38.8536L208.828 42.0355C209.024 42.2308 209.34 42.2308 209.536 42.0355C209.731 41.8403 209.731 41.5237 209.536 41.3284L206.707 38.5L209.536 35.6716C209.731 35.4763 209.731 35.1597 209.536 34.9645C209.34 34.7692 209.024 34.7692 208.828 34.9645L205.646 38.1464ZM291.5 38.5H292V38H291.5V38.5ZM206 39H291.5V38H206V39ZM291 38.5V86H292V38.5H291Z" fill="black"/>
<path d="M273 50H273.5V49.5H273V50ZM272.646 86.3536C272.842 86.5488 273.158 86.5488 273.354 86.3536L276.536 83.1716C276.731 82.9763 276.731 82.6597 276.536 82.4645C276.34 82.2692 276.024 82.2692 275.828 82.4645L273 85.2929L270.172 82.4645C269.976 82.2692 269.66 82.2692 269.464 82.4645C269.269 82.6597 269.269 82.9763 269.464 83.1716L272.646 86.3536ZM206 50.5H273V49.5H206V50.5ZM272.5 50V86H273.5V50H272.5Z" fill="black"/>
<path d="M205.646 99.6464C205.451 99.8417 205.451 100.158 205.646 100.354L208.828 103.536C209.024 103.731 209.34 103.731 209.536 103.536C209.731 103.34 209.731 103.024 209.536 102.828L206.707 100L209.536 97.1716C209.731 96.9763 209.731 96.6597 209.536 96.4645C209.34 96.2692 209.024 96.2692 208.828 96.4645L205.646 99.6464ZM206 100.5L250 100.5V99.5L206 99.5V100.5Z" fill="black"/>
<path d="M14.8232 44.8232C14.7256 44.9209 14.7256 45.0791 14.8232 45.1768L16.4142 46.7678C16.5118 46.8654 16.6701 46.8654 16.7678 46.7678C16.8654 46.6701 16.8654 46.5118 16.7678 46.4142L15.3536 45L16.7678 43.5858C16.8654 43.4882 16.8654 43.3299 16.7678 43.2322C16.6701 43.1346 16.5118 43.1346 16.4142 43.2322L14.8232 44.8232ZM59.1768 45.1768C59.2744 45.0791 59.2744 44.9209 59.1768 44.8232L57.5858 43.2322C57.4882 43.1346 57.3299 43.1346 57.2322 43.2322C57.1346 43.3299 57.1346 43.4882 57.2322 43.5858L58.6464 45L57.2322 46.4142C57.1346 46.5118 57.1346 46.6701 57.2322 46.7678C57.3299 46.8654 57.4882 46.8654 57.5858 46.7678L59.1768 45.1768ZM15 45.25H17.75V44.75H15V45.25ZM23.25 45.25H28.75V44.75H23.25V45.25ZM34.25 45.25H39.75V44.75H34.25V45.25ZM45.25 45.25H50.75V44.75H45.25V45.25ZM56.25 45.25L59 45.25V44.75L56.25 44.75V45.25ZM14.6464 44.6464C14.4512 44.8417 14.4512 45.1583 14.6464 45.3536L17.8284 48.5355C18.0237 48.7308 18.3403 48.7308 18.5355 48.5355C18.7308 48.3403 18.7308 48.0237 18.5355 47.8284L15.7071 45L18.5355 42.1716C18.7308 41.9763 18.7308 41.6597 18.5355 41.4645C18.3403 41.2692 18.0237 41.2692 17.8284 41.4645L14.6464 44.6464ZM59.3536 45.3536C59.5488 45.1583 59.5488 44.8417 59.3536 44.6464L56.1716 41.4645C55.9763 41.2692 55.6597 41.2692 55.4645 41.4645C55.2692 41.6597 55.2692 41.9763 55.4645 42.1716L58.2929 45L55.4645 47.8284C55.2692 48.0237 55.2692 48.3403 55.4645 48.5355C55.6597 48.7308 55.9763 48.7308 56.1716 48.5355L59.3536 45.3536ZM15 45.5H17.75V44.5H15V45.5ZM23.25 45.5H28.75V44.5H23.25V45.5ZM34.25 45.5H39.75V44.5H34.25V45.5ZM45.25 45.5H50.75V44.5H45.25V45.5ZM56.25 45.5L59 45.5V44.5L56.25 44.5V45.5Z" fill="black"/>
<path d="M250.354 110.354C250.549 110.158 250.549 109.842 250.354 109.646L247.172 106.464C246.976 106.269 246.66 106.269 246.464 106.464C246.269 106.66 246.269 106.976 246.464 107.172L249.293 110L246.464 112.828C246.269 113.024 246.269 113.34 246.464 113.536C246.66 113.731 246.976 113.731 247.172 113.536L250.354 110.354ZM206 110.5L250 110.5V109.5L206 109.5V110.5Z" fill="black"/>
<path d="M205.646 216.646C205.451 216.842 205.451 217.158 205.646 217.354L208.828 220.536C209.024 220.731 209.34 220.731 209.536 220.536C209.731 220.34 209.731 220.024 209.536 219.828L206.707 217L209.536 214.172C209.731 213.976 209.731 213.66 209.536 213.464C209.34 213.269 209.024 213.269 208.828 213.464L205.646 216.646ZM206 217.5H250V216.5H206V217.5Z" fill="black" fill-opacity="0.15"/>
<path d="M312.646 144.354C312.842 144.549 313.158 144.549 313.354 144.354L316.536 141.172C316.731 140.976 316.731 140.66 316.536 140.464C316.34 140.269 316.024 140.269 315.828 140.464L313 143.293L310.172 140.464C309.976 140.269 309.66 140.269 309.464 140.464C309.269 140.66 309.269 140.976 309.464 141.172L312.646 144.354ZM312.5 120V144H313.5V120H312.5Z" fill="black" fill-opacity="0.15"/>
<circle cx="262.5" cy="60.5" r="6.5" fill="black"/>
<path d="M263.28 63.4445H262.372V57.424L260.55 58.0929V57.2726L263.138 56.3009H263.28V63.4445Z" fill="white"/>
<circle cx="288.5" cy="30.5" r="6.5" fill="black"/>
<path d="M290.124 31.0568H291.111V31.7941H290.124V33.4445H289.216V31.7941H285.979V31.2618L289.163 26.3351H290.124V31.0568ZM287.004 31.0568H289.216V27.5704L289.109 27.7657L287.004 31.0568Z" fill="white"/>
<circle cx="229.5" cy="117.5" r="6.5" fill="black"/>
<path d="M228.624 116.45H229.303C229.73 116.444 230.065 116.332 230.309 116.113C230.553 115.895 230.675 115.601 230.675 115.23C230.675 114.396 230.26 113.98 229.43 113.98C229.039 113.98 228.727 114.092 228.493 114.317C228.262 114.538 228.146 114.832 228.146 115.2H227.243C227.243 114.637 227.448 114.17 227.858 113.799C228.271 113.425 228.795 113.237 229.43 113.237C230.101 113.237 230.626 113.415 231.007 113.77C231.388 114.124 231.579 114.618 231.579 115.249C231.579 115.558 231.478 115.858 231.276 116.148C231.077 116.437 230.805 116.654 230.46 116.797C230.851 116.921 231.152 117.126 231.364 117.412C231.579 117.699 231.686 118.049 231.686 118.462C231.686 119.1 231.478 119.606 231.061 119.981C230.644 120.355 230.102 120.542 229.435 120.542C228.768 120.542 228.224 120.361 227.804 120C227.387 119.639 227.179 119.162 227.179 118.569H228.087C228.087 118.944 228.209 119.243 228.454 119.468C228.698 119.693 229.025 119.805 229.435 119.805C229.871 119.805 230.205 119.691 230.436 119.463C230.667 119.235 230.783 118.908 230.783 118.482C230.783 118.068 230.656 117.751 230.402 117.529C230.148 117.308 229.782 117.194 229.303 117.188H228.624V116.45Z" fill="white"/>
<circle cx="229.5" cy="90.5" r="6.5" fill="black"/>
<path d="M231.969 93.4445H227.311V92.795L229.772 90.0607C230.137 89.6473 230.387 89.312 230.524 89.0548C230.664 88.7944 230.734 88.5258 230.734 88.2491C230.734 87.8781 230.622 87.5737 230.397 87.3361C230.172 87.0984 229.873 86.9796 229.498 86.9796C229.049 86.9796 228.699 87.1082 228.449 87.3654C228.201 87.6193 228.078 87.9741 228.078 88.4298H227.174C227.174 87.7755 227.384 87.2465 227.804 86.8429C228.227 86.4392 228.792 86.2374 229.498 86.2374C230.159 86.2374 230.682 86.4116 231.066 86.7599C231.45 87.1049 231.642 87.5656 231.642 88.1417C231.642 88.8416 231.196 89.6749 230.304 90.6417L228.4 92.7072H231.969V93.4445Z" fill="white"/>
<path d="M7.39062 36.293C7.28516 37.1953 6.95117 37.8926 6.38867 38.3848C5.83008 38.873 5.08594 39.1172 4.15625 39.1172C3.14844 39.1172 2.33984 38.7559 1.73047 38.0332C1.125 37.3105 0.822266 36.3438 0.822266 35.1328V34.3125C0.822266 33.5195 0.962891 32.8223 1.24414 32.2207C1.5293 31.6191 1.93164 31.1582 2.45117 30.8379C2.9707 30.5137 3.57227 30.3516 4.25586 30.3516C5.16211 30.3516 5.88867 30.6055 6.43555 31.1133C6.98242 31.6172 7.30078 32.3164 7.39062 33.2109H6.25977C6.16211 32.5312 5.94922 32.0391 5.62109 31.7344C5.29688 31.4297 4.8418 31.2773 4.25586 31.2773C3.53711 31.2773 2.97266 31.543 2.5625 32.0742C2.15625 32.6055 1.95312 33.3613 1.95312 34.3418V35.168C1.95312 36.0938 2.14648 36.8301 2.5332 37.377C2.91992 37.9238 3.46094 38.1973 4.15625 38.1973C4.78125 38.1973 5.25977 38.0566 5.5918 37.7754C5.92773 37.4902 6.15039 36.9961 6.25977 36.293H7.39062ZM9.93945 39H8.85547V30H9.93945V39ZM12.8574 39H11.7734V32.6602H12.8574V39ZM11.6855 30.9785C11.6855 30.8027 11.7383 30.6543 11.8438 30.5332C11.9531 30.4121 12.1133 30.3516 12.3242 30.3516C12.5352 30.3516 12.6953 30.4121 12.8047 30.5332C12.9141 30.6543 12.9688 30.8027 12.9688 30.9785C12.9688 31.1543 12.9141 31.3008 12.8047 31.418C12.6953 31.5352 12.5352 31.5938 12.3242 31.5938C12.1133 31.5938 11.9531 31.5352 11.8438 31.418C11.7383 31.3008 11.6855 31.1543 11.6855 30.9785ZM17.2285 39.1172C16.3691 39.1172 15.6699 38.8359 15.1309 38.2734C14.5918 37.707 14.3223 36.9512 14.3223 36.0059V35.8066C14.3223 35.1777 14.4414 34.6172 14.6797 34.125C14.9219 33.6289 15.2578 33.2422 15.6875 32.9648C16.1211 32.6836 16.5898 32.543 17.0938 32.543C17.918 32.543 18.5586 32.8145 19.0156 33.3574C19.4727 33.9004 19.7012 34.6777 19.7012 35.6895V36.1406H15.4062C15.4219 36.7656 15.6035 37.2715 15.9512 37.6582C16.3027 38.041 16.748 38.2324 17.2871 38.2324C17.6699 38.2324 17.9941 38.1543 18.2598 37.998C18.5254 37.8418 18.7578 37.6348 18.957 37.377L19.6191 37.8926C19.0879 38.709 18.291 39.1172 17.2285 39.1172ZM17.0938 33.4336C16.6562 33.4336 16.2891 33.5938 15.9922 33.9141C15.6953 34.2305 15.5117 34.6758 15.4414 35.25H18.6172V35.168C18.5859 34.6172 18.4375 34.1914 18.1719 33.8906C17.9062 33.5859 17.5469 33.4336 17.0938 33.4336ZM21.9863 32.6602L22.0215 33.457C22.5059 32.8477 23.1387 32.543 23.9199 32.543C25.2598 32.543 25.9355 33.2988 25.9473 34.8105V39H24.8633V34.8047C24.8594 34.3477 24.7539 34.0098 24.5469 33.791C24.3438 33.5723 24.0254 33.4629 23.5918 33.4629C23.2402 33.4629 22.9316 33.5566 22.666 33.7441C22.4004 33.9316 22.1934 34.1777 22.0449 34.4824V39H20.9609V32.6602H21.9863ZM29.0527 31.125V32.6602H30.2363V33.498H29.0527V37.4297C29.0527 37.6836 29.1055 37.875 29.2109 38.0039C29.3164 38.1289 29.4961 38.1914 29.75 38.1914C29.875 38.1914 30.0469 38.168 30.2656 38.1211V39C29.9805 39.0781 29.7031 39.1172 29.4336 39.1172C28.9492 39.1172 28.584 38.9707 28.3379 38.6777C28.0918 38.3848 27.9688 37.9688 27.9688 37.4297V33.498H26.8145V32.6602H27.9688V31.125H29.0527ZM35.1992 37.3184C35.1992 37.0254 35.0879 36.7988 34.8652 36.6387C34.6465 36.4746 34.2617 36.334 33.7109 36.2168C33.1641 36.0996 32.7285 35.959 32.4043 35.7949C32.084 35.6309 31.8457 35.4355 31.6895 35.209C31.5371 34.9824 31.4609 34.7129 31.4609 34.4004C31.4609 33.8809 31.6797 33.4414 32.1172 33.082C32.5586 32.7227 33.1211 32.543 33.8047 32.543C34.5234 32.543 35.1055 32.7285 35.5508 33.0996C36 33.4707 36.2246 33.9453 36.2246 34.5234H35.1348C35.1348 34.2266 35.0078 33.9707 34.7539 33.7559C34.5039 33.541 34.1875 33.4336 33.8047 33.4336C33.4102 33.4336 33.1016 33.5195 32.8789 33.6914C32.6562 33.8633 32.5449 34.0879 32.5449 34.3652C32.5449 34.627 32.6484 34.8242 32.8555 34.957C33.0625 35.0898 33.4355 35.2168 33.9746 35.3379C34.5176 35.459 34.957 35.6035 35.293 35.7715C35.6289 35.9395 35.877 36.1426 36.0371 36.3809C36.2012 36.6152 36.2832 36.9023 36.2832 37.2422C36.2832 37.8086 36.0566 38.2637 35.6035 38.6074C35.1504 38.9473 34.5625 39.1172 33.8398 39.1172C33.332 39.1172 32.8828 39.0273 32.4922 38.8477C32.1016 38.668 31.7949 38.418 31.5723 38.0977C31.3535 37.7734 31.2441 37.4238 31.2441 37.0488H32.3281C32.3477 37.4121 32.4922 37.7012 32.7617 37.916C33.0352 38.127 33.3945 38.2324 33.8398 38.2324C34.25 38.2324 34.5781 38.1504 34.8242 37.9863C35.0742 37.8184 35.1992 37.5957 35.1992 37.3184Z" fill="black"/>
</svg>
