<svg width="549" height="471" viewBox="0 0 549 471" fill="none" xmlns="http://www.w3.org/2000/svg">
<rect width="549" height="471" fill="white"/>
<rect x="0.5" y="0.5" width="548" height="470" rx="6.5" fill="#F0F0F0"/>
<path d="M249.053 230.969L251.842 237.93L254.631 230.969H256.09V239.5H254.965V236.178L255.07 232.592L252.27 239.5H251.408L248.613 232.609L248.725 236.178V239.5H247.6V230.969H249.053ZM260.9 238.006L263.338 230.969H264.568L261.404 239.5H260.408L257.25 230.969H258.475L260.9 238.006ZM270.539 235.557H266.842V238.58H271.137V239.5H265.717V230.969H271.078V231.895H266.842V234.637H270.539V235.557ZM278.027 235.697C277.062 235.42 276.359 235.08 275.918 234.678C275.48 234.271 275.262 233.771 275.262 233.178C275.262 232.506 275.529 231.951 276.064 231.514C276.604 231.072 277.303 230.852 278.162 230.852C278.748 230.852 279.27 230.965 279.727 231.191C280.188 231.418 280.543 231.73 280.793 232.129C281.047 232.527 281.174 232.963 281.174 233.436H280.043C280.043 232.92 279.879 232.516 279.551 232.223C279.223 231.926 278.76 231.777 278.162 231.777C277.607 231.777 277.174 231.9 276.861 232.146C276.553 232.389 276.398 232.727 276.398 233.16C276.398 233.508 276.545 233.803 276.838 234.045C277.135 234.283 277.637 234.502 278.344 234.701C279.055 234.9 279.609 235.121 280.008 235.363C280.41 235.602 280.707 235.881 280.898 236.201C281.094 236.521 281.191 236.898 281.191 237.332C281.191 238.023 280.922 238.578 280.383 238.996C279.844 239.41 279.123 239.617 278.221 239.617C277.635 239.617 277.088 239.506 276.58 239.283C276.072 239.057 275.68 238.748 275.402 238.357C275.129 237.967 274.992 237.523 274.992 237.027H276.123C276.123 237.543 276.312 237.951 276.691 238.252C277.074 238.549 277.584 238.697 278.221 238.697C278.814 238.697 279.27 238.576 279.586 238.334C279.902 238.092 280.061 237.762 280.061 237.344C280.061 236.926 279.914 236.604 279.621 236.377C279.328 236.146 278.797 235.92 278.027 235.697ZM283.939 231.625V233.16H285.123V233.998H283.939V237.93C283.939 238.184 283.992 238.375 284.098 238.504C284.203 238.629 284.383 238.691 284.637 238.691C284.762 238.691 284.934 238.668 285.152 238.621V239.5C284.867 239.578 284.59 239.617 284.32 239.617C283.836 239.617 283.471 239.471 283.225 239.178C282.979 238.885 282.855 238.469 282.855 237.93V233.998H281.701V233.16H282.855V231.625H283.939ZM290.309 239.5C290.246 239.375 290.195 239.152 290.156 238.832C289.652 239.355 289.051 239.617 288.352 239.617C287.727 239.617 287.213 239.441 286.811 239.09C286.412 238.734 286.213 238.285 286.213 237.742C286.213 237.082 286.463 236.57 286.963 236.207C287.467 235.84 288.174 235.656 289.084 235.656H290.139V235.158C290.139 234.779 290.025 234.479 289.799 234.256C289.572 234.029 289.238 233.916 288.797 233.916C288.41 233.916 288.086 234.014 287.824 234.209C287.562 234.404 287.432 234.641 287.432 234.918H286.342C286.342 234.602 286.453 234.297 286.676 234.004C286.902 233.707 287.207 233.473 287.59 233.301C287.977 233.129 288.4 233.043 288.861 233.043C289.592 233.043 290.164 233.227 290.578 233.594C290.992 233.957 291.207 234.459 291.223 235.1V238.018C291.223 238.6 291.297 239.062 291.445 239.406V239.5H290.309ZM288.51 238.674C288.85 238.674 289.172 238.586 289.477 238.41C289.781 238.234 290.002 238.006 290.139 237.725V236.424H289.289C287.961 236.424 287.297 236.812 287.297 237.59C287.297 237.93 287.41 238.195 287.637 238.387C287.863 238.578 288.154 238.674 288.51 238.674ZM294.393 231.625V233.16H295.576V233.998H294.393V237.93C294.393 238.184 294.445 238.375 294.551 238.504C294.656 238.629 294.836 238.691 295.09 238.691C295.215 238.691 295.387 238.668 295.605 238.621V239.5C295.32 239.578 295.043 239.617 294.773 239.617C294.289 239.617 293.924 239.471 293.678 239.178C293.432 238.885 293.309 238.469 293.309 237.93V233.998H292.154V233.16H293.309V231.625H294.393ZM299.479 239.617C298.619 239.617 297.92 239.336 297.381 238.773C296.842 238.207 296.572 237.451 296.572 236.506V236.307C296.572 235.678 296.691 235.117 296.93 234.625C297.172 234.129 297.508 233.742 297.938 233.465C298.371 233.184 298.84 233.043 299.344 233.043C300.168 233.043 300.809 233.314 301.266 233.857C301.723 234.4 301.951 235.178 301.951 236.189V236.641H297.656C297.672 237.266 297.854 237.771 298.201 238.158C298.553 238.541 298.998 238.732 299.537 238.732C299.92 238.732 300.244 238.654 300.51 238.498C300.775 238.342 301.008 238.135 301.207 237.877L301.869 238.393C301.338 239.209 300.541 239.617 299.479 239.617ZM299.344 233.934C298.906 233.934 298.539 234.094 298.242 234.414C297.945 234.73 297.762 235.176 297.691 235.75H300.867V235.668C300.836 235.117 300.688 234.691 300.422 234.391C300.156 234.086 299.797 233.934 299.344 233.934Z" fill="black"/>
<rect x="0.5" y="0.5" width="548" height="470" rx="6.5" stroke="black"/>
<g clip-path="url(#clip0)">
<rect width="501" height="400" transform="translate(22 51)" fill="white"/>
<line x1="122.5" y1="51" x2="122.5" y2="652.001" stroke="black"/>
<line x1="222.5" y1="51" x2="222.5" y2="652.001" stroke="black"/>
<line x1="322.5" y1="51" x2="322.5" y2="652.001" stroke="black"/>
<line x1="422.5" y1="51" x2="422.5" y2="652.001" stroke="black"/>
<line x1="522.5" y1="51" x2="522.5" y2="652.001" stroke="black"/>
<line x1="22.5" y1="51" x2="22.5" y2="652.001" stroke="black"/>
<line x1="22" y1="450.5" x2="823" y2="450.5" stroke="black"/>
<line x1="22" y1="350.5" x2="823" y2="350.5" stroke="black"/>
<line x1="22" y1="250.5" x2="823" y2="250.5" stroke="black"/>
<line x1="22" y1="150.5" x2="823" y2="150.5" stroke="black"/>
<line x1="22" y1="51.5" x2="823" y2="51.5" stroke="black"/>
<line x1="22" y1="450.5" x2="823" y2="450.5" stroke="black"/>
<line x1="22" y1="350.5" x2="823" y2="350.5" stroke="black"/>
<line x1="22" y1="250.5" x2="823" y2="250.5" stroke="black"/>
<line x1="22" y1="150.5" x2="823" y2="150.5" stroke="black"/>
<line x1="22" y1="51.5" x2="823" y2="51.5" stroke="black"/>
<g clip-path="url(#clip1)">
<rect width="100" height="99" transform="translate(22 51)" fill="white"/>
<line x1="22.5" y1="51" x2="22.5" y2="652.001" stroke="black"/>
<line x1="22" y1="51.5" x2="823" y2="51.5" stroke="black"/>
<line x1="22" y1="51.5" x2="823" y2="51.5" stroke="black"/>
<rect x="23" y="52" width="196" height="194.524" fill="#E9FFDB"/>
</g>
<path d="M64.9902 101.741L80.5758 101.741L80.5758 109.271C80.2086 109.518 79.4075 110.042 78.4577 110.56C77.4955 111.084 76.415 111.583 75.4911 111.798H75.4759H75.4602H75.4445H75.4289H75.4132H75.3976H75.3821H75.3665H75.351H75.3355H75.3201H75.3046H75.2893H75.2739H75.2586H75.2432H75.228H75.2127H75.1975H75.1823H75.1672H75.152H75.1369H75.1218H75.1068H75.0918H75.0768H75.0618H75.0469H75.032H75.0171H75.0023H74.9875H74.9727H74.9579H74.9432H74.9285H74.9138H74.8992H74.8845H74.8699H74.8554H74.8408H74.8263H74.8118H74.7974H74.783H74.7686H74.7542H74.7399H74.7255H74.7112H74.697H74.6827H74.6685H74.6544H74.6402H74.6261H74.612H74.5979H74.5838H74.5698H74.5558H74.5419H74.5279H74.514H74.5001H74.4863H74.4724H74.4586H74.4448H74.4311H74.4173H74.4036H74.3899H74.3763H74.3627H74.3491H74.3355H74.3219H74.3084H74.2949H74.2814H74.268H74.2546H74.2412H74.2278H74.2144H74.2011H74.1878H74.1745H74.1613H74.1481H74.1349H74.1217H74.1085H74.0954H74.0823H74.0692H74.0562H74.0432H74.0302H74.0172H74.0042H73.9913H73.9784H73.9655H73.9526H73.9398H73.927H73.9142H73.9014H73.8887H73.876H73.8633H73.8506H73.838H73.8254H73.8128H73.8002H73.7876H73.7751H73.7626H73.7501H73.7376H73.7252H73.7128H73.7004H73.688H73.6757H73.6634H73.6511H73.6388H73.6265H73.6143H73.6021H73.5899H73.5777H73.5656H73.5535H73.5414H73.5293H73.5172H73.5052H73.4932H73.4812H73.4692H73.4573H73.4453H73.4334H73.4215H73.4097H73.3978H73.386H73.3742H73.3624H73.3507H73.3389H73.3272H73.3155H73.3039H73.2922H73.2806H73.269H73.2574H73.2458H73.2343H73.2227H73.2112H73.1997H73.1883H73.1768H73.1654H73.154H73.1426H73.1312H73.1199H73.1086H73.0973H73.086H73.0747H73.0635H73.0522H73.041H73.0298H73.0187H73.0075H72.9964H72.9853H72.9742H72.9631H72.9521H72.941H72.93H72.919H72.908H72.8971H72.8861H72.8752H72.8643H72.8534H72.8426H72.8317H72.8209H72.8101H72.7993H72.7885H72.7777H72.767H72.7563H72.7456H72.7349H72.7242H72.7136H72.7029H72.6923H72.6817H72.6712H72.6606H72.6501H72.6395H72.629H72.6185H72.608H72.5976H72.5872H72.5767H72.5663H72.5559H72.5456H72.5352H72.5249H72.5145H72.5042H72.4939H72.4837H72.4734H72.4632H72.453H72.4427H72.4326H72.4224H72.4122H72.4021H72.392H72.3818H72.3717H72.3617H72.3516H72.3416H72.3315H72.3215H72.3115H72.3015H72.2916H72.2816H72.2717H72.2617H72.2518H72.2419H72.2321H72.2222H72.2123H72.2025H72.1927H72.1829H72.1731H72.1633H72.1536H72.1438H72.1341H72.1244H72.1147H72.105H72.0953H72.0856H72.076H72.0664H72.0567H72.0471H72.0376H72.028H72.0184H72.0089H71.9993H71.9898H71.9803H71.9708H71.9613H71.9519H71.9424H71.933H71.9235H71.9141H71.9047H71.8953H71.886H71.8766H71.8672H71.8579H71.8486H71.8393H71.83H71.8207H71.8114H71.8022H71.7929H71.7837H71.7744H71.7652H71.756H71.7468H71.7377H71.7285H71.7194H71.7102H71.7011H71.692H71.6829H71.6738H71.6647H71.6556H71.6466H71.6375H71.6285H71.6195H71.6104H71.6014H71.5924H71.5835H71.5745H71.5655H71.5566H71.5477H71.5387H71.5298H71.5209H71.512H71.5031H71.4943H71.4854H71.4765H71.4677H71.4589H71.4501H71.4412H71.4324H71.4236H71.4149H71.4061H71.3973H71.3886H71.3798H71.3711H71.3624H71.3537H71.345H71.3363H71.3276H71.3189H71.3102H71.3016H71.2929H71.2843H71.2757H71.267H71.2584H71.2498H71.2412H71.2327H71.2241H71.2155H71.2069H71.1984H71.1898H71.1813H71.1728H71.1643H71.1558H71.1473H71.1388H71.1303H71.1218H71.1133H71.1049H71.0964H71.088H71.0795H71.0711H71.0627H71.0543H71.0458H71.0374H71.0291H71.0207H71.0123H71.0039H70.9955H70.9872H70.9788H70.9705H70.9622H70.9538H70.9455H70.9372H70.9289H70.9206H70.9123H70.904H70.8957H70.8874H70.8791H70.8709H70.8626H70.8544H70.8461H70.8379H70.8296H70.8214H70.8132H70.805H70.7968H70.7885H70.7803H70.7721H70.764H70.7558H70.7476H70.7394H70.7312H70.7231H70.7149H70.7068H70.6986H70.6905H70.6823H70.6742H70.6661H70.6579H70.6498H70.6417H70.6336H70.6255H70.6174H70.6093H70.6012H70.5931H70.585H70.5769H70.5689H70.5608H70.5527H70.5447H70.5366H70.5285H70.5205H70.5124H70.5044H70.4964H70.4883H70.4803H70.4722H70.4642H70.4562H70.4482H70.4401H70.4321H70.4241H70.4161H70.4081H70.4001H70.3921H70.3841H70.3761H70.3681H70.3601H70.3521H70.3441H70.3361H70.3282H70.3202H70.3122H70.3042H70.2963H70.2883H70.2803H70.2724H70.2644H70.2564H70.2485H70.2405H70.2325H70.2246H70.2166H70.2087H70.2007H70.1928H70.1848H70.1769H70.1689H70.161H70.153H70.1451H70.1371H70.1292H70.1213H70.1133H70.1054H70.0974H70.0895H70.0816H70.0749C69.151 111.583 68.0705 111.084 67.1083 110.56C66.1585 110.042 65.3574 109.518 64.9902 109.271V101.741Z" fill="#222222" stroke="#222222"/>
<path d="M56.6953 76.3619C56.6953 70.9516 58.508 66.9465 61.3918 64.2905C64.2824 61.6284 68.2986 60.2764 72.7809 60.2764C77.2631 60.2764 81.2794 61.6284 84.1699 64.2905C87.0537 66.9465 88.8664 70.9516 88.8664 76.3619C88.8664 81.863 88.1336 83.8813 87.1757 85.1709C86.8315 85.6343 86.4657 85.9997 86.0519 86.413C85.858 86.6068 85.6534 86.8111 85.4355 87.041C84.77 87.7434 84.0676 88.6058 83.3907 89.9596C81.5629 93.6152 80.9208 96.0951 80.6953 97.3987C80.6368 97.737 80.3498 97.976 80.0736 97.976H65.4881C65.2119 97.976 64.9249 97.737 64.8664 97.3987C64.641 96.0951 63.9988 93.6152 62.171 89.9596C61.4942 88.6058 60.7917 87.7434 60.1262 87.041C59.9083 86.8111 59.7038 86.6068 59.5098 86.413C59.096 85.9997 58.7302 85.6344 58.386 85.1709C57.4282 83.8813 56.6953 81.863 56.6953 76.3619Z" fill="#F1F51B" stroke="#222222"/>
<path d="M67.2539 74.9803C67.2539 73.5982 68.636 70.834 71.4003 70.834" stroke="#222222" stroke-linecap="round"/>
<path d="M42.4785 139.911H54.7514V122.585H72.0779V139.911H85.0728V122.585H98.0676" stroke="black" stroke-width="2"/>
<g clip-path="url(#clip2)">
<rect width="200" height="200" transform="translate(22 150)" fill="white"/>
<line x1="122.5" y1="150" x2="122.5" y2="751.001" stroke="black"/>
<line x1="22.5" y1="150" x2="22.5" y2="751.001" stroke="black"/>
<line x1="22" y1="349.5" x2="823" y2="349.5" stroke="black"/>
<line x1="22" y1="249.5" x2="823" y2="249.5" stroke="black"/>
<line x1="22" y1="150.5" x2="823" y2="150.5" stroke="black"/>
<line x1="22" y1="349.5" x2="823" y2="349.5" stroke="black"/>
<line x1="22" y1="249.5" x2="823" y2="249.5" stroke="black"/>
<line x1="22" y1="150.5" x2="823" y2="150.5" stroke="black"/>
<rect x="23" y="151" width="199" height="199" fill="#E9FFDB"/>
</g>
<path d="M108.771 253.533H141.448V269.779C140.88 270.172 139.227 271.29 137.19 272.432C135.135 273.583 132.729 274.735 130.666 275.209C130.665 275.209 130.665 275.209 130.664 275.209C130.665 275.209 130.666 275.209 130.666 275.209C130.667 275.208 130.667 275.209 130.666 275.209H130.634H130.601H130.569H130.537H130.505H130.473H130.44H130.408H130.377H130.345H130.313H130.281H130.249H130.218H130.186H130.155H130.123H130.092H130.061H130.029H129.998H129.967H129.936H129.905H129.874H129.843H129.812H129.782H129.751H129.72H129.69H129.659H129.629H129.598H129.568H129.538H129.507H129.477H129.447H129.417H129.387H129.357H129.327H129.297H129.267H129.238H129.208H129.178H129.149H129.119H129.09H129.061H129.031H129.002H128.973H128.944H128.915H128.885H128.856H128.828H128.799H128.77H128.741H128.712H128.684H128.655H128.627H128.598H128.57H128.541H128.513H128.485H128.456H128.428H128.4H128.372H128.344H128.316H128.288H128.26H128.233H128.205H128.177H128.15H128.122H128.094H128.067H128.039H128.012H127.985H127.958H127.93H127.903H127.876H127.849H127.822H127.795H127.768H127.741H127.714H127.688H127.661H127.634H127.608H127.581H127.555H127.528H127.502H127.475H127.449H127.423H127.397H127.37H127.344H127.318H127.292H127.266H127.24H127.214H127.189H127.163H127.137H127.111H127.086H127.06H127.035H127.009H126.984H126.958H126.933H126.908H126.882H126.857H126.832H126.807H126.782H126.757H126.732H126.707H126.682H126.657H126.633H126.608H126.583H126.558H126.534H126.509H126.485H126.46H126.436H126.411H126.387H126.363H126.339H126.314H126.29H126.266H126.242H126.218H126.194H126.17H126.146H126.122H126.098H126.075H126.051H126.027H126.004H125.98H125.956H125.933H125.909H125.886H125.863H125.839H125.816H125.793H125.769H125.746H125.723H125.7H125.677H125.654H125.631H125.608H125.585H125.562H125.539H125.516H125.494H125.471H125.448H125.426H125.403H125.381H125.358H125.336H125.313H125.291H125.268H125.246H125.224H125.202H125.179H125.157H125.135H125.113H125.091H125.069H125.047H125.025H125.003H124.981H124.959H124.938H124.916H124.894H124.872H124.851H124.829H124.808H124.786H124.765H124.743H124.722H124.7H124.679H124.658H124.636H124.615H124.594H124.573H124.552H124.53H124.509H124.488H124.467H124.446H124.425H124.404H124.384H124.363H124.342H124.321H124.3H124.28H124.259H124.238H124.218H124.197H124.177H124.156H124.136H124.115H124.095H124.074H124.054H124.034H124.013H123.993H123.973H123.953H123.932H123.912H123.892H123.872H123.852H123.832H123.812H123.792H123.772H123.752H123.732H123.712H123.693H123.673H123.653H123.633H123.614H123.594H123.574H123.555H123.535H123.516H123.496H123.477H123.457H123.438H123.418H123.399H123.38H123.36H123.341H123.322H123.302H123.283H123.264H123.245H123.226H123.207H123.187H123.168H123.149H123.13H123.111H123.092H123.073H123.055H123.036H123.017H122.998H122.979H122.96H122.942H122.923H122.904H122.885H122.867H122.848H122.83H122.811H122.792H122.774H122.755H122.737H122.718H122.7H122.681H122.663H122.645H122.626H122.608H122.59H122.571H122.553H122.535H122.517H122.498H122.48H122.462H122.444H122.426H122.408H122.39H122.372H122.353H122.335H122.317H122.299H122.282H122.264H122.246H122.228H122.21H122.192H122.174H122.156H122.139H122.121H122.103H122.085H122.068H122.05H122.032H122.015H121.997H121.979H121.962H121.944H121.926H121.909H121.891H121.874H121.856H121.839H121.821H121.804H121.786H121.769H121.752H121.734H121.717H121.7H121.682H121.665H121.648H121.63H121.613H121.596H121.579H121.561H121.544H121.527H121.51H121.493H121.475H121.458H121.441H121.424H121.407H121.39H121.373H121.356H121.339H121.322H121.305H121.288H121.271H121.254H121.237H121.22H121.203H121.186H121.169H121.152H121.135H121.118H121.101H121.085H121.068H121.051H121.034H121.017H121H120.984H120.967H120.95H120.933H120.917H120.9H120.883H120.866H120.85H120.833H120.816H120.8H120.783H120.766H120.75H120.733H120.717H120.7H120.683H120.667H120.65H120.634H120.617H120.6H120.584H120.567H120.551H120.534H120.518H120.501H120.485H120.468H120.452H120.435H120.419H120.402H120.386H120.369H120.353H120.337H120.32H120.304H120.287H120.271H120.254H120.238H120.222H120.205H120.189H120.172H120.156H120.14H120.123H120.107H120.091H120.074H120.058H120.041H120.025H120.009H119.992H119.976H119.96H119.943H119.927H119.911H119.894H119.878H119.862H119.846H119.829H119.813H119.797H119.78H119.764H119.748H119.731H119.715H119.699H119.683H119.666H119.65H119.634H119.617H119.601H119.585H119.569H119.553C117.49 274.735 115.084 273.583 113.029 272.432C110.992 271.29 109.339 270.172 108.771 269.779V253.533L108.771 253.533Z" fill="#222222" stroke="#222222"/>
<path d="M91.9297 202.011C91.9297 190.79 95.6565 182.427 101.634 176.867C107.617 171.302 115.906 168.498 125.106 168.498C134.306 168.498 142.595 171.302 148.578 176.867C154.555 182.427 158.282 190.79 158.282 202.011C158.282 213.322 156.795 217.606 154.746 220.391C154.024 221.373 153.24 222.164 152.385 223.027C151.996 223.42 151.593 223.827 151.173 224.275C149.848 225.687 148.455 227.414 147.109 230.133C142.83 238.777 141.783 244.169 141.527 246.309C141.489 246.629 141.221 246.862 140.944 246.862H109.268C108.991 246.862 108.723 246.629 108.685 246.309C108.429 244.169 107.382 238.777 103.103 230.133C101.757 227.414 100.364 225.687 99.0388 224.275C98.6193 223.827 98.2156 223.42 97.8266 223.027C96.9714 222.164 96.1877 221.373 95.4656 220.391C93.4171 217.606 91.9297 213.322 91.9297 202.011Z" fill="#F1F51B" stroke="#222222"/>
<path d="M113.885 199.178C113.885 196.344 116.691 190.675 122.304 190.675" stroke="#222222" stroke-linecap="round"/>
<path d="M63.5801 332.335H88.4997V296.803H123.68V332.335H150.066V296.803H176.451" stroke="black" stroke-width="2"/>
<g clip-path="url(#clip3)">
<rect width="301" height="300" transform="translate(222 150)" fill="white"/>
<line x1="322.5" y1="150" x2="322.5" y2="751.001" stroke="black"/>
<line x1="422.5" y1="150" x2="422.5" y2="751.001" stroke="black"/>
<line x1="522.5" y1="150" x2="522.5" y2="751.001" stroke="black"/>
<line x1="222.5" y1="150" x2="222.5" y2="751.001" stroke="black"/>
<line x1="222" y1="449.5" x2="1023" y2="449.5" stroke="black"/>
<line x1="222" y1="349.5" x2="1023" y2="349.5" stroke="black"/>
<line x1="222" y1="249.5" x2="1023" y2="249.5" stroke="black"/>
<line x1="222" y1="150.5" x2="1023" y2="150.5" stroke="black"/>
<line x1="222" y1="449.5" x2="1023" y2="449.5" stroke="black"/>
<line x1="222" y1="349.5" x2="1023" y2="349.5" stroke="black"/>
<line x1="222" y1="249.5" x2="1023" y2="249.5" stroke="black"/>
<line x1="222" y1="150.5" x2="1023" y2="150.5" stroke="black"/>
<rect x="223" y="151" width="299" height="299" fill="#E9FFDB"/>
</g>
<path d="M352.334 304.019H402.013L402.013 328.597C401.29 329.096 398.796 330.782 395.671 332.528C392.524 334.286 388.778 336.08 385.565 336.805C385.564 336.805 385.564 336.805 385.563 336.805C385.564 336.805 385.564 336.805 385.565 336.805C385.566 336.805 385.566 336.805 385.565 336.805H385.516H385.467H385.418H385.369H385.32H385.272H385.223H385.175H385.127H385.079H385.031H384.983H384.935H384.887H384.839H384.792H384.744H384.697H384.649H384.602H384.555H384.508H384.461H384.414H384.367H384.321H384.274H384.227H384.181H384.135H384.088H384.042H383.996H383.95H383.904H383.859H383.813H383.767H383.722H383.676H383.631H383.586H383.54H383.495H383.45H383.405H383.361H383.316H383.271H383.227H383.182H383.138H383.093H383.049H383.005H382.961H382.917H382.873H382.829H382.786H382.742H382.698H382.655H382.612H382.568H382.525H382.482H382.439H382.396H382.353H382.31H382.267H382.225H382.182H382.14H382.097H382.055H382.013H381.971H381.929H381.887H381.845H381.803H381.761H381.719H381.678H381.636H381.595H381.553H381.512H381.471H381.43H381.389H381.348H381.307H381.266H381.225H381.185H381.144H381.104H381.063H381.023H380.983H380.942H380.902H380.862H380.822H380.782H380.743H380.703H380.663H380.623H380.584H380.545H380.505H380.466H380.427H380.387H380.348H380.309H380.27H380.232H380.193H380.154H380.115H380.077H380.038H380H379.962H379.923H379.885H379.847H379.809H379.771H379.733H379.695H379.657H379.62H379.582H379.544H379.507H379.469H379.432H379.395H379.357H379.32H379.283H379.246H379.209H379.172H379.135H379.099H379.062H379.025H378.989H378.952H378.916H378.88H378.843H378.807H378.771H378.735H378.699H378.663H378.627H378.591H378.555H378.519H378.484H378.448H378.413H378.377H378.342H378.307H378.271H378.236H378.201H378.166H378.131H378.096H378.061H378.026H377.991H377.957H377.922H377.887H377.853H377.818H377.784H377.75H377.715H377.681H377.647H377.613H377.579H377.545H377.511H377.477H377.443H377.41H377.376H377.342H377.309H377.275H377.242H377.208H377.175H377.142H377.108H377.075H377.042H377.009H376.976H376.943H376.91H376.877H376.844H376.812H376.779H376.746H376.714H376.681H376.649H376.617H376.584H376.552H376.52H376.487H376.455H376.423H376.391H376.359H376.327H376.295H376.264H376.232H376.2H376.168H376.137H376.105H376.074H376.042H376.011H375.979H375.948H375.917H375.886H375.854H375.823H375.792H375.761H375.73H375.699H375.668H375.638H375.607H375.576H375.545H375.515H375.484H375.454H375.423H375.393H375.362H375.332H375.302H375.271H375.241H375.211H375.181H375.151H375.121H375.091H375.061H375.031H375.001H374.971H374.941H374.912H374.882H374.852H374.823H374.793H374.764H374.734H374.705H374.675H374.646H374.617H374.588H374.558H374.529H374.5H374.471H374.442H374.413H374.384H374.355H374.326H374.297H374.268H374.24H374.211H374.182H374.154H374.125H374.096H374.068H374.039H374.011H373.982H373.954H373.926H373.897H373.869H373.841H373.813H373.784H373.756H373.728H373.7H373.672H373.644H373.616H373.588H373.56H373.533H373.505H373.477H373.449H373.422H373.394H373.366H373.339H373.311H373.283H373.256H373.228H373.201H373.174H373.146H373.119H373.092H373.064H373.037H373.01H372.983H372.955H372.928H372.901H372.874H372.847H372.82H372.793H372.766H372.739H372.712H372.686H372.659H372.632H372.605H372.578H372.552H372.525H372.498H372.472H372.445H372.419H372.392H372.365H372.339H372.313H372.286H372.26H372.233H372.207H372.181H372.154H372.128H372.102H372.075H372.049H372.023H371.997H371.971H371.945H371.919H371.892H371.866H371.84H371.814H371.788H371.762H371.737H371.711H371.685H371.659H371.633H371.607H371.581H371.556H371.53H371.504H371.478H371.453H371.427H371.401H371.376H371.35H371.324H371.299H371.273H371.248H371.222H371.197H371.171H371.146H371.12H371.095H371.07H371.044H371.019H370.993H370.968H370.943H370.917H370.892H370.867H370.842H370.816H370.791H370.766H370.741H370.715H370.69H370.665H370.64H370.615H370.59H370.565H370.54H370.514H370.489H370.464H370.439H370.414H370.389H370.364H370.339H370.314H370.289H370.264H370.24H370.215H370.19H370.165H370.14H370.115H370.09H370.065H370.04H370.016H369.991H369.966H369.941H369.916H369.892H369.867H369.842H369.817H369.792H369.768H369.743H369.718H369.693H369.669H369.644H369.619H369.595H369.57H369.545H369.521H369.496H369.471H369.447H369.422H369.397H369.373H369.348H369.323H369.299H369.274H369.249H369.225H369.2H369.176H369.151H369.126H369.102H369.077H369.052H369.028H369.003H368.979H368.954H368.929H368.905H368.88H368.856H368.831H368.807H368.782C365.569 336.08 361.823 334.286 358.677 332.528C355.551 330.782 353.057 329.096 352.334 328.597V304.019V304.019Z" fill="#222222" stroke="#222222"/>
<path d="M326.988 227.497C326.988 210.722 332.617 198.193 341.671 189.855C350.731 181.511 363.271 177.317 377.168 177.317C391.065 177.317 403.604 181.511 412.665 189.855C421.718 198.193 427.347 210.722 427.347 227.497C427.347 244.362 425.109 250.812 421.978 255.027C420.88 256.505 419.681 257.703 418.387 258.996C417.804 259.579 417.202 260.18 416.582 260.835C414.6 262.926 412.52 265.48 410.507 269.506C403.707 283.105 402.347 291.28 402.075 294.028C402.044 294.339 401.786 294.569 401.507 294.569H352.828C352.55 294.569 352.291 294.339 352.26 294.028C351.988 291.28 350.628 283.105 343.829 269.506C341.816 265.48 339.735 262.926 337.753 260.835C337.133 260.18 336.531 259.579 335.948 258.996C334.654 257.703 333.455 256.505 332.357 255.027C329.226 250.812 326.988 244.362 326.988 227.497Z" fill="#F1F51B" stroke="#222222"/>
<path d="M360.279 223.275C360.279 219.052 364.503 210.605 372.949 210.605" stroke="#222222" stroke-linecap="round"/>
<path d="M284.574 421.681H322.076V368.737H375.019V421.681H414.727V368.737H454.434" stroke="black" stroke-width="2"/>
</g>
<path d="M26.8867 17.9375L32.4648 31.8594L38.043 17.9375H40.9609V35H38.7109V28.3555L38.9219 21.1836L33.3203 35H31.5977L26.0078 21.2188L26.2305 28.3555V35H23.9805V17.9375H26.8867ZM50.582 32.0117L55.457 17.9375H57.918L51.5898 35H49.5977L43.2812 17.9375H45.7305L50.582 32.0117ZM69.8594 27.1133H62.4648V33.1602H71.0547V35H60.2148V17.9375H70.9375V19.7891H62.4648V25.2734H69.8594V27.1133ZM84.8359 27.3945C82.9062 26.8398 81.5 26.1602 80.6172 25.3555C79.7422 24.543 79.3047 23.543 79.3047 22.3555C79.3047 21.0117 79.8398 19.9023 80.9102 19.0273C81.9883 18.1445 83.3867 17.7031 85.1055 17.7031C86.2773 17.7031 87.3203 17.9297 88.2344 18.3828C89.1562 18.8359 89.8672 19.4609 90.3672 20.2578C90.875 21.0547 91.1289 21.9258 91.1289 22.8711H88.8672C88.8672 21.8398 88.5391 21.0312 87.8828 20.4453C87.2266 19.8516 86.3008 19.5547 85.1055 19.5547C83.9961 19.5547 83.1289 19.8008 82.5039 20.293C81.8867 20.7773 81.5781 21.4531 81.5781 22.3203C81.5781 23.0156 81.8711 23.6055 82.457 24.0898C83.0508 24.5664 84.0547 25.0039 85.4688 25.4023C86.8906 25.8008 88 26.2422 88.7969 26.7266C89.6016 27.2031 90.1953 27.7617 90.5781 28.4023C90.9688 29.043 91.1641 29.7969 91.1641 30.6641C91.1641 32.0469 90.625 33.1562 89.5469 33.9922C88.4688 34.8203 87.0273 35.2344 85.2227 35.2344C84.0508 35.2344 82.957 35.0117 81.9414 34.5664C80.9258 34.1133 80.1406 33.4961 79.5859 32.7148C79.0391 31.9336 78.7656 31.0469 78.7656 30.0547H81.0273C81.0273 31.0859 81.4062 31.9023 82.1641 32.5039C82.9297 33.0977 83.9492 33.3945 85.2227 33.3945C86.4102 33.3945 87.3203 33.1523 87.9531 32.668C88.5859 32.1836 88.9023 31.5234 88.9023 30.6875C88.9023 29.8516 88.6094 29.207 88.0234 28.7539C87.4375 28.293 86.375 27.8398 84.8359 27.3945ZM96.6602 19.25V22.3203H99.0273V23.9961H96.6602V31.8594C96.6602 32.3672 96.7656 32.75 96.9766 33.0078C97.1875 33.2578 97.5469 33.3828 98.0547 33.3828C98.3047 33.3828 98.6484 33.3359 99.0859 33.2422V35C98.5156 35.1562 97.9609 35.2344 97.4219 35.2344C96.4531 35.2344 95.7227 34.9414 95.2305 34.3555C94.7383 33.7695 94.4922 32.9375 94.4922 31.8594V23.9961H92.1836V22.3203H94.4922V19.25H96.6602ZM109.398 35C109.273 34.75 109.172 34.3047 109.094 33.6641C108.086 34.7109 106.883 35.2344 105.484 35.2344C104.234 35.2344 103.207 34.8828 102.402 34.1797C101.605 33.4688 101.207 32.5703 101.207 31.4844C101.207 30.1641 101.707 29.1406 102.707 28.4141C103.715 27.6797 105.129 27.3125 106.949 27.3125H109.059V26.3164C109.059 25.5586 108.832 24.957 108.379 24.5117C107.926 24.0586 107.258 23.832 106.375 23.832C105.602 23.832 104.953 24.0273 104.43 24.418C103.906 24.8086 103.645 25.2812 103.645 25.8359H101.465C101.465 25.2031 101.688 24.5938 102.133 24.0078C102.586 23.4141 103.195 22.9453 103.961 22.6016C104.734 22.2578 105.582 22.0859 106.504 22.0859C107.965 22.0859 109.109 22.4531 109.938 23.1875C110.766 23.9141 111.195 24.918 111.227 26.1992V32.0352C111.227 33.1992 111.375 34.125 111.672 34.8125V35H109.398ZM105.801 33.3477C106.48 33.3477 107.125 33.1719 107.734 32.8203C108.344 32.4688 108.785 32.0117 109.059 31.4492V28.8477H107.359C104.703 28.8477 103.375 29.625 103.375 31.1797C103.375 31.8594 103.602 32.3906 104.055 32.7734C104.508 33.1562 105.09 33.3477 105.801 33.3477ZM117.566 19.25V22.3203H119.934V23.9961H117.566V31.8594C117.566 32.3672 117.672 32.75 117.883 33.0078C118.094 33.2578 118.453 33.3828 118.961 33.3828C119.211 33.3828 119.555 33.3359 119.992 33.2422V35C119.422 35.1562 118.867 35.2344 118.328 35.2344C117.359 35.2344 116.629 34.9414 116.137 34.3555C115.645 33.7695 115.398 32.9375 115.398 31.8594V23.9961H113.09V22.3203H115.398V19.25H117.566ZM127.738 35.2344C126.02 35.2344 124.621 34.6719 123.543 33.5469C122.465 32.4141 121.926 30.9023 121.926 29.0117V28.6133C121.926 27.3555 122.164 26.2344 122.641 25.25C123.125 24.2578 123.797 23.4844 124.656 22.9297C125.523 22.3672 126.461 22.0859 127.469 22.0859C129.117 22.0859 130.398 22.6289 131.312 23.7148C132.227 24.8008 132.684 26.3555 132.684 28.3789V29.2812H124.094C124.125 30.5312 124.488 31.543 125.184 32.3164C125.887 33.082 126.777 33.4648 127.855 33.4648C128.621 33.4648 129.27 33.3086 129.801 32.9961C130.332 32.6836 130.797 32.2695 131.195 31.7539L132.52 32.7852C131.457 34.418 129.863 35.2344 127.738 35.2344ZM127.469 23.8672C126.594 23.8672 125.859 24.1875 125.266 24.8281C124.672 25.4609 124.305 26.3516 124.164 27.5H130.516V27.3359C130.453 26.2344 130.156 25.3828 129.625 24.7812C129.094 24.1719 128.375 23.8672 127.469 23.8672Z" fill="black"/>
<defs>
<clipPath id="clip0">
<rect width="501" height="400" fill="white" transform="translate(22 51)"/>
</clipPath>
<clipPath id="clip1">
<rect width="100" height="99" fill="white" transform="translate(22 51)"/>
</clipPath>
<clipPath id="clip2">
<rect width="200" height="200" fill="white" transform="translate(22 150)"/>
</clipPath>
<clipPath id="clip3">
<rect width="301" height="300" fill="white" transform="translate(222 150)"/>
</clipPath>
</defs>
</svg>
