<svg width="1317" height="804" viewBox="0 0 1317 804" fill="none" xmlns="http://www.w3.org/2000/svg">
<rect x="698" y="191.5" width="548" height="470" rx="6.5" fill="#F0F0F0"/>
<path d="M946.553 421.969L949.342 428.93L952.131 421.969H953.59V430.5H952.465V427.178L952.57 423.592L949.77 430.5H948.908L946.113 423.609L946.225 427.178V430.5H945.1V421.969H946.553ZM958.4 429.006L960.838 421.969H962.068L958.904 430.5H957.908L954.75 421.969H955.975L958.4 429.006ZM968.039 426.557H964.342V429.58H968.637V430.5H963.217V421.969H968.578V422.895H964.342V425.637H968.039V426.557ZM975.527 426.697C974.562 426.42 973.859 426.08 973.418 425.678C972.98 425.271 972.762 424.771 972.762 424.178C972.762 423.506 973.029 422.951 973.564 422.514C974.104 422.072 974.803 421.852 975.662 421.852C976.248 421.852 976.77 421.965 977.227 422.191C977.688 422.418 978.043 422.73 978.293 423.129C978.547 423.527 978.674 423.963 978.674 424.436H977.543C977.543 423.92 977.379 423.516 977.051 423.223C976.723 422.926 976.26 422.777 975.662 422.777C975.107 422.777 974.674 422.9 974.361 423.146C974.053 423.389 973.898 423.727 973.898 424.16C973.898 424.508 974.045 424.803 974.338 425.045C974.635 425.283 975.137 425.502 975.844 425.701C976.555 425.9 977.109 426.121 977.508 426.363C977.91 426.602 978.207 426.881 978.398 427.201C978.594 427.521 978.691 427.898 978.691 428.332C978.691 429.023 978.422 429.578 977.883 429.996C977.344 430.41 976.623 430.617 975.721 430.617C975.135 430.617 974.588 430.506 974.08 430.283C973.572 430.057 973.18 429.748 972.902 429.357C972.629 428.967 972.492 428.523 972.492 428.027H973.623C973.623 428.543 973.812 428.951 974.191 429.252C974.574 429.549 975.084 429.697 975.721 429.697C976.314 429.697 976.77 429.576 977.086 429.334C977.402 429.092 977.561 428.762 977.561 428.344C977.561 427.926 977.414 427.604 977.121 427.377C976.828 427.146 976.297 426.92 975.527 426.697ZM981.439 422.625V424.16H982.623V424.998H981.439V428.93C981.439 429.184 981.492 429.375 981.598 429.504C981.703 429.629 981.883 429.691 982.137 429.691C982.262 429.691 982.434 429.668 982.652 429.621V430.5C982.367 430.578 982.09 430.617 981.82 430.617C981.336 430.617 980.971 430.471 980.725 430.178C980.479 429.885 980.355 429.469 980.355 428.93V424.998H979.201V424.16H980.355V422.625H981.439ZM987.809 430.5C987.746 430.375 987.695 430.152 987.656 429.832C987.152 430.355 986.551 430.617 985.852 430.617C985.227 430.617 984.713 430.441 984.311 430.09C983.912 429.734 983.713 429.285 983.713 428.742C983.713 428.082 983.963 427.57 984.463 427.207C984.967 426.84 985.674 426.656 986.584 426.656H987.639V426.158C987.639 425.779 987.525 425.479 987.299 425.256C987.072 425.029 986.738 424.916 986.297 424.916C985.91 424.916 985.586 425.014 985.324 425.209C985.062 425.404 984.932 425.641 984.932 425.918H983.842C983.842 425.602 983.953 425.297 984.176 425.004C984.402 424.707 984.707 424.473 985.09 424.301C985.477 424.129 985.9 424.043 986.361 424.043C987.092 424.043 987.664 424.227 988.078 424.594C988.492 424.957 988.707 425.459 988.723 426.1V429.018C988.723 429.6 988.797 430.062 988.945 430.406V430.5H987.809ZM986.01 429.674C986.35 429.674 986.672 429.586 986.977 429.41C987.281 429.234 987.502 429.006 987.639 428.725V427.424H986.789C985.461 427.424 984.797 427.812 984.797 428.59C984.797 428.93 984.91 429.195 985.137 429.387C985.363 429.578 985.654 429.674 986.01 429.674ZM991.893 422.625V424.16H993.076V424.998H991.893V428.93C991.893 429.184 991.945 429.375 992.051 429.504C992.156 429.629 992.336 429.691 992.59 429.691C992.715 429.691 992.887 429.668 993.105 429.621V430.5C992.82 430.578 992.543 430.617 992.273 430.617C991.789 430.617 991.424 430.471 991.178 430.178C990.932 429.885 990.809 429.469 990.809 428.93V424.998H989.654V424.16H990.809V422.625H991.893ZM996.979 430.617C996.119 430.617 995.42 430.336 994.881 429.773C994.342 429.207 994.072 428.451 994.072 427.506V427.307C994.072 426.678 994.191 426.117 994.43 425.625C994.672 425.129 995.008 424.742 995.438 424.465C995.871 424.184 996.34 424.043 996.844 424.043C997.668 424.043 998.309 424.314 998.766 424.857C999.223 425.4 999.451 426.178 999.451 427.189V427.641H995.156C995.172 428.266 995.354 428.771 995.701 429.158C996.053 429.541 996.498 429.732 997.037 429.732C997.42 429.732 997.744 429.654 998.01 429.498C998.275 429.342 998.508 429.135 998.707 428.877L999.369 429.393C998.838 430.209 998.041 430.617 996.979 430.617ZM996.844 424.934C996.406 424.934 996.039 425.094 995.742 425.414C995.445 425.73 995.262 426.176 995.191 426.75H998.367V426.668C998.336 426.117 998.188 425.691 997.922 425.391C997.656 425.086 997.297 424.934 996.844 424.934Z" fill="black"/>
<rect x="698" y="191.5" width="548" height="470" rx="6.5" stroke="black"/>
<g clip-path="url(#clip0)">
<rect width="501" height="400" transform="translate(719.5 242)" fill="white"/>
<line x1="820" y1="242" x2="820" y2="843.001" stroke="black"/>
<line x1="920" y1="242" x2="920" y2="843.001" stroke="black"/>
<line x1="1020" y1="242" x2="1020" y2="843.001" stroke="black"/>
<line x1="1120" y1="242" x2="1120" y2="843.001" stroke="black"/>
<line x1="1220" y1="242" x2="1220" y2="843.001" stroke="black"/>
<line x1="720" y1="242" x2="720" y2="843.001" stroke="black"/>
<line x1="719.5" y1="641.5" x2="1520.5" y2="641.5" stroke="black"/>
<line x1="719.5" y1="541.5" x2="1520.5" y2="541.5" stroke="black"/>
<line x1="719.5" y1="441.5" x2="1520.5" y2="441.5" stroke="black"/>
<line x1="719.5" y1="341.5" x2="1520.5" y2="341.5" stroke="black"/>
<line x1="719.5" y1="242.5" x2="1520.5" y2="242.5" stroke="black"/>
<line x1="719.5" y1="641.5" x2="1520.5" y2="641.5" stroke="black"/>
<line x1="719.5" y1="541.5" x2="1520.5" y2="541.5" stroke="black"/>
<line x1="719.5" y1="441.5" x2="1520.5" y2="441.5" stroke="black"/>
<line x1="719.5" y1="341.5" x2="1520.5" y2="341.5" stroke="black"/>
<line x1="719.5" y1="242.5" x2="1520.5" y2="242.5" stroke="black"/>
<rect x="920.5" y="542" width="99" height="99" fill="#E0DBFF"/>
<rect x="1020.5" y="542" width="99" height="99" fill="#E0DBFF"/>
<rect x="920.5" y="442" width="99" height="99" fill="#E0DBFF"/>
<rect x="1020.5" y="243" width="99" height="98" fill="#E0DBFF"/>
<rect x="1120.5" y="243" width="99" height="98" fill="#E0DBFF"/>
<rect x="720.5" y="243" width="99" height="98" fill="#E0DBFF"/>
<rect x="720.5" y="342" width="98" height="99" fill="#E0DBFF"/>
<g clip-path="url(#clip1)">
<rect width="203" height="200" transform="translate(919.5 441)" fill="white"/>
<line x1="1020" y1="441" x2="1020" y2="1042" stroke="black"/>
<line x1="1120" y1="441" x2="1120" y2="1042" stroke="black"/>
<line x1="920" y1="441" x2="920" y2="1042" stroke="black"/>
<line x1="919.5" y1="640.5" x2="1720.5" y2="640.5" stroke="black"/>
<line x1="919.5" y1="540.5" x2="1720.5" y2="540.5" stroke="black"/>
<line x1="919.5" y1="441.5" x2="1720.5" y2="441.5" stroke="black"/>
<line x1="919.5" y1="640.5" x2="1720.5" y2="640.5" stroke="black"/>
<line x1="919.5" y1="540.5" x2="1720.5" y2="540.5" stroke="black"/>
<line x1="919.5" y1="441.5" x2="1720.5" y2="441.5" stroke="black"/>
<rect x="920.5" y="442" width="199" height="199.495" fill="#DBE9FF"/>
</g>
<path fill-rule="evenodd" clip-rule="evenodd" d="M993.08 475.838C988.195 480.315 985.059 487.113 985.059 496.455C985.059 506.162 986.368 509.44 987.855 511.432C988.42 512.189 988.988 512.753 989.69 513.45L989.69 513.45L989.69 513.45L989.69 513.45L989.69 513.45C990.045 513.802 990.434 514.189 990.875 514.651C992.119 515.958 993.444 517.578 994.712 520.102C998.067 526.778 999.236 531.321 999.643 533.727H1025.67C1026.08 531.321 1027.25 526.778 1030.61 520.102C1031.87 517.578 1033.2 515.958 1034.44 514.651C1034.88 514.189 1035.27 513.802 1035.63 513.45L1035.63 513.45L1035.63 513.45C1036.33 512.753 1036.9 512.189 1037.46 511.432C1038.95 509.44 1040.26 506.162 1040.26 496.455C1040.26 487.113 1037.12 480.315 1032.24 475.838C1027.33 471.336 1020.44 469 1012.66 469C1004.87 469 997.992 471.336 993.08 475.838ZM983.059 496.455C983.059 476.818 996.311 467 1012.66 467C1029.01 467 1042.26 476.818 1042.26 496.455C1042.26 509.678 1039.89 512.035 1036.92 514.984C1035.49 516.415 1033.91 517.984 1032.39 521C1028.74 528.269 1027.79 532.847 1027.55 534.735C1027.47 535.282 1027.01 535.727 1026.46 535.727H998.859C998.306 535.727 997.844 535.282 997.772 534.735C997.526 532.847 996.578 528.269 992.925 521C991.41 517.984 989.832 516.415 988.394 514.984C985.429 512.035 983.059 509.678 983.059 496.455ZM997.859 541.137C997.859 540.86 998.083 540.637 998.359 540.637H1026.96C1027.24 540.637 1027.46 540.86 1027.46 541.137V555.104C1027.46 555.267 1027.38 555.417 1027.25 555.509C1026.19 556.229 1021.36 559.419 1017.65 560.261C1017.61 560.269 1017.57 560.273 1017.54 560.273H1007.78C1007.74 560.273 1007.71 560.269 1007.67 560.261C1003.96 559.419 999.128 556.229 998.07 555.509C997.936 555.417 997.859 555.267 997.859 555.104V541.137ZM1003.79 494C1003.79 493.038 1004.31 491.412 1005.42 490.025C1006.51 488.669 1008.1 487.637 1010.19 487.637C1010.75 487.637 1011.19 487.189 1011.19 486.637C1011.19 486.085 1010.75 485.637 1010.19 485.637C1007.36 485.637 1005.24 487.059 1003.86 488.772C1002.51 490.452 1001.79 492.509 1001.79 494C1001.79 494.553 1002.24 495 1002.79 495C1003.35 495 1003.79 494.553 1003.79 494Z" fill="#222222"/>
<path d="M957.688 614.273H981.65V580.611H1015.48V614.273H1040.85V580.611H1066.22" stroke="black" stroke-width="2"/>
</g>
<rect x="715" y="237.5" width="108" height="208" stroke="black" stroke-width="3" stroke-dasharray="7 7"/>
<rect x="1016" y="237.5" width="207" height="107" stroke="black" stroke-width="3" stroke-dasharray="7 7"/>
<rect x="916" y="437.5" width="209" height="208" stroke="black" stroke-width="3" stroke-dasharray="7 7"/>
<path d="M724.387 208.938L729.965 222.859L735.543 208.938H738.461V226H736.211V219.355L736.422 212.184L730.82 226H729.098L723.508 212.219L723.73 219.355V226H721.48V208.938H724.387ZM748.082 223.012L752.957 208.938H755.418L749.09 226H747.098L740.781 208.938H743.23L748.082 223.012ZM767.359 218.113H759.965V224.16H768.555V226H757.715V208.938H768.438V210.789H759.965V216.273H767.359V218.113ZM782.336 218.395C780.406 217.84 779 217.16 778.117 216.355C777.242 215.543 776.805 214.543 776.805 213.355C776.805 212.012 777.34 210.902 778.41 210.027C779.488 209.145 780.887 208.703 782.605 208.703C783.777 208.703 784.82 208.93 785.734 209.383C786.656 209.836 787.367 210.461 787.867 211.258C788.375 212.055 788.629 212.926 788.629 213.871H786.367C786.367 212.84 786.039 212.031 785.383 211.445C784.727 210.852 783.801 210.555 782.605 210.555C781.496 210.555 780.629 210.801 780.004 211.293C779.387 211.777 779.078 212.453 779.078 213.32C779.078 214.016 779.371 214.605 779.957 215.09C780.551 215.566 781.555 216.004 782.969 216.402C784.391 216.801 785.5 217.242 786.297 217.727C787.102 218.203 787.695 218.762 788.078 219.402C788.469 220.043 788.664 220.797 788.664 221.664C788.664 223.047 788.125 224.156 787.047 224.992C785.969 225.82 784.527 226.234 782.723 226.234C781.551 226.234 780.457 226.012 779.441 225.566C778.426 225.113 777.641 224.496 777.086 223.715C776.539 222.934 776.266 222.047 776.266 221.055H778.527C778.527 222.086 778.906 222.902 779.664 223.504C780.43 224.098 781.449 224.395 782.723 224.395C783.91 224.395 784.82 224.152 785.453 223.668C786.086 223.184 786.402 222.523 786.402 221.688C786.402 220.852 786.109 220.207 785.523 219.754C784.938 219.293 783.875 218.84 782.336 218.395ZM794.16 210.25V213.32H796.527V214.996H794.16V222.859C794.16 223.367 794.266 223.75 794.477 224.008C794.688 224.258 795.047 224.383 795.555 224.383C795.805 224.383 796.148 224.336 796.586 224.242V226C796.016 226.156 795.461 226.234 794.922 226.234C793.953 226.234 793.223 225.941 792.73 225.355C792.238 224.77 791.992 223.938 791.992 222.859V214.996H789.684V213.32H791.992V210.25H794.16ZM806.898 226C806.773 225.75 806.672 225.305 806.594 224.664C805.586 225.711 804.383 226.234 802.984 226.234C801.734 226.234 800.707 225.883 799.902 225.18C799.105 224.469 798.707 223.57 798.707 222.484C798.707 221.164 799.207 220.141 800.207 219.414C801.215 218.68 802.629 218.312 804.449 218.312H806.559V217.316C806.559 216.559 806.332 215.957 805.879 215.512C805.426 215.059 804.758 214.832 803.875 214.832C803.102 214.832 802.453 215.027 801.93 215.418C801.406 215.809 801.145 216.281 801.145 216.836H798.965C798.965 216.203 799.188 215.594 799.633 215.008C800.086 214.414 800.695 213.945 801.461 213.602C802.234 213.258 803.082 213.086 804.004 213.086C805.465 213.086 806.609 213.453 807.438 214.188C808.266 214.914 808.695 215.918 808.727 217.199V223.035C808.727 224.199 808.875 225.125 809.172 225.812V226H806.898ZM803.301 224.348C803.98 224.348 804.625 224.172 805.234 223.82C805.844 223.469 806.285 223.012 806.559 222.449V219.848H804.859C802.203 219.848 800.875 220.625 800.875 222.18C800.875 222.859 801.102 223.391 801.555 223.773C802.008 224.156 802.59 224.348 803.301 224.348ZM815.066 210.25V213.32H817.434V214.996H815.066V222.859C815.066 223.367 815.172 223.75 815.383 224.008C815.594 224.258 815.953 224.383 816.461 224.383C816.711 224.383 817.055 224.336 817.492 224.242V226C816.922 226.156 816.367 226.234 815.828 226.234C814.859 226.234 814.129 225.941 813.637 225.355C813.145 224.77 812.898 223.938 812.898 222.859V214.996H810.59V213.32H812.898V210.25H815.066ZM825.238 226.234C823.52 226.234 822.121 225.672 821.043 224.547C819.965 223.414 819.426 221.902 819.426 220.012V219.613C819.426 218.355 819.664 217.234 820.141 216.25C820.625 215.258 821.297 214.484 822.156 213.93C823.023 213.367 823.961 213.086 824.969 213.086C826.617 213.086 827.898 213.629 828.812 214.715C829.727 215.801 830.184 217.355 830.184 219.379V220.281H821.594C821.625 221.531 821.988 222.543 822.684 223.316C823.387 224.082 824.277 224.465 825.355 224.465C826.121 224.465 826.77 224.309 827.301 223.996C827.832 223.684 828.297 223.27 828.695 222.754L830.02 223.785C828.957 225.418 827.363 226.234 825.238 226.234ZM824.969 214.867C824.094 214.867 823.359 215.188 822.766 215.828C822.172 216.461 821.805 217.352 821.664 218.5H828.016V218.336C827.953 217.234 827.656 216.383 827.125 215.781C826.594 215.172 825.875 214.867 824.969 214.867Z" fill="black"/>
<path d="M652.5 413L642.5 407.226V418.774L652.5 413ZM567 414H643.5V412H567V414Z" fill="black"/>
<rect x="211.684" y="596.685" width="44.0427" height="43.5877" fill="#E0DBFF" stroke="black"/>
<rect x="211.684" y="641.728" width="43.5877" height="44.0427" fill="#E0DBFF" stroke="black"/>
<rect x="209.5" y="594.5" width="48" height="93" stroke="black" stroke-width="3" stroke-dasharray="7 7"/>
<rect x="169.586" y="108.1" width="49.9143" height="49.4" fill="#E0DBFF" stroke="black"/>
<rect x="221.016" y="108.1" width="49.9143" height="49.4" fill="#E0DBFF" stroke="black"/>
<rect x="167.5" y="105.5" width="105" height="54" stroke="black" stroke-width="3" stroke-dasharray="7 7"/>
<rect x="1.5" y="47.5" width="503" height="755" rx="30.5" stroke="black" stroke-width="3" stroke-dasharray="7 7"/>
<path d="M61.656 146.56L33.176 134.144V129.856L61.656 117.184V121.152L37.528 131.776L61.656 142.464V146.56ZM86.486 152V149.888C88.7047 149.803 90.1767 149.12 90.902 147.84C91.67 146.56 92.054 144.811 92.054 142.592L91.862 112.384L84.182 117.312L82.902 115.456L95.382 106.176H97.558L97.622 145.024C97.622 145.835 97.6007 146.624 97.558 147.392C97.558 148.16 97.5153 148.843 97.43 149.44C98.326 149.397 99.222 149.355 100.118 149.312C101.014 149.269 101.91 149.227 102.806 149.184V152H86.486ZM112.615 163.456L110.887 162.176C111.356 161.579 111.847 160.725 112.359 159.616C112.871 158.507 113.276 157.269 113.575 155.904C113.916 154.581 114.001 153.28 113.831 152C113.276 152.256 112.743 152.384 112.231 152.384C111.42 152.384 110.716 152.085 110.119 151.488C109.564 150.891 109.286 150.144 109.286 149.248C109.286 148.053 109.628 147.136 110.311 146.496C111.036 145.856 111.868 145.536 112.807 145.536C114.3 145.536 115.431 146.112 116.199 147.264C116.967 148.373 117.351 149.739 117.351 151.36C117.351 152.427 117.137 153.728 116.711 155.264C116.327 156.8 115.772 158.293 115.047 159.744C114.364 161.237 113.553 162.475 112.615 163.456Z" fill="black"/>
<path d="M424.688 117.184L453.168 129.6V133.888L424.688 146.56V142.592L448.816 131.968L424.688 121.28V117.184Z" fill="black"/>
<path d="M452.688 394.184L481.168 406.6V410.888L452.688 423.56V419.592L476.816 408.968L452.688 398.28V394.184Z" fill="black"/>
<path d="M446.688 622.184L475.168 634.6V638.888L446.688 651.56V647.592L470.816 636.968L446.688 626.28V622.184Z" fill="black"/>
<path d="M51.656 423.56L23.176 411.144V406.856L51.656 394.184V398.152L27.528 408.776L51.656 419.464V423.56ZM74.694 429C74.694 426.739 75.0353 424.733 75.718 422.984C76.4433 421.235 77.4033 419.635 78.598 418.184C79.7927 416.691 81.1367 415.261 82.63 413.896C84.166 412.488 85.7233 411.016 87.302 409.48C90.0753 406.835 92.0807 404.381 93.318 402.12C94.5553 399.859 95.174 397.683 95.174 395.592C95.174 393.971 94.9393 392.413 94.47 390.92C94.0433 389.384 93.254 388.125 92.102 387.144C90.95 386.163 89.35 385.672 87.302 385.672C85.5527 385.672 83.9953 386.12 82.63 387.016C81.2647 387.869 80.3473 388.936 79.878 390.216C80.3047 390.643 80.6033 391.112 80.774 391.624C80.9447 392.093 81.03 392.563 81.03 393.032C81.03 393.587 80.7953 394.248 80.326 395.016C79.8567 395.741 79.046 396.083 77.894 396.04C76.9553 395.997 76.23 395.635 75.718 394.952C75.206 394.269 74.95 393.459 74.95 392.52C74.95 391.283 75.4407 389.939 76.422 388.488C77.446 387.037 78.9393 385.8 80.902 384.776C82.9073 383.709 85.382 383.176 88.326 383.176C90.5873 383.176 92.742 383.539 94.79 384.264C96.838 384.989 98.502 386.205 99.782 387.912C101.105 389.576 101.766 391.859 101.766 394.76C101.766 396.936 100.806 399.432 98.886 402.248C97.0087 405.021 93.7873 408.264 89.222 411.976C86.3207 414.365 83.9313 416.627 82.054 418.76C80.2193 420.851 79.1527 422.643 78.854 424.136L90.182 424.456C92.2727 424.499 94.1073 424.499 95.686 424.456C97.3073 424.413 98.566 424.093 99.462 423.496C100.401 422.856 100.87 421.704 100.87 420.04H102.79L102.406 429H74.694ZM113.677 440.456L111.949 439.176C112.418 438.579 112.909 437.725 113.421 436.616C113.933 435.507 114.338 434.269 114.637 432.904C114.978 431.581 115.064 430.28 114.893 429C114.338 429.256 113.805 429.384 113.293 429.384C112.482 429.384 111.778 429.085 111.181 428.488C110.626 427.891 110.349 427.144 110.349 426.248C110.349 425.053 110.69 424.136 111.373 423.496C112.098 422.856 112.93 422.536 113.869 422.536C115.362 422.536 116.493 423.112 117.261 424.264C118.029 425.373 118.413 426.739 118.413 428.36C118.413 429.427 118.2 430.728 117.773 432.264C117.389 433.8 116.834 435.293 116.109 436.744C115.426 438.237 114.616 439.475 113.677 440.456Z" fill="black"/>
<path d="M61.656 651.56L33.176 639.144V634.856L61.656 622.184V626.152L37.528 636.776L61.656 647.464V651.56ZM98.07 658.024C94.998 658.024 92.4593 657.576 90.454 656.68C88.4487 655.741 86.9553 654.589 85.974 653.224C85.0353 651.859 84.566 650.557 84.566 649.32C84.566 648.339 84.822 647.528 85.334 646.888C85.846 646.205 86.5713 645.843 87.51 645.8C88.662 645.715 89.4513 646.035 89.878 646.76C90.3047 647.443 90.518 648.083 90.518 648.68C90.518 649.107 90.454 649.533 90.326 649.96C90.198 650.387 90.0273 650.813 89.814 651.24C90.2407 652.691 91.2007 653.736 92.694 654.376C94.23 655.016 95.8727 655.336 97.622 655.336C100.651 655.336 103.062 654.504 104.854 652.84C106.689 651.176 107.606 648.765 107.606 645.608C107.606 643.731 107.307 641.96 106.71 640.296C106.113 638.589 105.003 637.203 103.382 636.136C101.761 635.069 99.3927 634.579 96.278 634.664C95.9367 634.664 95.574 634.685 95.19 634.728C94.806 634.728 94.3793 634.749 93.91 634.792V631.912H96.534C98.7953 631.912 100.566 631.4 101.846 630.376C103.126 629.352 104.043 628.136 104.598 626.728C105.153 625.32 105.43 624.019 105.43 622.824C105.43 621.075 105.195 619.517 104.726 618.152C104.299 616.744 103.531 615.656 102.422 614.888C101.313 614.077 99.7767 613.672 97.814 613.672C95.894 613.672 94.2513 614.184 92.886 615.208C91.5207 616.189 90.6673 617.213 90.326 618.28C90.71 618.707 90.966 619.133 91.094 619.56C91.2647 619.987 91.35 620.435 91.35 620.904C91.35 621.416 91.1367 622.013 90.71 622.696C90.2833 623.379 89.5153 623.699 88.406 623.656C87.51 623.656 86.8273 623.336 86.358 622.696C85.8887 622.056 85.654 621.288 85.654 620.392C85.654 619.197 86.1233 617.896 87.062 616.488C88.0007 615.037 89.43 613.8 91.35 612.776C93.3127 611.709 95.766 611.176 98.71 611.176C101.014 611.176 103.147 611.539 105.11 612.264C107.073 612.989 108.651 614.184 109.846 615.848C111.041 617.469 111.638 619.624 111.638 622.312C111.638 624.317 110.87 626.301 109.334 628.264C107.798 630.184 105.067 631.763 101.142 633C105.195 633.427 108.374 634.728 110.678 636.904C113.025 639.08 114.198 641.832 114.198 645.16C114.198 648.061 113.43 650.472 111.894 652.392C110.401 654.269 108.417 655.677 105.942 656.616C103.51 657.555 100.886 658.024 98.07 658.024ZM124.927 668.456L123.199 667.176C123.668 666.579 124.159 665.725 124.671 664.616C125.183 663.507 125.588 662.269 125.887 660.904C126.228 659.581 126.314 658.28 126.143 657C125.588 657.256 125.055 657.384 124.543 657.384C123.732 657.384 123.028 657.085 122.431 656.488C121.876 655.891 121.599 655.144 121.599 654.248C121.599 653.053 121.94 652.136 122.623 651.496C123.348 650.856 124.18 650.536 125.119 650.536C126.612 650.536 127.743 651.112 128.511 652.264C129.279 653.373 129.663 654.739 129.663 656.36C129.663 657.427 129.45 658.728 129.023 660.264C128.639 661.8 128.084 663.293 127.359 664.744C126.676 666.237 125.866 667.475 124.927 668.456Z" fill="black"/>
<path d="M19.128 18.432C19.056 17.28 18.78 16.188 18.3 15.156C17.82 14.124 17.124 13.284 16.212 12.636C15.3 11.988 14.136 11.664 12.72 11.664C11.232 11.664 10.092 12.084 9.3 12.924C8.508 13.764 8.112 14.748 8.112 15.876C8.112 16.884 8.4 17.736 8.976 18.432C9.552 19.104 10.296 19.704 11.208 20.232C12.144 20.736 13.128 21.228 14.16 21.708C15.072 22.116 15.984 22.56 16.896 23.04C17.808 23.496 18.636 24.024 19.38 24.624C20.124 25.224 20.712 25.944 21.144 26.784C21.6 27.6 21.828 28.584 21.828 29.736C21.828 31.728 21.096 33.372 19.632 34.668C18.168 35.94 16.092 36.576 13.404 36.576C12.324 36.576 11.208 36.42 10.056 36.108C8.904 35.796 7.884 35.34 6.996 34.74L7.176 36.288H5.304L5.088 28.62H6.492C6.612 30.732 7.344 32.34 8.688 33.444C10.032 34.524 11.652 35.064 13.548 35.064C14.484 35.064 15.348 34.896 16.14 34.56C16.932 34.2 17.556 33.684 18.012 33.012C18.492 32.34 18.732 31.524 18.732 30.564C18.732 29.484 18.444 28.584 17.868 27.864C17.292 27.144 16.548 26.52 15.636 25.992C14.724 25.464 13.752 24.96 12.72 24.48C11.808 24.072 10.908 23.64 10.02 23.184C9.132 22.728 8.316 22.212 7.572 21.636C6.852 21.036 6.264 20.328 5.808 19.512C5.376 18.696 5.16 17.712 5.16 16.56C5.16 15.936 5.268 15.264 5.484 14.544C5.7 13.824 6.072 13.14 6.6 12.492C7.152 11.82 7.896 11.28 8.832 10.872C9.792 10.44 11.004 10.224 12.468 10.224C13.38 10.224 14.4 10.356 15.528 10.62C16.68 10.86 17.748 11.34 18.732 12.06L18.588 10.512H20.424V18.432H19.128ZM31.6372 36.576C31.0852 36.576 30.5212 36.492 29.9452 36.324C29.3692 36.18 28.8292 35.88 28.3252 35.424C27.8452 34.968 27.4612 34.308 27.1732 33.444C26.8852 32.556 26.7412 31.392 26.7412 29.952L26.8132 19.512L24.0412 19.548V18C24.6652 17.976 25.3012 17.748 25.9492 17.316C26.5972 16.86 27.1732 16.248 27.6772 15.48C28.2052 14.712 28.5652 13.872 28.7572 12.96H29.9812V18H36.0292V19.404L29.9812 19.476L29.9092 29.484C29.9092 31.116 30.1132 32.364 30.5212 33.228C30.9532 34.092 31.6612 34.524 32.6452 34.524C33.3172 34.524 33.9412 34.332 34.5172 33.948C35.1172 33.564 35.6452 33.036 36.1012 32.364L37.0732 33.156C36.3772 34.212 35.6812 34.98 34.9852 35.46C34.3132 35.94 33.6892 36.24 33.1132 36.36C32.5372 36.504 32.0452 36.576 31.6372 36.576ZM49.735 36C49.663 35.592 49.615 35.232 49.591 34.92C49.567 34.608 49.531 34.284 49.483 33.948C48.667 34.764 47.779 35.412 46.819 35.892C45.883 36.348 44.887 36.576 43.831 36.576C42.007 36.576 40.651 36.168 39.763 35.352C38.875 34.512 38.431 33.492 38.431 32.292C38.431 31.188 38.767 30.24 39.439 29.448C40.135 28.632 41.023 27.972 42.103 27.468C43.207 26.94 44.395 26.556 45.667 26.316C46.963 26.052 48.211 25.932 49.411 25.956V23.724C49.411 22.884 49.339 22.092 49.195 21.348C49.051 20.604 48.739 19.992 48.259 19.512C47.779 19.032 47.011 18.78 45.955 18.756C45.259 18.732 44.539 18.864 43.795 19.152C43.075 19.44 42.547 19.932 42.211 20.628C42.403 20.82 42.523 21.048 42.571 21.312C42.643 21.552 42.679 21.78 42.679 21.996C42.679 22.284 42.559 22.62 42.319 23.004C42.079 23.364 41.659 23.532 41.059 23.508C40.555 23.508 40.171 23.34 39.907 23.004C39.643 22.644 39.511 22.224 39.511 21.744C39.511 20.928 39.811 20.196 40.411 19.548C41.035 18.9 41.887 18.384 42.967 18C44.047 17.616 45.271 17.424 46.639 17.424C48.655 17.424 50.143 17.964 51.103 19.044C52.063 20.1 52.531 21.78 52.507 24.084C52.507 25.428 52.495 26.784 52.471 28.152C52.471 29.496 52.471 30.84 52.471 32.184C52.471 32.568 52.459 32.952 52.435 33.336C52.411 33.72 52.375 34.152 52.327 34.632C52.759 34.608 53.179 34.584 53.587 34.56C54.019 34.536 54.451 34.512 54.883 34.488V36H49.735ZM49.411 27.18C48.595 27.204 47.731 27.312 46.819 27.504C45.931 27.672 45.103 27.936 44.335 28.296C43.591 28.656 42.979 29.136 42.499 29.736C42.043 30.312 41.827 31.02 41.851 31.86C41.899 32.748 42.187 33.42 42.715 33.876C43.267 34.308 43.915 34.524 44.659 34.524C45.643 34.524 46.495 34.344 47.215 33.984C47.959 33.6 48.691 33.072 49.411 32.4C49.387 32.136 49.375 31.848 49.375 31.536C49.375 31.224 49.375 30.9 49.375 30.564C49.375 30.444 49.375 30.06 49.375 29.412C49.399 28.764 49.411 28.02 49.411 27.18ZM63.8754 36.576C63.3234 36.576 62.7594 36.492 62.1834 36.324C61.6074 36.18 61.0674 35.88 60.5634 35.424C60.0834 34.968 59.6994 34.308 59.4114 33.444C59.1234 32.556 58.9794 31.392 58.9794 29.952L59.0514 19.512L56.2794 19.548V18C56.9034 17.976 57.5394 17.748 58.1874 17.316C58.8354 16.86 59.4114 16.248 59.9154 15.48C60.4434 14.712 60.8034 13.872 60.9954 12.96H62.2194V18H68.2674V19.404L62.2194 19.476L62.1474 29.484C62.1474 31.116 62.3514 32.364 62.7594 33.228C63.1914 34.092 63.8994 34.524 64.8834 34.524C65.5554 34.524 66.1794 34.332 66.7554 33.948C67.3554 33.564 67.8834 33.036 68.3394 32.364L69.3114 33.156C68.6154 34.212 67.9194 34.98 67.2234 35.46C66.5514 35.94 65.9274 36.24 65.3514 36.36C64.7754 36.504 64.2834 36.576 63.8754 36.576ZM79.7413 36.576C78.0853 36.576 76.5853 36.192 75.2413 35.424C73.9213 34.632 72.8773 33.528 72.1093 32.112C71.3413 30.672 70.9573 28.98 70.9573 27.036C70.9573 25.356 71.3293 23.784 72.0733 22.32C72.8413 20.856 73.9093 19.68 75.2773 18.792C76.6453 17.88 78.2293 17.424 80.0293 17.424C81.3733 17.424 82.5973 17.712 83.7013 18.288C84.8053 18.864 85.6813 19.74 86.3293 20.916C87.0013 22.092 87.3373 23.58 87.3373 25.38L74.6653 25.596C74.6413 28.356 75.0973 30.576 76.0333 32.256C76.9693 33.912 78.4933 34.74 80.6053 34.74C81.3493 34.74 82.1053 34.608 82.8733 34.344C83.6653 34.08 84.3973 33.72 85.0693 33.264C85.7413 32.808 86.2813 32.304 86.6893 31.752L87.5533 32.472C86.9053 33.48 86.1253 34.284 85.2133 34.884C84.3013 35.484 83.3653 35.916 82.4053 36.18C81.4453 36.444 80.5573 36.576 79.7413 36.576ZM74.7733 24.084H83.9533C83.9533 23.22 83.8213 22.392 83.5573 21.6C83.3173 20.784 82.9093 20.124 82.3333 19.62C81.7573 19.092 81.0013 18.828 80.0653 18.828C78.6733 18.828 77.5093 19.248 76.5733 20.088C75.6613 20.904 75.0613 22.236 74.7733 24.084ZM114.542 18.432C114.47 17.28 114.194 16.188 113.714 15.156C113.234 14.124 112.538 13.284 111.626 12.636C110.714 11.988 109.55 11.664 108.134 11.664C106.646 11.664 105.506 12.084 104.714 12.924C103.922 13.764 103.526 14.748 103.526 15.876C103.526 16.884 103.814 17.736 104.39 18.432C104.966 19.104 105.71 19.704 106.622 20.232C107.558 20.736 108.542 21.228 109.574 21.708C110.486 22.116 111.398 22.56 112.31 23.04C113.222 23.496 114.05 24.024 114.794 24.624C115.538 25.224 116.126 25.944 116.558 26.784C117.014 27.6 117.242 28.584 117.242 29.736C117.242 31.728 116.51 33.372 115.046 34.668C113.582 35.94 111.506 36.576 108.818 36.576C107.738 36.576 106.622 36.42 105.47 36.108C104.318 35.796 103.298 35.34 102.41 34.74L102.59 36.288H100.718L100.502 28.62H101.906C102.026 30.732 102.758 32.34 104.102 33.444C105.446 34.524 107.066 35.064 108.962 35.064C109.898 35.064 110.762 34.896 111.554 34.56C112.346 34.2 112.97 33.684 113.426 33.012C113.906 32.34 114.146 31.524 114.146 30.564C114.146 29.484 113.858 28.584 113.282 27.864C112.706 27.144 111.962 26.52 111.05 25.992C110.138 25.464 109.166 24.96 108.134 24.48C107.222 24.072 106.322 23.64 105.434 23.184C104.546 22.728 103.73 22.212 102.986 21.636C102.266 21.036 101.678 20.328 101.222 19.512C100.79 18.696 100.574 17.712 100.574 16.56C100.574 15.936 100.682 15.264 100.898 14.544C101.114 13.824 101.486 13.14 102.014 12.492C102.566 11.82 103.31 11.28 104.246 10.872C105.206 10.44 106.418 10.224 107.882 10.224C108.794 10.224 109.814 10.356 110.942 10.62C112.094 10.86 113.162 11.34 114.146 12.06L114.002 10.512H115.838V18.432H114.542ZM127.051 36.576C126.499 36.576 125.935 36.492 125.359 36.324C124.783 36.18 124.243 35.88 123.739 35.424C123.259 34.968 122.875 34.308 122.587 33.444C122.299 32.556 122.155 31.392 122.155 29.952L122.227 19.512L119.455 19.548V18C120.079 17.976 120.715 17.748 121.363 17.316C122.011 16.86 122.587 16.248 123.091 15.48C123.619 14.712 123.979 13.872 124.171 12.96H125.395V18H131.443V19.404L125.395 19.476L125.323 29.484C125.323 31.116 125.527 32.364 125.935 33.228C126.367 34.092 127.075 34.524 128.059 34.524C128.731 34.524 129.355 34.332 129.931 33.948C130.531 33.564 131.059 33.036 131.515 32.364L132.487 33.156C131.791 34.212 131.095 34.98 130.399 35.46C129.727 35.94 129.103 36.24 128.527 36.36C127.951 36.504 127.459 36.576 127.051 36.576ZM143.133 36.576C141.453 36.576 139.929 36.192 138.561 35.424C137.193 34.632 136.101 33.552 135.285 32.184C134.493 30.792 134.097 29.208 134.097 27.432C134.097 25.536 134.493 23.832 135.285 22.32C136.077 20.808 137.157 19.62 138.525 18.756C139.893 17.868 141.429 17.424 143.133 17.424C144.813 17.424 146.337 17.832 147.705 18.648C149.073 19.44 150.165 20.52 150.981 21.888C151.797 23.256 152.205 24.816 152.205 26.568C152.205 28.416 151.797 30.108 150.981 31.644C150.189 33.156 149.109 34.356 147.741 35.244C146.373 36.132 144.837 36.576 143.133 36.576ZM143.421 35.136C144.693 35.136 145.701 34.776 146.445 34.056C147.189 33.336 147.717 32.4 148.029 31.248C148.365 30.096 148.533 28.884 148.533 27.612C148.533 26.532 148.425 25.476 148.209 24.444C148.017 23.388 147.705 22.44 147.273 21.6C146.841 20.736 146.277 20.052 145.581 19.548C144.909 19.044 144.093 18.792 143.133 18.792C141.885 18.792 140.865 19.152 140.073 19.872C139.281 20.592 138.693 21.528 138.309 22.68C137.949 23.832 137.769 25.068 137.769 26.388C137.769 27.876 137.973 29.292 138.381 30.636C138.789 31.956 139.413 33.036 140.253 33.876C141.093 34.716 142.149 35.136 143.421 35.136ZM155.264 34.92C156.008 34.92 156.524 34.74 156.812 34.38C157.1 33.996 157.268 33.48 157.316 32.832C157.364 32.16 157.388 31.392 157.388 30.528V22.32C157.388 21.936 157.388 21.552 157.388 21.168C157.412 20.784 157.46 20.388 157.532 19.98C157.1 20.004 156.668 20.028 156.236 20.052C155.828 20.052 155.408 20.064 154.976 20.088V18.612H156.092C157.124 18.612 157.832 18.516 158.216 18.324C158.624 18.108 158.96 17.88 159.224 17.64H160.268C160.316 18.024 160.352 18.504 160.376 19.08C160.4 19.632 160.424 20.34 160.448 21.204C160.808 20.604 161.3 20.016 161.924 19.44C162.548 18.864 163.244 18.384 164.012 18C164.804 17.616 165.632 17.424 166.496 17.424C167.168 17.424 167.756 17.604 168.26 17.964C168.764 18.324 169.016 18.9 169.016 19.692C169.016 20.004 168.872 20.376 168.584 20.808C168.32 21.24 167.864 21.444 167.216 21.42C166.688 21.396 166.268 21.192 165.956 20.808C165.644 20.4 165.524 19.932 165.596 19.404C164.684 19.356 163.76 19.704 162.824 20.448C161.888 21.192 161.108 22.152 160.484 23.328L160.52 32.184C160.52 32.664 160.508 33.096 160.484 33.48C160.484 33.84 160.448 34.224 160.376 34.632C160.76 34.608 161.132 34.596 161.492 34.596C161.876 34.572 162.26 34.548 162.644 34.524V36H155.264V34.92ZM179.304 36.576C177.648 36.576 176.148 36.192 174.804 35.424C173.484 34.632 172.44 33.528 171.672 32.112C170.904 30.672 170.52 28.98 170.52 27.036C170.52 25.356 170.892 23.784 171.636 22.32C172.404 20.856 173.472 19.68 174.84 18.792C176.208 17.88 177.792 17.424 179.592 17.424C180.936 17.424 182.16 17.712 183.264 18.288C184.368 18.864 185.244 19.74 185.892 20.916C186.564 22.092 186.9 23.58 186.9 25.38L174.228 25.596C174.204 28.356 174.66 30.576 175.596 32.256C176.532 33.912 178.056 34.74 180.168 34.74C180.912 34.74 181.668 34.608 182.436 34.344C183.228 34.08 183.96 33.72 184.632 33.264C185.304 32.808 185.844 32.304 186.252 31.752L187.116 32.472C186.468 33.48 185.688 34.284 184.776 34.884C183.864 35.484 182.928 35.916 181.968 36.18C181.008 36.444 180.12 36.576 179.304 36.576ZM174.336 24.084H183.516C183.516 23.22 183.384 22.392 183.12 21.6C182.88 20.784 182.472 20.124 181.896 19.62C181.32 19.092 180.564 18.828 179.628 18.828C178.236 18.828 177.072 19.248 176.136 20.088C175.224 20.904 174.624 22.236 174.336 24.084Z" fill="black"/>
<path d="M151.244 415.94L135.224 408.956V406.544L151.244 399.416V401.648L137.672 407.624L151.244 413.636V415.94Z" fill="black"/>
<path d="M278.248 425.444L277.276 424.724C277.54 424.388 277.816 423.908 278.104 423.284C278.392 422.66 278.62 421.964 278.788 421.196C278.98 420.452 279.028 419.72 278.932 419C278.62 419.144 278.32 419.216 278.032 419.216C277.576 419.216 277.18 419.048 276.844 418.712C276.532 418.376 276.376 417.956 276.376 417.452C276.376 416.78 276.568 416.264 276.952 415.904C277.36 415.544 277.828 415.364 278.356 415.364C279.196 415.364 279.832 415.688 280.264 416.336C280.696 416.96 280.912 417.728 280.912 418.64C280.912 419.24 280.792 419.972 280.552 420.836C280.336 421.7 280.024 422.54 279.616 423.356C279.232 424.196 278.776 424.892 278.248 425.444Z" fill="black"/>
<path d="M411.512 399.416L427.532 406.4V408.812L411.512 415.94V413.708L425.084 407.732L411.512 401.72V399.416Z" fill="black"/>
<g clip-path="url(#clip2)">
<rect width="101" height="100" transform="translate(163 359)" fill="white"/>
<line x1="263.5" y1="359" x2="263.5" y2="960.001" stroke="black"/>
<line x1="163.5" y1="359" x2="163.5" y2="960.001" stroke="black"/>
<line x1="163" y1="458.5" x2="964" y2="458.5" stroke="black"/>
<line x1="163" y1="359.5" x2="964" y2="359.5" stroke="black"/>
<line x1="163" y1="458.5" x2="964" y2="458.5" stroke="black"/>
<line x1="163" y1="359.5" x2="964" y2="359.5" stroke="black"/>
<rect x="164" y="360" width="99" height="98" fill="#DBE9FF"/>
</g>
<path fill-rule="evenodd" clip-rule="evenodd" d="M200.291 377.153C198.097 379.174 196.623 382.291 196.623 386.727C196.623 391.527 197.276 392.892 197.817 393.622C198.056 393.943 198.268 394.153 198.577 394.461C198.758 394.641 198.971 394.853 199.243 395.14C199.913 395.847 200.636 396.736 201.321 398.106C202.714 400.891 203.38 402.977 203.698 404.364H215.002C215.321 402.977 215.987 400.891 217.38 398.106C218.065 396.736 218.788 395.847 219.458 395.14C219.729 394.853 219.943 394.641 220.123 394.461C220.433 394.153 220.645 393.943 220.883 393.622C221.425 392.892 222.078 391.527 222.078 386.727C222.078 382.291 220.604 379.174 218.409 377.153C216.188 375.107 213.026 374 209.35 374C205.675 374 202.513 375.107 200.291 377.153ZM194.623 386.727C194.623 376.909 201.217 372 209.35 372C217.484 372 224.078 376.909 224.078 386.727C224.078 393.339 222.898 394.518 221.423 395.992C220.708 396.707 219.922 397.492 219.169 399C217.614 402.109 217.044 404.233 216.835 405.373C216.735 405.917 216.266 406.364 215.714 406.364H202.987C202.434 406.364 201.965 405.917 201.866 405.373C201.657 404.233 201.087 402.109 199.532 399C198.778 397.492 197.993 396.707 197.278 395.992C195.802 394.518 194.623 393.339 194.623 386.727ZM201.987 409.318C201.987 409.042 202.211 408.818 202.487 408.818H216.214C216.49 408.818 216.714 409.042 216.714 409.318V415.923C216.714 416.085 216.636 416.237 216.502 416.327C215.815 416.79 213.599 418.219 211.858 418.624C211.822 418.633 211.786 418.636 211.749 418.636H206.951C206.914 418.636 206.878 418.633 206.843 418.624C205.102 418.219 202.886 416.79 202.199 416.327C202.064 416.237 201.987 416.085 201.987 415.923V409.318ZM205.441 385.5C205.441 385.15 205.646 384.444 206.143 383.824C206.613 383.235 207.268 382.818 208.123 382.818C208.675 382.818 209.123 382.37 209.123 381.818C209.123 381.266 208.675 380.818 208.123 380.818C206.524 380.818 205.337 381.629 204.581 382.574C203.85 383.488 203.441 384.623 203.441 385.5C203.441 386.052 203.889 386.5 204.441 386.5C204.994 386.5 205.441 386.052 205.441 385.5Z" fill="#222222"/>
<path d="M182 445.636H193.922V428.805H210.753V445.636H223.377V428.805H236" stroke="black" stroke-width="2"/>
<g clip-path="url(#clip3)">
<rect width="101" height="100" transform="translate(296 361)" fill="white"/>
<line x1="396.5" y1="361" x2="396.5" y2="962.001" stroke="black"/>
<line x1="296.5" y1="361" x2="296.5" y2="962.001" stroke="black"/>
<line x1="296" y1="460.5" x2="1097" y2="460.5" stroke="black"/>
<line x1="296" y1="361.5" x2="1097" y2="361.5" stroke="black"/>
<line x1="296" y1="460.5" x2="1097" y2="460.5" stroke="black"/>
<line x1="296" y1="361.5" x2="1097" y2="361.5" stroke="black"/>
<rect x="297" y="362" width="99" height="98" fill="#E9FFDB"/>
</g>
<path d="M340.067 413.016H356.074L356.074 420.756C355.701 421.008 354.879 421.546 353.902 422.079C352.913 422.618 351.801 423.133 350.849 423.354H350.833H350.817H350.801H350.785H350.769H350.753H350.737H350.721H350.705H350.689H350.673H350.658H350.642H350.626H350.61H350.595H350.579H350.563H350.548H350.532H350.516H350.501H350.485H350.47H350.455H350.439H350.424H350.408H350.393H350.378H350.363H350.347H350.332H350.317H350.302H350.287H350.272H350.257H350.241H350.226H350.212H350.197H350.182H350.167H350.152H350.137H350.122H350.108H350.093H350.078H350.063H350.049H350.034H350.019H350.005H349.99H349.976H349.961H349.947H349.932H349.918H349.904H349.889H349.875H349.861H349.846H349.832H349.818H349.804H349.789H349.775H349.761H349.747H349.733H349.719H349.705H349.691H349.677H349.663H349.649H349.635H349.622H349.608H349.594H349.58H349.566H349.553H349.539H349.525H349.512H349.498H349.484H349.471H349.457H349.444H349.43H349.417H349.403H349.39H349.377H349.363H349.35H349.337H349.323H349.31H349.297H349.284H349.27H349.257H349.244H349.231H349.218H349.205H349.192H349.179H349.166H349.153H349.14H349.127H349.114H349.101H349.088H349.075H349.063H349.05H349.037H349.024H349.012H348.999H348.986H348.974H348.961H348.948H348.936H348.923H348.911H348.898H348.886H348.873H348.861H348.848H348.836H348.824H348.811H348.799H348.787H348.774H348.762H348.75H348.738H348.726H348.713H348.701H348.689H348.677H348.665H348.653H348.641H348.629H348.617H348.605H348.593H348.581H348.569H348.557H348.545H348.533H348.522H348.51H348.498H348.486H348.474H348.463H348.451H348.439H348.428H348.416H348.404H348.393H348.381H348.37H348.358H348.347H348.335H348.324H348.312H348.301H348.289H348.278H348.267H348.255H348.244H348.233H348.221H348.21H348.199H348.187H348.176H348.165H348.154H348.143H348.132H348.12H348.109H348.098H348.087H348.076H348.065H348.054H348.043H348.032H348.021H348.01H347.999H347.988H347.977H347.967H347.956H347.945H347.934H347.923H347.912H347.902H347.891H347.88H347.87H347.859H347.848H347.837H347.827H347.816H347.806H347.795H347.784H347.774H347.763H347.753H347.742H347.732H347.721H347.711H347.7H347.69H347.68H347.669H347.659H347.649H347.638H347.628H347.618H347.607H347.597H347.587H347.577H347.566H347.556H347.546H347.536H347.526H347.515H347.505H347.495H347.485H347.475H347.465H347.455H347.445H347.435H347.425H347.415H347.405H347.395H347.385H347.375H347.365H347.355H347.345H347.335H347.325H347.316H347.306H347.296H347.286H347.276H347.267H347.257H347.247H347.237H347.228H347.218H347.208H347.198H347.189H347.179H347.169H347.16H347.15H347.141H347.131H347.121H347.112H347.102H347.093H347.083H347.074H347.064H347.055H347.045H347.036H347.026H347.017H347.008H346.998H346.989H346.979H346.97H346.961H346.951H346.942H346.933H346.923H346.914H346.905H346.895H346.886H346.877H346.868H346.858H346.849H346.84H346.831H346.822H346.812H346.803H346.794H346.785H346.776H346.767H346.758H346.748H346.739H346.73H346.721H346.712H346.703H346.694H346.685H346.676H346.667H346.658H346.649H346.64H346.631H346.622H346.613H346.604H346.595H346.586H346.577H346.569H346.56H346.551H346.542H346.533H346.524H346.515H346.507H346.498H346.489H346.48H346.471H346.462H346.454H346.445H346.436H346.427H346.419H346.41H346.401H346.392H346.384H346.375H346.366H346.358H346.349H346.34H346.332H346.323H346.314H346.306H346.297H346.288H346.28H346.271H346.263H346.254H346.245H346.237H346.228H346.22H346.211H346.203H346.194H346.185H346.177H346.168H346.16H346.151H346.143H346.134H346.126H346.117H346.109H346.1H346.092H346.084H346.075H346.067H346.058H346.05H346.041H346.033H346.024H346.016H346.008H345.999H345.991H345.982H345.974H345.966H345.957H345.949H345.941H345.932H345.924H345.916H345.907H345.899H345.891H345.882H345.874H345.866H345.857H345.849H345.841H345.832H345.824H345.816H345.807H345.799H345.791H345.783H345.774H345.766H345.758H345.75H345.741H345.733H345.725H345.717H345.708H345.7H345.692H345.684H345.675H345.667H345.659H345.651H345.642H345.634H345.626H345.618H345.61H345.601H345.593H345.585H345.577H345.569H345.56H345.552H345.544H345.536H345.528H345.519H345.511H345.503H345.495H345.487H345.479H345.47H345.462H345.454H345.446H345.438H345.43H345.421H345.413H345.405H345.397H345.389H345.381H345.373H345.364H345.356H345.348H345.34H345.332H345.324H345.316H345.307H345.299H345.292C344.341 423.133 343.228 422.618 342.239 422.079C341.263 421.546 340.44 421.008 340.067 420.756V413.016V413.016Z" fill="#222222" stroke="#222222"/>
<path d="M331.564 387.006C331.564 381.456 333.424 377.346 336.384 374.619C339.351 371.887 343.472 370.5 348.071 370.5C352.669 370.5 356.791 371.887 359.758 374.619C362.718 377.346 364.577 381.456 364.577 387.006C364.577 392.648 363.826 394.721 362.841 396.047C362.488 396.523 362.112 396.898 361.687 397.322C361.488 397.521 361.279 397.73 361.056 397.965C360.374 398.685 359.655 399.568 358.961 400.955C357.075 404.727 356.421 407.277 356.194 408.605C356.137 408.943 355.85 409.182 355.574 409.182H340.568C340.292 409.182 340.005 408.943 339.948 408.605C339.721 407.277 339.066 404.727 337.18 400.955C336.487 399.568 335.768 398.685 335.086 397.965C334.863 397.73 334.654 397.521 334.455 397.322C334.03 396.898 333.654 396.523 333.301 396.047C332.316 394.721 331.564 392.648 331.564 387.006Z" fill="#F1F51B" stroke="#222222"/>
<path d="M342.402 385.589C342.402 384.172 343.82 381.338 346.654 381.338" stroke="#222222" stroke-linecap="round"/>
<path d="M317 452.169H329.584V434.403H347.351V452.169H360.675V434.403H374" stroke="black" stroke-width="2"/>
<path d="M143.244 136.94L127.224 129.956V127.544L143.244 120.416V122.648L129.672 128.624L143.244 134.636V136.94Z" fill="black"/>
<path d="M297.248 146.444L296.276 145.724C296.54 145.388 296.816 144.908 297.104 144.284C297.392 143.66 297.62 142.964 297.788 142.196C297.98 141.452 298.028 140.72 297.932 140C297.62 140.144 297.32 140.216 297.032 140.216C296.576 140.216 296.18 140.048 295.844 139.712C295.532 139.376 295.376 138.956 295.376 138.452C295.376 137.78 295.568 137.264 295.952 136.904C296.36 136.544 296.828 136.364 297.356 136.364C298.196 136.364 298.832 136.688 299.264 137.336C299.696 137.96 299.912 138.728 299.912 139.64C299.912 140.24 299.792 140.972 299.552 141.836C299.336 142.7 299.024 143.54 298.616 144.356C298.232 145.196 297.776 145.892 297.248 146.444ZM315.955 140.576C315.403 140.576 314.911 140.36 314.479 139.928C314.071 139.472 313.867 138.92 313.867 138.272C313.867 137.624 314.083 137.072 314.515 136.616C314.947 136.16 315.439 135.932 315.991 135.932C316.591 135.932 317.083 136.16 317.467 136.616C317.875 137.072 318.079 137.624 318.079 138.272C318.079 138.92 317.863 139.472 317.431 139.928C316.999 140.36 316.507 140.576 315.955 140.576ZM324.814 140.576C324.262 140.576 323.77 140.36 323.338 139.928C322.93 139.472 322.726 138.92 322.726 138.272C322.726 137.624 322.942 137.072 323.374 136.616C323.806 136.16 324.298 135.932 324.85 135.932C325.45 135.932 325.942 136.16 326.326 136.616C326.734 137.072 326.938 137.624 326.938 138.272C326.938 138.92 326.722 139.472 326.29 139.928C325.858 140.36 325.366 140.576 324.814 140.576ZM333.673 140.576C333.121 140.576 332.629 140.36 332.197 139.928C331.789 139.472 331.585 138.92 331.585 138.272C331.585 137.624 331.801 137.072 332.233 136.616C332.665 136.16 333.157 135.932 333.709 135.932C334.309 135.932 334.801 136.16 335.185 136.616C335.593 137.072 335.797 137.624 335.797 138.272C335.797 138.92 335.581 139.472 335.149 139.928C334.717 140.36 334.225 140.576 333.673 140.576Z" fill="black"/>
<path d="M376.512 120.416L392.532 127.4V129.812L376.512 136.94V134.708L390.084 128.732L376.512 122.72V120.416Z" fill="black"/>
<path d="M155.244 641.94L139.224 634.956V632.544L155.244 625.416V627.648L141.672 633.624L155.244 639.636V641.94Z" fill="black"/>
<path d="M309.248 651.444L308.276 650.724C308.54 650.388 308.816 649.908 309.104 649.284C309.392 648.66 309.62 647.964 309.788 647.196C309.98 646.452 310.028 645.72 309.932 645C309.62 645.144 309.32 645.216 309.032 645.216C308.576 645.216 308.18 645.048 307.844 644.712C307.532 644.376 307.376 643.956 307.376 643.452C307.376 642.78 307.568 642.264 307.952 641.904C308.36 641.544 308.828 641.364 309.356 641.364C310.196 641.364 310.832 641.688 311.264 642.336C311.696 642.96 311.912 643.728 311.912 644.64C311.912 645.24 311.792 645.972 311.552 646.836C311.336 647.7 311.024 648.54 310.616 649.356C310.232 650.196 309.776 650.892 309.248 651.444ZM327.955 645.576C327.403 645.576 326.911 645.36 326.479 644.928C326.071 644.472 325.867 643.92 325.867 643.272C325.867 642.624 326.083 642.072 326.515 641.616C326.947 641.16 327.439 640.932 327.991 640.932C328.591 640.932 329.083 641.16 329.467 641.616C329.875 642.072 330.079 642.624 330.079 643.272C330.079 643.92 329.863 644.472 329.431 644.928C328.999 645.36 328.507 645.576 327.955 645.576ZM336.814 645.576C336.262 645.576 335.77 645.36 335.338 644.928C334.93 644.472 334.726 643.92 334.726 643.272C334.726 642.624 334.942 642.072 335.374 641.616C335.806 641.16 336.298 640.932 336.85 640.932C337.45 640.932 337.942 641.16 338.326 641.616C338.734 642.072 338.938 642.624 338.938 643.272C338.938 643.92 338.722 644.472 338.29 644.928C337.858 645.36 337.366 645.576 336.814 645.576ZM345.673 645.576C345.121 645.576 344.629 645.36 344.197 644.928C343.789 644.472 343.585 643.92 343.585 643.272C343.585 642.624 343.801 642.072 344.233 641.616C344.665 641.16 345.157 640.932 345.709 640.932C346.309 640.932 346.801 641.16 347.185 641.616C347.593 642.072 347.797 642.624 347.797 643.272C347.797 643.92 347.581 644.472 347.149 644.928C346.717 645.36 346.225 645.576 345.673 645.576Z" fill="black"/>
<path d="M388.512 625.416L404.532 632.4V634.812L388.512 641.94V639.708L402.084 633.732L388.512 627.72V625.416Z" fill="black"/>
<defs>
<clipPath id="clip0">
<rect width="501" height="400" fill="white" transform="translate(719.5 242)"/>
</clipPath>
<clipPath id="clip1">
<rect width="203" height="200" fill="white" transform="translate(919.5 441)"/>
</clipPath>
<clipPath id="clip2">
<rect width="101" height="100" fill="white" transform="translate(163 359)"/>
</clipPath>
<clipPath id="clip3">
<rect width="101" height="100" fill="white" transform="translate(296 361)"/>
</clipPath>
</defs>
</svg>
